{
	"asset":{
		"generator":"Khronos glTF Blender I/O v5.0.21",
		"version":"2.0"
	},
	"scene":0,
	"scenes":[
		{
			"name":"Scene",
			"nodes":[
				0,
				1,
				2,
				3,
				4,
				5
			]
		}
	],
	"nodes":[
		{
			"mesh":0,
			"name":"Cylinder",
			"translation":[
				65.31891632080078,
				13.315308570861816,
				0
			]
		},
		{
			"mesh":1,
			"name":"Cube",
			"rotation":[
				0,
				0.028244972229003906,
				0,
				0.9996010065078735
			],
			"scale":[
				0.4765206575393677,
				0.7587194442749023,
				0.7587194442749023
			],
			"translation":[
				-46.74736785888672,
				12.223413467407227,
				42.31108856201172
			]
		},
		{
			"mesh":2,
			"name":"Cube.003",
			"rotation":[
				1,
				0,
				0,
				0
			],
			"scale":[
				-29.58604621887207,
				-0.3310129940509796,
				-35.35684585571289
			],
			"translation":[
				0.8215179443359375,
				12.431232452392578,
				0.6456527709960938
			]
		},
		{
			"mesh":3,
			"name":"Cube.007",
			"rotation":[
				0.008510530926287174,
				0.026932312175631523,
				-0.30119115114212036,
				0.9531455039978027
			],
			"scale":[
				0.19115786254405975,
				0.7529639601707458,
				0.4345514476299286
			],
			"translation":[
				4.424721717834473,
				49.721961975097656,
				36.49121856689453
			]
		},
		{
			"mesh":4,
			"name":"Cube.011",
			"rotation":[
				-0.053173892199993134,
				0.010664591565728188,
				0.12038608640432358,
				0.9912446737289429
			],
			"scale":[
				0.3098137676715851,
				0.7811751961708069,
				0.4356805980205536
			],
			"translation":[
				-37.05828094482422,
				21.043031692504883,
				35.127418518066406
			]
		},
		{
			"mesh":5,
			"name":"Cube.008",
			"rotation":[
				-0.1863204687833786,
				-0.5524469614028931,
				-0.7962770462036133,
				0.16133791208267212
			],
			"scale":[
				0.19115784764289856,
				0.7529639601707458,
				0.4345514476299286
			],
			"translation":[
				61.15858459472656,
				55.65839385986328,
				6.229612350463867
			]
		}
	],
	"meshes":[
		{
			"name":"Cylinder",
			"primitives":[
				{
					"attributes":{
						"POSITION":0,
						"NORMAL":1,
						"TEXCOORD_0":2
					},
					"indices":3
				}
			]
		},
		{
			"name":"Cube.001",
			"primitives":[
				{
					"attributes":{
						"POSITION":4,
						"NORMAL":5,
						"TEXCOORD_0":6,
						"TANGENT":7
					},
					"indices":8
				}
			]
		},
		{
			"name":"Cube.006",
			"primitives":[
				{
					"attributes":{
						"POSITION":9,
						"NORMAL":10,
						"TEXCOORD_0":11,
						"TANGENT":12
					},
					"indices":13
				}
			]
		},
		{
			"name":"Cube.088",
			"primitives":[
				{
					"attributes":{
						"POSITION":14,
						"NORMAL":15,
						"TEXCOORD_0":16,
						"TANGENT":17
					},
					"indices":18
				}
			]
		},
		{
			"name":"Cube.092",
			"primitives":[
				{
					"attributes":{
						"POSITION":19,
						"NORMAL":20,
						"TEXCOORD_0":21,
						"TANGENT":22
					},
					"indices":23
				}
			]
		},
		{
			"name":"Cube.093",
			"primitives":[
				{
					"attributes":{
						"POSITION":24,
						"NORMAL":25,
						"TEXCOORD_0":26,
						"TANGENT":27
					},
					"indices":28
				}
			]
		}
	],
	"accessors":[
		{
			"bufferView":0,
			"componentType":5126,
			"count":722,
			"max":[
				1,
				10.918736457824707,
				1
			],
			"min":[
				-1,
				-1,
				-1
			],
			"type":"VEC3"
		},
		{
			"bufferView":1,
			"componentType":5126,
			"count":722,
			"type":"VEC3"
		},
		{
			"bufferView":2,
			"componentType":5126,
			"count":722,
			"type":"VEC2"
		},
		{
			"bufferView":3,
			"componentType":5123,
			"count":3828,
			"type":"SCALAR"
		},
		{
			"bufferView":4,
			"componentType":5126,
			"count":6110,
			"max":[
				214.4609375,
				37.39811706542969,
				0.9976109266281128
			],
			"min":[
				-1,
				-0.0023077919613569975,
				-110.70612335205078
			],
			"type":"VEC3"
		},
		{
			"bufferView":5,
			"componentType":5126,
			"count":6110,
			"type":"VEC3"
		},
		{
			"bufferView":6,
			"componentType":5126,
			"count":6110,
			"type":"VEC2"
		},
		{
			"bufferView":7,
			"componentType":5126,
			"count":6110,
			"type":"VEC4"
		},
		{
			"bufferView":8,
			"componentType":5123,
			"count":10032,
			"type":"SCALAR"
		},
		{
			"bufferView":9,
			"componentType":5126,
			"count":84,
			"max":[
				2.520658016204834,
				1.0000004768371582,
				1.3176040649414062
			],
			"min":[
				-2.3363430500030518,
				-0.9999999403953552,
				-1.3176045417785645
			],
			"type":"VEC3"
		},
		{
			"bufferView":10,
			"componentType":5126,
			"count":84,
			"type":"VEC3"
		},
		{
			"bufferView":11,
			"componentType":5126,
			"count":84,
			"type":"VEC2"
		},
		{
			"bufferView":12,
			"componentType":5126,
			"count":84,
			"type":"VEC4"
		},
		{
			"bufferView":13,
			"componentType":5123,
			"count":228,
			"type":"SCALAR"
		},
		{
			"bufferView":14,
			"componentType":5126,
			"count":6380,
			"max":[
				242.109130859375,
				32.898826599121094,
				27.245054244995117
			],
			"min":[
				-13.426040649414062,
				-12.365921020507812,
				-181.10536193847656
			],
			"type":"VEC3"
		},
		{
			"bufferView":15,
			"componentType":5126,
			"count":6380,
			"type":"VEC3"
		},
		{
			"bufferView":16,
			"componentType":5126,
			"count":6380,
			"type":"VEC2"
		},
		{
			"bufferView":17,
			"componentType":5126,
			"count":6380,
			"type":"VEC4"
		},
		{
			"bufferView":18,
			"componentType":5123,
			"count":10032,
			"type":"SCALAR"
		},
		{
			"bufferView":19,
			"componentType":5126,
			"count":6382,
			"max":[
				225.18011474609375,
				36.16575241088867,
				27.19971466064453
			],
			"min":[
				-10.519462585449219,
				-20.198108673095703,
				-176.62779235839844
			],
			"type":"VEC3"
		},
		{
			"bufferView":20,
			"componentType":5126,
			"count":6382,
			"type":"VEC3"
		},
		{
			"bufferView":21,
			"componentType":5126,
			"count":6382,
			"type":"VEC2"
		},
		{
			"bufferView":22,
			"componentType":5126,
			"count":6382,
			"type":"VEC4"
		},
		{
			"bufferView":23,
			"componentType":5123,
			"count":10032,
			"type":"SCALAR"
		},
		{
			"bufferView":24,
			"componentType":5126,
			"count":6352,
			"max":[
				215.69419860839844,
				54.31418991088867,
				27.245054244995117
			],
			"min":[
				-88.99195861816406,
				-60.87649154663086,
				-141.51336669921875
			],
			"type":"VEC3"
		},
		{
			"bufferView":25,
			"componentType":5126,
			"count":6352,
			"type":"VEC3"
		},
		{
			"bufferView":26,
			"componentType":5126,
			"count":6352,
			"type":"VEC2"
		},
		{
			"bufferView":27,
			"componentType":5126,
			"count":6352,
			"type":"VEC4"
		},
		{
			"bufferView":28,
			"componentType":5123,
			"count":10032,
			"type":"SCALAR"
		}
	],
	"bufferViews":[
		{
			"buffer":0,
			"byteLength":8664,
			"byteOffset":0,
			"target":34962
		},
		{
			"buffer":0,
			"byteLength":8664,
			"byteOffset":8664,
			"target":34962
		},
		{
			"buffer":0,
			"byteLength":5776,
			"byteOffset":17328,
			"target":34962
		},
		{
			"buffer":0,
			"byteLength":7656,
			"byteOffset":23104,
			"target":34963
		},
		{
			"buffer":0,
			"byteLength":73320,
			"byteOffset":30760,
			"target":34962
		},
		{
			"buffer":0,
			"byteLength":73320,
			"byteOffset":104080,
			"target":34962
		},
		{
			"buffer":0,
			"byteLength":48880,
			"byteOffset":177400,
			"target":34962
		},
		{
			"buffer":0,
			"byteLength":97760,
			"byteOffset":226280,
			"target":34962
		},
		{
			"buffer":0,
			"byteLength":20064,
			"byteOffset":324040,
			"target":34963
		},
		{
			"buffer":0,
			"byteLength":1008,
			"byteOffset":344104,
			"target":34962
		},
		{
			"buffer":0,
			"byteLength":1008,
			"byteOffset":345112,
			"target":34962
		},
		{
			"buffer":0,
			"byteLength":672,
			"byteOffset":346120,
			"target":34962
		},
		{
			"buffer":0,
			"byteLength":1344,
			"byteOffset":346792,
			"target":34962
		},
		{
			"buffer":0,
			"byteLength":456,
			"byteOffset":348136,
			"target":34963
		},
		{
			"buffer":0,
			"byteLength":76560,
			"byteOffset":348592,
			"target":34962
		},
		{
			"buffer":0,
			"byteLength":76560,
			"byteOffset":425152,
			"target":34962
		},
		{
			"buffer":0,
			"byteLength":51040,
			"byteOffset":501712,
			"target":34962
		},
		{
			"buffer":0,
			"byteLength":102080,
			"byteOffset":552752,
			"target":34962
		},
		{
			"buffer":0,
			"byteLength":20064,
			"byteOffset":654832,
			"target":34963
		},
		{
			"buffer":0,
			"byteLength":76584,
			"byteOffset":674896,
			"target":34962
		},
		{
			"buffer":0,
			"byteLength":76584,
			"byteOffset":751480,
			"target":34962
		},
		{
			"buffer":0,
			"byteLength":51056,
			"byteOffset":828064,
			"target":34962
		},
		{
			"buffer":0,
			"byteLength":102112,
			"byteOffset":879120,
			"target":34962
		},
		{
			"buffer":0,
			"byteLength":20064,
			"byteOffset":981232,
			"target":34963
		},
		{
			"buffer":0,
			"byteLength":76224,
			"byteOffset":1001296,
			"target":34962
		},
		{
			"buffer":0,
			"byteLength":76224,
			"byteOffset":1077520,
			"target":34962
		},
		{
			"buffer":0,
			"byteLength":50816,
			"byteOffset":1153744,
			"target":34962
		},
		{
			"buffer":0,
			"byteLength":101632,
			"byteOffset":1204560,
			"target":34962
		},
		{
			"buffer":0,
			"byteLength":20064,
			"byteOffset":1306192,
			"target":34963
		}
	],
	"buffers":[
		{
			"byteLength":1326256,
			"uri":"Arena-19ad0019f3a091df1404ca610218a3b7.bin"
		}
	]
}
