{
	"asset":{
		"generator":"Khronos glTF Blender I/O v5.0.21",
		"version":"2.0"
	},
	"scene":0,
	"scenes":[
		{
			"extras":{
				"uuid":"5018d6dc-456c-45d8-a6bd-507c8cc7db8c",
				"assets reported":{}
			},
			"name":"Scene",
			"nodes":[
				0,
				1,
				2,
				3,
				4
			]
		}
	],
	"nodes":[
		{
			"mesh":0,
			"name":"Maze ground",
			"scale":[
				23.885478973388672,
				16.498016357421875,
				23.885478973388672
			],
			"translation":[
				0,
				-8.797571182250977,
				7.496370792388916
			]
		},
		{
			"mesh":1,
			"name":"Church ground",
			"scale":[
				23.885478973388672,
				16.498016357421875,
				23.885478973388672
			],
			"translation":[
				0,
				-8.797571182250977,
				7.496370792388916
			]
		},
		{
			"mesh":2,
			"name":"Graveyard ground",
			"scale":[
				23.885478973388672,
				16.498016357421875,
				23.885478973388672
			],
			"translation":[
				0,
				-8.797571182250977,
				7.496370792388916
			]
		},
		{
			"mesh":3,
			"name":"Concert hall ground",
			"scale":[
				23.885478973388672,
				16.498016357421875,
				23.885478973388672
			],
			"translation":[
				0,
				-8.797571182250977,
				7.496370792388916
			]
		},
		{
			"mesh":4,
			"name":"Gate ground",
			"scale":[
				23.885478973388672,
				16.498016357421875,
				23.885478973388672
			],
			"translation":[
				0,
				-8.797571182250977,
				7.496370792388916
			]
		}
	],
	"materials":[
		{
			"doubleSided":true,
			"name":"Material.001",
			"normalTexture":{
				"index":0
			},
			"pbrMetallicRoughness":{
				"baseColorTexture":{
					"index":1
				},
				"metallicFactor":0
			}
		},
		{
			"doubleSided":true,
			"name":"Material.002",
			"normalTexture":{
				"index":2
			},
			"pbrMetallicRoughness":{
				"baseColorTexture":{
					"index":3
				},
				"metallicFactor":0
			}
		}
	],
	"meshes":[
		{
			"name":"Plane.002",
			"primitives":[
				{
					"attributes":{
						"POSITION":0,
						"NORMAL":1,
						"TEXCOORD_0":2,
						"TANGENT":3
					},
					"indices":4,
					"material":0
				}
			]
		},
		{
			"name":"Plane.001",
			"primitives":[
				{
					"attributes":{
						"POSITION":5,
						"NORMAL":6,
						"TEXCOORD_0":7,
						"TANGENT":8
					},
					"indices":9,
					"material":0
				}
			]
		},
		{
			"name":"Plane.003",
			"primitives":[
				{
					"attributes":{
						"POSITION":10,
						"NORMAL":11,
						"TEXCOORD_0":12,
						"TANGENT":13
					},
					"indices":14,
					"material":0
				}
			]
		},
		{
			"name":"Plane.004",
			"primitives":[
				{
					"attributes":{
						"POSITION":15,
						"NORMAL":16,
						"TEXCOORD_0":17,
						"TANGENT":18
					},
					"indices":19,
					"material":1
				}
			]
		},
		{
			"name":"Plane.005",
			"primitives":[
				{
					"attributes":{
						"POSITION":20,
						"NORMAL":21,
						"TEXCOORD_0":22,
						"TANGENT":23
					},
					"indices":24,
					"material":0
				}
			]
		}
	],
	"textures":[
		{
			"sampler":0,
			"source":0
		},
		{
			"sampler":0,
			"source":1
		},
		{
			"sampler":0,
			"source":2
		},
		{
			"sampler":0,
			"source":3
		}
	],
	"images":[
		{
			"mimeType":"image/png",
			"name":"Ground_Normal",
			"uri":"../../textures/ground/Ground_Normal.png"
		},
		{
			"mimeType":"image/png",
			"name":"Ground_Albedo",
			"uri":"../../textures/ground/Ground_Albedo.png"
		},
		{
			"mimeType":"image/png",
			"name":"Ground_Normal.001",
			"uri":"../../textures/ground/Ground_Normal.png"
		},
		{
			"mimeType":"image/png",
			"name":"Ground_Albedo.001",
			"uri":"../../textures/ground/Ground_Albedo.png"
		}
	],
	"accessors":[
		{
			"bufferView":0,
			"componentType":5126,
			"count":638,
			"max":[
				9.0677490234375,
				0.21492882072925568,
				3.0157363414764404
			],
			"min":[
				0.3878047466278076,
				-1.305827021598816,
				-9.188385963439941
			],
			"type":"VEC3"
		},
		{
			"bufferView":1,
			"componentType":5126,
			"count":638,
			"type":"VEC3"
		},
		{
			"bufferView":2,
			"componentType":5126,
			"count":638,
			"type":"VEC2"
		},
		{
			"bufferView":3,
			"componentType":5126,
			"count":638,
			"type":"VEC4"
		},
		{
			"bufferView":4,
			"componentType":5123,
			"count":3480,
			"type":"SCALAR"
		},
		{
			"bufferView":5,
			"componentType":5126,
			"count":537,
			"max":[
				9.06767749786377,
				0.04733716696500778,
				9.000003814697266
			],
			"min":[
				0.7098194360733032,
				-1.1083348989486694,
				-0.3950178027153015
			],
			"type":"VEC3"
		},
		{
			"bufferView":6,
			"componentType":5126,
			"count":537,
			"type":"VEC3"
		},
		{
			"bufferView":7,
			"componentType":5126,
			"count":537,
			"type":"VEC2"
		},
		{
			"bufferView":8,
			"componentType":5126,
			"count":537,
			"type":"VEC4"
		},
		{
			"bufferView":9,
			"componentType":5123,
			"count":2928,
			"type":"SCALAR"
		},
		{
			"bufferView":10,
			"componentType":5126,
			"count":671,
			"max":[
				0.9229817986488342,
				0.5035120844841003,
				3.100792646408081
			],
			"min":[
				-9.012744903564453,
				-0.7648355960845947,
				-9.101408004760742
			],
			"type":"VEC3"
		},
		{
			"bufferView":11,
			"componentType":5126,
			"count":671,
			"type":"VEC3"
		},
		{
			"bufferView":12,
			"componentType":5126,
			"count":671,
			"type":"VEC2"
		},
		{
			"bufferView":13,
			"componentType":5126,
			"count":671,
			"type":"VEC4"
		},
		{
			"bufferView":14,
			"componentType":5123,
			"count":3648,
			"type":"SCALAR"
		},
		{
			"bufferView":15,
			"componentType":5126,
			"count":525,
			"max":[
				3.9508249759674072,
				0.35051247477531433,
				9.188385963439941
			],
			"min":[
				-9.030156135559082,
				-0.4543043076992035,
				2.7264456748962402
			],
			"type":"VEC3"
		},
		{
			"bufferView":16,
			"componentType":5126,
			"count":525,
			"type":"VEC3"
		},
		{
			"bufferView":17,
			"componentType":5126,
			"count":525,
			"type":"VEC2"
		},
		{
			"bufferView":18,
			"componentType":5126,
			"count":525,
			"type":"VEC4"
		},
		{
			"bufferView":19,
			"componentType":5123,
			"count":2838,
			"type":"SCALAR"
		},
		{
			"bufferView":20,
			"componentType":5126,
			"count":289,
			"max":[
				-3.8610763549804688,
				0.7602280378341675,
				3.036013603210449
			],
			"min":[
				-9.0677490234375,
				-0.4543043076992035,
				-4.627264499664307
			],
			"type":"VEC3"
		},
		{
			"bufferView":21,
			"componentType":5126,
			"count":289,
			"type":"VEC3"
		},
		{
			"bufferView":22,
			"componentType":5126,
			"count":289,
			"type":"VEC2"
		},
		{
			"bufferView":23,
			"componentType":5126,
			"count":289,
			"type":"VEC4"
		},
		{
			"bufferView":24,
			"componentType":5123,
			"count":1512,
			"type":"SCALAR"
		}
	],
	"bufferViews":[
		{
			"buffer":0,
			"byteLength":7656,
			"byteOffset":0,
			"target":34962
		},
		{
			"buffer":0,
			"byteLength":7656,
			"byteOffset":7656,
			"target":34962
		},
		{
			"buffer":0,
			"byteLength":5104,
			"byteOffset":15312,
			"target":34962
		},
		{
			"buffer":0,
			"byteLength":10208,
			"byteOffset":20416,
			"target":34962
		},
		{
			"buffer":0,
			"byteLength":6960,
			"byteOffset":30624,
			"target":34963
		},
		{
			"buffer":0,
			"byteLength":6444,
			"byteOffset":37584,
			"target":34962
		},
		{
			"buffer":0,
			"byteLength":6444,
			"byteOffset":44028,
			"target":34962
		},
		{
			"buffer":0,
			"byteLength":4296,
			"byteOffset":50472,
			"target":34962
		},
		{
			"buffer":0,
			"byteLength":8592,
			"byteOffset":54768,
			"target":34962
		},
		{
			"buffer":0,
			"byteLength":5856,
			"byteOffset":63360,
			"target":34963
		},
		{
			"buffer":0,
			"byteLength":8052,
			"byteOffset":69216,
			"target":34962
		},
		{
			"buffer":0,
			"byteLength":8052,
			"byteOffset":77268,
			"target":34962
		},
		{
			"buffer":0,
			"byteLength":5368,
			"byteOffset":85320,
			"target":34962
		},
		{
			"buffer":0,
			"byteLength":10736,
			"byteOffset":90688,
			"target":34962
		},
		{
			"buffer":0,
			"byteLength":7296,
			"byteOffset":101424,
			"target":34963
		},
		{
			"buffer":0,
			"byteLength":6300,
			"byteOffset":108720,
			"target":34962
		},
		{
			"buffer":0,
			"byteLength":6300,
			"byteOffset":115020,
			"target":34962
		},
		{
			"buffer":0,
			"byteLength":4200,
			"byteOffset":121320,
			"target":34962
		},
		{
			"buffer":0,
			"byteLength":8400,
			"byteOffset":125520,
			"target":34962
		},
		{
			"buffer":0,
			"byteLength":5676,
			"byteOffset":133920,
			"target":34963
		},
		{
			"buffer":0,
			"byteLength":3468,
			"byteOffset":139596,
			"target":34962
		},
		{
			"buffer":0,
			"byteLength":3468,
			"byteOffset":143064,
			"target":34962
		},
		{
			"buffer":0,
			"byteLength":2312,
			"byteOffset":146532,
			"target":34962
		},
		{
			"buffer":0,
			"byteLength":4624,
			"byteOffset":148844,
			"target":34962
		},
		{
			"buffer":0,
			"byteLength":3024,
			"byteOffset":153468,
			"target":34963
		}
	],
	"samplers":[
		{
			"magFilter":9729,
			"minFilter":9987
		}
	],
	"buffers":[
		{
			"byteLength":156492,
			"uri":"Blocking-e31002deaf15a3a8f0d04d6a9aad32e7.bin"
		}
	]
}
