{
	"asset":{
		"generator":"Khronos glTF Blender I/O v5.0.21",
		"version":"2.0"
	},
	"scene":0,
	"scenes":[
		{
			"extras":{
				"uuid":"eb02d52d-79ba-44d9-a6cb-302551c9e3d2",
				"assets reported":{},
				"assets used":{}
			},
			"name":"Scene",
			"nodes":[
				0,
				1
			]
		}
	],
	"nodes":[
		{
			"mesh":0,
			"name":"RetopoFlow_Baked",
			"rotation":[
				0.7071068286895752,
				0,
				0,
				0.7071068286895752
			],
			"scale":[
				13.396973609924316,
				13.396973609924316,
				13.396973609924316
			],
			"translation":[
				0,
				-0.9199998378753662,
				0
			]
		},
		{
			"mesh":1,
			"name":"RetopoFlow_Baked.001",
			"rotation":[
				0.7071068286895752,
				0,
				0,
				0.7071068286895752
			],
			"scale":[
				13.396973609924316,
				13.396973609924316,
				13.396973609924316
			],
			"translation":[
				0,
				-2.8999996185302734,
				0
			]
		}
	],
	"materials":[
		{
			"doubleSided":true,
			"name":"RetopoFlow_Baked",
			"normalTexture":{
				"index":0
			},
			"pbrMetallicRoughness":{
				"baseColorTexture":{
					"index":1
				},
				"metallicFactor":0,
				"metallicRoughnessTexture":{
					"index":2
				}
			}
		}
	],
	"meshes":[
		{
			"name":"RetopoFlow_Baked",
			"primitives":[
				{
					"attributes":{
						"POSITION":0,
						"NORMAL":1,
						"TEXCOORD_0":2,
						"TANGENT":3
					},
					"indices":4,
					"material":0
				}
			]
		},
		{
			"name":"RetopoFlow_Baked.001",
			"primitives":[
				{
					"attributes":{
						"POSITION":5,
						"NORMAL":6,
						"TEXCOORD_0":7,
						"TANGENT":8
					},
					"indices":9,
					"material":0
				}
			]
		}
	],
	"textures":[
		{
			"sampler":0,
			"source":0
		},
		{
			"sampler":0,
			"source":1
		},
		{
			"sampler":0,
			"source":2
		}
	],
	"images":[
		{
			"mimeType":"image/jpeg",
			"name":"bell_normal.jpg",
			"uri":"../../models/textures/bell_normal.jpg"
		},
		{
			"mimeType":"image/jpeg",
			"name":"bell_baseColor.jpg",
			"uri":"../../models/textures/bell_baseColor.jpg"
		},
		{
			"mimeType":"image/jpeg",
			"name":"bell_roughness.jpg",
			"uri":"../../models/textures/bell_roughness.jpg"
		}
	],
	"accessors":[
		{
			"bufferView":0,
			"componentType":5126,
			"count":3036,
			"max":[
				0.18643899261951447,
				0.18746298551559448,
				0.4178432822227478
			],
			"min":[
				-0.18177199363708496,
				-0.1885170191526413,
				-0.09953473508358002
			],
			"type":"VEC3"
		},
		{
			"bufferView":1,
			"componentType":5126,
			"count":3036,
			"type":"VEC3"
		},
		{
			"bufferView":2,
			"componentType":5126,
			"count":3036,
			"type":"VEC2"
		},
		{
			"bufferView":3,
			"componentType":5126,
			"count":3036,
			"type":"VEC4"
		},
		{
			"bufferView":4,
			"componentType":5123,
			"count":4494,
			"type":"SCALAR"
		},
		{
			"bufferView":5,
			"componentType":5126,
			"count":3236,
			"max":[
				0.029032999649643898,
				0.03547799214720726,
				0.3465237021446228
			],
			"min":[
				-0.046966999769210815,
				-0.03839200735092163,
				-0.013007298111915588
			],
			"type":"VEC3"
		},
		{
			"bufferView":6,
			"componentType":5126,
			"count":3236,
			"type":"VEC3"
		},
		{
			"bufferView":7,
			"componentType":5126,
			"count":3236,
			"type":"VEC2"
		},
		{
			"bufferView":8,
			"componentType":5126,
			"count":3236,
			"type":"VEC4"
		},
		{
			"bufferView":9,
			"componentType":5123,
			"count":4848,
			"type":"SCALAR"
		}
	],
	"bufferViews":[
		{
			"buffer":0,
			"byteLength":36432,
			"byteOffset":0,
			"target":34962
		},
		{
			"buffer":0,
			"byteLength":36432,
			"byteOffset":36432,
			"target":34962
		},
		{
			"buffer":0,
			"byteLength":24288,
			"byteOffset":72864,
			"target":34962
		},
		{
			"buffer":0,
			"byteLength":48576,
			"byteOffset":97152,
			"target":34962
		},
		{
			"buffer":0,
			"byteLength":8988,
			"byteOffset":145728,
			"target":34963
		},
		{
			"buffer":0,
			"byteLength":38832,
			"byteOffset":154716,
			"target":34962
		},
		{
			"buffer":0,
			"byteLength":38832,
			"byteOffset":193548,
			"target":34962
		},
		{
			"buffer":0,
			"byteLength":25888,
			"byteOffset":232380,
			"target":34962
		},
		{
			"buffer":0,
			"byteLength":51776,
			"byteOffset":258268,
			"target":34962
		},
		{
			"buffer":0,
			"byteLength":9696,
			"byteOffset":310044,
			"target":34963
		}
	],
	"samplers":[
		{
			"magFilter":9729,
			"minFilter":9987
		}
	],
	"buffers":[
		{
			"byteLength":319740,
			"uri":"churchBell-1fa8209db1903ec4e0fb7e552af4d6bb.bin"
		}
	]
}
