{
	"asset":{
		"generator":"Khronos glTF Blender I/O v5.0.21",
		"version":"2.0"
	},
	"scene":0,
	"scenes":[
		{
			"extras":{
				"uuid":"eb02d52d-79ba-44d9-a6cb-302551c9e3d2",
				"assets reported":{}
			},
			"name":"Scene",
			"nodes":[
				0,
				1,
				2,
				3,
				4,
				5,
				6,
				7,
				8,
				9,
				10,
				11,
				12,
				13,
				14,
				15,
				16,
				17
			]
		}
	],
	"nodes":[
		{
			"mesh":0,
			"name":"parapets big building",
			"scale":[
				0.20301192998886108,
				0.35962021350860596,
				0.1314830332994461
			],
			"translation":[
				-2.3911242485046387,
				4.814225673675537,
				2.214327573776245
			]
		},
		{
			"mesh":1,
			"name":"big pillars",
			"scale":[
				0.30564743280410767,
				4.056657791137695,
				0.30564743280410767
			],
			"translation":[
				-2.728478193283081,
				1.2591767311096191,
				2.4405770301818848
			]
		},
		{
			"mesh":2,
			"name":"parapets front building",
			"scale":[
				1.5495295524597168,
				1,
				1.1735241413116455
			],
			"translation":[
				7.171939849853516,
				2.180985927581787,
				0
			]
		},
		{
			"mesh":3,
			"name":"parapets front building side",
			"rotation":[
				0,
				0.7071068286895752,
				0,
				0.7071068286895752
			],
			"scale":[
				1.5612651109695435,
				1,
				1.1735241413116455
			],
			"translation":[
				5.8715925216674805,
				2.180985927581787,
				1.3039157390594482
			]
		},
		{
			"mesh":4,
			"name":"little pillars",
			"scale":[
				0.30564743280410767,
				4.056657791137695,
				0.30564743280410767
			],
			"translation":[
				7.368671894073486,
				0.08258536458015442,
				1.5423158407211304
			]
		},
		{
			"mesh":5,
			"name":"roof",
			"translation":[
				0,
				2.3693511486053467,
				0
			]
		},
		{
			"mesh":6,
			"name":"walls lr",
			"translation":[
				0,
				2.3693511486053467,
				0
			]
		},
		{
			"mesh":7,
			"name":"topper",
			"scale":[
				0.34541240334510803,
				0.34541240334510803,
				0.34541240334510803
			],
			"translation":[
				5.11748743057251,
				6.435091972351074,
				0
			]
		},
		{
			"mesh":8,
			"name":"wall front",
			"translation":[
				5,
				4.241755485534668,
				0
			]
		},
		{
			"mesh":9,
			"name":"walls lr front building",
			"scale":[
				1,
				1,
				0.06003350019454956
			],
			"translation":[
				6.584444522857666,
				1.047828197479248,
				1.5014334917068481
			]
		},
		{
			"mesh":10,
			"name":"ceiling roof front building",
			"scale":[
				0.7861140966415405,
				0.03917015716433525,
				1.4272387027740479
			],
			"translation":[
				6.297152996063232,
				2.0971338748931885,
				0
			]
		},
		{
			"mesh":11,
			"name":"wall front front building",
			"scale":[
				0.09146791696548462,
				1.1701301336288452,
				1.3896888494491577
			],
			"translation":[
				7.298763275146484,
				0.8881595730781555,
				0
			]
		},
		{
			"mesh":12,
			"name":"topper point",
			"rotation":[
				0,
				0.1950903683900833,
				0,
				0.9807853698730469
			],
			"scale":[
				1.1003535985946655,
				1.1003535985946655,
				1.1003535985946655
			],
			"translation":[
				5.11748743057251,
				7.446595191955566,
				0
			]
		},
		{
			"mesh":13,
			"name":"ceiling interior",
			"translation":[
				0,
				1.8395742177963257,
				0
			]
		},
		{
			"mesh":14,
			"name":"Cube.007",
			"rotation":[
				0,
				0.09801716357469559,
				0,
				0.9951847195625305
			],
			"translation":[
				-6.119531631469727,
				4.347431182861328,
				0
			]
		},
		{
			"mesh":15,
			"name":"Cube.008",
			"rotation":[
				0,
				0.09801716357469559,
				0,
				0.9951847195625305
			],
			"translation":[
				-6.119531631469727,
				9.807160377502441,
				0
			]
		},
		{
			"mesh":16,
			"name":"Cube.009",
			"scale":[
				1,
				1,
				3.105398654937744
			],
			"translation":[
				-6.119531631469727,
				10.430533409118652,
				0
			]
		},
		{
			"mesh":17,
			"name":"big round part",
			"scale":[
				3.277479410171509,
				3.421170711517334,
				3.277479410171509
			],
			"translation":[
				-6.119531631469727,
				3.421170711517334,
				0
			]
		}
	],
	"meshes":[
		{
			"name":"Cube.016",
			"primitives":[
				{
					"attributes":{
						"POSITION":0,
						"NORMAL":1,
						"TEXCOORD_0":2
					},
					"indices":3
				}
			]
		},
		{
			"name":"Cylinder.001",
			"primitives":[
				{
					"attributes":{
						"POSITION":4,
						"NORMAL":5,
						"TEXCOORD_0":6,
						"TANGENT":7
					},
					"indices":8
				}
			]
		},
		{
			"name":"Cube.006",
			"primitives":[
				{
					"attributes":{
						"POSITION":9,
						"NORMAL":10,
						"TEXCOORD_0":11,
						"TANGENT":12
					},
					"indices":13
				}
			]
		},
		{
			"name":"Cube.009",
			"primitives":[
				{
					"attributes":{
						"POSITION":14,
						"NORMAL":15,
						"TEXCOORD_0":16,
						"TANGENT":17
					},
					"indices":18
				}
			]
		},
		{
			"name":"Cylinder.002",
			"primitives":[
				{
					"attributes":{
						"POSITION":19,
						"NORMAL":20,
						"TEXCOORD_0":21,
						"TANGENT":22
					},
					"indices":23
				}
			]
		},
		{
			"name":"Cube.015",
			"primitives":[
				{
					"attributes":{
						"POSITION":24,
						"NORMAL":25,
						"TEXCOORD_0":26
					},
					"indices":27
				}
			]
		},
		{
			"name":"Cube.018",
			"primitives":[
				{
					"attributes":{
						"POSITION":28,
						"NORMAL":29,
						"TEXCOORD_0":30
					},
					"indices":31
				}
			]
		},
		{
			"name":"Cube.017",
			"primitives":[
				{
					"attributes":{
						"POSITION":32,
						"NORMAL":33,
						"TEXCOORD_0":34
					},
					"indices":35
				}
			]
		},
		{
			"name":"Cube.019",
			"primitives":[
				{
					"attributes":{
						"POSITION":36,
						"NORMAL":37,
						"TEXCOORD_0":38
					},
					"indices":39
				}
			]
		},
		{
			"name":"Cube.021",
			"primitives":[
				{
					"attributes":{
						"POSITION":40,
						"NORMAL":41,
						"TEXCOORD_0":42
					},
					"indices":43
				}
			]
		},
		{
			"name":"Cube.022",
			"primitives":[
				{
					"attributes":{
						"POSITION":44,
						"NORMAL":45,
						"TEXCOORD_0":46,
						"TANGENT":47
					},
					"indices":48
				}
			]
		},
		{
			"name":"Cube.023",
			"primitives":[
				{
					"attributes":{
						"POSITION":49,
						"NORMAL":50,
						"TEXCOORD_0":51
					},
					"indices":52
				}
			]
		},
		{
			"name":"Cylinder.003",
			"primitives":[
				{
					"attributes":{
						"POSITION":53,
						"NORMAL":54,
						"TEXCOORD_0":55
					},
					"indices":56
				}
			]
		},
		{
			"name":"Cube.027",
			"primitives":[
				{
					"attributes":{
						"POSITION":57,
						"NORMAL":58,
						"TEXCOORD_0":59,
						"TANGENT":60
					},
					"indices":61
				}
			]
		},
		{
			"name":"Cube.024",
			"primitives":[
				{
					"attributes":{
						"POSITION":62,
						"NORMAL":63,
						"TEXCOORD_0":64
					},
					"indices":65
				}
			]
		},
		{
			"name":"Cube.025",
			"primitives":[
				{
					"attributes":{
						"POSITION":66,
						"NORMAL":67,
						"TEXCOORD_0":68
					},
					"indices":69
				}
			]
		},
		{
			"name":"Cube.026",
			"primitives":[
				{
					"attributes":{
						"POSITION":70,
						"NORMAL":71,
						"TEXCOORD_0":72,
						"TANGENT":73
					},
					"indices":74
				}
			]
		},
		{
			"name":"Cylinder",
			"primitives":[
				{
					"attributes":{
						"POSITION":75,
						"NORMAL":76,
						"TEXCOORD_0":77
					},
					"indices":78
				}
			]
		}
	],
	"accessors":[
		{
			"bufferView":0,
			"componentType":5126,
			"count":2520,
			"max":[
				37.993743896484375,
				1.2698725461959839,
				1.000000238418579
			],
			"min":[
				-0.4117960035800934,
				-1,
				-34.68233108520508
			],
			"type":"VEC3"
		},
		{
			"bufferView":1,
			"componentType":5126,
			"count":2520,
			"type":"VEC3"
		},
		{
			"bufferView":2,
			"componentType":5126,
			"count":2520,
			"type":"VEC2"
		},
		{
			"bufferView":3,
			"componentType":5123,
			"count":5040,
			"type":"SCALAR"
		},
		{
			"bufferView":4,
			"componentType":5126,
			"count":2465,
			"max":[
				28.280025482177734,
				1.3871773481369019,
				1.1840226650238037
			],
			"min":[
				-1.1840219497680664,
				-0.31039756536483765,
				-17.153905868530273
			],
			"type":"VEC3"
		},
		{
			"bufferView":5,
			"componentType":5126,
			"count":2465,
			"type":"VEC3"
		},
		{
			"bufferView":6,
			"componentType":5126,
			"count":2465,
			"type":"VEC2"
		},
		{
			"bufferView":7,
			"componentType":5126,
			"count":2465,
			"type":"VEC4"
		},
		{
			"bufferView":8,
			"componentType":5123,
			"count":4800,
			"type":"SCALAR"
		},
		{
			"bufferView":9,
			"componentType":5126,
			"count":435,
			"max":[
				0.09200818836688995,
				0.2485218644142151,
				1.2222222089767456
			],
			"min":[
				-0.08184647560119629,
				-0.04134321212768555,
				-1.2222222089767456
			],
			"type":"VEC3"
		},
		{
			"bufferView":10,
			"componentType":5126,
			"count":435,
			"type":"VEC3"
		},
		{
			"bufferView":11,
			"componentType":5126,
			"count":435,
			"type":"VEC2"
		},
		{
			"bufferView":12,
			"componentType":5126,
			"count":435,
			"type":"VEC4"
		},
		{
			"bufferView":13,
			"componentType":5123,
			"count":924,
			"type":"SCALAR"
		},
		{
			"bufferView":14,
			"componentType":5126,
			"count":204,
			"max":[
				1.75217866897583,
				0.21401238441467285,
				1
			],
			"min":[
				-0.08184647560119629,
				-0.04134321212768555,
				-0.3333333730697632
			],
			"type":"VEC3"
		},
		{
			"bufferView":15,
			"componentType":5126,
			"count":204,
			"type":"VEC3"
		},
		{
			"bufferView":16,
			"componentType":5126,
			"count":204,
			"type":"VEC2"
		},
		{
			"bufferView":17,
			"componentType":5126,
			"count":204,
			"type":"VEC4"
		},
		{
			"bufferView":18,
			"componentType":5123,
			"count":432,
			"type":"SCALAR"
		},
		{
			"bufferView":19,
			"componentType":5126,
			"count":636,
			"max":[
				1.3064706325531006,
				0.8362954258918762,
				1.3064688444137573
			],
			"min":[
				-1.3064693212509155,
				-0.020357966423034668,
				-11.398591995239258
			],
			"type":"VEC3"
		},
		{
			"bufferView":20,
			"componentType":5126,
			"count":636,
			"type":"VEC3"
		},
		{
			"bufferView":21,
			"componentType":5126,
			"count":636,
			"type":"VEC2"
		},
		{
			"bufferView":22,
			"componentType":5126,
			"count":636,
			"type":"VEC4"
		},
		{
			"bufferView":23,
			"componentType":5123,
			"count":1200,
			"type":"SCALAR"
		},
		{
			"bufferView":24,
			"componentType":5126,
			"count":130,
			"max":[
				5.703197956085205,
				3.969697952270508,
				2.3917253017425537
			],
			"min":[
				-2.476285219192505,
				2.3693511486053467,
				-2.3917253017425537
			],
			"type":"VEC3"
		},
		{
			"bufferView":25,
			"componentType":5126,
			"count":130,
			"type":"VEC3"
		},
		{
			"bufferView":26,
			"componentType":5126,
			"count":130,
			"type":"VEC2"
		},
		{
			"bufferView":27,
			"componentType":5123,
			"count":228,
			"type":"SCALAR"
		},
		{
			"bufferView":28,
			"componentType":5126,
			"count":3330,
			"max":[
				5.5533447265625,
				2.603170156478882,
				2.4308459758758545
			],
			"min":[
				-2.7942559719085693,
				-2.3693511486053467,
				-2.4308459758758545
			],
			"type":"VEC3"
		},
		{
			"bufferView":29,
			"componentType":5126,
			"count":3330,
			"type":"VEC3"
		},
		{
			"bufferView":30,
			"componentType":5126,
			"count":3330,
			"type":"VEC2"
		},
		{
			"bufferView":31,
			"componentType":5123,
			"count":6846,
			"type":"SCALAR"
		},
		{
			"bufferView":32,
			"componentType":5126,
			"count":752,
			"max":[
				1.1479624509811401,
				2.8631668090820312,
				1.1479624509811401
			],
			"min":[
				-1.1479624509811401,
				-1,
				-1.1479624509811401
			],
			"type":"VEC3"
		},
		{
			"bufferView":33,
			"componentType":5126,
			"count":752,
			"type":"VEC3"
		},
		{
			"bufferView":34,
			"componentType":5126,
			"count":752,
			"type":"VEC2"
		},
		{
			"bufferView":35,
			"componentType":5123,
			"count":1524,
			"type":"SCALAR"
		},
		{
			"bufferView":36,
			"componentType":5126,
			"count":1214,
			"max":[
				0.5844444036483765,
				2.028461456298828,
				2.3693511486053467
			],
			"min":[
				0.4355076849460602,
				-4.19392728805542,
				-2.3693511486053467
			],
			"type":"VEC3"
		},
		{
			"bufferView":37,
			"componentType":5126,
			"count":1214,
			"type":"VEC3"
		},
		{
			"bufferView":38,
			"componentType":5126,
			"count":1214,
			"type":"VEC2"
		},
		{
			"bufferView":39,
			"componentType":5123,
			"count":2472,
			"type":"SCALAR"
		},
		{
			"bufferView":40,
			"componentType":5126,
			"count":2496,
			"max":[
				0.6915520429611206,
				1.0918145179748535,
				1
			],
			"min":[
				-1,
				-1,
				-51.01985549926758
			],
			"type":"VEC3"
		},
		{
			"bufferView":41,
			"componentType":5126,
			"count":2496,
			"type":"VEC3"
		},
		{
			"bufferView":42,
			"componentType":5126,
			"count":2496,
			"type":"VEC2"
		},
		{
			"bufferView":43,
			"componentType":5123,
			"count":4980,
			"type":"SCALAR"
		},
		{
			"bufferView":44,
			"componentType":5126,
			"count":24,
			"max":[
				1.2741281986236572,
				0.9999998807907104,
				1.020261526107788
			],
			"min":[
				-1,
				-0.9999999403953552,
				-1.020261526107788
			],
			"type":"VEC3"
		},
		{
			"bufferView":45,
			"componentType":5126,
			"count":24,
			"type":"VEC3"
		},
		{
			"bufferView":46,
			"componentType":5126,
			"count":24,
			"type":"VEC2"
		},
		{
			"bufferView":47,
			"componentType":5126,
			"count":24,
			"type":"VEC4"
		},
		{
			"bufferView":48,
			"componentType":5123,
			"count":36,
			"type":"SCALAR"
		},
		{
			"bufferView":49,
			"componentType":5126,
			"count":424,
			"max":[
				1,
				1,
				1
			],
			"min":[
				-1,
				-0.7590263485908508,
				-1
			],
			"type":"VEC3"
		},
		{
			"bufferView":50,
			"componentType":5126,
			"count":424,
			"type":"VEC3"
		},
		{
			"bufferView":51,
			"componentType":5126,
			"count":424,
			"type":"VEC2"
		},
		{
			"bufferView":52,
			"componentType":5123,
			"count":876,
			"type":"SCALAR"
		},
		{
			"bufferView":53,
			"componentType":5126,
			"count":48,
			"max":[
				0.3400000333786011,
				0.6362590789794922,
				0.3400000333786011
			],
			"min":[
				-0.3400000333786011,
				-0.5800000429153442,
				-0.3400000333786011
			],
			"type":"VEC3"
		},
		{
			"bufferView":54,
			"componentType":5126,
			"count":48,
			"type":"VEC3"
		},
		{
			"bufferView":55,
			"componentType":5126,
			"count":48,
			"type":"VEC2"
		},
		{
			"bufferView":56,
			"componentType":5123,
			"count":84,
			"type":"SCALAR"
		},
		{
			"bufferView":57,
			"componentType":5126,
			"count":8,
			"max":[
				5.553345203399658,
				3.969697952270508,
				2.3693511486053467
			],
			"min":[
				-3.0095746517181396,
				2.438183307647705,
				-2.3693511486053467
			],
			"type":"VEC3"
		},
		{
			"bufferView":58,
			"componentType":5126,
			"count":8,
			"type":"VEC3"
		},
		{
			"bufferView":59,
			"componentType":5126,
			"count":8,
			"type":"VEC2"
		},
		{
			"bufferView":60,
			"componentType":5126,
			"count":8,
			"type":"VEC4"
		},
		{
			"bufferView":61,
			"componentType":5123,
			"count":12,
			"type":"SCALAR"
		},
		{
			"bufferView":62,
			"componentType":5126,
			"count":840,
			"max":[
				3.823328733444214,
				0.0729590505361557,
				4.077508449554443
			],
			"min":[
				-4.077508449554443,
				-0.07295884191989899,
				-4.077508449554443
			],
			"type":"VEC3"
		},
		{
			"bufferView":63,
			"componentType":5126,
			"count":840,
			"type":"VEC3"
		},
		{
			"bufferView":64,
			"componentType":5126,
			"count":840,
			"type":"VEC2"
		},
		{
			"bufferView":65,
			"componentType":5123,
			"count":1512,
			"type":"SCALAR"
		},
		{
			"bufferView":66,
			"componentType":5126,
			"count":1984,
			"max":[
				3.359508752822876,
				0.0729590505361557,
				3.359508752822876
			],
			"min":[
				-3.359508752822876,
				-0.07295884191989899,
				-3.359508752822876
			],
			"type":"VEC3"
		},
		{
			"bufferView":67,
			"componentType":5126,
			"count":1984,
			"type":"VEC3"
		},
		{
			"bufferView":68,
			"componentType":5126,
			"count":1984,
			"type":"VEC2"
		},
		{
			"bufferView":69,
			"componentType":5123,
			"count":3648,
			"type":"SCALAR"
		},
		{
			"bufferView":70,
			"componentType":5126,
			"count":96,
			"max":[
				0.08200129121541977,
				0.08200129121541977,
				0.9783518314361572
			],
			"min":[
				-0.08200129121541977,
				-0.08200129121541977,
				-0.9783518314361572
			],
			"type":"VEC3"
		},
		{
			"bufferView":71,
			"componentType":5126,
			"count":96,
			"type":"VEC3"
		},
		{
			"bufferView":72,
			"componentType":5126,
			"count":96,
			"type":"VEC2"
		},
		{
			"bufferView":73,
			"componentType":5126,
			"count":96,
			"type":"VEC4"
		},
		{
			"bufferView":74,
			"componentType":5123,
			"count":156,
			"type":"SCALAR"
		},
		{
			"bufferView":75,
			"componentType":5126,
			"count":14723,
			"max":[
				1.2589616775512695,
				3.0050852298736572,
				1.2589616775512695
			],
			"min":[
				-1.2589616775512695,
				-1,
				-1.2589616775512695
			],
			"type":"VEC3"
		},
		{
			"bufferView":76,
			"componentType":5126,
			"count":14723,
			"type":"VEC3"
		},
		{
			"bufferView":77,
			"componentType":5126,
			"count":14723,
			"type":"VEC2"
		},
		{
			"bufferView":78,
			"componentType":5123,
			"count":27744,
			"type":"SCALAR"
		}
	],
	"bufferViews":[
		{
			"buffer":0,
			"byteLength":30240,
			"byteOffset":0,
			"target":34962
		},
		{
			"buffer":0,
			"byteLength":30240,
			"byteOffset":30240,
			"target":34962
		},
		{
			"buffer":0,
			"byteLength":20160,
			"byteOffset":60480,
			"target":34962
		},
		{
			"buffer":0,
			"byteLength":10080,
			"byteOffset":80640,
			"target":34963
		},
		{
			"buffer":0,
			"byteLength":29580,
			"byteOffset":90720,
			"target":34962
		},
		{
			"buffer":0,
			"byteLength":29580,
			"byteOffset":120300,
			"target":34962
		},
		{
			"buffer":0,
			"byteLength":19720,
			"byteOffset":149880,
			"target":34962
		},
		{
			"buffer":0,
			"byteLength":39440,
			"byteOffset":169600,
			"target":34962
		},
		{
			"buffer":0,
			"byteLength":9600,
			"byteOffset":209040,
			"target":34963
		},
		{
			"buffer":0,
			"byteLength":5220,
			"byteOffset":218640,
			"target":34962
		},
		{
			"buffer":0,
			"byteLength":5220,
			"byteOffset":223860,
			"target":34962
		},
		{
			"buffer":0,
			"byteLength":3480,
			"byteOffset":229080,
			"target":34962
		},
		{
			"buffer":0,
			"byteLength":6960,
			"byteOffset":232560,
			"target":34962
		},
		{
			"buffer":0,
			"byteLength":1848,
			"byteOffset":239520,
			"target":34963
		},
		{
			"buffer":0,
			"byteLength":2448,
			"byteOffset":241368,
			"target":34962
		},
		{
			"buffer":0,
			"byteLength":2448,
			"byteOffset":243816,
			"target":34962
		},
		{
			"buffer":0,
			"byteLength":1632,
			"byteOffset":246264,
			"target":34962
		},
		{
			"buffer":0,
			"byteLength":3264,
			"byteOffset":247896,
			"target":34962
		},
		{
			"buffer":0,
			"byteLength":864,
			"byteOffset":251160,
			"target":34963
		},
		{
			"buffer":0,
			"byteLength":7632,
			"byteOffset":252024,
			"target":34962
		},
		{
			"buffer":0,
			"byteLength":7632,
			"byteOffset":259656,
			"target":34962
		},
		{
			"buffer":0,
			"byteLength":5088,
			"byteOffset":267288,
			"target":34962
		},
		{
			"buffer":0,
			"byteLength":10176,
			"byteOffset":272376,
			"target":34962
		},
		{
			"buffer":0,
			"byteLength":2400,
			"byteOffset":282552,
			"target":34963
		},
		{
			"buffer":0,
			"byteLength":1560,
			"byteOffset":284952,
			"target":34962
		},
		{
			"buffer":0,
			"byteLength":1560,
			"byteOffset":286512,
			"target":34962
		},
		{
			"buffer":0,
			"byteLength":1040,
			"byteOffset":288072,
			"target":34962
		},
		{
			"buffer":0,
			"byteLength":456,
			"byteOffset":289112,
			"target":34963
		},
		{
			"buffer":0,
			"byteLength":39960,
			"byteOffset":289568,
			"target":34962
		},
		{
			"buffer":0,
			"byteLength":39960,
			"byteOffset":329528,
			"target":34962
		},
		{
			"buffer":0,
			"byteLength":26640,
			"byteOffset":369488,
			"target":34962
		},
		{
			"buffer":0,
			"byteLength":13692,
			"byteOffset":396128,
			"target":34963
		},
		{
			"buffer":0,
			"byteLength":9024,
			"byteOffset":409820,
			"target":34962
		},
		{
			"buffer":0,
			"byteLength":9024,
			"byteOffset":418844,
			"target":34962
		},
		{
			"buffer":0,
			"byteLength":6016,
			"byteOffset":427868,
			"target":34962
		},
		{
			"buffer":0,
			"byteLength":3048,
			"byteOffset":433884,
			"target":34963
		},
		{
			"buffer":0,
			"byteLength":14568,
			"byteOffset":436932,
			"target":34962
		},
		{
			"buffer":0,
			"byteLength":14568,
			"byteOffset":451500,
			"target":34962
		},
		{
			"buffer":0,
			"byteLength":9712,
			"byteOffset":466068,
			"target":34962
		},
		{
			"buffer":0,
			"byteLength":4944,
			"byteOffset":475780,
			"target":34963
		},
		{
			"buffer":0,
			"byteLength":29952,
			"byteOffset":480724,
			"target":34962
		},
		{
			"buffer":0,
			"byteLength":29952,
			"byteOffset":510676,
			"target":34962
		},
		{
			"buffer":0,
			"byteLength":19968,
			"byteOffset":540628,
			"target":34962
		},
		{
			"buffer":0,
			"byteLength":9960,
			"byteOffset":560596,
			"target":34963
		},
		{
			"buffer":0,
			"byteLength":288,
			"byteOffset":570556,
			"target":34962
		},
		{
			"buffer":0,
			"byteLength":288,
			"byteOffset":570844,
			"target":34962
		},
		{
			"buffer":0,
			"byteLength":192,
			"byteOffset":571132,
			"target":34962
		},
		{
			"buffer":0,
			"byteLength":384,
			"byteOffset":571324,
			"target":34962
		},
		{
			"buffer":0,
			"byteLength":72,
			"byteOffset":571708,
			"target":34963
		},
		{
			"buffer":0,
			"byteLength":5088,
			"byteOffset":571780,
			"target":34962
		},
		{
			"buffer":0,
			"byteLength":5088,
			"byteOffset":576868,
			"target":34962
		},
		{
			"buffer":0,
			"byteLength":3392,
			"byteOffset":581956,
			"target":34962
		},
		{
			"buffer":0,
			"byteLength":1752,
			"byteOffset":585348,
			"target":34963
		},
		{
			"buffer":0,
			"byteLength":576,
			"byteOffset":587100,
			"target":34962
		},
		{
			"buffer":0,
			"byteLength":576,
			"byteOffset":587676,
			"target":34962
		},
		{
			"buffer":0,
			"byteLength":384,
			"byteOffset":588252,
			"target":34962
		},
		{
			"buffer":0,
			"byteLength":168,
			"byteOffset":588636,
			"target":34963
		},
		{
			"buffer":0,
			"byteLength":96,
			"byteOffset":588804,
			"target":34962
		},
		{
			"buffer":0,
			"byteLength":96,
			"byteOffset":588900,
			"target":34962
		},
		{
			"buffer":0,
			"byteLength":64,
			"byteOffset":588996,
			"target":34962
		},
		{
			"buffer":0,
			"byteLength":128,
			"byteOffset":589060,
			"target":34962
		},
		{
			"buffer":0,
			"byteLength":24,
			"byteOffset":589188,
			"target":34963
		},
		{
			"buffer":0,
			"byteLength":10080,
			"byteOffset":589212,
			"target":34962
		},
		{
			"buffer":0,
			"byteLength":10080,
			"byteOffset":599292,
			"target":34962
		},
		{
			"buffer":0,
			"byteLength":6720,
			"byteOffset":609372,
			"target":34962
		},
		{
			"buffer":0,
			"byteLength":3024,
			"byteOffset":616092,
			"target":34963
		},
		{
			"buffer":0,
			"byteLength":23808,
			"byteOffset":619116,
			"target":34962
		},
		{
			"buffer":0,
			"byteLength":23808,
			"byteOffset":642924,
			"target":34962
		},
		{
			"buffer":0,
			"byteLength":15872,
			"byteOffset":666732,
			"target":34962
		},
		{
			"buffer":0,
			"byteLength":7296,
			"byteOffset":682604,
			"target":34963
		},
		{
			"buffer":0,
			"byteLength":1152,
			"byteOffset":689900,
			"target":34962
		},
		{
			"buffer":0,
			"byteLength":1152,
			"byteOffset":691052,
			"target":34962
		},
		{
			"buffer":0,
			"byteLength":768,
			"byteOffset":692204,
			"target":34962
		},
		{
			"buffer":0,
			"byteLength":1536,
			"byteOffset":692972,
			"target":34962
		},
		{
			"buffer":0,
			"byteLength":312,
			"byteOffset":694508,
			"target":34963
		},
		{
			"buffer":0,
			"byteLength":176676,
			"byteOffset":694820,
			"target":34962
		},
		{
			"buffer":0,
			"byteLength":176676,
			"byteOffset":871496,
			"target":34962
		},
		{
			"buffer":0,
			"byteLength":117784,
			"byteOffset":1048172,
			"target":34962
		},
		{
			"buffer":0,
			"byteLength":55488,
			"byteOffset":1165956,
			"target":34963
		}
	],
	"buffers":[
		{
			"byteLength":1221444,
			"uri":"churchBAKED1.0-47ebcd4f675209e9270f1dbcdfa26fd6.bin"
		}
	]
}
