{
	"asset":{
		"generator":"Khronos glTF Blender I/O v5.0.21",
		"version":"2.0"
	},
	"scene":0,
	"scenes":[
		{
			"extras":{
				"uuid":"eb02d52d-79ba-44d9-a6cb-302551c9e3d2",
				"assets reported":{}
			},
			"name":"Scene",
			"nodes":[
				0,
				1,
				2,
				3,
				4,
				5,
				6,
				7,
				8
			]
		}
	],
	"nodes":[
		{
			"mesh":0,
			"name":"Plane",
			"scale":[
				8.184605598449707,
				10,
				4.587347984313965
			]
		},
		{
			"mesh":1,
			"name":"Cylinder",
			"scale":[
				3.277479410171509,
				3.421170711517334,
				3.277479410171509
			],
			"translation":[
				-6.119531631469727,
				3.421170711517334,
				0
			]
		},
		{
			"name":"reflection point origin"
		},
		{
			"mesh":2,
			"name":"big pillars",
			"scale":[
				0.30564743280410767,
				4.056657791137695,
				0.30564743280410767
			],
			"translation":[
				-2.728478193283081,
				1.2591767311096191,
				2.4405770301818848
			]
		},
		{
			"mesh":3,
			"name":"front parapets",
			"scale":[
				1.5495295524597168,
				1,
				1.1735241413116455
			],
			"translation":[
				7.171939849853516,
				2.180985927581787,
				0
			]
		},
		{
			"mesh":4,
			"name":"little pillars",
			"scale":[
				0.30564743280410767,
				4.056657791137695,
				0.30564743280410767
			],
			"translation":[
				7.368671894073486,
				0.08258536458015442,
				1.5423158407211304
			]
		},
		{
			"mesh":5,
			"name":"front parapets side",
			"rotation":[
				0,
				0.7071068286895752,
				0,
				0.7071068286895752
			],
			"scale":[
				1.5612651109695435,
				1,
				1.1735241413116455
			],
			"translation":[
				5.8715925216674805,
				2.180985927581787,
				1.3039157390594482
			]
		},
		{
			"mesh":6,
			"name":"main church building BAKED",
			"scale":[
				4.56436014175415,
				2.3693511486053467,
				2.3693511486053467
			],
			"translation":[
				0,
				2.3693511486053467,
				0
			]
		},
		{
			"mesh":7,
			"name":"front door building BAKED",
			"scale":[
				1.5423158407211304,
				1,
				1.5423158407211304
			],
			"translation":[
				5.826355934143066,
				1,
				0
			]
		}
	],
	"meshes":[
		{
			"name":"Plane",
			"primitives":[
				{
					"attributes":{
						"POSITION":0,
						"NORMAL":1,
						"TEXCOORD_0":2,
						"TANGENT":3
					},
					"indices":4
				}
			]
		},
		{
			"name":"Cylinder",
			"primitives":[
				{
					"attributes":{
						"POSITION":5,
						"NORMAL":6,
						"TEXCOORD_0":7
					},
					"indices":8
				}
			]
		},
		{
			"name":"Cylinder.001",
			"primitives":[
				{
					"attributes":{
						"POSITION":9,
						"NORMAL":10,
						"TEXCOORD_0":11,
						"TANGENT":12
					},
					"indices":13
				}
			]
		},
		{
			"name":"Cube.006",
			"primitives":[
				{
					"attributes":{
						"POSITION":14,
						"NORMAL":15,
						"TEXCOORD_0":16,
						"TANGENT":17
					},
					"indices":18
				}
			]
		},
		{
			"name":"Cylinder.002",
			"primitives":[
				{
					"attributes":{
						"POSITION":19,
						"NORMAL":20,
						"TEXCOORD_0":21,
						"TANGENT":22
					},
					"indices":23
				}
			]
		},
		{
			"name":"Cube.009",
			"primitives":[
				{
					"attributes":{
						"POSITION":24,
						"NORMAL":25,
						"TEXCOORD_0":26,
						"TANGENT":27
					},
					"indices":28
				}
			]
		},
		{
			"name":"Cube.012",
			"primitives":[
				{
					"attributes":{
						"POSITION":29,
						"NORMAL":30,
						"TEXCOORD_0":31
					},
					"indices":32
				}
			]
		},
		{
			"name":"Cube.014",
			"primitives":[
				{
					"attributes":{
						"POSITION":33,
						"NORMAL":34,
						"TEXCOORD_0":35
					},
					"indices":36
				}
			]
		}
	],
	"accessors":[
		{
			"bufferView":0,
			"componentType":5126,
			"count":24,
			"max":[
				1.019883394241333,
				0,
				1
			],
			"min":[
				-1.2496858835220337,
				-0.16375532746315002,
				-1
			],
			"type":"VEC3"
		},
		{
			"bufferView":1,
			"componentType":5126,
			"count":24,
			"type":"VEC3"
		},
		{
			"bufferView":2,
			"componentType":5126,
			"count":24,
			"type":"VEC2"
		},
		{
			"bufferView":3,
			"componentType":5126,
			"count":24,
			"type":"VEC4"
		},
		{
			"bufferView":4,
			"componentType":5123,
			"count":36,
			"type":"SCALAR"
		},
		{
			"bufferView":5,
			"componentType":5126,
			"count":621,
			"max":[
				1.2216038703918457,
				2.865894079208374,
				1.2216038703918457
			],
			"min":[
				-1.2216038703918457,
				-1,
				-1.2216038703918457
			],
			"type":"VEC3"
		},
		{
			"bufferView":6,
			"componentType":5126,
			"count":621,
			"type":"VEC3"
		},
		{
			"bufferView":7,
			"componentType":5126,
			"count":621,
			"type":"VEC2"
		},
		{
			"bufferView":8,
			"componentType":5123,
			"count":2484,
			"type":"SCALAR"
		},
		{
			"bufferView":9,
			"componentType":5126,
			"count":2740,
			"max":[
				28.280025482177734,
				1.3871773481369019,
				1.1840226650238037
			],
			"min":[
				-1.1840219497680664,
				-0.46609628200531006,
				-17.153907775878906
			],
			"type":"VEC3"
		},
		{
			"bufferView":10,
			"componentType":5126,
			"count":2740,
			"type":"VEC3"
		},
		{
			"bufferView":11,
			"componentType":5126,
			"count":2740,
			"type":"VEC2"
		},
		{
			"bufferView":12,
			"componentType":5126,
			"count":2740,
			"type":"VEC4"
		},
		{
			"bufferView":13,
			"componentType":5123,
			"count":5760,
			"type":"SCALAR"
		},
		{
			"bufferView":14,
			"componentType":5126,
			"count":435,
			"max":[
				0.09200818836688995,
				0.2485218644142151,
				1.2222222089767456
			],
			"min":[
				-0.08184647560119629,
				-0.04134321212768555,
				-1.2222222089767456
			],
			"type":"VEC3"
		},
		{
			"bufferView":15,
			"componentType":5126,
			"count":435,
			"type":"VEC3"
		},
		{
			"bufferView":16,
			"componentType":5126,
			"count":435,
			"type":"VEC2"
		},
		{
			"bufferView":17,
			"componentType":5126,
			"count":435,
			"type":"VEC4"
		},
		{
			"bufferView":18,
			"componentType":5123,
			"count":924,
			"type":"SCALAR"
		},
		{
			"bufferView":19,
			"componentType":5126,
			"count":718,
			"max":[
				1.3064706325531006,
				0.8362954258918762,
				1.3064688444137573
			],
			"min":[
				-1.3064693212509155,
				-0.30531811714172363,
				-11.398592948913574
			],
			"type":"VEC3"
		},
		{
			"bufferView":20,
			"componentType":5126,
			"count":718,
			"type":"VEC3"
		},
		{
			"bufferView":21,
			"componentType":5126,
			"count":718,
			"type":"VEC2"
		},
		{
			"bufferView":22,
			"componentType":5126,
			"count":718,
			"type":"VEC4"
		},
		{
			"bufferView":23,
			"componentType":5123,
			"count":1440,
			"type":"SCALAR"
		},
		{
			"bufferView":24,
			"componentType":5126,
			"count":224,
			"max":[
				1.75217866897583,
				0.21401238441467285,
				1
			],
			"min":[
				-0.08184647560119629,
				-0.04134321212768555,
				-0.5555555820465088
			],
			"type":"VEC3"
		},
		{
			"bufferView":25,
			"componentType":5126,
			"count":224,
			"type":"VEC3"
		},
		{
			"bufferView":26,
			"componentType":5126,
			"count":224,
			"type":"VEC2"
		},
		{
			"bufferView":27,
			"componentType":5126,
			"count":224,
			"type":"VEC4"
		},
		{
			"bufferView":28,
			"componentType":5123,
			"count":480,
			"type":"SCALAR"
		},
		{
			"bufferView":29,
			"componentType":5126,
			"count":3998,
			"max":[
				1.2166755199432373,
				1.646385669708252,
				1.0481407642364502
			],
			"min":[
				-1,
				-1.0000001192092896,
				-1.0481407642364502
			],
			"type":"VEC3"
		},
		{
			"bufferView":30,
			"componentType":5126,
			"count":3998,
			"type":"VEC3"
		},
		{
			"bufferView":31,
			"componentType":5126,
			"count":3998,
			"type":"VEC2"
		},
		{
			"bufferView":32,
			"componentType":5123,
			"count":11580,
			"type":"SCALAR"
		},
		{
			"bufferView":33,
			"componentType":5126,
			"count":94,
			"max":[
				1,
				1.1396427154541016,
				1
			],
			"min":[
				-0.6989861726760864,
				-1,
				-1
			],
			"type":"VEC3"
		},
		{
			"bufferView":34,
			"componentType":5126,
			"count":94,
			"type":"VEC3"
		},
		{
			"bufferView":35,
			"componentType":5126,
			"count":94,
			"type":"VEC2"
		},
		{
			"bufferView":36,
			"componentType":5123,
			"count":204,
			"type":"SCALAR"
		}
	],
	"bufferViews":[
		{
			"buffer":0,
			"byteLength":288,
			"byteOffset":0,
			"target":34962
		},
		{
			"buffer":0,
			"byteLength":288,
			"byteOffset":288,
			"target":34962
		},
		{
			"buffer":0,
			"byteLength":192,
			"byteOffset":576,
			"target":34962
		},
		{
			"buffer":0,
			"byteLength":384,
			"byteOffset":768,
			"target":34962
		},
		{
			"buffer":0,
			"byteLength":72,
			"byteOffset":1152,
			"target":34963
		},
		{
			"buffer":0,
			"byteLength":7452,
			"byteOffset":1224,
			"target":34962
		},
		{
			"buffer":0,
			"byteLength":7452,
			"byteOffset":8676,
			"target":34962
		},
		{
			"buffer":0,
			"byteLength":4968,
			"byteOffset":16128,
			"target":34962
		},
		{
			"buffer":0,
			"byteLength":4968,
			"byteOffset":21096,
			"target":34963
		},
		{
			"buffer":0,
			"byteLength":32880,
			"byteOffset":26064,
			"target":34962
		},
		{
			"buffer":0,
			"byteLength":32880,
			"byteOffset":58944,
			"target":34962
		},
		{
			"buffer":0,
			"byteLength":21920,
			"byteOffset":91824,
			"target":34962
		},
		{
			"buffer":0,
			"byteLength":43840,
			"byteOffset":113744,
			"target":34962
		},
		{
			"buffer":0,
			"byteLength":11520,
			"byteOffset":157584,
			"target":34963
		},
		{
			"buffer":0,
			"byteLength":5220,
			"byteOffset":169104,
			"target":34962
		},
		{
			"buffer":0,
			"byteLength":5220,
			"byteOffset":174324,
			"target":34962
		},
		{
			"buffer":0,
			"byteLength":3480,
			"byteOffset":179544,
			"target":34962
		},
		{
			"buffer":0,
			"byteLength":6960,
			"byteOffset":183024,
			"target":34962
		},
		{
			"buffer":0,
			"byteLength":1848,
			"byteOffset":189984,
			"target":34963
		},
		{
			"buffer":0,
			"byteLength":8616,
			"byteOffset":191832,
			"target":34962
		},
		{
			"buffer":0,
			"byteLength":8616,
			"byteOffset":200448,
			"target":34962
		},
		{
			"buffer":0,
			"byteLength":5744,
			"byteOffset":209064,
			"target":34962
		},
		{
			"buffer":0,
			"byteLength":11488,
			"byteOffset":214808,
			"target":34962
		},
		{
			"buffer":0,
			"byteLength":2880,
			"byteOffset":226296,
			"target":34963
		},
		{
			"buffer":0,
			"byteLength":2688,
			"byteOffset":229176,
			"target":34962
		},
		{
			"buffer":0,
			"byteLength":2688,
			"byteOffset":231864,
			"target":34962
		},
		{
			"buffer":0,
			"byteLength":1792,
			"byteOffset":234552,
			"target":34962
		},
		{
			"buffer":0,
			"byteLength":3584,
			"byteOffset":236344,
			"target":34962
		},
		{
			"buffer":0,
			"byteLength":960,
			"byteOffset":239928,
			"target":34963
		},
		{
			"buffer":0,
			"byteLength":47976,
			"byteOffset":240888,
			"target":34962
		},
		{
			"buffer":0,
			"byteLength":47976,
			"byteOffset":288864,
			"target":34962
		},
		{
			"buffer":0,
			"byteLength":31984,
			"byteOffset":336840,
			"target":34962
		},
		{
			"buffer":0,
			"byteLength":23160,
			"byteOffset":368824,
			"target":34963
		},
		{
			"buffer":0,
			"byteLength":1128,
			"byteOffset":391984,
			"target":34962
		},
		{
			"buffer":0,
			"byteLength":1128,
			"byteOffset":393112,
			"target":34962
		},
		{
			"buffer":0,
			"byteLength":752,
			"byteOffset":394240,
			"target":34962
		},
		{
			"buffer":0,
			"byteLength":408,
			"byteOffset":394992,
			"target":34963
		}
	],
	"buffers":[
		{
			"byteLength":395400,
			"uri":"church-736b64b5f4609686a793a338c1c1153f.bin"
		}
	]
}
