{
	"asset":{
		"generator":"Khronos glTF Blender I/O v5.0.21",
		"version":"2.0"
	},
	"extensionsUsed":[
		"KHR_materials_transmission",
		"KHR_materials_ior"
	],
	"scene":0,
	"scenes":[
		{
			"extras":{
				"uuid":"eb02d52d-79ba-44d9-a6cb-302551c9e3d2",
				"assets reported":{
					"fc0f0d15-013a-4420-a780-82ff40f8999f":true
				},
				"assets used":{
					"fc0f0d15-013a-4420-a780-82ff40f8999f":{
						"access":"free",
						"accessLabel":"Free",
						"addonVersion":"3.15.1",
						"assetBaseId":"fc0f0d15-013a-4420-a780-82ff40f8999f",
						"assetType":"material",
						"author":{
							"aboutMe":"3D Artist who likes 3d modeling and procedural Stuff.",
							"aboutMeUrl":"https://www.artstation.com/abdlrhmanmohamed",
							"avatar128":"/avatar-redirect/6bb894a9-dd91-4721-91b6-02a84a0aae24/128/",
							"firstName":"Abdelrahman",
							"fullName":"Abdelrahman Mohamed",
							"gravatarHash":"cdb26029dfa4bbe44428e86a2e1c52a2",
							"id":"43881",
							"lastName":"Mohamed"
						},
						"available_resolutions":[
							512,
							1024,
							2048,
							4096
						],
						"basePrice":"",
						"canDownload":true,
						"canDownloadError":true,
						"category":"glass",
						"created":"2025-06-28T15:14:44.355980+02:00",
						"description":"Old Stained Glass Window Material made in Substance Designer / Rendered in Blender using Cycles / Quality : 4K",
						"dictParameters":{
							"addons":true,
							"animated":false,
							"engine":"cycles",
							"joinBlenderkitDiscounts":true,
							"materialStyle":"realistic",
							"megapixels":96,
							"nodeCount":15,
							"pbrType":"metallic",
							"platforms":[
								"windows-x64",
								"macos-arm64",
								"linux-x64",
								"macos-x64",
								"windows-arm64"
							],
							"procedural":false,
							"purePbr":true,
							"sexualizedContent":false,
							"shaders":[
								"[principled]"
							],
							"textureCount":6,
							"textureResolutionMax":4096,
							"textureResolutionMin":4096,
							"textureSizeMeters":4,
							"uv":true
						},
						"displayName":"Old Stained Glass Window",
						"downloaded":0,
						"files":[
							{
								"created":"2025-06-28T15:19:32.189120+02:00",
								"downloadUrl":"https://www.blenderkit.com/api/v1/downloads/727356/",
								"fileThumbnail":"",
								"fileThumbnailLarge":"",
								"fileType":"blend",
								"fileUploadSize":76504863,
								"filename":"assets/f57e7f6ac105412693a6e4bbebc096ec/files/blend_a02cde96-42a9-4159-bda4-185c95441572.blend",
								"modified":"2025-06-28T15:19:32.189134+02:00",
								"resolution":0,
								"thumbnailMiddleUrl":"",
								"thumbnailSmallUrl":"",
								"url":""
							},
							{
								"created":"2025-07-01T13:04:01.117019+02:00",
								"downloadUrl":"https://www.blenderkit.com/api/v1/downloads/730130/",
								"fileThumbnail":"",
								"fileThumbnailLarge":"",
								"fileType":"resolution_0_5K",
								"fileUploadSize":633250,
								"filename":"assets/f57e7f6ac105412693a6e4bbebc096ec/files/resolution_0_5K_d7671cc9-a1cf-4edd-8c84-9f437a6627fc.blend",
								"modified":"2025-07-01T13:04:01.117033+02:00",
								"resolution":0,
								"thumbnailMiddleUrl":"",
								"thumbnailSmallUrl":"",
								"url":""
							},
							{
								"created":"2025-07-01T13:04:00.550897+02:00",
								"downloadUrl":"https://www.blenderkit.com/api/v1/downloads/730129/",
								"fileThumbnail":"",
								"fileThumbnailLarge":"",
								"fileType":"resolution_1K",
								"fileUploadSize":1697300,
								"filename":"assets/f57e7f6ac105412693a6e4bbebc096ec/files/resolution_1K_42c0e76f-cb81-417f-b64b-8a05c55c74cf.blend",
								"modified":"2025-07-01T13:04:00.550909+02:00",
								"resolution":0,
								"thumbnailMiddleUrl":"",
								"thumbnailSmallUrl":"",
								"url":""
							},
							{
								"created":"2025-07-01T13:03:59.879406+02:00",
								"downloadUrl":"https://www.blenderkit.com/api/v1/downloads/730128/",
								"fileThumbnail":"",
								"fileThumbnailLarge":"",
								"fileType":"resolution_2K",
								"fileUploadSize":4723441,
								"filename":"assets/f57e7f6ac105412693a6e4bbebc096ec/files/resolution_2K_4ea1b3c1-01e6-4666-86b8-532f72a745d8.blend",
								"modified":"2025-07-01T13:03:59.879420+02:00",
								"resolution":0,
								"thumbnailMiddleUrl":"",
								"thumbnailSmallUrl":"",
								"url":"https://assets.blenderkit.com/assets/f57e7f6ac105412693a6e4bbebc096ec/files/resolution_2K_4ea1b3c1-01e6-4666-86b8-532f72a745d8.blend?verify=1780339061-nSUmuXuJQNpcGPacTK07SmimAPwwDAzU5fGJUHH5itE%3D",
								"file_name":"/Users/Evan/Desktop/assets/materials/old-stained-glas_f57e7f6a-c105-4126-93a6-e4bbebc096ec/old-stained-glass-window_2K_4ea1b3c1-01e6-4666-86b8-532f72a745d8.blend"
							},
							{
								"created":"2025-07-01T13:03:59.265167+02:00",
								"downloadUrl":"https://www.blenderkit.com/api/v1/downloads/730127/",
								"fileThumbnail":"",
								"fileThumbnailLarge":"",
								"fileType":"resolution_4K",
								"fileUploadSize":14247271,
								"filename":"assets/f57e7f6ac105412693a6e4bbebc096ec/files/resolution_4K_c1316ade-3937-4b16-bf08-275b3a62a302.blend",
								"modified":"2025-07-01T13:03:59.265180+02:00",
								"resolution":0,
								"thumbnailMiddleUrl":"",
								"thumbnailSmallUrl":"",
								"url":""
							},
							{
								"created":"2025-06-28T15:15:06.442554+02:00",
								"downloadUrl":"https://www.blenderkit.com/api/v1/downloads/727355/",
								"fileThumbnail":"https://public.blenderkit.com/thumbnails/assets/f57e7f6ac105412693a6e4bbebc096ec/files/thumbnail_7309b43b-4247-41e4-bccb-28ffaed69426.png.96x96_q85_crop-%2C.png",
								"fileThumbnailLarge":"https://public.blenderkit.com/thumbnails/assets/f57e7f6ac105412693a6e4bbebc096ec/files/thumbnail_7309b43b-4247-41e4-bccb-28ffaed69426.png.1024x1024_q85_crop-%2C.png",
								"fileType":"thumbnail",
								"fileUploadSize":6483396,
								"filename":"assets/f57e7f6ac105412693a6e4bbebc096ec/files/thumbnail_7309b43b-4247-41e4-bccb-28ffaed69426.png",
								"modified":"2025-12-23T03:44:41.008276+01:00",
								"resolution":0,
								"thumbnailMiddleUrl":"https://public.blenderkit.com/thumbnails/assets/f57e7f6ac105412693a6e4bbebc096ec/files/thumbnail_7309b43b-4247-41e4-bccb-28ffaed69426.png.512x512_q85_crop-%2C.png",
								"thumbnailSmallUrl":"https://public.blenderkit.com/thumbnails/assets/f57e7f6ac105412693a6e4bbebc096ec/files/thumbnail_7309b43b-4247-41e4-bccb-28ffaed69426.png.256x256_q85_crop-%2C.png",
								"url":""
							}
						],
						"filesSize":101845,
						"id":"f57e7f6a-c105-4126-93a6-e4bbebc096ec",
						"isForSale":false,
						"isFree":true,
						"isPrivate":false,
						"lastAnimatedThumbnailUpload":null,
						"lastBlendUpload":"2025-06-28T13:19:32.189120+00:00",
						"lastGltfGodotUpload":null,
						"lastGltfUpload":null,
						"lastPhotoThumbnailUpload":null,
						"lastResolutionUpload":"2025-07-01T11:04:01.117019+00:00",
						"lastThumbnailUpload":"2025-06-28T13:15:06.442554+00:00",
						"lastUserInteraction":"2025-06-28T15:19:32.609977+02:00",
						"lastVideoUpload":null,
						"lastZipFileUpload":"",
						"license":"royalty_free",
						"max_resolution":4096,
						"name":"Old Stained Glass Window",
						"pk":158155,
						"ratingsAverage":{
							"bookmarks":0.9761904761904762,
							"quality":8,
							"virtualPrice":null,
							"workingHours":3
						},
						"ratingsCount":{
							"bookmarks":168,
							"quality":1,
							"virtualPrice":0,
							"workingHours":1
						},
						"ratingsMedian":{
							"bookmarks":1,
							"quality":8,
							"virtualPrice":null,
							"workingHours":3
						},
						"ratingsSum":{
							"bookmarks":164,
							"quality":8,
							"score":240,
							"virtualPrice":null,
							"workingHours":3
						},
						"score":240,
						"showMarketingLabels":true,
						"sourceAppName":"blender",
						"sourceAppVersion":"4.4.3",
						"tags":[
							"glass",
							"window",
							"old",
							"classic",
							"church",
							"gothic",
							"stainedglass"
						],
						"texture_size_meters":4,
						"thumbnail":"thumbnail_7309b43b-4247-41e4-bccb-28ffaed69426.png.512x512_q85_crop-%2C.png.webp",
						"thumbnailLargeUrl":"https://public.blenderkit.com/thumbnails/assets/f57e7f6ac105412693a6e4bbebc096ec/files/thumbnail_7309b43b-4247-41e4-bccb-28ffaed69426.png.1024x1024_q85_crop-%2C.png",
						"thumbnailLargeUrlNonsquared":"https://public.blenderkit.com/thumbnails/assets/f57e7f6ac105412693a6e4bbebc096ec/files/thumbnail_7309b43b-4247-41e4-bccb-28ffaed69426.png.1024x1024_q85.png",
						"thumbnailLargeUrlNonsquaredWebp":"https://public.blenderkit.com/thumbnails/assets/f57e7f6ac105412693a6e4bbebc096ec/files/thumbnail_7309b43b-4247-41e4-bccb-28ffaed69426.png.1024x1024_q85.png.webp?webp_generated=1766658599",
						"thumbnailLargeUrlWebp":"https://public.blenderkit.com/thumbnails/assets/f57e7f6ac105412693a6e4bbebc096ec/files/thumbnail_7309b43b-4247-41e4-bccb-28ffaed69426.png.1024x1024_q85_crop-%2C.png.webp?webp_generated=1766658599",
						"thumbnailMiddleUrl":"https://public.blenderkit.com/thumbnails/assets/f57e7f6ac105412693a6e4bbebc096ec/files/thumbnail_7309b43b-4247-41e4-bccb-28ffaed69426.png.512x512_q85_crop-%2C.png",
						"thumbnailMiddleUrlNonsquared":"https://public.blenderkit.com/thumbnails/assets/f57e7f6ac105412693a6e4bbebc096ec/files/thumbnail_7309b43b-4247-41e4-bccb-28ffaed69426.png.512x512_q85.png",
						"thumbnailMiddleUrlNonsquaredWebp":"https://public.blenderkit.com/thumbnails/assets/f57e7f6ac105412693a6e4bbebc096ec/files/thumbnail_7309b43b-4247-41e4-bccb-28ffaed69426.png.512x512_q85.png.webp?webp_generated=1766658599",
						"thumbnailMiddleUrlWebp":"https://public.blenderkit.com/thumbnails/assets/f57e7f6ac105412693a6e4bbebc096ec/files/thumbnail_7309b43b-4247-41e4-bccb-28ffaed69426.png.512x512_q85_crop-%2C.png.webp?webp_generated=1766658599",
						"thumbnailSmallUrl":"https://public.blenderkit.com/thumbnails/assets/f57e7f6ac105412693a6e4bbebc096ec/files/thumbnail_7309b43b-4247-41e4-bccb-28ffaed69426.png.256x256_q85_crop-%2C.png",
						"thumbnailSmallUrlNonsquared":"https://public.blenderkit.com/thumbnails/assets/f57e7f6ac105412693a6e4bbebc096ec/files/thumbnail_7309b43b-4247-41e4-bccb-28ffaed69426.png.256x256_q85.png",
						"thumbnailSmallUrlNonsquaredWebp":"https://public.blenderkit.com/thumbnails/assets/f57e7f6ac105412693a6e4bbebc096ec/files/thumbnail_7309b43b-4247-41e4-bccb-28ffaed69426.png.256x256_q85.png.webp?webp_generated=1766658599",
						"thumbnailSmallUrlWebp":"https://public.blenderkit.com/thumbnails/assets/f57e7f6ac105412693a6e4bbebc096ec/files/thumbnail_7309b43b-4247-41e4-bccb-28ffaed69426.png.256x256_q85_crop-%2C.png.webp?webp_generated=1766658599",
						"thumbnailXlargeUrl":"https://public.blenderkit.com/thumbnails/assets/f57e7f6ac105412693a6e4bbebc096ec/files/thumbnail_7309b43b-4247-41e4-bccb-28ffaed69426.png.2048x2048_q85_crop-%2C.png",
						"thumbnailXlargeUrlNonsquared":"https://public.blenderkit.com/thumbnails/assets/f57e7f6ac105412693a6e4bbebc096ec/files/thumbnail_7309b43b-4247-41e4-bccb-28ffaed69426.png.2048x2048_q85.png",
						"thumbnailXlargeUrlNonsquaredWebp":"https://public.blenderkit.com/thumbnails/assets/f57e7f6ac105412693a6e4bbebc096ec/files/thumbnail_7309b43b-4247-41e4-bccb-28ffaed69426.png.2048x2048_q85.png.webp?webp_generated=1766658599",
						"thumbnailXlargeUrlWebp":"https://public.blenderkit.com/thumbnails/assets/f57e7f6ac105412693a6e4bbebc096ec/files/thumbnail_7309b43b-4247-41e4-bccb-28ffaed69426.png.2048x2048_q85_crop-%2C.png.webp?webp_generated=1766658599",
						"thumbnail_small":"thumbnail_7309b43b-4247-41e4-bccb-28ffaed69426.png.256x256_q85_crop-%2C.png.webp",
						"tooltip_data":{
							"aname":"Old Stained Glass Window",
							"author_text":"by Abdelrahman Mohamed",
							"base_price_bg_color":[
								0.7,
								0.7,
								0.7,
								0.6
							],
							"base_price_color":[
								1.0,
								1.0,
								1.0,
								0.9
							],
							"base_price_text":"",
							"quality":"8",
							"user_price_bg_color":[
								0.7,
								0.7,
								0.7,
								0.6
							],
							"user_price_color":[
								1.0,
								1.0,
								1.0,
								0.9
							],
							"user_price_text":""
						},
						"url":"https://www.blenderkit.com/api/v1/assets/f57e7f6a-c105-4126-93a6-e4bbebc096ec/",
						"verificationStatus":"validated",
						"versionNumber":1,
						"videoLink":"",
						"webpGeneratedTimestamp":1766658599,
						"resolution":"resolution_2K"
					}
				}
			},
			"name":"Scene",
			"nodes":[
				0,
				1,
				2,
				3,
				4,
				5,
				6,
				7,
				8,
				9,
				10,
				11,
				12,
				13,
				14,
				15,
				16,
				17,
				18,
				19,
				20,
				21,
				22,
				23,
				24,
				25,
				26,
				27,
				28,
				29,
				30,
				31
			]
		}
	],
	"nodes":[
		{
			"mesh":0,
			"name":"Cube.004",
			"rotation":[
				0,
				-1,
				0,
				1.6292068494294654e-07
			],
			"translation":[
				-1.3477050065994263,
				2.100541591644287,
				2.115994453430176
			]
		},
		{
			"mesh":1,
			"name":"parapets big building",
			"scale":[
				0.20301192998886108,
				0.35962021350860596,
				0.1314830332994461
			],
			"translation":[
				-2.3911242485046387,
				4.814225673675537,
				2.214327573776245
			]
		},
		{
			"mesh":2,
			"name":"big pillars",
			"scale":[
				0.30564743280410767,
				4.056657791137695,
				0.30564743280410767
			],
			"translation":[
				-2.728478193283081,
				1.2591767311096191,
				2.4405770301818848
			]
		},
		{
			"mesh":3,
			"name":"parapets front building",
			"scale":[
				1.5495295524597168,
				1,
				1.1735241413116455
			],
			"translation":[
				7.171939849853516,
				2.180985927581787,
				0
			]
		},
		{
			"mesh":4,
			"name":"parapets front building side",
			"rotation":[
				0,
				0.7071068286895752,
				0,
				0.7071068286895752
			],
			"scale":[
				1.5612651109695435,
				1,
				1.1735241413116455
			],
			"translation":[
				5.8715925216674805,
				2.180985927581787,
				1.3039157390594482
			]
		},
		{
			"mesh":5,
			"name":"little pillars",
			"translation":[
				7.368671894073486,
				0.08258536458015442,
				1.5423158407211304
			]
		},
		{
			"mesh":6,
			"name":"roof",
			"translation":[
				0,
				2.3693511486053467,
				0
			]
		},
		{
			"mesh":7,
			"name":"walls lr",
			"translation":[
				0,
				2.3693511486053467,
				0
			]
		},
		{
			"mesh":8,
			"name":"topper",
			"scale":[
				0.34541240334510803,
				0.34541240334510803,
				0.34541240334510803
			],
			"translation":[
				5.11748743057251,
				6.435091972351074,
				0
			]
		},
		{
			"mesh":9,
			"name":"wall front",
			"translation":[
				5,
				4.241755485534668,
				0
			]
		},
		{
			"mesh":10,
			"name":"walls lr front building",
			"translation":[
				6.584444522857666,
				1.047828197479248,
				1.5014334917068481
			]
		},
		{
			"mesh":11,
			"name":"ceiling roof front building",
			"translation":[
				6.297152996063232,
				2.0971338748931885,
				0
			]
		},
		{
			"mesh":12,
			"name":"wall front front building",
			"translation":[
				7.298763275146484,
				0.8881595730781555,
				0
			]
		},
		{
			"mesh":13,
			"name":"topper point",
			"rotation":[
				0,
				0.1950903683900833,
				0,
				0.9807853698730469
			],
			"scale":[
				1.1003535985946655,
				1.1003535985946655,
				1.1003535985946655
			],
			"translation":[
				5.11748743057251,
				7.446595191955566,
				0
			]
		},
		{
			"mesh":14,
			"name":"ceiling interior",
			"translation":[
				0,
				1.8395742177963257,
				0
			]
		},
		{
			"mesh":15,
			"name":"windows border interior",
			"rotation":[
				0.7071068286895752,
				0,
				0,
				0.7071068286895752
			],
			"scale":[
				1.431208610534668,
				1.431208610534668,
				1.431208610534668
			],
			"translation":[
				-1.347705602645874,
				2.2006633281707764,
				2.0063514709472656
			]
		},
		{
			"mesh":16,
			"name":"front window pane",
			"translation":[
				5.442686557769775,
				3.7678911685943604,
				0.7845337390899658
			]
		},
		{
			"mesh":17,
			"name":"front window pane broken",
			"translation":[
				5.442686557769775,
				3.820234537124634,
				0
			]
		},
		{
			"mesh":18,
			"name":"interior beams",
			"rotation":[
				0.5,
				0.5,
				-0.5,
				0.5
			],
			"scale":[
				1,
				0.8710964918136597,
				1
			],
			"translation":[
				-2.637852907180786,
				3.019300699234009,
				-1.025818109512329
			]
		},
		{
			"mesh":19,
			"name":"interior beams.002",
			"rotation":[
				0.5,
				0.5,
				-0.5,
				0.5
			],
			"scale":[
				1,
				1.054655909538269,
				1
			],
			"translation":[
				-2.902459144592285,
				3.019300699234009,
				-1.025818109512329
			]
		},
		{
			"mesh":20,
			"name":"Cube.002",
			"scale":[
				0.016305865719914436,
				0.4046042859554291,
				0.016305865719914436
			],
			"translation":[
				5.117486953735352,
				8.434259414672852,
				0
			]
		},
		{
			"mesh":21,
			"name":"interior beams.003",
			"rotation":[
				0.5,
				0.5,
				-0.5,
				0.5
			],
			"scale":[
				1,
				3.083165168762207,
				1
			],
			"translation":[
				-1.8071486949920654,
				3.019300699234009,
				-1.025818109512329
			]
		},
		{
			"mesh":22,
			"name":"interior beams.001",
			"rotation":[
				0.5,
				0.5,
				-0.5,
				0.5
			],
			"scale":[
				1,
				0.3446917235851288,
				1
			],
			"translation":[
				0.032129764556884766,
				2.848172426223755,
				-1.1281148195266724
			]
		},
		{
			"mesh":23,
			"name":"interior beams.004",
			"rotation":[
				0.5,
				0.5,
				-0.5,
				0.5
			],
			"scale":[
				1,
				0.3446917235851288,
				1
			],
			"translation":[
				2.7927372455596924,
				2.848172426223755,
				-1.1281148195266724
			]
		},
		{
			"mesh":24,
			"name":"bottom floor sconces",
			"rotation":[
				0,
				0.09801716357469559,
				0,
				0.9951847195625305
			],
			"translation":[
				-6.119531631469727,
				4.347431182861328,
				0
			]
		},
		{
			"mesh":25,
			"name":"top frloor sconces",
			"rotation":[
				0,
				0.09801716357469559,
				0,
				0.9951847195625305
			],
			"translation":[
				-6.119531631469727,
				9.807160377502441,
				0
			]
		},
		{
			"mesh":26,
			"name":"bell crossbeam",
			"scale":[
				1,
				1,
				2.3960845470428467
			],
			"translation":[
				-6.119531631469727,
				12.453063011169434,
				0
			]
		},
		{
			"mesh":27,
			"name":"big round part",
			"scale":[
				3.277479410171509,
				3.421170711517334,
				3.277479410171509
			],
			"translation":[
				-6.119531631469727,
				3.421170711517334,
				0
			]
		},
		{
			"mesh":28,
			"name":"bottom floor window panes",
			"scale":[
				1.0576542615890503,
				1.0576542615890503,
				1.0576542615890503
			],
			"translation":[
				-6.119531631469727,
				4.025210380554199,
				0
			]
		},
		{
			"mesh":29,
			"name":"Cube.001",
			"scale":[
				0.017633670940995216,
				1,
				0.017633670940995216
			],
			"translation":[
				-6.119531631469727,
				16.42280387878418,
				0
			]
		},
		{
			"mesh":30,
			"name":"Cylinder",
			"scale":[
				0.918463408946991,
				0.22457383573055267,
				0.918463408946991
			],
			"translation":[
				-6.119531631469727,
				14.552901268005371,
				0
			]
		},
		{
			"mesh":31,
			"name":"Cube",
			"scale":[
				0.21335679292678833,
				1,
				0.21335679292678833
			],
			"translation":[
				-6.119531631469727,
				13.702077865600586,
				0
			]
		}
	],
	"materials":[
		{
			"doubleSided":true,
			"extensions":{
				"KHR_materials_transmission":{
					"transmissionFactor":1,
					"transmissionTexture":{
						"index":0
					}
				},
				"KHR_materials_ior":{
					"ior":1.4500000476837158
				}
			},
			"extras":{
				"blenderkit":{
					"description":"Old Stained Glass Window Material made in Substance Designer / Rendered in Blender using Cycles / Quality : 4K",
					"tags":"glass,window,old,classic,church,gothic,stainedglass",
					"name":"Old Stained Glass Window",
					"name_changed":1,
					"name_old":"Old Stained Glass Window",
					"thumbnail":"/mnt/nvme0n1p5/3D Projects/Window Works/window_works_15_render.png",
					"has_thumbnail":1,
					"thumbnail_generating_state":"",
					"texture_size_meters":4.0,
					"pbr":1,
					"uv":1,
					"category":11,
					"texture_resolution_max":4096,
					"texture_resolution_min":4096,
					"texture_count":6,
					"node_count":15,
					"total_megapixels":96,
					"is_procedural":0,
					"shaders":"principled, ",
					"report":"",
					"asset_base_id":"fc0f0d15-013a-4420-a780-82ff40f8999f",
					"id":"f57e7f6a-c105-4126-93a6-e4bbebc096ec",
					"upload_state":"Upload successful!",
					"uploading":0
				},
				"asset_data":{
					"access":"free",
					"accessLabel":"Free",
					"addonVersion":"3.15.1",
					"assetBaseId":"fc0f0d15-013a-4420-a780-82ff40f8999f",
					"assetType":"material",
					"author":{
						"aboutMe":"3D Artist who likes 3d modeling and procedural Stuff.",
						"aboutMeUrl":"https://www.artstation.com/abdlrhmanmohamed",
						"avatar128":"/avatar-redirect/6bb894a9-dd91-4721-91b6-02a84a0aae24/128/",
						"firstName":"Abdelrahman",
						"fullName":"Abdelrahman Mohamed",
						"gravatarHash":"cdb26029dfa4bbe44428e86a2e1c52a2",
						"id":"43881",
						"lastName":"Mohamed"
					},
					"available_resolutions":[
						512,
						1024,
						2048,
						4096
					],
					"basePrice":"",
					"canDownload":true,
					"canDownloadError":true,
					"category":"glass",
					"created":"2025-06-28T15:14:44.355980+02:00",
					"description":"Old Stained Glass Window Material made in Substance Designer / Rendered in Blender using Cycles / Quality : 4K",
					"dictParameters":{
						"addons":true,
						"animated":false,
						"engine":"cycles",
						"joinBlenderkitDiscounts":true,
						"materialStyle":"realistic",
						"megapixels":96,
						"nodeCount":15,
						"pbrType":"metallic",
						"platforms":[
							"windows-x64",
							"macos-arm64",
							"linux-x64",
							"macos-x64",
							"windows-arm64"
						],
						"procedural":false,
						"purePbr":true,
						"sexualizedContent":false,
						"shaders":[
							"[principled]"
						],
						"textureCount":6,
						"textureResolutionMax":4096,
						"textureResolutionMin":4096,
						"textureSizeMeters":4,
						"uv":true
					},
					"displayName":"Old Stained Glass Window",
					"downloaded":0,
					"files":[
						{
							"created":"2025-06-28T15:19:32.189120+02:00",
							"downloadUrl":"https://www.blenderkit.com/api/v1/downloads/727356/",
							"fileThumbnail":"",
							"fileThumbnailLarge":"",
							"fileType":"blend",
							"fileUploadSize":76504863,
							"filename":"assets/f57e7f6ac105412693a6e4bbebc096ec/files/blend_a02cde96-42a9-4159-bda4-185c95441572.blend",
							"modified":"2025-06-28T15:19:32.189134+02:00",
							"resolution":0,
							"thumbnailMiddleUrl":"",
							"thumbnailSmallUrl":"",
							"url":""
						},
						{
							"created":"2025-07-01T13:04:01.117019+02:00",
							"downloadUrl":"https://www.blenderkit.com/api/v1/downloads/730130/",
							"fileThumbnail":"",
							"fileThumbnailLarge":"",
							"fileType":"resolution_0_5K",
							"fileUploadSize":633250,
							"filename":"assets/f57e7f6ac105412693a6e4bbebc096ec/files/resolution_0_5K_d7671cc9-a1cf-4edd-8c84-9f437a6627fc.blend",
							"modified":"2025-07-01T13:04:01.117033+02:00",
							"resolution":0,
							"thumbnailMiddleUrl":"",
							"thumbnailSmallUrl":"",
							"url":""
						},
						{
							"created":"2025-07-01T13:04:00.550897+02:00",
							"downloadUrl":"https://www.blenderkit.com/api/v1/downloads/730129/",
							"fileThumbnail":"",
							"fileThumbnailLarge":"",
							"fileType":"resolution_1K",
							"fileUploadSize":1697300,
							"filename":"assets/f57e7f6ac105412693a6e4bbebc096ec/files/resolution_1K_42c0e76f-cb81-417f-b64b-8a05c55c74cf.blend",
							"modified":"2025-07-01T13:04:00.550909+02:00",
							"resolution":0,
							"thumbnailMiddleUrl":"",
							"thumbnailSmallUrl":"",
							"url":""
						},
						{
							"created":"2025-07-01T13:03:59.879406+02:00",
							"downloadUrl":"https://www.blenderkit.com/api/v1/downloads/730128/",
							"fileThumbnail":"",
							"fileThumbnailLarge":"",
							"fileType":"resolution_2K",
							"fileUploadSize":4723441,
							"filename":"assets/f57e7f6ac105412693a6e4bbebc096ec/files/resolution_2K_4ea1b3c1-01e6-4666-86b8-532f72a745d8.blend",
							"modified":"2025-07-01T13:03:59.879420+02:00",
							"resolution":0,
							"thumbnailMiddleUrl":"",
							"thumbnailSmallUrl":"",
							"url":"https://assets.blenderkit.com/assets/f57e7f6ac105412693a6e4bbebc096ec/files/resolution_2K_4ea1b3c1-01e6-4666-86b8-532f72a745d8.blend?verify=1780339061-nSUmuXuJQNpcGPacTK07SmimAPwwDAzU5fGJUHH5itE%3D",
							"file_name":"/Users/Evan/Desktop/assets/materials/old-stained-glas_f57e7f6a-c105-4126-93a6-e4bbebc096ec/old-stained-glass-window_2K_4ea1b3c1-01e6-4666-86b8-532f72a745d8.blend"
						},
						{
							"created":"2025-07-01T13:03:59.265167+02:00",
							"downloadUrl":"https://www.blenderkit.com/api/v1/downloads/730127/",
							"fileThumbnail":"",
							"fileThumbnailLarge":"",
							"fileType":"resolution_4K",
							"fileUploadSize":14247271,
							"filename":"assets/f57e7f6ac105412693a6e4bbebc096ec/files/resolution_4K_c1316ade-3937-4b16-bf08-275b3a62a302.blend",
							"modified":"2025-07-01T13:03:59.265180+02:00",
							"resolution":0,
							"thumbnailMiddleUrl":"",
							"thumbnailSmallUrl":"",
							"url":""
						},
						{
							"created":"2025-06-28T15:15:06.442554+02:00",
							"downloadUrl":"https://www.blenderkit.com/api/v1/downloads/727355/",
							"fileThumbnail":"https://public.blenderkit.com/thumbnails/assets/f57e7f6ac105412693a6e4bbebc096ec/files/thumbnail_7309b43b-4247-41e4-bccb-28ffaed69426.png.96x96_q85_crop-%2C.png",
							"fileThumbnailLarge":"https://public.blenderkit.com/thumbnails/assets/f57e7f6ac105412693a6e4bbebc096ec/files/thumbnail_7309b43b-4247-41e4-bccb-28ffaed69426.png.1024x1024_q85_crop-%2C.png",
							"fileType":"thumbnail",
							"fileUploadSize":6483396,
							"filename":"assets/f57e7f6ac105412693a6e4bbebc096ec/files/thumbnail_7309b43b-4247-41e4-bccb-28ffaed69426.png",
							"modified":"2025-12-23T03:44:41.008276+01:00",
							"resolution":0,
							"thumbnailMiddleUrl":"https://public.blenderkit.com/thumbnails/assets/f57e7f6ac105412693a6e4bbebc096ec/files/thumbnail_7309b43b-4247-41e4-bccb-28ffaed69426.png.512x512_q85_crop-%2C.png",
							"thumbnailSmallUrl":"https://public.blenderkit.com/thumbnails/assets/f57e7f6ac105412693a6e4bbebc096ec/files/thumbnail_7309b43b-4247-41e4-bccb-28ffaed69426.png.256x256_q85_crop-%2C.png",
							"url":""
						}
					],
					"filesSize":101845,
					"id":"f57e7f6a-c105-4126-93a6-e4bbebc096ec",
					"isForSale":false,
					"isFree":true,
					"isPrivate":false,
					"lastAnimatedThumbnailUpload":null,
					"lastBlendUpload":"2025-06-28T13:19:32.189120+00:00",
					"lastGltfGodotUpload":null,
					"lastGltfUpload":null,
					"lastPhotoThumbnailUpload":null,
					"lastResolutionUpload":"2025-07-01T11:04:01.117019+00:00",
					"lastThumbnailUpload":"2025-06-28T13:15:06.442554+00:00",
					"lastUserInteraction":"2025-06-28T15:19:32.609977+02:00",
					"lastVideoUpload":null,
					"lastZipFileUpload":"",
					"license":"royalty_free",
					"max_resolution":4096,
					"name":"Old Stained Glass Window",
					"pk":158155,
					"ratingsAverage":{
						"bookmarks":0.9761904761904762,
						"quality":8,
						"virtualPrice":null,
						"workingHours":3
					},
					"ratingsCount":{
						"bookmarks":168,
						"quality":1,
						"virtualPrice":0,
						"workingHours":1
					},
					"ratingsMedian":{
						"bookmarks":1,
						"quality":8,
						"virtualPrice":null,
						"workingHours":3
					},
					"ratingsSum":{
						"bookmarks":164,
						"quality":8,
						"score":240,
						"virtualPrice":null,
						"workingHours":3
					},
					"score":240,
					"showMarketingLabels":true,
					"sourceAppName":"blender",
					"sourceAppVersion":"4.4.3",
					"tags":[
						"glass",
						"window",
						"old",
						"classic",
						"church",
						"gothic",
						"stainedglass"
					],
					"texture_size_meters":4,
					"thumbnail":"thumbnail_7309b43b-4247-41e4-bccb-28ffaed69426.png.512x512_q85_crop-%2C.png.webp",
					"thumbnailLargeUrl":"https://public.blenderkit.com/thumbnails/assets/f57e7f6ac105412693a6e4bbebc096ec/files/thumbnail_7309b43b-4247-41e4-bccb-28ffaed69426.png.1024x1024_q85_crop-%2C.png",
					"thumbnailLargeUrlNonsquared":"https://public.blenderkit.com/thumbnails/assets/f57e7f6ac105412693a6e4bbebc096ec/files/thumbnail_7309b43b-4247-41e4-bccb-28ffaed69426.png.1024x1024_q85.png",
					"thumbnailLargeUrlNonsquaredWebp":"https://public.blenderkit.com/thumbnails/assets/f57e7f6ac105412693a6e4bbebc096ec/files/thumbnail_7309b43b-4247-41e4-bccb-28ffaed69426.png.1024x1024_q85.png.webp?webp_generated=1766658599",
					"thumbnailLargeUrlWebp":"https://public.blenderkit.com/thumbnails/assets/f57e7f6ac105412693a6e4bbebc096ec/files/thumbnail_7309b43b-4247-41e4-bccb-28ffaed69426.png.1024x1024_q85_crop-%2C.png.webp?webp_generated=1766658599",
					"thumbnailMiddleUrl":"https://public.blenderkit.com/thumbnails/assets/f57e7f6ac105412693a6e4bbebc096ec/files/thumbnail_7309b43b-4247-41e4-bccb-28ffaed69426.png.512x512_q85_crop-%2C.png",
					"thumbnailMiddleUrlNonsquared":"https://public.blenderkit.com/thumbnails/assets/f57e7f6ac105412693a6e4bbebc096ec/files/thumbnail_7309b43b-4247-41e4-bccb-28ffaed69426.png.512x512_q85.png",
					"thumbnailMiddleUrlNonsquaredWebp":"https://public.blenderkit.com/thumbnails/assets/f57e7f6ac105412693a6e4bbebc096ec/files/thumbnail_7309b43b-4247-41e4-bccb-28ffaed69426.png.512x512_q85.png.webp?webp_generated=1766658599",
					"thumbnailMiddleUrlWebp":"https://public.blenderkit.com/thumbnails/assets/f57e7f6ac105412693a6e4bbebc096ec/files/thumbnail_7309b43b-4247-41e4-bccb-28ffaed69426.png.512x512_q85_crop-%2C.png.webp?webp_generated=1766658599",
					"thumbnailSmallUrl":"https://public.blenderkit.com/thumbnails/assets/f57e7f6ac105412693a6e4bbebc096ec/files/thumbnail_7309b43b-4247-41e4-bccb-28ffaed69426.png.256x256_q85_crop-%2C.png",
					"thumbnailSmallUrlNonsquared":"https://public.blenderkit.com/thumbnails/assets/f57e7f6ac105412693a6e4bbebc096ec/files/thumbnail_7309b43b-4247-41e4-bccb-28ffaed69426.png.256x256_q85.png",
					"thumbnailSmallUrlNonsquaredWebp":"https://public.blenderkit.com/thumbnails/assets/f57e7f6ac105412693a6e4bbebc096ec/files/thumbnail_7309b43b-4247-41e4-bccb-28ffaed69426.png.256x256_q85.png.webp?webp_generated=1766658599",
					"thumbnailSmallUrlWebp":"https://public.blenderkit.com/thumbnails/assets/f57e7f6ac105412693a6e4bbebc096ec/files/thumbnail_7309b43b-4247-41e4-bccb-28ffaed69426.png.256x256_q85_crop-%2C.png.webp?webp_generated=1766658599",
					"thumbnailXlargeUrl":"https://public.blenderkit.com/thumbnails/assets/f57e7f6ac105412693a6e4bbebc096ec/files/thumbnail_7309b43b-4247-41e4-bccb-28ffaed69426.png.2048x2048_q85_crop-%2C.png",
					"thumbnailXlargeUrlNonsquared":"https://public.blenderkit.com/thumbnails/assets/f57e7f6ac105412693a6e4bbebc096ec/files/thumbnail_7309b43b-4247-41e4-bccb-28ffaed69426.png.2048x2048_q85.png",
					"thumbnailXlargeUrlNonsquaredWebp":"https://public.blenderkit.com/thumbnails/assets/f57e7f6ac105412693a6e4bbebc096ec/files/thumbnail_7309b43b-4247-41e4-bccb-28ffaed69426.png.2048x2048_q85.png.webp?webp_generated=1766658599",
					"thumbnailXlargeUrlWebp":"https://public.blenderkit.com/thumbnails/assets/f57e7f6ac105412693a6e4bbebc096ec/files/thumbnail_7309b43b-4247-41e4-bccb-28ffaed69426.png.2048x2048_q85_crop-%2C.png.webp?webp_generated=1766658599",
					"thumbnail_small":"thumbnail_7309b43b-4247-41e4-bccb-28ffaed69426.png.256x256_q85_crop-%2C.png.webp",
					"tooltip_data":{
						"aname":"Old Stained Glass Window",
						"author_text":"by Abdelrahman Mohamed",
						"base_price_bg_color":[
							0.7,
							0.7,
							0.7,
							0.6
						],
						"base_price_color":[
							1.0,
							1.0,
							1.0,
							0.9
						],
						"base_price_text":"",
						"quality":"8",
						"user_price_bg_color":[
							0.7,
							0.7,
							0.7,
							0.6
						],
						"user_price_color":[
							1.0,
							1.0,
							1.0,
							0.9
						],
						"user_price_text":""
					},
					"url":"https://www.blenderkit.com/api/v1/assets/f57e7f6a-c105-4126-93a6-e4bbebc096ec/",
					"verificationStatus":"validated",
					"versionNumber":1,
					"videoLink":"",
					"webpGeneratedTimestamp":1766658599,
					"resolution":"resolution_2K"
				}
			},
			"name":"Old Stained Glass Window",
			"normalTexture":{
				"index":1
			},
			"pbrMetallicRoughness":{
				"baseColorTexture":{
					"index":2
				},
				"metallicRoughnessTexture":{
					"index":3
				}
			}
		},
		{
			"doubleSided":true,
			"name":"black stone",
			"normalTexture":{
				"index":4
			},
			"pbrMetallicRoughness":{
				"baseColorTexture":{
					"index":5
				},
				"metallicFactor":0,
				"metallicRoughnessTexture":{
					"index":6
				}
			}
		},
		{
			"doubleSided":true,
			"name":"roof",
			"normalTexture":{
				"index":7
			},
			"pbrMetallicRoughness":{
				"baseColorTexture":{
					"index":8
				},
				"metallicFactor":0
			}
		},
		{
			"doubleSided":true,
			"name":"plaster",
			"normalTexture":{
				"index":9
			},
			"pbrMetallicRoughness":{
				"baseColorTexture":{
					"index":10
				},
				"metallicFactor":0,
				"metallicRoughnessTexture":{
					"index":11
				}
			}
		},
		{
			"doubleSided":true,
			"name":"wood",
			"pbrMetallicRoughness":{
				"baseColorTexture":{
					"index":12
				},
				"metallicFactor":0
			}
		},
		{
			"doubleSided":true,
			"name":"metal",
			"pbrMetallicRoughness":{
				"baseColorFactor":[
					0.32748737931251526,
					0.32748737931251526,
					0.32748737931251526,
					1
				],
				"metallicFactor":0.8532110452651978,
				"roughnessFactor":0.16055044531822205
			}
		}
	],
	"meshes":[
		{
			"name":"Cube.004",
			"primitives":[
				{
					"attributes":{
						"POSITION":0,
						"NORMAL":1,
						"TEXCOORD_0":2,
						"TANGENT":3
					},
					"indices":4,
					"material":0
				}
			]
		},
		{
			"name":"Cube.016",
			"primitives":[
				{
					"attributes":{
						"POSITION":5,
						"NORMAL":6,
						"TEXCOORD_0":7
					},
					"indices":8,
					"material":1
				},
				{
					"attributes":{
						"POSITION":9,
						"NORMAL":10,
						"TEXCOORD_0":11
					},
					"indices":12,
					"material":2
				}
			]
		},
		{
			"name":"Cylinder.001",
			"primitives":[
				{
					"attributes":{
						"POSITION":13,
						"NORMAL":14,
						"TEXCOORD_0":15,
						"TANGENT":16
					},
					"indices":17,
					"material":1
				},
				{
					"attributes":{
						"POSITION":18,
						"NORMAL":19,
						"TEXCOORD_0":20,
						"TANGENT":21
					},
					"indices":22,
					"material":2
				}
			]
		},
		{
			"name":"Cube.006",
			"primitives":[
				{
					"attributes":{
						"POSITION":23,
						"NORMAL":24,
						"TEXCOORD_0":25,
						"TANGENT":26
					},
					"indices":27,
					"material":1
				},
				{
					"attributes":{
						"POSITION":28,
						"NORMAL":29,
						"TEXCOORD_0":30,
						"TANGENT":31
					},
					"indices":32,
					"material":2
				}
			]
		},
		{
			"name":"Cube.009",
			"primitives":[
				{
					"attributes":{
						"POSITION":33,
						"NORMAL":34,
						"TEXCOORD_0":35,
						"TANGENT":36
					},
					"indices":37,
					"material":1
				}
			]
		},
		{
			"name":"Cylinder.002",
			"primitives":[
				{
					"attributes":{
						"POSITION":38,
						"NORMAL":39,
						"TEXCOORD_0":40,
						"TANGENT":41
					},
					"indices":42,
					"material":1
				},
				{
					"attributes":{
						"POSITION":43,
						"NORMAL":44,
						"TEXCOORD_0":45,
						"TANGENT":46
					},
					"indices":47,
					"material":2
				}
			]
		},
		{
			"name":"Cube.015",
			"primitives":[
				{
					"attributes":{
						"POSITION":48,
						"NORMAL":49,
						"TEXCOORD_0":50
					},
					"indices":51,
					"material":2
				}
			]
		},
		{
			"name":"Cube.018",
			"primitives":[
				{
					"attributes":{
						"POSITION":52,
						"NORMAL":53,
						"TEXCOORD_0":54
					},
					"indices":55,
					"material":1
				},
				{
					"attributes":{
						"POSITION":56,
						"NORMAL":57,
						"TEXCOORD_0":58
					},
					"indices":59,
					"material":3
				}
			]
		},
		{
			"name":"Cube.017",
			"primitives":[
				{
					"attributes":{
						"POSITION":60,
						"NORMAL":61,
						"TEXCOORD_0":62
					},
					"indices":63,
					"material":1
				}
			]
		},
		{
			"name":"Cube.019",
			"primitives":[
				{
					"attributes":{
						"POSITION":64,
						"NORMAL":65,
						"TEXCOORD_0":66
					},
					"indices":67,
					"material":1
				},
				{
					"attributes":{
						"POSITION":68,
						"NORMAL":69,
						"TEXCOORD_0":70
					},
					"indices":71,
					"material":3
				}
			]
		},
		{
			"name":"Cube.021",
			"primitives":[
				{
					"attributes":{
						"POSITION":72,
						"NORMAL":73,
						"TEXCOORD_0":74
					},
					"indices":75,
					"material":1
				},
				{
					"attributes":{
						"POSITION":76,
						"NORMAL":77,
						"TEXCOORD_0":78
					},
					"indices":79,
					"material":3
				}
			]
		},
		{
			"name":"Cube.022",
			"primitives":[
				{
					"attributes":{
						"POSITION":80,
						"NORMAL":81,
						"TEXCOORD_0":82,
						"TANGENT":83
					},
					"indices":84,
					"material":1
				}
			]
		},
		{
			"name":"Cube.023",
			"primitives":[
				{
					"attributes":{
						"POSITION":85,
						"NORMAL":86,
						"TEXCOORD_0":87
					},
					"indices":88,
					"material":1
				}
			]
		},
		{
			"name":"Cylinder.003",
			"primitives":[
				{
					"attributes":{
						"POSITION":89,
						"NORMAL":90,
						"TEXCOORD_0":91
					},
					"indices":92,
					"material":2
				}
			]
		},
		{
			"name":"Cube.027",
			"primitives":[
				{
					"attributes":{
						"POSITION":93,
						"NORMAL":94,
						"TEXCOORD_0":95,
						"TANGENT":96
					},
					"indices":97,
					"material":3
				}
			]
		},
		{
			"name":"Circle.003",
			"primitives":[
				{
					"attributes":{
						"POSITION":98,
						"NORMAL":99,
						"TEXCOORD_0":100,
						"TANGENT":101
					},
					"indices":102,
					"material":4
				}
			]
		},
		{
			"name":"Cube.002",
			"primitives":[
				{
					"attributes":{
						"POSITION":103,
						"NORMAL":104,
						"TEXCOORD_0":105,
						"TANGENT":106
					},
					"indices":107,
					"material":0
				}
			]
		},
		{
			"name":"Cube",
			"primitives":[
				{
					"attributes":{
						"POSITION":108,
						"NORMAL":109,
						"TEXCOORD_0":110
					},
					"indices":111,
					"material":0
				}
			]
		},
		{
			"name":"Circle.021",
			"primitives":[
				{
					"attributes":{
						"POSITION":112,
						"NORMAL":113,
						"TEXCOORD_0":114,
						"TANGENT":115
					},
					"indices":116,
					"material":4
				}
			]
		},
		{
			"name":"Circle.024",
			"primitives":[
				{
					"attributes":{
						"POSITION":117,
						"NORMAL":118,
						"TEXCOORD_0":119,
						"TANGENT":120
					},
					"indices":121,
					"material":4
				}
			]
		},
		{
			"name":"Cube.007",
			"primitives":[
				{
					"attributes":{
						"POSITION":122,
						"NORMAL":123,
						"TEXCOORD_0":124,
						"TANGENT":125
					},
					"indices":84,
					"material":5
				}
			]
		},
		{
			"name":"Circle.025",
			"primitives":[
				{
					"attributes":{
						"POSITION":126,
						"NORMAL":127,
						"TEXCOORD_0":128,
						"TANGENT":129
					},
					"indices":130,
					"material":4
				}
			]
		},
		{
			"name":"Circle.026",
			"primitives":[
				{
					"attributes":{
						"POSITION":131,
						"NORMAL":132,
						"TEXCOORD_0":133,
						"TANGENT":134
					},
					"indices":116,
					"material":4
				}
			]
		},
		{
			"name":"Circle.027",
			"primitives":[
				{
					"attributes":{
						"POSITION":135,
						"NORMAL":136,
						"TEXCOORD_0":137,
						"TANGENT":138
					},
					"indices":116,
					"material":4
				}
			]
		},
		{
			"name":"Cube.024",
			"primitives":[
				{
					"attributes":{
						"POSITION":139,
						"NORMAL":140,
						"TEXCOORD_0":141
					},
					"indices":142,
					"material":1
				}
			]
		},
		{
			"name":"Cube.025",
			"primitives":[
				{
					"attributes":{
						"POSITION":143,
						"NORMAL":144,
						"TEXCOORD_0":145
					},
					"indices":146,
					"material":1
				}
			]
		},
		{
			"name":"Cube.026",
			"primitives":[
				{
					"attributes":{
						"POSITION":147,
						"NORMAL":148,
						"TEXCOORD_0":149,
						"TANGENT":150
					},
					"indices":151,
					"material":4
				}
			]
		},
		{
			"name":"Cylinder",
			"primitives":[
				{
					"attributes":{
						"POSITION":152,
						"NORMAL":153,
						"TEXCOORD_0":154
					},
					"indices":155,
					"material":1
				},
				{
					"attributes":{
						"POSITION":156,
						"NORMAL":157,
						"TEXCOORD_0":158
					},
					"indices":159,
					"material":2
				},
				{
					"attributes":{
						"POSITION":160,
						"NORMAL":161,
						"TEXCOORD_0":162
					},
					"indices":163,
					"material":3
				}
			]
		},
		{
			"name":"Circle.014",
			"primitives":[
				{
					"attributes":{
						"POSITION":164,
						"NORMAL":165,
						"TEXCOORD_0":166
					},
					"indices":167,
					"material":0
				}
			]
		},
		{
			"name":"Cube.005",
			"primitives":[
				{
					"attributes":{
						"POSITION":168,
						"NORMAL":169,
						"TEXCOORD_0":170,
						"TANGENT":171
					},
					"indices":84,
					"material":5
				}
			]
		},
		{
			"name":"Cylinder.005",
			"primitives":[
				{
					"attributes":{
						"POSITION":172,
						"NORMAL":173,
						"TEXCOORD_0":174
					},
					"indices":175,
					"material":2
				},
				{
					"attributes":{
						"POSITION":176,
						"NORMAL":177,
						"TEXCOORD_0":178
					},
					"indices":179,
					"material":1
				}
			]
		},
		{
			"name":"Cube.003",
			"primitives":[
				{
					"attributes":{
						"POSITION":180,
						"NORMAL":181,
						"TEXCOORD_0":182,
						"TANGENT":183
					},
					"indices":184,
					"material":1
				}
			]
		}
	],
	"textures":[
		{
			"sampler":0,
			"source":0
		},
		{
			"sampler":0,
			"source":1
		},
		{
			"sampler":0,
			"source":2
		},
		{
			"sampler":0,
			"source":3
		},
		{
			"sampler":0,
			"source":4
		},
		{
			"sampler":0,
			"source":5
		},
		{
			"sampler":0,
			"source":6
		},
		{
			"sampler":0,
			"source":7
		},
		{
			"sampler":0,
			"source":8
		},
		{
			"sampler":0,
			"source":9
		},
		{
			"sampler":0,
			"source":10
		},
		{
			"sampler":0,
			"source":11
		},
		{
			"sampler":0,
			"source":12
		}
	],
	"images":[
		{
			"mimeType":"image/jpeg",
			"name":"window_works_15_transmission.jpg.001",
			"uri":"../../models/textures/window_works_15_transmission.jpg"
		},
		{
			"mimeType":"image/jpeg",
			"name":"window_works_15_normal.jpg.001",
			"uri":"../../models/textures/window_works_15_normal.jpg"
		},
		{
			"mimeType":"image/jpeg",
			"name":"window_works_15_basecolor.jpg.001",
			"uri":"../../models/textures/window_works_15_basecolor.jpg"
		},
		{
			"mimeType":"image/jpeg",
			"name":"window_works_15_roughness.jpg.001",
			"uri":"../../models/textures/window_works_15_roughness.jpg"
		},
		{
			"mimeType":"image/png",
			"name":"rock_wall_16_nor_gl_2k.png",
			"uri":"../../textures/rock_wall_16_2k.blend/rock_wall_16_nor_gl_2k.png"
		},
		{
			"mimeType":"image/jpeg",
			"name":"rock_wall_16_diff_2k.jpg",
			"uri":"../../textures/rock_wall_16_2k.blend/rock_wall_16_diff_2k.jpg"
		},
		{
			"mimeType":"image/png",
			"name":"rock_wall_16_rough_2k.png",
			"uri":"../../textures/rock_wall_16_2k.blend/rock_wall_16_rough_2k.png"
		},
		{
			"mimeType":"image/png",
			"name":"roof_slates_03_nor_gl_2k.png",
			"uri":"../../textures/roof_slates_03_2k.blend/roof_slates_03_nor_gl_2k.png"
		},
		{
			"mimeType":"image/jpeg",
			"name":"roof_slates_03_diff_2k.jpg",
			"uri":"../../textures/roof_slates_03_2k.blend/roof_slates_03_diff_2k.jpg"
		},
		{
			"mimeType":"image/png",
			"name":"grey_plaster_02_nor_gl_2k.png",
			"uri":"../../textures/grey_plaster_02_2k.blend/grey_plaster_02_nor_gl_2k.png"
		},
		{
			"mimeType":"image/jpeg",
			"name":"grey_plaster_02_diff_2k.jpg",
			"uri":"../../textures/grey_plaster_02_2k.blend/grey_plaster_02_diff_2k.jpg"
		},
		{
			"mimeType":"image/jpeg",
			"name":"grey_plaster_02_rough_2k.jpg",
			"uri":"../../textures/grey_plaster_02_2k.blend/grey_plaster_02_rough_2k.jpg"
		},
		{
			"mimeType":"image/jpeg",
			"name":"wood_table_worn_diff_2k.jpg",
			"uri":"../../textures/wood_table_worn_2k.blend/wood_table_worn_diff_2k.jpg"
		}
	],
	"accessors":[
		{
			"bufferView":0,
			"componentType":5126,
			"count":144,
			"max":[
				0.6822322010993958,
				1.5166621208190918,
				4.261590003967285
			],
			"min":[
				-6.211123943328857,
				-1.5166621208190918,
				-0.02960061840713024
			],
			"type":"VEC3"
		},
		{
			"bufferView":1,
			"componentType":5126,
			"count":144,
			"type":"VEC3"
		},
		{
			"bufferView":2,
			"componentType":5126,
			"count":144,
			"type":"VEC2"
		},
		{
			"bufferView":3,
			"componentType":5126,
			"count":144,
			"type":"VEC4"
		},
		{
			"bufferView":4,
			"componentType":5123,
			"count":216,
			"type":"SCALAR"
		},
		{
			"bufferView":5,
			"componentType":5126,
			"count":2352,
			"max":[
				37.993743896484375,
				1.2698725461959839,
				1.000000238418579
			],
			"min":[
				-0.4117960035800934,
				-1,
				-34.68233108520508
			],
			"type":"VEC3"
		},
		{
			"bufferView":6,
			"componentType":5126,
			"count":2352,
			"type":"VEC3"
		},
		{
			"bufferView":7,
			"componentType":5126,
			"count":2352,
			"type":"VEC2"
		},
		{
			"bufferView":8,
			"componentType":5123,
			"count":4788,
			"type":"SCALAR"
		},
		{
			"bufferView":9,
			"componentType":5126,
			"count":168,
			"max":[
				37.47968292236328,
				1.2698725461959839,
				1.000000238418579
			],
			"min":[
				-0.4117960035800934,
				1.0490975379943848,
				-34.68233108520508
			],
			"type":"VEC3"
		},
		{
			"bufferView":10,
			"componentType":5126,
			"count":168,
			"type":"VEC3"
		},
		{
			"bufferView":11,
			"componentType":5126,
			"count":168,
			"type":"VEC2"
		},
		{
			"bufferView":12,
			"componentType":5123,
			"count":252,
			"type":"SCALAR"
		},
		{
			"bufferView":13,
			"componentType":5126,
			"count":1600,
			"max":[
				28.280025482177734,
				1.1461308002471924,
				1.1840226650238037
			],
			"min":[
				-1.1840219497680664,
				-0.31039756536483765,
				-17.153907775878906
			],
			"type":"VEC3"
		},
		{
			"bufferView":14,
			"componentType":5126,
			"count":1600,
			"type":"VEC3"
		},
		{
			"bufferView":15,
			"componentType":5126,
			"count":1600,
			"type":"VEC2"
		},
		{
			"bufferView":16,
			"componentType":5126,
			"count":1600,
			"type":"VEC4"
		},
		{
			"bufferView":17,
			"componentType":5123,
			"count":3456,
			"type":"SCALAR"
		},
		{
			"bufferView":18,
			"componentType":5126,
			"count":832,
			"max":[
				28.280025482177734,
				1.3871773481369019,
				1.1840226650238037
			],
			"min":[
				-1.1840219497680664,
				0.29644322395324707,
				-17.153907775878906
			],
			"type":"VEC3"
		},
		{
			"bufferView":19,
			"componentType":5126,
			"count":832,
			"type":"VEC3"
		},
		{
			"bufferView":20,
			"componentType":5126,
			"count":832,
			"type":"VEC2"
		},
		{
			"bufferView":21,
			"componentType":5126,
			"count":832,
			"type":"VEC4"
		},
		{
			"bufferView":22,
			"componentType":5123,
			"count":1344,
			"type":"SCALAR"
		},
		{
			"bufferView":23,
			"componentType":5126,
			"count":412,
			"max":[
				0.09200818836688995,
				0.2485218644142151,
				1.2222222089767456
			],
			"min":[
				-0.08184647560119629,
				-0.04134321212768555,
				-1.2222222089767456
			],
			"type":"VEC3"
		},
		{
			"bufferView":24,
			"componentType":5126,
			"count":412,
			"type":"VEC3"
		},
		{
			"bufferView":25,
			"componentType":5126,
			"count":412,
			"type":"VEC2"
		},
		{
			"bufferView":26,
			"componentType":5126,
			"count":412,
			"type":"VEC4"
		},
		{
			"bufferView":27,
			"componentType":5123,
			"count":900,
			"type":"SCALAR"
		},
		{
			"bufferView":28,
			"componentType":5126,
			"count":16,
			"max":[
				0.09200818836688995,
				0.1864486038684845,
				0.7926821112632751
			],
			"min":[
				-0.0008170772343873978,
				0.13593870401382446,
				-0.7926821112632751
			],
			"type":"VEC3"
		},
		{
			"bufferView":29,
			"componentType":5126,
			"count":16,
			"type":"VEC3"
		},
		{
			"bufferView":30,
			"componentType":5126,
			"count":16,
			"type":"VEC2"
		},
		{
			"bufferView":31,
			"componentType":5126,
			"count":16,
			"type":"VEC4"
		},
		{
			"bufferView":32,
			"componentType":5123,
			"count":24,
			"type":"SCALAR"
		},
		{
			"bufferView":33,
			"componentType":5126,
			"count":204,
			"max":[
				1.75217866897583,
				0.21401238441467285,
				1
			],
			"min":[
				-0.08184647560119629,
				-0.04134321212768555,
				-0.3333333730697632
			],
			"type":"VEC3"
		},
		{
			"bufferView":34,
			"componentType":5126,
			"count":204,
			"type":"VEC3"
		},
		{
			"bufferView":35,
			"componentType":5126,
			"count":204,
			"type":"VEC2"
		},
		{
			"bufferView":36,
			"componentType":5126,
			"count":204,
			"type":"VEC4"
		},
		{
			"bufferView":37,
			"componentType":5123,
			"count":432,
			"type":"SCALAR"
		},
		{
			"bufferView":38,
			"componentType":5126,
			"count":496,
			"max":[
				0.3993193805217743,
				2.6296186447143555,
				0.3993188440799713
			],
			"min":[
				-0.39931899309158325,
				-0.08258530497550964,
				-3.483950614929199
			],
			"type":"VEC3"
		},
		{
			"bufferView":39,
			"componentType":5126,
			"count":496,
			"type":"VEC3"
		},
		{
			"bufferView":40,
			"componentType":5126,
			"count":496,
			"type":"VEC2"
		},
		{
			"bufferView":41,
			"componentType":5126,
			"count":496,
			"type":"VEC4"
		},
		{
			"bufferView":42,
			"componentType":5123,
			"count":960,
			"type":"SCALAR"
		},
		{
			"bufferView":43,
			"componentType":5126,
			"count":160,
			"max":[
				0.3993193805217743,
				3.392564296722412,
				0.3993188440799713
			],
			"min":[
				-0.39931899309158325,
				1.1611675024032593,
				-3.483950614929199
			],
			"type":"VEC3"
		},
		{
			"bufferView":44,
			"componentType":5126,
			"count":160,
			"type":"VEC3"
		},
		{
			"bufferView":45,
			"componentType":5126,
			"count":160,
			"type":"VEC2"
		},
		{
			"bufferView":46,
			"componentType":5126,
			"count":160,
			"type":"VEC4"
		},
		{
			"bufferView":47,
			"componentType":5123,
			"count":240,
			"type":"SCALAR"
		},
		{
			"bufferView":48,
			"componentType":5126,
			"count":130,
			"max":[
				5.5946173667907715,
				3.969697952270508,
				2.3917253017425537
			],
			"min":[
				-2.476285219192505,
				2.3693511486053467,
				-2.3917253017425537
			],
			"type":"VEC3"
		},
		{
			"bufferView":49,
			"componentType":5126,
			"count":130,
			"type":"VEC3"
		},
		{
			"bufferView":50,
			"componentType":5126,
			"count":130,
			"type":"VEC2"
		},
		{
			"bufferView":51,
			"componentType":5123,
			"count":228,
			"type":"SCALAR"
		},
		{
			"bufferView":52,
			"componentType":5126,
			"count":310,
			"max":[
				5.5533447265625,
				2.603170156478882,
				2.3693511486053467
			],
			"min":[
				-2.7942559719085693,
				-2.3693511486053467,
				-2.3693511486053467
			],
			"type":"VEC3"
		},
		{
			"bufferView":53,
			"componentType":5126,
			"count":310,
			"type":"VEC3"
		},
		{
			"bufferView":54,
			"componentType":5126,
			"count":310,
			"type":"VEC2"
		},
		{
			"bufferView":55,
			"componentType":5123,
			"count":894,
			"type":"SCALAR"
		},
		{
			"bufferView":56,
			"componentType":5126,
			"count":3020,
			"max":[
				4.965293884277344,
				1.390608310699463,
				2.4308459758758545
			],
			"min":[
				-2.1362383365631104,
				-1.742224931716919,
				-2.4308459758758545
			],
			"type":"VEC3"
		},
		{
			"bufferView":57,
			"componentType":5126,
			"count":3020,
			"type":"VEC3"
		},
		{
			"bufferView":58,
			"componentType":5126,
			"count":3020,
			"type":"VEC2"
		},
		{
			"bufferView":59,
			"componentType":5123,
			"count":5952,
			"type":"SCALAR"
		},
		{
			"bufferView":60,
			"componentType":5126,
			"count":748,
			"max":[
				1.1479624509811401,
				2.8631668090820312,
				1.1479624509811401
			],
			"min":[
				-1.1479624509811401,
				-1,
				-1.1479624509811401
			],
			"type":"VEC3"
		},
		{
			"bufferView":61,
			"componentType":5126,
			"count":748,
			"type":"VEC3"
		},
		{
			"bufferView":62,
			"componentType":5126,
			"count":748,
			"type":"VEC2"
		},
		{
			"bufferView":63,
			"componentType":5123,
			"count":1524,
			"type":"SCALAR"
		},
		{
			"bufferView":64,
			"componentType":5126,
			"count":192,
			"max":[
				0.5844444036483765,
				2.028461456298828,
				2.3693511486053467
			],
			"min":[
				0.2667147219181061,
				-4.19392728805542,
				-2.3693511486053467
			],
			"type":"VEC3"
		},
		{
			"bufferView":65,
			"componentType":5126,
			"count":192,
			"type":"VEC3"
		},
		{
			"bufferView":66,
			"componentType":5126,
			"count":192,
			"type":"VEC2"
		},
		{
			"bufferView":67,
			"componentType":5123,
			"count":564,
			"type":"SCALAR"
		},
		{
			"bufferView":68,
			"componentType":5126,
			"count":1313,
			"max":[
				0.5844444036483765,
				0.7122533321380615,
				1.1059796810150146
			],
			"min":[
				0.2667147219181061,
				-4.19392728805542,
				-1.1059799194335938
			],
			"type":"VEC3"
		},
		{
			"bufferView":69,
			"componentType":5126,
			"count":1313,
			"type":"VEC3"
		},
		{
			"bufferView":70,
			"componentType":5126,
			"count":1313,
			"type":"VEC2"
		},
		{
			"bufferView":71,
			"componentType":5123,
			"count":3600,
			"type":"SCALAR"
		},
		{
			"bufferView":72,
			"componentType":5126,
			"count":280,
			"max":[
				0.6915515661239624,
				1.0918145179748535,
				0.06003350391983986
			],
			"min":[
				-1,
				-1,
				-3.0629005432128906
			],
			"type":"VEC3"
		},
		{
			"bufferView":73,
			"componentType":5126,
			"count":280,
			"type":"VEC3"
		},
		{
			"bufferView":74,
			"componentType":5126,
			"count":280,
			"type":"VEC2"
		},
		{
			"bufferView":75,
			"componentType":5123,
			"count":840,
			"type":"SCALAR"
		},
		{
			"bufferView":76,
			"componentType":5126,
			"count":2056,
			"max":[
				0.33345943689346313,
				0.6074889898300171,
				0.06003350391983986
			],
			"min":[
				-0.8201642036437988,
				-0.6104391813278198,
				-3.0629005432128906
			],
			"type":"VEC3"
		},
		{
			"bufferView":77,
			"componentType":5126,
			"count":2056,
			"type":"VEC3"
		},
		{
			"bufferView":78,
			"componentType":5126,
			"count":2056,
			"type":"VEC2"
		},
		{
			"bufferView":79,
			"componentType":5123,
			"count":4116,
			"type":"SCALAR"
		},
		{
			"bufferView":80,
			"componentType":5126,
			"count":24,
			"max":[
				1.0016101598739624,
				0.03917015343904495,
				1.4561567306518555
			],
			"min":[
				-0.7861140966415405,
				-0.03917015343904495,
				-1.4561567306518555
			],
			"type":"VEC3"
		},
		{
			"bufferView":81,
			"componentType":5126,
			"count":24,
			"type":"VEC3"
		},
		{
			"bufferView":82,
			"componentType":5126,
			"count":24,
			"type":"VEC2"
		},
		{
			"bufferView":83,
			"componentType":5126,
			"count":24,
			"type":"VEC4"
		},
		{
			"bufferView":84,
			"componentType":5123,
			"count":36,
			"type":"SCALAR"
		},
		{
			"bufferView":85,
			"componentType":5126,
			"count":424,
			"max":[
				0.09146792441606522,
				1.1701301336288452,
				1.3896888494491577
			],
			"min":[
				-0.09146792441606522,
				-0.8881596326828003,
				-1.3896888494491577
			],
			"type":"VEC3"
		},
		{
			"bufferView":86,
			"componentType":5126,
			"count":424,
			"type":"VEC3"
		},
		{
			"bufferView":87,
			"componentType":5126,
			"count":424,
			"type":"VEC2"
		},
		{
			"bufferView":88,
			"componentType":5123,
			"count":876,
			"type":"SCALAR"
		},
		{
			"bufferView":89,
			"componentType":5126,
			"count":48,
			"max":[
				0.3400000333786011,
				0.6362590789794922,
				0.3400000333786011
			],
			"min":[
				-0.3400000333786011,
				-0.5800000429153442,
				-0.3400000333786011
			],
			"type":"VEC3"
		},
		{
			"bufferView":90,
			"componentType":5126,
			"count":48,
			"type":"VEC3"
		},
		{
			"bufferView":91,
			"componentType":5126,
			"count":48,
			"type":"VEC2"
		},
		{
			"bufferView":92,
			"componentType":5123,
			"count":84,
			"type":"SCALAR"
		},
		{
			"bufferView":93,
			"componentType":5126,
			"count":8,
			"max":[
				5.553345203399658,
				3.969697952270508,
				2.3693511486053467
			],
			"min":[
				-3.0095746517181396,
				2.438183307647705,
				-2.3693511486053467
			],
			"type":"VEC3"
		},
		{
			"bufferView":94,
			"componentType":5126,
			"count":8,
			"type":"VEC3"
		},
		{
			"bufferView":95,
			"componentType":5126,
			"count":8,
			"type":"VEC2"
		},
		{
			"bufferView":96,
			"componentType":5126,
			"count":8,
			"type":"VEC4"
		},
		{
			"bufferView":97,
			"componentType":5123,
			"count":12,
			"type":"SCALAR"
		},
		{
			"bufferView":98,
			"componentType":5126,
			"count":1032,
			"max":[
				4.300776481628418,
				0.03295522928237915,
				0.9623493552207947
			],
			"min":[
				-0.4407764971256256,
				-2.8366713523864746,
				-0.9623497128486633
			],
			"type":"VEC3"
		},
		{
			"bufferView":99,
			"componentType":5126,
			"count":1032,
			"type":"VEC3"
		},
		{
			"bufferView":100,
			"componentType":5126,
			"count":1032,
			"type":"VEC2"
		},
		{
			"bufferView":101,
			"componentType":5126,
			"count":1032,
			"type":"VEC4"
		},
		{
			"bufferView":102,
			"componentType":5123,
			"count":2736,
			"type":"SCALAR"
		},
		{
			"bufferView":103,
			"componentType":5126,
			"count":48,
			"max":[
				0.025089383125305176,
				0.7169329524040222,
				0.291674941778183
			],
			"min":[
				-0.025089383125305176,
				-0.9938815236091614,
				-1.860742449760437
			],
			"type":"VEC3"
		},
		{
			"bufferView":104,
			"componentType":5126,
			"count":48,
			"type":"VEC3"
		},
		{
			"bufferView":105,
			"componentType":5126,
			"count":48,
			"type":"VEC2"
		},
		{
			"bufferView":106,
			"componentType":5126,
			"count":48,
			"type":"VEC4"
		},
		{
			"bufferView":107,
			"componentType":5123,
			"count":72,
			"type":"SCALAR"
		},
		{
			"bufferView":108,
			"componentType":5126,
			"count":60,
			"max":[
				0.012568301521241665,
				0.9204904437065125,
				0.40559327602386475
			],
			"min":[
				-0.012568301521241665,
				-1.1446940898895264,
				-0.40559327602386475
			],
			"type":"VEC3"
		},
		{
			"bufferView":109,
			"componentType":5126,
			"count":60,
			"type":"VEC3"
		},
		{
			"bufferView":110,
			"componentType":5126,
			"count":60,
			"type":"VEC2"
		},
		{
			"bufferView":111,
			"componentType":5123,
			"count":108,
			"type":"SCALAR"
		},
		{
			"bufferView":112,
			"componentType":5126,
			"count":176,
			"max":[
				1.2304115295410156,
				0.18962150812149048,
				3.0385138988494873
			],
			"min":[
				-3.282047748565674,
				-0.2633082866668701,
				-2.6962575912475586
			],
			"type":"VEC3"
		},
		{
			"bufferView":113,
			"componentType":5126,
			"count":176,
			"type":"VEC3"
		},
		{
			"bufferView":114,
			"componentType":5126,
			"count":176,
			"type":"VEC2"
		},
		{
			"bufferView":115,
			"componentType":5126,
			"count":176,
			"type":"VEC4"
		},
		{
			"bufferView":116,
			"componentType":5123,
			"count":444,
			"type":"SCALAR"
		},
		{
			"bufferView":117,
			"componentType":5126,
			"count":176,
			"max":[
				1.291243553161621,
				0.05927114188671112,
				3.038513660430908
			],
			"min":[
				-3.3428797721862793,
				-0.3008672595024109,
				-2.761361598968506
			],
			"type":"VEC3"
		},
		{
			"bufferView":118,
			"componentType":5126,
			"count":176,
			"type":"VEC3"
		},
		{
			"bufferView":119,
			"componentType":5126,
			"count":176,
			"type":"VEC2"
		},
		{
			"bufferView":120,
			"componentType":5126,
			"count":176,
			"type":"VEC4"
		},
		{
			"bufferView":121,
			"componentType":5123,
			"count":444,
			"type":"SCALAR"
		},
		{
			"bufferView":122,
			"componentType":5126,
			"count":24,
			"max":[
				1,
				1,
				1
			],
			"min":[
				-1,
				-1,
				-1
			],
			"type":"VEC3"
		},
		{
			"bufferView":123,
			"componentType":5126,
			"count":24,
			"type":"VEC3"
		},
		{
			"bufferView":124,
			"componentType":5126,
			"count":24,
			"type":"VEC2"
		},
		{
			"bufferView":125,
			"componentType":5126,
			"count":24,
			"type":"VEC4"
		},
		{
			"bufferView":126,
			"componentType":5126,
			"count":180,
			"max":[
				1.1494990587234497,
				-0.08090300858020782,
				3.038558006286621
			],
			"min":[
				-3.2011351585388184,
				-0.21954508125782013,
				-2.9879822731018066
			],
			"type":"VEC3"
		},
		{
			"bufferView":127,
			"componentType":5126,
			"count":180,
			"type":"VEC3"
		},
		{
			"bufferView":128,
			"componentType":5126,
			"count":180,
			"type":"VEC2"
		},
		{
			"bufferView":129,
			"componentType":5126,
			"count":180,
			"type":"VEC4"
		},
		{
			"bufferView":130,
			"componentType":5123,
			"count":444,
			"type":"SCALAR"
		},
		{
			"bufferView":131,
			"componentType":5126,
			"count":176,
			"max":[
				1.1281148195266724,
				0.22646483778953552,
				2.8673856258392334
			],
			"min":[
				-3.3843445777893066,
				-0.2264654040336609,
				-2.9674322605133057
			],
			"type":"VEC3"
		},
		{
			"bufferView":132,
			"componentType":5126,
			"count":176,
			"type":"VEC3"
		},
		{
			"bufferView":133,
			"componentType":5126,
			"count":176,
			"type":"VEC2"
		},
		{
			"bufferView":134,
			"componentType":5126,
			"count":176,
			"type":"VEC4"
		},
		{
			"bufferView":135,
			"componentType":5126,
			"count":176,
			"max":[
				1.1281148195266724,
				0.22646483778953552,
				2.8673856258392334
			],
			"min":[
				-3.3843445777893066,
				-0.2264651209115982,
				-2.9674315452575684
			],
			"type":"VEC3"
		},
		{
			"bufferView":136,
			"componentType":5126,
			"count":176,
			"type":"VEC3"
		},
		{
			"bufferView":137,
			"componentType":5126,
			"count":176,
			"type":"VEC2"
		},
		{
			"bufferView":138,
			"componentType":5126,
			"count":176,
			"type":"VEC4"
		},
		{
			"bufferView":139,
			"componentType":5126,
			"count":840,
			"max":[
				3.823328733444214,
				0.0729590505361557,
				4.077508449554443
			],
			"min":[
				-4.077508449554443,
				-0.07295884191989899,
				-4.077508449554443
			],
			"type":"VEC3"
		},
		{
			"bufferView":140,
			"componentType":5126,
			"count":840,
			"type":"VEC3"
		},
		{
			"bufferView":141,
			"componentType":5126,
			"count":840,
			"type":"VEC2"
		},
		{
			"bufferView":142,
			"componentType":5123,
			"count":1512,
			"type":"SCALAR"
		},
		{
			"bufferView":143,
			"componentType":5126,
			"count":1984,
			"max":[
				3.359508752822876,
				0.0729590505361557,
				3.359508752822876
			],
			"min":[
				-3.359508752822876,
				-0.07295884191989899,
				-3.359508752822876
			],
			"type":"VEC3"
		},
		{
			"bufferView":144,
			"componentType":5126,
			"count":1984,
			"type":"VEC3"
		},
		{
			"bufferView":145,
			"componentType":5126,
			"count":1984,
			"type":"VEC2"
		},
		{
			"bufferView":146,
			"componentType":5123,
			"count":3648,
			"type":"SCALAR"
		},
		{
			"bufferView":147,
			"componentType":5126,
			"count":88,
			"max":[
				0.08200129121541977,
				0.08200129121541977,
				0.9783518314361572
			],
			"min":[
				-0.08200129121541977,
				-0.08200129121541977,
				-0.9783518314361572
			],
			"type":"VEC3"
		},
		{
			"bufferView":148,
			"componentType":5126,
			"count":88,
			"type":"VEC3"
		},
		{
			"bufferView":149,
			"componentType":5126,
			"count":88,
			"type":"VEC2"
		},
		{
			"bufferView":150,
			"componentType":5126,
			"count":88,
			"type":"VEC4"
		},
		{
			"bufferView":151,
			"componentType":5123,
			"count":156,
			"type":"SCALAR"
		},
		{
			"bufferView":152,
			"componentType":5126,
			"count":4943,
			"max":[
				1.2589616775512695,
				2.9415090084075928,
				1.2589616775512695
			],
			"min":[
				-1.2589616775512695,
				-1,
				-1.2589616775512695
			],
			"type":"VEC3"
		},
		{
			"bufferView":153,
			"componentType":5126,
			"count":4943,
			"type":"VEC3"
		},
		{
			"bufferView":154,
			"componentType":5126,
			"count":4943,
			"type":"VEC2"
		},
		{
			"bufferView":155,
			"componentType":5123,
			"count":9981,
			"type":"SCALAR"
		},
		{
			"bufferView":156,
			"componentType":5126,
			"count":930,
			"max":[
				1.2216038703918457,
				3.0050852298736572,
				1.2216038703918457
			],
			"min":[
				-1.2216038703918457,
				0.9654603004455566,
				-1.2216038703918457
			],
			"type":"VEC3"
		},
		{
			"bufferView":157,
			"componentType":5126,
			"count":930,
			"type":"VEC3"
		},
		{
			"bufferView":158,
			"componentType":5126,
			"count":930,
			"type":"VEC2"
		},
		{
			"bufferView":159,
			"componentType":5123,
			"count":1440,
			"type":"SCALAR"
		},
		{
			"bufferView":160,
			"componentType":5126,
			"count":8829,
			"max":[
				1.1878905296325684,
				2.006770133972168,
				1.2216038703918457
			],
			"min":[
				-1.2216038703918457,
				-1,
				-1.2216038703918457
			],
			"type":"VEC3"
		},
		{
			"bufferView":161,
			"componentType":5126,
			"count":8829,
			"type":"VEC3"
		},
		{
			"bufferView":162,
			"componentType":5126,
			"count":8829,
			"type":"VEC2"
		},
		{
			"bufferView":163,
			"componentType":5123,
			"count":16293,
			"type":"SCALAR"
		},
		{
			"bufferView":164,
			"componentType":5126,
			"count":798,
			"max":[
				2.5813746452331543,
				-0.7897646427154541,
				3.4605658054351807
			],
			"min":[
				-3.4605655670166016,
				-3.270534038543701,
				-3.4605658054351807
			],
			"type":"VEC3"
		},
		{
			"bufferView":165,
			"componentType":5126,
			"count":798,
			"type":"VEC3"
		},
		{
			"bufferView":166,
			"componentType":5126,
			"count":798,
			"type":"VEC2"
		},
		{
			"bufferView":167,
			"componentType":5123,
			"count":1512,
			"type":"SCALAR"
		},
		{
			"bufferView":168,
			"componentType":5126,
			"count":24,
			"max":[
				1,
				1,
				1
			],
			"min":[
				-1,
				-1,
				-1
			],
			"type":"VEC3"
		},
		{
			"bufferView":169,
			"componentType":5126,
			"count":24,
			"type":"VEC3"
		},
		{
			"bufferView":170,
			"componentType":5126,
			"count":24,
			"type":"VEC2"
		},
		{
			"bufferView":171,
			"componentType":5126,
			"count":24,
			"type":"VEC4"
		},
		{
			"bufferView":172,
			"componentType":5126,
			"count":40,
			"max":[
				0.4366300702095032,
				6.404886245727539,
				0.4366300702095032
			],
			"min":[
				-0.4366300702095032,
				0.28479504585266113,
				-0.4366300702095032
			],
			"type":"VEC3"
		},
		{
			"bufferView":173,
			"componentType":5126,
			"count":40,
			"type":"VEC3"
		},
		{
			"bufferView":174,
			"componentType":5126,
			"count":40,
			"type":"VEC2"
		},
		{
			"bufferView":175,
			"componentType":5123,
			"count":66,
			"type":"SCALAR"
		},
		{
			"bufferView":176,
			"componentType":5126,
			"count":158,
			"max":[
				0.5299999713897705,
				0.28479504585266113,
				0.5299999713897705
			],
			"min":[
				-0.5299999713897705,
				-0.08000004291534424,
				-0.5299999713897705
			],
			"type":"VEC3"
		},
		{
			"bufferView":177,
			"componentType":5126,
			"count":158,
			"type":"VEC3"
		},
		{
			"bufferView":178,
			"componentType":5126,
			"count":158,
			"type":"VEC2"
		},
		{
			"bufferView":179,
			"componentType":5123,
			"count":306,
			"type":"SCALAR"
		},
		{
			"bufferView":180,
			"componentType":5126,
			"count":352,
			"max":[
				2.3963472843170166,
				0.8342069983482361,
				2.3963475227355957
			],
			"min":[
				-2.3963472843170166,
				1.6035288581406348e-06,
				-2.3963475227355957
			],
			"type":"VEC3"
		},
		{
			"bufferView":181,
			"componentType":5126,
			"count":352,
			"type":"VEC3"
		},
		{
			"bufferView":182,
			"componentType":5126,
			"count":352,
			"type":"VEC2"
		},
		{
			"bufferView":183,
			"componentType":5126,
			"count":352,
			"type":"VEC4"
		},
		{
			"bufferView":184,
			"componentType":5123,
			"count":672,
			"type":"SCALAR"
		}
	],
	"bufferViews":[
		{
			"buffer":0,
			"byteLength":1728,
			"byteOffset":0,
			"target":34962
		},
		{
			"buffer":0,
			"byteLength":1728,
			"byteOffset":1728,
			"target":34962
		},
		{
			"buffer":0,
			"byteLength":1152,
			"byteOffset":3456,
			"target":34962
		},
		{
			"buffer":0,
			"byteLength":2304,
			"byteOffset":4608,
			"target":34962
		},
		{
			"buffer":0,
			"byteLength":432,
			"byteOffset":6912,
			"target":34963
		},
		{
			"buffer":0,
			"byteLength":28224,
			"byteOffset":7344,
			"target":34962
		},
		{
			"buffer":0,
			"byteLength":28224,
			"byteOffset":35568,
			"target":34962
		},
		{
			"buffer":0,
			"byteLength":18816,
			"byteOffset":63792,
			"target":34962
		},
		{
			"buffer":0,
			"byteLength":9576,
			"byteOffset":82608,
			"target":34963
		},
		{
			"buffer":0,
			"byteLength":2016,
			"byteOffset":92184,
			"target":34962
		},
		{
			"buffer":0,
			"byteLength":2016,
			"byteOffset":94200,
			"target":34962
		},
		{
			"buffer":0,
			"byteLength":1344,
			"byteOffset":96216,
			"target":34962
		},
		{
			"buffer":0,
			"byteLength":504,
			"byteOffset":97560,
			"target":34963
		},
		{
			"buffer":0,
			"byteLength":19200,
			"byteOffset":98064,
			"target":34962
		},
		{
			"buffer":0,
			"byteLength":19200,
			"byteOffset":117264,
			"target":34962
		},
		{
			"buffer":0,
			"byteLength":12800,
			"byteOffset":136464,
			"target":34962
		},
		{
			"buffer":0,
			"byteLength":25600,
			"byteOffset":149264,
			"target":34962
		},
		{
			"buffer":0,
			"byteLength":6912,
			"byteOffset":174864,
			"target":34963
		},
		{
			"buffer":0,
			"byteLength":9984,
			"byteOffset":181776,
			"target":34962
		},
		{
			"buffer":0,
			"byteLength":9984,
			"byteOffset":191760,
			"target":34962
		},
		{
			"buffer":0,
			"byteLength":6656,
			"byteOffset":201744,
			"target":34962
		},
		{
			"buffer":0,
			"byteLength":13312,
			"byteOffset":208400,
			"target":34962
		},
		{
			"buffer":0,
			"byteLength":2688,
			"byteOffset":221712,
			"target":34963
		},
		{
			"buffer":0,
			"byteLength":4944,
			"byteOffset":224400,
			"target":34962
		},
		{
			"buffer":0,
			"byteLength":4944,
			"byteOffset":229344,
			"target":34962
		},
		{
			"buffer":0,
			"byteLength":3296,
			"byteOffset":234288,
			"target":34962
		},
		{
			"buffer":0,
			"byteLength":6592,
			"byteOffset":237584,
			"target":34962
		},
		{
			"buffer":0,
			"byteLength":1800,
			"byteOffset":244176,
			"target":34963
		},
		{
			"buffer":0,
			"byteLength":192,
			"byteOffset":245976,
			"target":34962
		},
		{
			"buffer":0,
			"byteLength":192,
			"byteOffset":246168,
			"target":34962
		},
		{
			"buffer":0,
			"byteLength":128,
			"byteOffset":246360,
			"target":34962
		},
		{
			"buffer":0,
			"byteLength":256,
			"byteOffset":246488,
			"target":34962
		},
		{
			"buffer":0,
			"byteLength":48,
			"byteOffset":246744,
			"target":34963
		},
		{
			"buffer":0,
			"byteLength":2448,
			"byteOffset":246792,
			"target":34962
		},
		{
			"buffer":0,
			"byteLength":2448,
			"byteOffset":249240,
			"target":34962
		},
		{
			"buffer":0,
			"byteLength":1632,
			"byteOffset":251688,
			"target":34962
		},
		{
			"buffer":0,
			"byteLength":3264,
			"byteOffset":253320,
			"target":34962
		},
		{
			"buffer":0,
			"byteLength":864,
			"byteOffset":256584,
			"target":34963
		},
		{
			"buffer":0,
			"byteLength":5952,
			"byteOffset":257448,
			"target":34962
		},
		{
			"buffer":0,
			"byteLength":5952,
			"byteOffset":263400,
			"target":34962
		},
		{
			"buffer":0,
			"byteLength":3968,
			"byteOffset":269352,
			"target":34962
		},
		{
			"buffer":0,
			"byteLength":7936,
			"byteOffset":273320,
			"target":34962
		},
		{
			"buffer":0,
			"byteLength":1920,
			"byteOffset":281256,
			"target":34963
		},
		{
			"buffer":0,
			"byteLength":1920,
			"byteOffset":283176,
			"target":34962
		},
		{
			"buffer":0,
			"byteLength":1920,
			"byteOffset":285096,
			"target":34962
		},
		{
			"buffer":0,
			"byteLength":1280,
			"byteOffset":287016,
			"target":34962
		},
		{
			"buffer":0,
			"byteLength":2560,
			"byteOffset":288296,
			"target":34962
		},
		{
			"buffer":0,
			"byteLength":480,
			"byteOffset":290856,
			"target":34963
		},
		{
			"buffer":0,
			"byteLength":1560,
			"byteOffset":291336,
			"target":34962
		},
		{
			"buffer":0,
			"byteLength":1560,
			"byteOffset":292896,
			"target":34962
		},
		{
			"buffer":0,
			"byteLength":1040,
			"byteOffset":294456,
			"target":34962
		},
		{
			"buffer":0,
			"byteLength":456,
			"byteOffset":295496,
			"target":34963
		},
		{
			"buffer":0,
			"byteLength":3720,
			"byteOffset":295952,
			"target":34962
		},
		{
			"buffer":0,
			"byteLength":3720,
			"byteOffset":299672,
			"target":34962
		},
		{
			"buffer":0,
			"byteLength":2480,
			"byteOffset":303392,
			"target":34962
		},
		{
			"buffer":0,
			"byteLength":1788,
			"byteOffset":305872,
			"target":34963
		},
		{
			"buffer":0,
			"byteLength":36240,
			"byteOffset":307660,
			"target":34962
		},
		{
			"buffer":0,
			"byteLength":36240,
			"byteOffset":343900,
			"target":34962
		},
		{
			"buffer":0,
			"byteLength":24160,
			"byteOffset":380140,
			"target":34962
		},
		{
			"buffer":0,
			"byteLength":11904,
			"byteOffset":404300,
			"target":34963
		},
		{
			"buffer":0,
			"byteLength":8976,
			"byteOffset":416204,
			"target":34962
		},
		{
			"buffer":0,
			"byteLength":8976,
			"byteOffset":425180,
			"target":34962
		},
		{
			"buffer":0,
			"byteLength":5984,
			"byteOffset":434156,
			"target":34962
		},
		{
			"buffer":0,
			"byteLength":3048,
			"byteOffset":440140,
			"target":34963
		},
		{
			"buffer":0,
			"byteLength":2304,
			"byteOffset":443188,
			"target":34962
		},
		{
			"buffer":0,
			"byteLength":2304,
			"byteOffset":445492,
			"target":34962
		},
		{
			"buffer":0,
			"byteLength":1536,
			"byteOffset":447796,
			"target":34962
		},
		{
			"buffer":0,
			"byteLength":1128,
			"byteOffset":449332,
			"target":34963
		},
		{
			"buffer":0,
			"byteLength":15756,
			"byteOffset":450460,
			"target":34962
		},
		{
			"buffer":0,
			"byteLength":15756,
			"byteOffset":466216,
			"target":34962
		},
		{
			"buffer":0,
			"byteLength":10504,
			"byteOffset":481972,
			"target":34962
		},
		{
			"buffer":0,
			"byteLength":7200,
			"byteOffset":492476,
			"target":34963
		},
		{
			"buffer":0,
			"byteLength":3360,
			"byteOffset":499676,
			"target":34962
		},
		{
			"buffer":0,
			"byteLength":3360,
			"byteOffset":503036,
			"target":34962
		},
		{
			"buffer":0,
			"byteLength":2240,
			"byteOffset":506396,
			"target":34962
		},
		{
			"buffer":0,
			"byteLength":1680,
			"byteOffset":508636,
			"target":34963
		},
		{
			"buffer":0,
			"byteLength":24672,
			"byteOffset":510316,
			"target":34962
		},
		{
			"buffer":0,
			"byteLength":24672,
			"byteOffset":534988,
			"target":34962
		},
		{
			"buffer":0,
			"byteLength":16448,
			"byteOffset":559660,
			"target":34962
		},
		{
			"buffer":0,
			"byteLength":8232,
			"byteOffset":576108,
			"target":34963
		},
		{
			"buffer":0,
			"byteLength":288,
			"byteOffset":584340,
			"target":34962
		},
		{
			"buffer":0,
			"byteLength":288,
			"byteOffset":584628,
			"target":34962
		},
		{
			"buffer":0,
			"byteLength":192,
			"byteOffset":584916,
			"target":34962
		},
		{
			"buffer":0,
			"byteLength":384,
			"byteOffset":585108,
			"target":34962
		},
		{
			"buffer":0,
			"byteLength":72,
			"byteOffset":585492,
			"target":34963
		},
		{
			"buffer":0,
			"byteLength":5088,
			"byteOffset":585564,
			"target":34962
		},
		{
			"buffer":0,
			"byteLength":5088,
			"byteOffset":590652,
			"target":34962
		},
		{
			"buffer":0,
			"byteLength":3392,
			"byteOffset":595740,
			"target":34962
		},
		{
			"buffer":0,
			"byteLength":1752,
			"byteOffset":599132,
			"target":34963
		},
		{
			"buffer":0,
			"byteLength":576,
			"byteOffset":600884,
			"target":34962
		},
		{
			"buffer":0,
			"byteLength":576,
			"byteOffset":601460,
			"target":34962
		},
		{
			"buffer":0,
			"byteLength":384,
			"byteOffset":602036,
			"target":34962
		},
		{
			"buffer":0,
			"byteLength":168,
			"byteOffset":602420,
			"target":34963
		},
		{
			"buffer":0,
			"byteLength":96,
			"byteOffset":602588,
			"target":34962
		},
		{
			"buffer":0,
			"byteLength":96,
			"byteOffset":602684,
			"target":34962
		},
		{
			"buffer":0,
			"byteLength":64,
			"byteOffset":602780,
			"target":34962
		},
		{
			"buffer":0,
			"byteLength":128,
			"byteOffset":602844,
			"target":34962
		},
		{
			"buffer":0,
			"byteLength":24,
			"byteOffset":602972,
			"target":34963
		},
		{
			"buffer":0,
			"byteLength":12384,
			"byteOffset":602996,
			"target":34962
		},
		{
			"buffer":0,
			"byteLength":12384,
			"byteOffset":615380,
			"target":34962
		},
		{
			"buffer":0,
			"byteLength":8256,
			"byteOffset":627764,
			"target":34962
		},
		{
			"buffer":0,
			"byteLength":16512,
			"byteOffset":636020,
			"target":34962
		},
		{
			"buffer":0,
			"byteLength":5472,
			"byteOffset":652532,
			"target":34963
		},
		{
			"buffer":0,
			"byteLength":576,
			"byteOffset":658004,
			"target":34962
		},
		{
			"buffer":0,
			"byteLength":576,
			"byteOffset":658580,
			"target":34962
		},
		{
			"buffer":0,
			"byteLength":384,
			"byteOffset":659156,
			"target":34962
		},
		{
			"buffer":0,
			"byteLength":768,
			"byteOffset":659540,
			"target":34962
		},
		{
			"buffer":0,
			"byteLength":144,
			"byteOffset":660308,
			"target":34963
		},
		{
			"buffer":0,
			"byteLength":720,
			"byteOffset":660452,
			"target":34962
		},
		{
			"buffer":0,
			"byteLength":720,
			"byteOffset":661172,
			"target":34962
		},
		{
			"buffer":0,
			"byteLength":480,
			"byteOffset":661892,
			"target":34962
		},
		{
			"buffer":0,
			"byteLength":216,
			"byteOffset":662372,
			"target":34963
		},
		{
			"buffer":0,
			"byteLength":2112,
			"byteOffset":662588,
			"target":34962
		},
		{
			"buffer":0,
			"byteLength":2112,
			"byteOffset":664700,
			"target":34962
		},
		{
			"buffer":0,
			"byteLength":1408,
			"byteOffset":666812,
			"target":34962
		},
		{
			"buffer":0,
			"byteLength":2816,
			"byteOffset":668220,
			"target":34962
		},
		{
			"buffer":0,
			"byteLength":888,
			"byteOffset":671036,
			"target":34963
		},
		{
			"buffer":0,
			"byteLength":2112,
			"byteOffset":671924,
			"target":34962
		},
		{
			"buffer":0,
			"byteLength":2112,
			"byteOffset":674036,
			"target":34962
		},
		{
			"buffer":0,
			"byteLength":1408,
			"byteOffset":676148,
			"target":34962
		},
		{
			"buffer":0,
			"byteLength":2816,
			"byteOffset":677556,
			"target":34962
		},
		{
			"buffer":0,
			"byteLength":888,
			"byteOffset":680372,
			"target":34963
		},
		{
			"buffer":0,
			"byteLength":288,
			"byteOffset":681260,
			"target":34962
		},
		{
			"buffer":0,
			"byteLength":288,
			"byteOffset":681548,
			"target":34962
		},
		{
			"buffer":0,
			"byteLength":192,
			"byteOffset":681836,
			"target":34962
		},
		{
			"buffer":0,
			"byteLength":384,
			"byteOffset":682028,
			"target":34962
		},
		{
			"buffer":0,
			"byteLength":2160,
			"byteOffset":682412,
			"target":34962
		},
		{
			"buffer":0,
			"byteLength":2160,
			"byteOffset":684572,
			"target":34962
		},
		{
			"buffer":0,
			"byteLength":1440,
			"byteOffset":686732,
			"target":34962
		},
		{
			"buffer":0,
			"byteLength":2880,
			"byteOffset":688172,
			"target":34962
		},
		{
			"buffer":0,
			"byteLength":888,
			"byteOffset":691052,
			"target":34963
		},
		{
			"buffer":0,
			"byteLength":2112,
			"byteOffset":691940,
			"target":34962
		},
		{
			"buffer":0,
			"byteLength":2112,
			"byteOffset":694052,
			"target":34962
		},
		{
			"buffer":0,
			"byteLength":1408,
			"byteOffset":696164,
			"target":34962
		},
		{
			"buffer":0,
			"byteLength":2816,
			"byteOffset":697572,
			"target":34962
		},
		{
			"buffer":0,
			"byteLength":2112,
			"byteOffset":700388,
			"target":34962
		},
		{
			"buffer":0,
			"byteLength":2112,
			"byteOffset":702500,
			"target":34962
		},
		{
			"buffer":0,
			"byteLength":1408,
			"byteOffset":704612,
			"target":34962
		},
		{
			"buffer":0,
			"byteLength":2816,
			"byteOffset":706020,
			"target":34962
		},
		{
			"buffer":0,
			"byteLength":10080,
			"byteOffset":708836,
			"target":34962
		},
		{
			"buffer":0,
			"byteLength":10080,
			"byteOffset":718916,
			"target":34962
		},
		{
			"buffer":0,
			"byteLength":6720,
			"byteOffset":728996,
			"target":34962
		},
		{
			"buffer":0,
			"byteLength":3024,
			"byteOffset":735716,
			"target":34963
		},
		{
			"buffer":0,
			"byteLength":23808,
			"byteOffset":738740,
			"target":34962
		},
		{
			"buffer":0,
			"byteLength":23808,
			"byteOffset":762548,
			"target":34962
		},
		{
			"buffer":0,
			"byteLength":15872,
			"byteOffset":786356,
			"target":34962
		},
		{
			"buffer":0,
			"byteLength":7296,
			"byteOffset":802228,
			"target":34963
		},
		{
			"buffer":0,
			"byteLength":1056,
			"byteOffset":809524,
			"target":34962
		},
		{
			"buffer":0,
			"byteLength":1056,
			"byteOffset":810580,
			"target":34962
		},
		{
			"buffer":0,
			"byteLength":704,
			"byteOffset":811636,
			"target":34962
		},
		{
			"buffer":0,
			"byteLength":1408,
			"byteOffset":812340,
			"target":34962
		},
		{
			"buffer":0,
			"byteLength":312,
			"byteOffset":813748,
			"target":34963
		},
		{
			"buffer":0,
			"byteLength":59316,
			"byteOffset":814060,
			"target":34962
		},
		{
			"buffer":0,
			"byteLength":59316,
			"byteOffset":873376,
			"target":34962
		},
		{
			"buffer":0,
			"byteLength":39544,
			"byteOffset":932692,
			"target":34962
		},
		{
			"buffer":0,
			"byteLength":19962,
			"byteOffset":972236,
			"target":34963
		},
		{
			"buffer":0,
			"byteLength":11160,
			"byteOffset":992200,
			"target":34962
		},
		{
			"buffer":0,
			"byteLength":11160,
			"byteOffset":1003360,
			"target":34962
		},
		{
			"buffer":0,
			"byteLength":7440,
			"byteOffset":1014520,
			"target":34962
		},
		{
			"buffer":0,
			"byteLength":2880,
			"byteOffset":1021960,
			"target":34963
		},
		{
			"buffer":0,
			"byteLength":105948,
			"byteOffset":1024840,
			"target":34962
		},
		{
			"buffer":0,
			"byteLength":105948,
			"byteOffset":1130788,
			"target":34962
		},
		{
			"buffer":0,
			"byteLength":70632,
			"byteOffset":1236736,
			"target":34962
		},
		{
			"buffer":0,
			"byteLength":32586,
			"byteOffset":1307368,
			"target":34963
		},
		{
			"buffer":0,
			"byteLength":9576,
			"byteOffset":1339956,
			"target":34962
		},
		{
			"buffer":0,
			"byteLength":9576,
			"byteOffset":1349532,
			"target":34962
		},
		{
			"buffer":0,
			"byteLength":6384,
			"byteOffset":1359108,
			"target":34962
		},
		{
			"buffer":0,
			"byteLength":3024,
			"byteOffset":1365492,
			"target":34963
		},
		{
			"buffer":0,
			"byteLength":288,
			"byteOffset":1368516,
			"target":34962
		},
		{
			"buffer":0,
			"byteLength":288,
			"byteOffset":1368804,
			"target":34962
		},
		{
			"buffer":0,
			"byteLength":192,
			"byteOffset":1369092,
			"target":34962
		},
		{
			"buffer":0,
			"byteLength":384,
			"byteOffset":1369284,
			"target":34962
		},
		{
			"buffer":0,
			"byteLength":480,
			"byteOffset":1369668,
			"target":34962
		},
		{
			"buffer":0,
			"byteLength":480,
			"byteOffset":1370148,
			"target":34962
		},
		{
			"buffer":0,
			"byteLength":320,
			"byteOffset":1370628,
			"target":34962
		},
		{
			"buffer":0,
			"byteLength":132,
			"byteOffset":1370948,
			"target":34963
		},
		{
			"buffer":0,
			"byteLength":1896,
			"byteOffset":1371080,
			"target":34962
		},
		{
			"buffer":0,
			"byteLength":1896,
			"byteOffset":1372976,
			"target":34962
		},
		{
			"buffer":0,
			"byteLength":1264,
			"byteOffset":1374872,
			"target":34962
		},
		{
			"buffer":0,
			"byteLength":612,
			"byteOffset":1376136,
			"target":34963
		},
		{
			"buffer":0,
			"byteLength":4224,
			"byteOffset":1376748,
			"target":34962
		},
		{
			"buffer":0,
			"byteLength":4224,
			"byteOffset":1380972,
			"target":34962
		},
		{
			"buffer":0,
			"byteLength":2816,
			"byteOffset":1385196,
			"target":34962
		},
		{
			"buffer":0,
			"byteLength":5632,
			"byteOffset":1388012,
			"target":34962
		},
		{
			"buffer":0,
			"byteLength":1344,
			"byteOffset":1393644,
			"target":34963
		}
	],
	"samplers":[
		{
			"magFilter":9729,
			"minFilter":9987
		}
	],
	"buffers":[
		{
			"byteLength":1394988,
			"uri":"churchBaked2.0-14a4017b2e5916e5bcb26a10dda034fc.bin"
		}
	]
}
