{
	"asset":{
		"generator":"Khronos glTF Blender I/O v5.0.21",
		"version":"2.0"
	},
	"scene":0,
	"scenes":[
		{
			"extras":{
				"uuid":"eb02d52d-79ba-44d9-a6cb-302551c9e3d2",
				"assets reported":{
					"fc0f0d15-013a-4420-a780-82ff40f8999f":true
				}
			},
			"name":"Scene",
			"nodes":[
				2,
				5,
				6
			]
		}
	],
	"nodes":[
		{
			"mesh":0,
			"name":"Cube.005",
			"scale":[
				0.29886049032211304,
				1,
				1
			],
			"translation":[
				-0.02326641045510769,
				0.7505143880844116,
				-0.6770226955413818
			]
		},
		{
			"mesh":1,
			"name":"Cube.009",
			"translation":[
				-0.02326641045510769,
				0.535887598991394,
				-0.6770226955413818
			]
		},
		{
			"children":[
				0,
				1
			],
			"name":"DoorParent L",
			"translation":[
				0.02326641045510769,
				0.04782819747924805,
				0.6770226955413818
			]
		},
		{
			"mesh":2,
			"name":"Cube.002",
			"translation":[
				-0.02326641045510769,
				0.535887598991394,
				0.6770226955413818
			]
		},
		{
			"mesh":3,
			"name":"Cube.006",
			"scale":[
				0.29886049032211304,
				1,
				1
			],
			"translation":[
				-0.02326641045510769,
				0.7505143880844116,
				0.6770226955413818
			]
		},
		{
			"children":[
				3,
				4
			],
			"name":"DoorParent R",
			"translation":[
				0.02326641045510769,
				0.04782819747924805,
				-0.6770226955413818
			]
		},
		{
			"mesh":4,
			"name":"Cube",
			"translation":[
				0,
				0.7983425855636597,
				0
			]
		}
	],
	"materials":[
		{
			"doubleSided":true,
			"name":"wood",
			"pbrMetallicRoughness":{
				"baseColorTexture":{
					"index":0
				},
				"metallicFactor":0
			}
		},
		{
			"doubleSided":true,
			"name":"Material.001",
			"pbrMetallicRoughness":{
				"baseColorFactor":[
					0,
					0,
					0,
					1
				],
				"metallicFactor":0,
				"roughnessFactor":0.5
			}
		}
	],
	"meshes":[
		{
			"name":"Cube.011",
			"primitives":[
				{
					"attributes":{
						"POSITION":0,
						"NORMAL":1,
						"TEXCOORD_0":2,
						"TANGENT":3
					},
					"indices":4,
					"material":0
				}
			]
		},
		{
			"name":"Cube.010",
			"primitives":[
				{
					"attributes":{
						"POSITION":5,
						"NORMAL":6,
						"TEXCOORD_0":7
					},
					"indices":8,
					"material":1
				}
			]
		},
		{
			"name":"Cube.003",
			"primitives":[
				{
					"attributes":{
						"POSITION":9,
						"NORMAL":10,
						"TEXCOORD_0":11
					},
					"indices":12,
					"material":1
				}
			]
		},
		{
			"name":"Cube.012",
			"primitives":[
				{
					"attributes":{
						"POSITION":13,
						"NORMAL":14,
						"TEXCOORD_0":15,
						"TANGENT":16
					},
					"indices":17,
					"material":0
				}
			]
		},
		{
			"name":"Cube",
			"primitives":[
				{
					"attributes":{
						"POSITION":18,
						"NORMAL":19,
						"TEXCOORD_0":20
					},
					"indices":21,
					"material":0
				}
			]
		}
	],
	"textures":[
		{
			"sampler":0,
			"source":0
		}
	],
	"images":[
		{
			"mimeType":"image/jpeg",
			"name":"wood_table_worn_diff_2k.jpg",
			"uri":"../../textures/wood_table_worn_2k.blend/wood_table_worn_diff_2k.jpg"
		}
	],
	"accessors":[
		{
			"bufferView":0,
			"componentType":5126,
			"count":24,
			"max":[
				0.07785040885210037,
				0.4637524485588074,
				0.6770226955413818
			],
			"min":[
				-0.07785040885210037,
				-0.7505143880844116,
				0
			],
			"type":"VEC3"
		},
		{
			"bufferView":1,
			"componentType":5126,
			"count":24,
			"type":"VEC3"
		},
		{
			"bufferView":2,
			"componentType":5126,
			"count":24,
			"type":"VEC2"
		},
		{
			"bufferView":3,
			"componentType":5126,
			"count":24,
			"type":"VEC4"
		},
		{
			"bufferView":4,
			"componentType":5123,
			"count":36,
			"type":"SCALAR"
		},
		{
			"bufferView":5,
			"componentType":5126,
			"count":642,
			"max":[
				0.09839283674955368,
				0.1624576449394226,
				0.15942108631134033
			],
			"min":[
				-0.09839283674955368,
				-0.1624576449394226,
				0.07272132486104965
			],
			"type":"VEC3"
		},
		{
			"bufferView":6,
			"componentType":5126,
			"count":642,
			"type":"VEC3"
		},
		{
			"bufferView":7,
			"componentType":5126,
			"count":642,
			"type":"VEC2"
		},
		{
			"bufferView":8,
			"componentType":5123,
			"count":1188,
			"type":"SCALAR"
		},
		{
			"bufferView":9,
			"componentType":5126,
			"count":642,
			"max":[
				0.09839283674955368,
				0.1624576449394226,
				-0.07272132486104965
			],
			"min":[
				-0.09839283674955368,
				-0.1624576449394226,
				-0.15942108631134033
			],
			"type":"VEC3"
		},
		{
			"bufferView":10,
			"componentType":5126,
			"count":642,
			"type":"VEC3"
		},
		{
			"bufferView":11,
			"componentType":5126,
			"count":642,
			"type":"VEC2"
		},
		{
			"bufferView":12,
			"componentType":5123,
			"count":1188,
			"type":"SCALAR"
		},
		{
			"bufferView":13,
			"componentType":5126,
			"count":24,
			"max":[
				0.07785040885210037,
				0.4637524485588074,
				0
			],
			"min":[
				-0.07785040885210037,
				-0.7505143880844116,
				-0.6770226955413818
			],
			"type":"VEC3"
		},
		{
			"bufferView":14,
			"componentType":5126,
			"count":24,
			"type":"VEC3"
		},
		{
			"bufferView":15,
			"componentType":5126,
			"count":24,
			"type":"VEC2"
		},
		{
			"bufferView":16,
			"componentType":5126,
			"count":24,
			"type":"VEC4"
		},
		{
			"bufferView":17,
			"componentType":5123,
			"count":36,
			"type":"SCALAR"
		},
		{
			"bufferView":18,
			"componentType":5126,
			"count":164,
			"max":[
				0.04669778421521187,
				0.825414776802063,
				0.8529938459396362
			],
			"min":[
				-0.04669778421521187,
				-0.7505143880844116,
				-0.8529938459396362
			],
			"type":"VEC3"
		},
		{
			"bufferView":19,
			"componentType":5126,
			"count":164,
			"type":"VEC3"
		},
		{
			"bufferView":20,
			"componentType":5126,
			"count":164,
			"type":"VEC2"
		},
		{
			"bufferView":21,
			"componentType":5123,
			"count":306,
			"type":"SCALAR"
		}
	],
	"bufferViews":[
		{
			"buffer":0,
			"byteLength":288,
			"byteOffset":0,
			"target":34962
		},
		{
			"buffer":0,
			"byteLength":288,
			"byteOffset":288,
			"target":34962
		},
		{
			"buffer":0,
			"byteLength":192,
			"byteOffset":576,
			"target":34962
		},
		{
			"buffer":0,
			"byteLength":384,
			"byteOffset":768,
			"target":34962
		},
		{
			"buffer":0,
			"byteLength":72,
			"byteOffset":1152,
			"target":34963
		},
		{
			"buffer":0,
			"byteLength":7704,
			"byteOffset":1224,
			"target":34962
		},
		{
			"buffer":0,
			"byteLength":7704,
			"byteOffset":8928,
			"target":34962
		},
		{
			"buffer":0,
			"byteLength":5136,
			"byteOffset":16632,
			"target":34962
		},
		{
			"buffer":0,
			"byteLength":2376,
			"byteOffset":21768,
			"target":34963
		},
		{
			"buffer":0,
			"byteLength":7704,
			"byteOffset":24144,
			"target":34962
		},
		{
			"buffer":0,
			"byteLength":7704,
			"byteOffset":31848,
			"target":34962
		},
		{
			"buffer":0,
			"byteLength":5136,
			"byteOffset":39552,
			"target":34962
		},
		{
			"buffer":0,
			"byteLength":2376,
			"byteOffset":44688,
			"target":34963
		},
		{
			"buffer":0,
			"byteLength":288,
			"byteOffset":47064,
			"target":34962
		},
		{
			"buffer":0,
			"byteLength":288,
			"byteOffset":47352,
			"target":34962
		},
		{
			"buffer":0,
			"byteLength":192,
			"byteOffset":47640,
			"target":34962
		},
		{
			"buffer":0,
			"byteLength":384,
			"byteOffset":47832,
			"target":34962
		},
		{
			"buffer":0,
			"byteLength":72,
			"byteOffset":48216,
			"target":34963
		},
		{
			"buffer":0,
			"byteLength":1968,
			"byteOffset":48288,
			"target":34962
		},
		{
			"buffer":0,
			"byteLength":1968,
			"byteOffset":50256,
			"target":34962
		},
		{
			"buffer":0,
			"byteLength":1312,
			"byteOffset":52224,
			"target":34962
		},
		{
			"buffer":0,
			"byteLength":612,
			"byteOffset":53536,
			"target":34963
		}
	],
	"samplers":[
		{
			"magFilter":9729,
			"minFilter":9987
		}
	],
	"buffers":[
		{
			"byteLength":54148,
			"uri":"church%20doors-5294312346c2aa52bcec6d9cc54e7c10.bin"
		}
	]
}
