{
	"asset":{
		"generator":"Khronos glTF Blender I/O v5.0.21",
		"version":"2.0"
	},
	"extensionsUsed":[
		"KHR_lights_punctual"
	],
	"extensionsRequired":[
		"KHR_lights_punctual"
	],
	"extensions":{
		"KHR_lights_punctual":{
			"lights":[
				{
					"color":[
						1,
						1,
						1
					],
					"intensity":79.57747154594767,
					"type":"point",
					"name":"Light"
				}
			]
		}
	},
	"scene":0,
	"scenes":[
		{
			"extras":{
				"uuid":"eb02d52d-79ba-44d9-a6cb-302551c9e3d2",
				"assets reported":{}
			},
			"name":"Scene",
			"nodes":[
				0,
				1,
				2,
				3
			]
		}
	],
	"nodes":[
		{
			"mesh":0,
			"name":"Cube",
			"scale":[
				1,
				0.9261969923973083,
				1
			]
		},
		{
			"mesh":1,
			"name":"Cube.001",
			"translation":[
				0,
				-0.05689525604248047,
				0
			]
		},
		{
			"camera":0,
			"name":"Camera",
			"rotation":[
				-0.20997299253940582,
				0.3857799470424652,
				0.09062844514846802,
				0.8937962055206299
			],
			"translation":[
				7.358891487121582,
				4.958309173583984,
				6.925790786743164
			]
		},
		{
			"extensions":{
				"KHR_lights_punctual":{
					"light":0
				}
			},
			"name":"Light",
			"rotation":[
				-0.7071068286895752,
				0,
				0,
				0.7071068286895752
			]
		}
	],
	"cameras":[
		{
			"name":"Camera",
			"perspective":{
				"aspectRatio":1.7777777777777777,
				"yfov":0.39959652046304894,
				"zfar":100,
				"znear":0.10000000149011612
			},
			"type":"perspective"
		}
	],
	"materials":[
		{
			"doubleSided":true,
			"name":"Material",
			"normalTexture":{
				"index":0
			},
			"pbrMetallicRoughness":{
				"baseColorTexture":{
					"index":1
				},
				"metallicFactor":0,
				"metallicRoughnessTexture":{
					"index":2
				}
			}
		}
	],
	"meshes":[
		{
			"name":"Cube",
			"primitives":[
				{
					"attributes":{
						"POSITION":0,
						"NORMAL":1,
						"TEXCOORD_0":2,
						"TANGENT":3
					},
					"indices":4,
					"material":0
				}
			]
		},
		{
			"name":"Cube.001",
			"primitives":[
				{
					"attributes":{
						"POSITION":5,
						"NORMAL":6,
						"TEXCOORD_0":7
					},
					"indices":8,
					"material":0
				}
			]
		}
	],
	"textures":[
		{
			"sampler":0,
			"source":0
		},
		{
			"sampler":0,
			"source":1
		},
		{
			"sampler":0,
			"source":2
		}
	],
	"images":[
		{
			"mimeType":"image/png",
			"name":"plastered_stone_wall_nor_gl_2k.png",
			"uri":"../../textures/plastered_stone_wall_2k.blend/plastered_stone_wall_nor_gl_2k.png"
		},
		{
			"mimeType":"image/jpeg",
			"name":"plastered_stone_wall_diff_2k.jpg",
			"uri":"../../textures/plastered_stone_wall_2k.blend/plastered_stone_wall_diff_2k.jpg"
		},
		{
			"mimeType":"image/png",
			"name":"plastered_stone_wall_rough_2k.png",
			"uri":"../../textures/plastered_stone_wall_2k.blend/plastered_stone_wall_rough_2k.png"
		}
	],
	"accessors":[
		{
			"bufferView":0,
			"componentType":5126,
			"count":204,
			"max":[
				1.3948200941085815,
				0.7709075808525085,
				4.583957195281982
			],
			"min":[
				-1.3948200941085815,
				-0.7709076404571533,
				-1.3396152257919312
			],
			"type":"VEC3"
		},
		{
			"bufferView":1,
			"componentType":5126,
			"count":204,
			"type":"VEC3"
		},
		{
			"bufferView":2,
			"componentType":5126,
			"count":204,
			"type":"VEC2"
		},
		{
			"bufferView":3,
			"componentType":5126,
			"count":204,
			"type":"VEC4"
		},
		{
			"bufferView":4,
			"componentType":5123,
			"count":420,
			"type":"SCALAR"
		},
		{
			"bufferView":5,
			"componentType":5126,
			"count":108,
			"max":[
				1.3948200941085815,
				1.0652765035629272,
				4.583957195281982
			],
			"min":[
				-1.3948200941085815,
				0.7709075212478638,
				-1.3396152257919312
			],
			"type":"VEC3"
		},
		{
			"bufferView":6,
			"componentType":5126,
			"count":108,
			"type":"VEC3"
		},
		{
			"bufferView":7,
			"componentType":5126,
			"count":108,
			"type":"VEC2"
		},
		{
			"bufferView":8,
			"componentType":5123,
			"count":168,
			"type":"SCALAR"
		}
	],
	"bufferViews":[
		{
			"buffer":0,
			"byteLength":2448,
			"byteOffset":0,
			"target":34962
		},
		{
			"buffer":0,
			"byteLength":2448,
			"byteOffset":2448,
			"target":34962
		},
		{
			"buffer":0,
			"byteLength":1632,
			"byteOffset":4896,
			"target":34962
		},
		{
			"buffer":0,
			"byteLength":3264,
			"byteOffset":6528,
			"target":34962
		},
		{
			"buffer":0,
			"byteLength":840,
			"byteOffset":9792,
			"target":34963
		},
		{
			"buffer":0,
			"byteLength":1296,
			"byteOffset":10632,
			"target":34962
		},
		{
			"buffer":0,
			"byteLength":1296,
			"byteOffset":11928,
			"target":34962
		},
		{
			"buffer":0,
			"byteLength":864,
			"byteOffset":13224,
			"target":34962
		},
		{
			"buffer":0,
			"byteLength":336,
			"byteOffset":14088,
			"target":34963
		}
	],
	"samplers":[
		{
			"magFilter":9729,
			"minFilter":9987
		}
	],
	"buffers":[
		{
			"byteLength":14424,
			"uri":"coffin-5cc984d9ec39eb9f35bb56063a1a5001.bin"
		}
	]
}
