{
	"asset":{
		"generator":"Khronos glTF Blender I/O v5.0.21",
		"version":"2.0"
	},
	"extensionsUsed":[
		"KHR_materials_unlit"
	],
	"scene":0,
	"scenes":[
		{
			"name":"Scene",
			"nodes":[
				0,
				1,
				2,
				3,
				4,
				5,
				6,
				7,
				8,
				9,
				10
			]
		}
	],
	"nodes":[
		{
			"mesh":0,
			"name":"00Gear",
			"scale":[
				1.5348703861236572,
				1.286142349243164,
				1.5348703861236572
			]
		},
		{
			"mesh":1,
			"name":"9",
			"rotation":[
				-0.22436825931072235,
				-0.22436824440956116,
				0.6705660223960876,
				0.6705661416053772
			],
			"scale":[
				0.8677510619163513,
				0.8677510619163513,
				0.8677510619163513
			]
		},
		{
			"mesh":2,
			"name":"8",
			"rotation":[
				-0.4255475103855133,
				-0.4255474805831909,
				0.564720630645752,
				0.5647206902503967
			],
			"scale":[
				0.8677510619163513,
				0.8677511215209961,
				0.8677511215209961
			]
		},
		{
			"mesh":3,
			"name":"7",
			"rotation":[
				-0.5827452540397644,
				-0.5827451944351196,
				0.400509774684906,
				0.4005098044872284
			],
			"scale":[
				0.8677510619163513,
				0.8677510619163513,
				0.8677510619163513
			]
		},
		{
			"mesh":4,
			"name":"6",
			"rotation":[
				-0.6797147393226624,
				-0.6797146201133728,
				0.19490519165992737,
				0.19490520656108856
			],
			"scale":[
				0.8677510619163513,
				0.8677511215209961,
				0.8677511215209961
			]
		},
		{
			"mesh":5,
			"name":"5",
			"rotation":[
				0.7071068286895752,
				0.7071067690849304,
				0,
				5.338508302088485e-08
			],
			"scale":[
				0.8677510619163513,
				0.8677510619163513,
				0.8677510619163513
			]
		},
		{
			"mesh":6,
			"name":"4",
			"rotation":[
				0.6724985241889954,
				0.6724984645843506,
				0.21850807964801788,
				0.21850809454917908
			],
			"scale":[
				0.8677510619163513,
				0.8677511215209961,
				0.8677511215209961
			]
		},
		{
			"mesh":7,
			"name":"3",
			"rotation":[
				0.5720614790916443,
				0.5720614194869995,
				0.41562697291374207,
				0.41562700271606445
			],
			"scale":[
				0.8677510619163513,
				0.8677510619163513,
				0.8677510619163513
			]
		},
		{
			"mesh":8,
			"name":"2",
			"rotation":[
				0.4156269431114197,
				0.4156269133090973,
				0.5720614194869995,
				0.5720614194869995
			],
			"scale":[
				0.8677510619163513,
				0.8677511215209961,
				0.8677511215209961
			]
		},
		{
			"mesh":9,
			"name":"1",
			"rotation":[
				0.2185080349445343,
				0.2185080200433731,
				0.6724985241889954,
				0.6724985837936401
			],
			"scale":[
				0.8677510619163513,
				0.8677510619163513,
				0.8677510619163513
			]
		},
		{
			"mesh":10,
			"name":"0",
			"rotation":[
				0,
				0,
				0.7071067690849304,
				0.7071068286895752
			],
			"scale":[
				0.8677510619163513,
				0.8677510619163513,
				0.8677510619163513
			]
		}
	],
	"materials":[
		{
			"doubleSided":true,
			"name":"Material.002",
			"pbrMetallicRoughness":{
				"baseColorFactor":[
					0.17012375593185425,
					0.16293303668498993,
					0.15399400889873505,
					1
				],
				"roughnessFactor":0.5
			}
		},
		{
			"doubleSided":true,
			"extensions":{
				"KHR_materials_unlit":{}
			},
			"name":"Material.004",
			"pbrMetallicRoughness":{
				"metallicFactor":0,
				"roughnessFactor":0.9
			}
		}
	],
	"meshes":[
		{
			"name":"Cube.003",
			"primitives":[
				{
					"attributes":{
						"POSITION":0,
						"NORMAL":1,
						"TEXCOORD_0":2
					},
					"indices":3,
					"material":0
				}
			]
		},
		{
			"name":"Text",
			"primitives":[
				{
					"attributes":{
						"POSITION":4,
						"NORMAL":5,
						"TEXCOORD_0":6,
						"TANGENT":7
					},
					"indices":8,
					"material":1
				}
			]
		},
		{
			"name":"Text.001",
			"primitives":[
				{
					"attributes":{
						"POSITION":9,
						"NORMAL":10,
						"TEXCOORD_0":11,
						"TANGENT":12
					},
					"indices":13,
					"material":1
				}
			]
		},
		{
			"name":"Text.002",
			"primitives":[
				{
					"attributes":{
						"POSITION":14,
						"NORMAL":15,
						"TEXCOORD_0":16,
						"TANGENT":17
					},
					"indices":18,
					"material":1
				}
			]
		},
		{
			"name":"Text.003",
			"primitives":[
				{
					"attributes":{
						"POSITION":19,
						"NORMAL":20,
						"TEXCOORD_0":21,
						"TANGENT":22
					},
					"indices":23,
					"material":1
				}
			]
		},
		{
			"name":"Text.004",
			"primitives":[
				{
					"attributes":{
						"POSITION":24,
						"NORMAL":25,
						"TEXCOORD_0":26,
						"TANGENT":27
					},
					"indices":28,
					"material":1
				}
			]
		},
		{
			"name":"Text.005",
			"primitives":[
				{
					"attributes":{
						"POSITION":29,
						"NORMAL":30,
						"TEXCOORD_0":31,
						"TANGENT":32
					},
					"indices":33,
					"material":1
				}
			]
		},
		{
			"name":"Text.006",
			"primitives":[
				{
					"attributes":{
						"POSITION":34,
						"NORMAL":35,
						"TEXCOORD_0":36,
						"TANGENT":37
					},
					"indices":38,
					"material":1
				}
			]
		},
		{
			"name":"Text.007",
			"primitives":[
				{
					"attributes":{
						"POSITION":39,
						"NORMAL":40,
						"TEXCOORD_0":41,
						"TANGENT":42
					},
					"indices":43,
					"material":1
				}
			]
		},
		{
			"name":"Text.008",
			"primitives":[
				{
					"attributes":{
						"POSITION":44,
						"NORMAL":45,
						"TEXCOORD_0":46,
						"TANGENT":47
					},
					"indices":48,
					"material":1
				}
			]
		},
		{
			"name":"Text.009",
			"primitives":[
				{
					"attributes":{
						"POSITION":49,
						"NORMAL":50,
						"TEXCOORD_0":51,
						"TANGENT":52
					},
					"indices":53,
					"material":1
				}
			]
		}
	],
	"accessors":[
		{
			"bufferView":0,
			"componentType":5126,
			"count":960,
			"max":[
				0.38113918900489807,
				0.13819299638271332,
				0.38372328877449036
			],
			"min":[
				-0.38113918900489807,
				-0.1382565200328827,
				-0.38372331857681274
			],
			"type":"VEC3"
		},
		{
			"bufferView":1,
			"componentType":5126,
			"count":960,
			"type":"VEC3"
		},
		{
			"bufferView":2,
			"componentType":5126,
			"count":960,
			"type":"VEC2"
		},
		{
			"bufferView":3,
			"componentType":5123,
			"count":2592,
			"type":"SCALAR"
		},
		{
			"bufferView":4,
			"componentType":5126,
			"count":540,
			"max":[
				0.2021263837814331,
				0.7744925022125244,
				0.1234675720334053
			],
			"min":[
				-0.22255125641822815,
				0.7157676219940186,
				-0.1343725323677063
			],
			"type":"VEC3"
		},
		{
			"bufferView":5,
			"componentType":5126,
			"count":540,
			"type":"VEC3"
		},
		{
			"bufferView":6,
			"componentType":5126,
			"count":540,
			"type":"VEC2"
		},
		{
			"bufferView":7,
			"componentType":5126,
			"count":540,
			"type":"VEC4"
		},
		{
			"bufferView":8,
			"componentType":5123,
			"count":1596,
			"type":"SCALAR"
		},
		{
			"bufferView":9,
			"componentType":5126,
			"count":772,
			"max":[
				0.20252592861652374,
				0.7744925022125244,
				0.1342976689338684
			],
			"min":[
				-0.2221517115831375,
				0.7157676219940186,
				-0.13021573424339294
			],
			"type":"VEC3"
		},
		{
			"bufferView":10,
			"componentType":5126,
			"count":772,
			"type":"VEC3"
		},
		{
			"bufferView":11,
			"componentType":5126,
			"count":772,
			"type":"VEC2"
		},
		{
			"bufferView":12,
			"componentType":5126,
			"count":772,
			"type":"VEC4"
		},
		{
			"bufferView":13,
			"componentType":5123,
			"count":2316,
			"type":"SCALAR"
		},
		{
			"bufferView":14,
			"componentType":5126,
			"count":36,
			"max":[
				0.1932561844587326,
				0.7744925022125244,
				0.14009582996368408
			],
			"min":[
				-0.22596138715744019,
				0.7157676219940186,
				-0.1274510622024536
			],
			"type":"VEC3"
		},
		{
			"bufferView":15,
			"componentType":5126,
			"count":36,
			"type":"VEC3"
		},
		{
			"bufferView":16,
			"componentType":5126,
			"count":36,
			"type":"VEC2"
		},
		{
			"bufferView":17,
			"componentType":5126,
			"count":36,
			"type":"VEC4"
		},
		{
			"bufferView":18,
			"componentType":5123,
			"count":60,
			"type":"SCALAR"
		},
		{
			"bufferView":19,
			"componentType":5126,
			"count":492,
			"max":[
				0.22768543660640717,
				0.7744925022125244,
				0.13922125101089478
			],
			"min":[
				-0.19699223339557648,
				0.7157676219940186,
				-0.11619215458631516
			],
			"type":"VEC3"
		},
		{
			"bufferView":20,
			"componentType":5126,
			"count":492,
			"type":"VEC3"
		},
		{
			"bufferView":21,
			"componentType":5126,
			"count":492,
			"type":"VEC2"
		},
		{
			"bufferView":22,
			"componentType":5126,
			"count":492,
			"type":"VEC4"
		},
		{
			"bufferView":23,
			"componentType":5123,
			"count":1452,
			"type":"SCALAR"
		},
		{
			"bufferView":24,
			"componentType":5126,
			"count":328,
			"max":[
				0.21638286113739014,
				0.7744925022125244,
				0.11765807121992111
			],
			"min":[
				-0.20283469557762146,
				0.7157676219940186,
				-0.1177346408367157
			],
			"type":"VEC3"
		},
		{
			"bufferView":25,
			"componentType":5126,
			"count":328,
			"type":"VEC3"
		},
		{
			"bufferView":26,
			"componentType":5126,
			"count":328,
			"type":"VEC2"
		},
		{
			"bufferView":27,
			"componentType":5126,
			"count":328,
			"type":"VEC4"
		},
		{
			"bufferView":28,
			"componentType":5123,
			"count":924,
			"type":"SCALAR"
		},
		{
			"bufferView":29,
			"componentType":5126,
			"count":90,
			"max":[
				0.21922561526298523,
				0.7744925022125244,
				0.11610011011362076
			],
			"min":[
				-0.19999191164970398,
				0.7157676219940186,
				-0.16297376155853271
			],
			"type":"VEC3"
		},
		{
			"bufferView":30,
			"componentType":5126,
			"count":90,
			"type":"VEC3"
		},
		{
			"bufferView":31,
			"componentType":5126,
			"count":90,
			"type":"VEC2"
		},
		{
			"bufferView":32,
			"componentType":5126,
			"count":90,
			"type":"VEC4"
		},
		{
			"bufferView":33,
			"componentType":5123,
			"count":180,
			"type":"SCALAR"
		},
		{
			"bufferView":34,
			"componentType":5126,
			"count":602,
			"max":[
				0.21950359642505646,
				0.7744925022125244,
				0.09251436591148376
			],
			"min":[
				-0.2051740437746048,
				0.7157676219940186,
				-0.12589126825332642
			],
			"type":"VEC3"
		},
		{
			"bufferView":35,
			"componentType":5126,
			"count":602,
			"type":"VEC3"
		},
		{
			"bufferView":36,
			"componentType":5126,
			"count":602,
			"type":"VEC2"
		},
		{
			"bufferView":37,
			"componentType":5126,
			"count":602,
			"type":"VEC4"
		},
		{
			"bufferView":38,
			"componentType":5123,
			"count":1752,
			"type":"SCALAR"
		},
		{
			"bufferView":39,
			"componentType":5126,
			"count":370,
			"max":[
				0.2302873730659485,
				0.7744925022125244,
				0.12584958970546722
			],
			"min":[
				-0.1889302134513855,
				0.7157676219940186,
				-0.13623720407485962
			],
			"type":"VEC3"
		},
		{
			"bufferView":40,
			"componentType":5126,
			"count":370,
			"type":"VEC3"
		},
		{
			"bufferView":41,
			"componentType":5126,
			"count":370,
			"type":"VEC2"
		},
		{
			"bufferView":42,
			"componentType":5126,
			"count":370,
			"type":"VEC4"
		},
		{
			"bufferView":43,
			"componentType":5123,
			"count":1056,
			"type":"SCALAR"
		},
		{
			"bufferView":44,
			"componentType":5126,
			"count":24,
			"max":[
				0.2125321924686432,
				0.7744925022125244,
				0.032862935215234756
			],
			"min":[
				-0.2012251913547516,
				0.7157676219940186,
				-0.026592127978801727
			],
			"type":"VEC3"
		},
		{
			"bufferView":45,
			"componentType":5126,
			"count":24,
			"type":"VEC3"
		},
		{
			"bufferView":46,
			"componentType":5126,
			"count":24,
			"type":"VEC2"
		},
		{
			"bufferView":47,
			"componentType":5126,
			"count":24,
			"type":"VEC4"
		},
		{
			"bufferView":48,
			"componentType":5123,
			"count":36,
			"type":"SCALAR"
		},
		{
			"bufferView":49,
			"componentType":5126,
			"count":384,
			"max":[
				0.21799230575561523,
				0.7744925022125244,
				0.13660556077957153
			],
			"min":[
				-0.20668533444404602,
				0.7157675623893738,
				-0.13033467531204224
			],
			"type":"VEC3"
		},
		{
			"bufferView":50,
			"componentType":5126,
			"count":384,
			"type":"VEC3"
		},
		{
			"bufferView":51,
			"componentType":5126,
			"count":384,
			"type":"VEC2"
		},
		{
			"bufferView":52,
			"componentType":5126,
			"count":384,
			"type":"VEC4"
		},
		{
			"bufferView":53,
			"componentType":5123,
			"count":1152,
			"type":"SCALAR"
		}
	],
	"bufferViews":[
		{
			"buffer":0,
			"byteLength":11520,
			"byteOffset":0,
			"target":34962
		},
		{
			"buffer":0,
			"byteLength":11520,
			"byteOffset":11520,
			"target":34962
		},
		{
			"buffer":0,
			"byteLength":7680,
			"byteOffset":23040,
			"target":34962
		},
		{
			"buffer":0,
			"byteLength":5184,
			"byteOffset":30720,
			"target":34963
		},
		{
			"buffer":0,
			"byteLength":6480,
			"byteOffset":35904,
			"target":34962
		},
		{
			"buffer":0,
			"byteLength":6480,
			"byteOffset":42384,
			"target":34962
		},
		{
			"buffer":0,
			"byteLength":4320,
			"byteOffset":48864,
			"target":34962
		},
		{
			"buffer":0,
			"byteLength":8640,
			"byteOffset":53184,
			"target":34962
		},
		{
			"buffer":0,
			"byteLength":3192,
			"byteOffset":61824,
			"target":34963
		},
		{
			"buffer":0,
			"byteLength":9264,
			"byteOffset":65016,
			"target":34962
		},
		{
			"buffer":0,
			"byteLength":9264,
			"byteOffset":74280,
			"target":34962
		},
		{
			"buffer":0,
			"byteLength":6176,
			"byteOffset":83544,
			"target":34962
		},
		{
			"buffer":0,
			"byteLength":12352,
			"byteOffset":89720,
			"target":34962
		},
		{
			"buffer":0,
			"byteLength":4632,
			"byteOffset":102072,
			"target":34963
		},
		{
			"buffer":0,
			"byteLength":432,
			"byteOffset":106704,
			"target":34962
		},
		{
			"buffer":0,
			"byteLength":432,
			"byteOffset":107136,
			"target":34962
		},
		{
			"buffer":0,
			"byteLength":288,
			"byteOffset":107568,
			"target":34962
		},
		{
			"buffer":0,
			"byteLength":576,
			"byteOffset":107856,
			"target":34962
		},
		{
			"buffer":0,
			"byteLength":120,
			"byteOffset":108432,
			"target":34963
		},
		{
			"buffer":0,
			"byteLength":5904,
			"byteOffset":108552,
			"target":34962
		},
		{
			"buffer":0,
			"byteLength":5904,
			"byteOffset":114456,
			"target":34962
		},
		{
			"buffer":0,
			"byteLength":3936,
			"byteOffset":120360,
			"target":34962
		},
		{
			"buffer":0,
			"byteLength":7872,
			"byteOffset":124296,
			"target":34962
		},
		{
			"buffer":0,
			"byteLength":2904,
			"byteOffset":132168,
			"target":34963
		},
		{
			"buffer":0,
			"byteLength":3936,
			"byteOffset":135072,
			"target":34962
		},
		{
			"buffer":0,
			"byteLength":3936,
			"byteOffset":139008,
			"target":34962
		},
		{
			"buffer":0,
			"byteLength":2624,
			"byteOffset":142944,
			"target":34962
		},
		{
			"buffer":0,
			"byteLength":5248,
			"byteOffset":145568,
			"target":34962
		},
		{
			"buffer":0,
			"byteLength":1848,
			"byteOffset":150816,
			"target":34963
		},
		{
			"buffer":0,
			"byteLength":1080,
			"byteOffset":152664,
			"target":34962
		},
		{
			"buffer":0,
			"byteLength":1080,
			"byteOffset":153744,
			"target":34962
		},
		{
			"buffer":0,
			"byteLength":720,
			"byteOffset":154824,
			"target":34962
		},
		{
			"buffer":0,
			"byteLength":1440,
			"byteOffset":155544,
			"target":34962
		},
		{
			"buffer":0,
			"byteLength":360,
			"byteOffset":156984,
			"target":34963
		},
		{
			"buffer":0,
			"byteLength":7224,
			"byteOffset":157344,
			"target":34962
		},
		{
			"buffer":0,
			"byteLength":7224,
			"byteOffset":164568,
			"target":34962
		},
		{
			"buffer":0,
			"byteLength":4816,
			"byteOffset":171792,
			"target":34962
		},
		{
			"buffer":0,
			"byteLength":9632,
			"byteOffset":176608,
			"target":34962
		},
		{
			"buffer":0,
			"byteLength":3504,
			"byteOffset":186240,
			"target":34963
		},
		{
			"buffer":0,
			"byteLength":4440,
			"byteOffset":189744,
			"target":34962
		},
		{
			"buffer":0,
			"byteLength":4440,
			"byteOffset":194184,
			"target":34962
		},
		{
			"buffer":0,
			"byteLength":2960,
			"byteOffset":198624,
			"target":34962
		},
		{
			"buffer":0,
			"byteLength":5920,
			"byteOffset":201584,
			"target":34962
		},
		{
			"buffer":0,
			"byteLength":2112,
			"byteOffset":207504,
			"target":34963
		},
		{
			"buffer":0,
			"byteLength":288,
			"byteOffset":209616,
			"target":34962
		},
		{
			"buffer":0,
			"byteLength":288,
			"byteOffset":209904,
			"target":34962
		},
		{
			"buffer":0,
			"byteLength":192,
			"byteOffset":210192,
			"target":34962
		},
		{
			"buffer":0,
			"byteLength":384,
			"byteOffset":210384,
			"target":34962
		},
		{
			"buffer":0,
			"byteLength":72,
			"byteOffset":210768,
			"target":34963
		},
		{
			"buffer":0,
			"byteLength":4608,
			"byteOffset":210840,
			"target":34962
		},
		{
			"buffer":0,
			"byteLength":4608,
			"byteOffset":215448,
			"target":34962
		},
		{
			"buffer":0,
			"byteLength":3072,
			"byteOffset":220056,
			"target":34962
		},
		{
			"buffer":0,
			"byteLength":6144,
			"byteOffset":223128,
			"target":34962
		},
		{
			"buffer":0,
			"byteLength":2304,
			"byteOffset":229272,
			"target":34963
		}
	],
	"buffers":[
		{
			"byteLength":231576,
			"uri":"ComboGear-f73789ef2e915e61ad6fc5bf5a90e87c.bin"
		}
	]
}
