{
	"asset":{
		"generator":"Khronos glTF Blender I/O v5.0.21",
		"version":"2.0"
	},
	"scene":0,
	"scenes":[
		{
			"name":"Scene",
			"nodes":[
				0,
				1
			]
		}
	],
	"nodes":[
		{
			"mesh":0,
			"name":"Base",
			"translation":[
				0,
				2.643065929412842,
				0
			]
		},
		{
			"mesh":1,
			"name":"Pin",
			"translation":[
				0.6357301473617554,
				0.35679197311401367,
				0
			]
		}
	],
	"animations":[
		{
			"channels":[
				{
					"sampler":0,
					"target":{
						"node":1,
						"path":"translation"
					}
				},
				{
					"sampler":1,
					"target":{
						"node":1,
						"path":"rotation"
					}
				},
				{
					"sampler":2,
					"target":{
						"node":1,
						"path":"scale"
					}
				}
			],
			"name":"OpenAnimation",
			"samplers":[
				{
					"input":8,
					"interpolation":"LINEAR",
					"output":9
				},
				{
					"input":8,
					"interpolation":"LINEAR",
					"output":10
				},
				{
					"input":11,
					"interpolation":"STEP",
					"output":12
				}
			]
		}
	],
	"materials":[
		{
			"doubleSided":true,
			"name":"Material",
			"pbrMetallicRoughness":{
				"baseColorFactor":[
					1,
					0.9550657272338867,
					0.8992851972579956,
					1
				],
				"roughnessFactor":0.5
			}
		},
		{
			"doubleSided":true,
			"name":"Material.001",
			"pbrMetallicRoughness":{
				"baseColorFactor":[
					0,
					0,
					0,
					1
				],
				"metallicFactor":0.9615384340286255,
				"roughnessFactor":0.5
			}
		}
	],
	"meshes":[
		{
			"name":"Cube.001",
			"primitives":[
				{
					"attributes":{
						"POSITION":0,
						"NORMAL":1,
						"TEXCOORD_0":2
					},
					"indices":3,
					"material":0
				}
			]
		},
		{
			"name":"Cylinder",
			"primitives":[
				{
					"attributes":{
						"POSITION":4,
						"NORMAL":5,
						"TEXCOORD_0":6
					},
					"indices":7,
					"material":1
				}
			]
		}
	],
	"accessors":[
		{
			"bufferView":0,
			"componentType":5126,
			"count":444,
			"max":[
				1,
				-0.6255403757095337,
				0.19484126567840576
			],
			"min":[
				-1,
				-2.636906623840332,
				-0.19484126567840576
			],
			"type":"VEC3"
		},
		{
			"bufferView":1,
			"componentType":5126,
			"count":444,
			"type":"VEC3"
		},
		{
			"bufferView":2,
			"componentType":5126,
			"count":444,
			"type":"VEC2"
		},
		{
			"bufferView":3,
			"componentType":5123,
			"count":1044,
			"type":"SCALAR"
		},
		{
			"bufferView":4,
			"componentType":5126,
			"count":676,
			"max":[
				0.1311543583869934,
				2.8967995643615723,
				0.13113471865653992
			],
			"min":[
				-1.4001144170761108,
				4.76837158203125e-07,
				-0.13113470375537872
			],
			"type":"VEC3"
		},
		{
			"bufferView":5,
			"componentType":5126,
			"count":676,
			"type":"VEC3"
		},
		{
			"bufferView":6,
			"componentType":5126,
			"count":676,
			"type":"VEC2"
		},
		{
			"bufferView":7,
			"componentType":5123,
			"count":3456,
			"type":"SCALAR"
		},
		{
			"bufferView":8,
			"componentType":5126,
			"count":48,
			"max":[
				2
			],
			"min":[
				0.041666666666666664
			],
			"type":"SCALAR"
		},
		{
			"bufferView":9,
			"componentType":5126,
			"count":48,
			"type":"VEC3"
		},
		{
			"bufferView":10,
			"componentType":5126,
			"count":48,
			"type":"VEC4"
		},
		{
			"bufferView":11,
			"componentType":5126,
			"count":2,
			"max":[
				2
			],
			"min":[
				0.041666666666666664
			],
			"type":"SCALAR"
		},
		{
			"bufferView":12,
			"componentType":5126,
			"count":2,
			"type":"VEC3"
		}
	],
	"bufferViews":[
		{
			"buffer":0,
			"byteLength":5328,
			"byteOffset":0,
			"target":34962
		},
		{
			"buffer":0,
			"byteLength":5328,
			"byteOffset":5328,
			"target":34962
		},
		{
			"buffer":0,
			"byteLength":3552,
			"byteOffset":10656,
			"target":34962
		},
		{
			"buffer":0,
			"byteLength":2088,
			"byteOffset":14208,
			"target":34963
		},
		{
			"buffer":0,
			"byteLength":8112,
			"byteOffset":16296,
			"target":34962
		},
		{
			"buffer":0,
			"byteLength":8112,
			"byteOffset":24408,
			"target":34962
		},
		{
			"buffer":0,
			"byteLength":5408,
			"byteOffset":32520,
			"target":34962
		},
		{
			"buffer":0,
			"byteLength":6912,
			"byteOffset":37928,
			"target":34963
		},
		{
			"buffer":0,
			"byteLength":192,
			"byteOffset":44840
		},
		{
			"buffer":0,
			"byteLength":576,
			"byteOffset":45032
		},
		{
			"buffer":0,
			"byteLength":768,
			"byteOffset":45608
		},
		{
			"buffer":0,
			"byteLength":8,
			"byteOffset":46376
		},
		{
			"buffer":0,
			"byteLength":24,
			"byteOffset":46384
		}
	],
	"buffers":[
		{
			"byteLength":46408,
			"uri":"ComboLock-552eade8bb83623a04f66fb34d2fba66.bin"
		}
	]
}
