{
	"asset":{
		"generator":"Khronos glTF Blender I/O v5.0.21",
		"version":"2.0"
	},
	"scene":0,
	"scenes":[
		{
			"name":"Scene",
			"nodes":[
				0
			]
		}
	],
	"nodes":[
		{
			"mesh":0,
			"name":"Crank",
			"scale":[
				2.4401540756225586,
				2.4401540756225586,
				2.4401540756225586
			]
		}
	],
	"materials":[
		{
			"doubleSided":true,
			"name":"Material",
			"pbrMetallicRoughness":{
				"baseColorFactor":[
					0.8000074625015259,
					0.47594982385635376,
					0.1612320840358734,
					1
				],
				"roughnessFactor":0.5
			}
		}
	],
	"meshes":[
		{
			"name":"Cylinder.001",
			"primitives":[
				{
					"attributes":{
						"POSITION":0,
						"NORMAL":1,
						"TEXCOORD_0":2
					},
					"indices":3,
					"material":0
				}
			]
		}
	],
	"accessors":[
		{
			"bufferView":0,
			"componentType":5126,
			"count":1238,
			"max":[
				0.2788277864456177,
				0.15479207038879395,
				3.1020312309265137
			],
			"min":[
				-0.2788277864456177,
				-1.7788280248641968,
				-0.48720940947532654
			],
			"type":"VEC3"
		},
		{
			"bufferView":1,
			"componentType":5126,
			"count":1238,
			"type":"VEC3"
		},
		{
			"bufferView":2,
			"componentType":5126,
			"count":1238,
			"type":"VEC2"
		},
		{
			"bufferView":3,
			"componentType":5123,
			"count":5364,
			"type":"SCALAR"
		}
	],
	"bufferViews":[
		{
			"buffer":0,
			"byteLength":14856,
			"byteOffset":0,
			"target":34962
		},
		{
			"buffer":0,
			"byteLength":14856,
			"byteOffset":14856,
			"target":34962
		},
		{
			"buffer":0,
			"byteLength":9904,
			"byteOffset":29712,
			"target":34962
		},
		{
			"buffer":0,
			"byteLength":10728,
			"byteOffset":39616,
			"target":34963
		}
	],
	"buffers":[
		{
			"byteLength":50344,
			"uri":"Crank-5a8b6b904828cd2e9956e7d07af8acda.bin"
		}
	]
}
