{
	"asset":{
		"generator":"Khronos glTF Blender I/O v5.0.21",
		"version":"2.0"
	},
	"extensionsUsed":[
		"KHR_materials_unlit"
	],
	"scene":0,
	"scenes":[
		{
			"name":"Scene",
			"nodes":[
				0,
				1
			]
		}
	],
	"nodes":[
		{
			"mesh":0,
			"name":"Sphere",
			"rotation":[
				-0.6910397410392761,
				0,
				0,
				0.7228167653083801
			],
			"scale":[
				-6.897522449493408,
				-6.897522926330566,
				-6.897522926330566
			],
			"translation":[
				0,
				-0.28228121995925903,
				-7.600370407104492
			]
		},
		{
			"mesh":1,
			"name":"Cube",
			"translation":[
				0,
				-0.28228121995925903,
				0.9223077297210693
			]
		}
	],
	"animations":[
		{
			"channels":[
				{
					"sampler":0,
					"target":{
						"node":0,
						"path":"translation"
					}
				},
				{
					"sampler":1,
					"target":{
						"node":0,
						"path":"rotation"
					}
				},
				{
					"sampler":2,
					"target":{
						"node":0,
						"path":"scale"
					}
				}
			],
			"name":"Speen",
			"samplers":[
				{
					"input":9,
					"interpolation":"LINEAR",
					"output":10
				},
				{
					"input":11,
					"interpolation":"STEP",
					"output":12
				},
				{
					"input":11,
					"interpolation":"STEP",
					"output":13
				}
			]
		}
	],
	"materials":[
		{
			"doubleSided":true,
			"extensions":{
				"KHR_materials_unlit":{}
			},
			"name":"eye_material",
			"pbrMetallicRoughness":{
				"baseColorTexture":{
					"index":0
				},
				"metallicFactor":0,
				"roughnessFactor":0.9
			}
		},
		{
			"doubleSided":true,
			"name":"finger_material",
			"pbrMetallicRoughness":{
				"baseColorTexture":{
					"index":1
				},
				"metallicFactor":0.1230769231915474
			}
		}
	],
	"meshes":[
		{
			"name":"Sphere.002",
			"primitives":[
				{
					"attributes":{
						"POSITION":0,
						"NORMAL":1,
						"TEXCOORD_0":2,
						"TANGENT":3
					},
					"indices":4,
					"material":0
				}
			]
		},
		{
			"name":"Cube.018",
			"primitives":[
				{
					"attributes":{
						"POSITION":5,
						"NORMAL":6,
						"TEXCOORD_0":7
					},
					"indices":8,
					"material":1
				}
			]
		}
	],
	"textures":[
		{
			"sampler":0,
			"source":0
		},
		{
			"sampler":0,
			"source":1
		}
	],
	"images":[
		{
			"mimeType":"image/png",
			"name":"entity_eye_albedo",
			"uri":"../../textures/eye%20entity/entity_eye_albedo.png"
		},
		{
			"mimeType":"image/png",
			"name":"entity_eye_ring_albedon",
			"uri":"../../textures/eye%20entity/entity_eye_ring_albedon.png"
		}
	],
	"accessors":[
		{
			"bufferView":0,
			"componentType":5126,
			"count":287,
			"max":[
				1,
				1,
				1
			],
			"min":[
				-0.9999999403953552,
				-1,
				-0.9999999403953552
			],
			"type":"VEC3"
		},
		{
			"bufferView":1,
			"componentType":5126,
			"count":287,
			"type":"VEC3"
		},
		{
			"bufferView":2,
			"componentType":5126,
			"count":287,
			"type":"VEC2"
		},
		{
			"bufferView":3,
			"componentType":5126,
			"count":287,
			"type":"VEC4"
		},
		{
			"bufferView":4,
			"componentType":5123,
			"count":1440,
			"type":"SCALAR"
		},
		{
			"bufferView":5,
			"componentType":5126,
			"count":4404,
			"max":[
				32.366111755371094,
				32.34554672241211,
				3.8741953372955322
			],
			"min":[
				-32.2301139831543,
				-32.29172897338867,
				-16.43930435180664
			],
			"type":"VEC3"
		},
		{
			"bufferView":6,
			"componentType":5126,
			"count":4404,
			"type":"VEC3"
		},
		{
			"bufferView":7,
			"componentType":5126,
			"count":4404,
			"type":"VEC2"
		},
		{
			"bufferView":8,
			"componentType":5123,
			"count":9624,
			"type":"SCALAR"
		},
		{
			"bufferView":9,
			"componentType":5126,
			"count":481,
			"max":[
				8
			],
			"min":[
				0
			],
			"type":"SCALAR"
		},
		{
			"bufferView":10,
			"componentType":5126,
			"count":481,
			"type":"VEC3"
		},
		{
			"bufferView":11,
			"componentType":5126,
			"count":2,
			"max":[
				8
			],
			"min":[
				0
			],
			"type":"SCALAR"
		},
		{
			"bufferView":12,
			"componentType":5126,
			"count":2,
			"type":"VEC4"
		},
		{
			"bufferView":13,
			"componentType":5126,
			"count":2,
			"type":"VEC3"
		}
	],
	"bufferViews":[
		{
			"buffer":0,
			"byteLength":3444,
			"byteOffset":0,
			"target":34962
		},
		{
			"buffer":0,
			"byteLength":3444,
			"byteOffset":3444,
			"target":34962
		},
		{
			"buffer":0,
			"byteLength":2296,
			"byteOffset":6888,
			"target":34962
		},
		{
			"buffer":0,
			"byteLength":4592,
			"byteOffset":9184,
			"target":34962
		},
		{
			"buffer":0,
			"byteLength":2880,
			"byteOffset":13776,
			"target":34963
		},
		{
			"buffer":0,
			"byteLength":52848,
			"byteOffset":16656,
			"target":34962
		},
		{
			"buffer":0,
			"byteLength":52848,
			"byteOffset":69504,
			"target":34962
		},
		{
			"buffer":0,
			"byteLength":35232,
			"byteOffset":122352,
			"target":34962
		},
		{
			"buffer":0,
			"byteLength":19248,
			"byteOffset":157584,
			"target":34963
		},
		{
			"buffer":0,
			"byteLength":1924,
			"byteOffset":176832
		},
		{
			"buffer":0,
			"byteLength":5772,
			"byteOffset":178756
		},
		{
			"buffer":0,
			"byteLength":8,
			"byteOffset":184528
		},
		{
			"buffer":0,
			"byteLength":32,
			"byteOffset":184536
		},
		{
			"buffer":0,
			"byteLength":24,
			"byteOffset":184568
		}
	],
	"samplers":[
		{
			"magFilter":9729,
			"minFilter":9987
		}
	],
	"buffers":[
		{
			"byteLength":184592,
			"uri":"Entity2-a6e0a17885cab5b2bc1850c7173095c8.bin"
		}
	]
}
