{
	"asset":{
		"generator":"Khronos glTF Blender I/O v5.0.21",
		"version":"2.0"
	},
	"scene":0,
	"scenes":[
		{
			"name":"Scene",
			"nodes":[
				0,
				1
			]
		}
	],
	"nodes":[
		{
			"mesh":0,
			"name":"Sphere",
			"scale":[
				-2.8998208045959473,
				-2.8998208045959473,
				-2.8998208045959473
			],
			"translation":[
				0,
				-0.28228121995925903,
				0.9223077297210693
			]
		},
		{
			"mesh":1,
			"name":"Cube",
			"rotation":[
				0,
				0,
				-0.2948344945907593,
				0.9555483460426331
			],
			"translation":[
				0,
				-0.28228121995925903,
				0.9223077297210693
			]
		}
	],
	"animations":[
		{
			"channels":[
				{
					"sampler":0,
					"target":{
						"node":1,
						"path":"translation"
					}
				},
				{
					"sampler":1,
					"target":{
						"node":1,
						"path":"rotation"
					}
				},
				{
					"sampler":2,
					"target":{
						"node":1,
						"path":"scale"
					}
				}
			],
			"name":"Speen",
			"samplers":[
				{
					"input":10,
					"interpolation":"STEP",
					"output":11
				},
				{
					"input":12,
					"interpolation":"LINEAR",
					"output":13
				},
				{
					"input":10,
					"interpolation":"STEP",
					"output":14
				}
			]
		}
	],
	"materials":[
		{
			"doubleSided":true,
			"name":"Material.002",
			"pbrMetallicRoughness":{
				"metallicFactor":0
			}
		},
		{
			"doubleSided":true,
			"name":"Material",
			"pbrMetallicRoughness":{
				"metallicFactor":0
			}
		}
	],
	"meshes":[
		{
			"name":"Sphere.002",
			"primitives":[
				{
					"attributes":{
						"POSITION":0,
						"NORMAL":1,
						"TEXCOORD_0":2,
						"TANGENT":3
					},
					"indices":4,
					"material":0
				}
			]
		},
		{
			"name":"Cube.015",
			"primitives":[
				{
					"attributes":{
						"POSITION":5,
						"NORMAL":6,
						"TEXCOORD_0":7,
						"TANGENT":8
					},
					"indices":9,
					"material":1
				}
			]
		}
	],
	"accessors":[
		{
			"bufferView":0,
			"componentType":5126,
			"count":287,
			"max":[
				1,
				1,
				1
			],
			"min":[
				-0.9999999403953552,
				-1,
				-0.9999999403953552
			],
			"type":"VEC3"
		},
		{
			"bufferView":1,
			"componentType":5126,
			"count":287,
			"type":"VEC3"
		},
		{
			"bufferView":2,
			"componentType":5126,
			"count":287,
			"type":"VEC2"
		},
		{
			"bufferView":3,
			"componentType":5126,
			"count":287,
			"type":"VEC4"
		},
		{
			"bufferView":4,
			"componentType":5123,
			"count":1440,
			"type":"SCALAR"
		},
		{
			"bufferView":5,
			"componentType":5126,
			"count":2646,
			"max":[
				33.005794525146484,
				35.86162185668945,
				35.86161804199219
			],
			"min":[
				-33.05388641357422,
				-26.37115478515625,
				-35.86162567138672
			],
			"type":"VEC3"
		},
		{
			"bufferView":6,
			"componentType":5126,
			"count":2646,
			"type":"VEC3"
		},
		{
			"bufferView":7,
			"componentType":5126,
			"count":2646,
			"type":"VEC2"
		},
		{
			"bufferView":8,
			"componentType":5126,
			"count":2646,
			"type":"VEC4"
		},
		{
			"bufferView":9,
			"componentType":5123,
			"count":9936,
			"type":"SCALAR"
		},
		{
			"bufferView":10,
			"componentType":5126,
			"count":2,
			"max":[
				8
			],
			"min":[
				0
			],
			"type":"SCALAR"
		},
		{
			"bufferView":11,
			"componentType":5126,
			"count":2,
			"type":"VEC3"
		},
		{
			"bufferView":12,
			"componentType":5126,
			"count":481,
			"max":[
				8
			],
			"min":[
				0
			],
			"type":"SCALAR"
		},
		{
			"bufferView":13,
			"componentType":5126,
			"count":481,
			"type":"VEC4"
		},
		{
			"bufferView":14,
			"componentType":5126,
			"count":2,
			"type":"VEC3"
		}
	],
	"bufferViews":[
		{
			"buffer":0,
			"byteLength":3444,
			"byteOffset":0,
			"target":34962
		},
		{
			"buffer":0,
			"byteLength":3444,
			"byteOffset":3444,
			"target":34962
		},
		{
			"buffer":0,
			"byteLength":2296,
			"byteOffset":6888,
			"target":34962
		},
		{
			"buffer":0,
			"byteLength":4592,
			"byteOffset":9184,
			"target":34962
		},
		{
			"buffer":0,
			"byteLength":2880,
			"byteOffset":13776,
			"target":34963
		},
		{
			"buffer":0,
			"byteLength":31752,
			"byteOffset":16656,
			"target":34962
		},
		{
			"buffer":0,
			"byteLength":31752,
			"byteOffset":48408,
			"target":34962
		},
		{
			"buffer":0,
			"byteLength":21168,
			"byteOffset":80160,
			"target":34962
		},
		{
			"buffer":0,
			"byteLength":42336,
			"byteOffset":101328,
			"target":34962
		},
		{
			"buffer":0,
			"byteLength":19872,
			"byteOffset":143664,
			"target":34963
		},
		{
			"buffer":0,
			"byteLength":8,
			"byteOffset":163536
		},
		{
			"buffer":0,
			"byteLength":24,
			"byteOffset":163544
		},
		{
			"buffer":0,
			"byteLength":1924,
			"byteOffset":163568
		},
		{
			"buffer":0,
			"byteLength":7696,
			"byteOffset":165492
		},
		{
			"buffer":0,
			"byteLength":24,
			"byteOffset":173188
		}
	],
	"buffers":[
		{
			"byteLength":173212,
			"uri":"Entity-4bdef252c21ccdb1933ce168ea5308c1.bin"
		}
	]
}
