{
	"asset":{
		"generator":"Khronos glTF Blender I/O v5.0.21",
		"version":"2.0"
	},
	"extensionsUsed":[
		"KHR_materials_unlit"
	],
	"scene":0,
	"scenes":[
		{
			"name":"Scene",
			"nodes":[
				0
			]
		}
	],
	"nodes":[
		{
			"mesh":0,
			"name":"Sphere",
			"rotation":[
				-0.6910397410392761,
				0,
				0,
				0.7228167653083801
			],
			"scale":[
				-6.897522449493408,
				-6.897522926330566,
				-6.897522926330566
			]
		}
	],
	"materials":[
		{
			"doubleSided":true,
			"extensions":{
				"KHR_materials_unlit":{}
			},
			"name":"eye_material",
			"pbrMetallicRoughness":{
				"baseColorTexture":{
					"index":0
				},
				"metallicFactor":0,
				"roughnessFactor":0.9
			}
		}
	],
	"meshes":[
		{
			"name":"Sphere.002",
			"primitives":[
				{
					"attributes":{
						"POSITION":0,
						"NORMAL":1,
						"TEXCOORD_0":2,
						"TANGENT":3
					},
					"indices":4,
					"material":0
				}
			]
		}
	],
	"textures":[
		{
			"sampler":0,
			"source":0
		}
	],
	"images":[
		{
			"mimeType":"image/png",
			"name":"entity_eye_albedo",
			"uri":"../../textures/eye%20entity/entity_eye_albedo.png"
		}
	],
	"accessors":[
		{
			"bufferView":0,
			"componentType":5126,
			"count":287,
			"max":[
				1,
				1,
				1
			],
			"min":[
				-0.9999999403953552,
				-1,
				-0.9999998807907104
			],
			"type":"VEC3"
		},
		{
			"bufferView":1,
			"componentType":5126,
			"count":287,
			"type":"VEC3"
		},
		{
			"bufferView":2,
			"componentType":5126,
			"count":287,
			"type":"VEC2"
		},
		{
			"bufferView":3,
			"componentType":5126,
			"count":287,
			"type":"VEC4"
		},
		{
			"bufferView":4,
			"componentType":5123,
			"count":1440,
			"type":"SCALAR"
		}
	],
	"bufferViews":[
		{
			"buffer":0,
			"byteLength":3444,
			"byteOffset":0,
			"target":34962
		},
		{
			"buffer":0,
			"byteLength":3444,
			"byteOffset":3444,
			"target":34962
		},
		{
			"buffer":0,
			"byteLength":2296,
			"byteOffset":6888,
			"target":34962
		},
		{
			"buffer":0,
			"byteLength":4592,
			"byteOffset":9184,
			"target":34962
		},
		{
			"buffer":0,
			"byteLength":2880,
			"byteOffset":13776,
			"target":34963
		}
	],
	"samplers":[
		{
			"magFilter":9729,
			"minFilter":9987
		}
	],
	"buffers":[
		{
			"byteLength":16656,
			"uri":"Eye-e9ae416c16f1c37ac87ba5f1210c1189.bin"
		}
	]
}
