{
	"asset":{
		"generator":"Khronos glTF Blender I/O v5.0.21",
		"version":"2.0"
	},
	"scene":0,
	"scenes":[
		{
			"name":"Scene",
			"nodes":[
				0
			]
		}
	],
	"nodes":[
		{
			"mesh":0,
			"name":"Cube",
			"translation":[
				0,
				-0.28228121995925903,
				0.9223077297210693
			]
		}
	],
	"materials":[
		{
			"doubleSided":true,
			"name":"finger_material",
			"pbrMetallicRoughness":{
				"baseColorTexture":{
					"index":0
				},
				"metallicFactor":0.1230769231915474
			}
		}
	],
	"meshes":[
		{
			"name":"Cube.018",
			"primitives":[
				{
					"attributes":{
						"POSITION":0,
						"NORMAL":1,
						"TEXCOORD_0":2
					},
					"indices":3,
					"material":0
				}
			]
		}
	],
	"textures":[
		{
			"sampler":0,
			"source":0
		}
	],
	"images":[
		{
			"mimeType":"image/png",
			"name":"entity_eye_ring_albedon",
			"uri":"../../textures/eye%20entity/entity_eye_ring_albedon.png"
		}
	],
	"accessors":[
		{
			"bufferView":0,
			"componentType":5126,
			"count":4404,
			"max":[
				32.366111755371094,
				32.34554672241211,
				3.8741953372955322
			],
			"min":[
				-32.2301139831543,
				-32.29172897338867,
				-16.43930435180664
			],
			"type":"VEC3"
		},
		{
			"bufferView":1,
			"componentType":5126,
			"count":4404,
			"type":"VEC3"
		},
		{
			"bufferView":2,
			"componentType":5126,
			"count":4404,
			"type":"VEC2"
		},
		{
			"bufferView":3,
			"componentType":5123,
			"count":9624,
			"type":"SCALAR"
		}
	],
	"bufferViews":[
		{
			"buffer":0,
			"byteLength":52848,
			"byteOffset":0,
			"target":34962
		},
		{
			"buffer":0,
			"byteLength":52848,
			"byteOffset":52848,
			"target":34962
		},
		{
			"buffer":0,
			"byteLength":35232,
			"byteOffset":105696,
			"target":34962
		},
		{
			"buffer":0,
			"byteLength":19248,
			"byteOffset":140928,
			"target":34963
		}
	],
	"samplers":[
		{
			"magFilter":9729,
			"minFilter":9987
		}
	],
	"buffers":[
		{
			"byteLength":160176,
			"uri":"Fingers-04cf2562aef73635b8eab54d2e7af65d.bin"
		}
	]
}
