{
	"asset":{
		"generator":"Khronos glTF Blender I/O v5.0.21",
		"version":"2.0"
	},
	"scene":0,
	"scenes":[
		{
			"name":"Scene",
			"nodes":[
				0,
				1,
				2,
				3,
				4
			]
		}
	],
	"nodes":[
		{
			"mesh":0,
			"name":"Cube",
			"translation":[
				0,
				0.2991579473018646,
				0
			]
		},
		{
			"mesh":1,
			"name":"Cube.001",
			"translation":[
				-0.0234783124178648,
				2.5216012001037598,
				0.7927172183990479
			]
		},
		{
			"mesh":2,
			"name":"Cube.002",
			"translation":[
				-0.0234783124178648,
				1.4592615365982056,
				0.9102314114570618
			]
		},
		{
			"mesh":3,
			"name":"Cube.003",
			"translation":[
				-0.02754143625497818,
				0.6593106985092163,
				0.8384192585945129
			]
		},
		{
			"mesh":4,
			"name":"Cylinder.020",
			"translation":[
				-0.015068024396896362,
				0.650566577911377,
				1.389374017715454
			]
		}
	],
	"materials":[
		{
			"doubleSided":true,
			"name":"Gate_Pillar",
			"pbrMetallicRoughness":{
				"baseColorTexture":{
					"index":0
				},
				"metallicFactor":0
			}
		},
		{
			"doubleSided":true,
			"name":"Gate_Hinge",
			"pbrMetallicRoughness":{
				"baseColorTexture":{
					"index":1
				},
				"metallicFactor":0,
				"roughnessFactor":0.5
			}
		},
		{
			"doubleSided":true,
			"name":"Material",
			"pbrMetallicRoughness":{
				"baseColorFactor":[
					0,
					0,
					0,
					1
				],
				"metallicFactor":0
			}
		},
		{
			"doubleSided":true,
			"name":"Gate_Pole",
			"pbrMetallicRoughness":{
				"baseColorTexture":{
					"index":2
				},
				"metallicFactor":0
			}
		}
	],
	"meshes":[
		{
			"name":"Cube.001",
			"primitives":[
				{
					"attributes":{
						"POSITION":0,
						"NORMAL":1,
						"TEXCOORD_0":2,
						"TANGENT":3
					},
					"indices":4,
					"material":0
				}
			]
		},
		{
			"name":"Cube.002",
			"primitives":[
				{
					"attributes":{
						"POSITION":5,
						"NORMAL":6,
						"TEXCOORD_0":7,
						"TANGENT":8
					},
					"indices":9,
					"material":1
				}
			]
		},
		{
			"name":"Cube.003",
			"primitives":[
				{
					"attributes":{
						"POSITION":10,
						"NORMAL":11,
						"TEXCOORD_0":12,
						"TANGENT":13
					},
					"indices":14,
					"material":2
				}
			]
		},
		{
			"name":"Cube.007",
			"primitives":[
				{
					"attributes":{
						"POSITION":15,
						"NORMAL":16,
						"TEXCOORD_0":17,
						"TANGENT":18
					},
					"indices":9,
					"material":2
				}
			]
		},
		{
			"name":"Cylinder.020",
			"primitives":[
				{
					"attributes":{
						"POSITION":19,
						"NORMAL":20,
						"TEXCOORD_0":21
					},
					"indices":22,
					"material":3
				}
			]
		}
	],
	"textures":[
		{
			"sampler":0,
			"source":0
		},
		{
			"sampler":0,
			"source":1
		},
		{
			"sampler":0,
			"source":2
		}
	],
	"images":[
		{
			"mimeType":"image/png",
			"name":"pillar_albedo",
			"uri":"../../textures/gate/pillar_albedo.png"
		},
		{
			"mimeType":"image/png",
			"name":"pole_albedo",
			"uri":"../../textures/gate/pole_albedo.png"
		},
		{
			"mimeType":"image/png",
			"name":"column_albedo",
			"uri":"../../textures/gate/column_albedo.png"
		}
	],
	"accessors":[
		{
			"bufferView":0,
			"componentType":5126,
			"count":224,
			"max":[
				1.145772099494934,
				6.303854465484619,
				1.145772099494934
			],
			"min":[
				-1.145772099494934,
				-0.35386544466018677,
				-1.145772099494934
			],
			"type":"VEC3"
		},
		{
			"bufferView":1,
			"componentType":5126,
			"count":224,
			"type":"VEC3"
		},
		{
			"bufferView":2,
			"componentType":5126,
			"count":224,
			"type":"VEC2"
		},
		{
			"bufferView":3,
			"componentType":5126,
			"count":224,
			"type":"VEC4"
		},
		{
			"bufferView":4,
			"componentType":5123,
			"count":420,
			"type":"SCALAR"
		},
		{
			"bufferView":5,
			"componentType":5126,
			"count":24,
			"max":[
				0.0891612097620964,
				2.5280416011810303,
				0.0891612097620964
			],
			"min":[
				-0.0891612097620964,
				-2.321629285812378,
				-0.0891612097620964
			],
			"type":"VEC3"
		},
		{
			"bufferView":6,
			"componentType":5126,
			"count":24,
			"type":"VEC3"
		},
		{
			"bufferView":7,
			"componentType":5126,
			"count":24,
			"type":"VEC2"
		},
		{
			"bufferView":8,
			"componentType":5126,
			"count":24,
			"type":"VEC4"
		},
		{
			"bufferView":9,
			"componentType":5123,
			"count":36,
			"type":"SCALAR"
		},
		{
			"bufferView":10,
			"componentType":5126,
			"count":72,
			"max":[
				0.06563355028629303,
				2.871488094329834,
				7.4912943840026855
			],
			"min":[
				-0.06563355028629303,
				-0.16131795942783356,
				-0.0891612097620964
			],
			"type":"VEC3"
		},
		{
			"bufferView":11,
			"componentType":5126,
			"count":72,
			"type":"VEC3"
		},
		{
			"bufferView":12,
			"componentType":5126,
			"count":72,
			"type":"VEC2"
		},
		{
			"bufferView":13,
			"componentType":5126,
			"count":72,
			"type":"VEC4"
		},
		{
			"bufferView":14,
			"componentType":5123,
			"count":108,
			"type":"SCALAR"
		},
		{
			"bufferView":15,
			"componentType":5126,
			"count":24,
			"max":[
				0.15020005404949188,
				0.03537619113922119,
				7.558060169219971
			],
			"min":[
				-0.15020005404949188,
				-0.03537619113922119,
				-0.09454723447561264
			],
			"type":"VEC3"
		},
		{
			"bufferView":16,
			"componentType":5126,
			"count":24,
			"type":"VEC3"
		},
		{
			"bufferView":17,
			"componentType":5126,
			"count":24,
			"type":"VEC2"
		},
		{
			"bufferView":18,
			"componentType":5126,
			"count":24,
			"type":"VEC4"
		},
		{
			"bufferView":19,
			"componentType":5126,
			"count":3260,
			"max":[
				0.044805482029914856,
				7.516382694244385,
				6.855238437652588
			],
			"min":[
				-0.04480547457933426,
				2.2815063971393101e-07,
				-0.04480552673339844
			],
			"type":"VEC3"
		},
		{
			"bufferView":20,
			"componentType":5126,
			"count":3260,
			"type":"VEC3"
		},
		{
			"bufferView":21,
			"componentType":5126,
			"count":3260,
			"type":"VEC2"
		},
		{
			"bufferView":22,
			"componentType":5123,
			"count":11280,
			"type":"SCALAR"
		}
	],
	"bufferViews":[
		{
			"buffer":0,
			"byteLength":2688,
			"byteOffset":0,
			"target":34962
		},
		{
			"buffer":0,
			"byteLength":2688,
			"byteOffset":2688,
			"target":34962
		},
		{
			"buffer":0,
			"byteLength":1792,
			"byteOffset":5376,
			"target":34962
		},
		{
			"buffer":0,
			"byteLength":3584,
			"byteOffset":7168,
			"target":34962
		},
		{
			"buffer":0,
			"byteLength":840,
			"byteOffset":10752,
			"target":34963
		},
		{
			"buffer":0,
			"byteLength":288,
			"byteOffset":11592,
			"target":34962
		},
		{
			"buffer":0,
			"byteLength":288,
			"byteOffset":11880,
			"target":34962
		},
		{
			"buffer":0,
			"byteLength":192,
			"byteOffset":12168,
			"target":34962
		},
		{
			"buffer":0,
			"byteLength":384,
			"byteOffset":12360,
			"target":34962
		},
		{
			"buffer":0,
			"byteLength":72,
			"byteOffset":12744,
			"target":34963
		},
		{
			"buffer":0,
			"byteLength":864,
			"byteOffset":12816,
			"target":34962
		},
		{
			"buffer":0,
			"byteLength":864,
			"byteOffset":13680,
			"target":34962
		},
		{
			"buffer":0,
			"byteLength":576,
			"byteOffset":14544,
			"target":34962
		},
		{
			"buffer":0,
			"byteLength":1152,
			"byteOffset":15120,
			"target":34962
		},
		{
			"buffer":0,
			"byteLength":216,
			"byteOffset":16272,
			"target":34963
		},
		{
			"buffer":0,
			"byteLength":288,
			"byteOffset":16488,
			"target":34962
		},
		{
			"buffer":0,
			"byteLength":288,
			"byteOffset":16776,
			"target":34962
		},
		{
			"buffer":0,
			"byteLength":192,
			"byteOffset":17064,
			"target":34962
		},
		{
			"buffer":0,
			"byteLength":384,
			"byteOffset":17256,
			"target":34962
		},
		{
			"buffer":0,
			"byteLength":39120,
			"byteOffset":17640,
			"target":34962
		},
		{
			"buffer":0,
			"byteLength":39120,
			"byteOffset":56760,
			"target":34962
		},
		{
			"buffer":0,
			"byteLength":26080,
			"byteOffset":95880,
			"target":34962
		},
		{
			"buffer":0,
			"byteLength":22560,
			"byteOffset":121960,
			"target":34963
		}
	],
	"samplers":[
		{
			"magFilter":9729,
			"minFilter":9987
		}
	],
	"buffers":[
		{
			"byteLength":144520,
			"uri":"GateBorder-dcf5eaca39f3c3268f93132c74a0ee98.bin"
		}
	]
}
