{
	"asset":{
		"generator":"Khronos glTF Blender I/O v5.0.21",
		"version":"2.0"
	},
	"scene":0,
	"scenes":[
		{
			"name":"Scene",
			"nodes":[
				0,
				1,
				2
			]
		}
	],
	"nodes":[
		{
			"mesh":0,
			"name":"Cube.002",
			"translation":[
				-0.0234783124178648,
				1.4592615365982056,
				0.9102314114570618
			]
		},
		{
			"mesh":1,
			"name":"Cube.003",
			"translation":[
				-0.02754143625497818,
				0.6593106985092163,
				0.8384192585945129
			]
		},
		{
			"mesh":2,
			"name":"Cylinder.020",
			"translation":[
				-0.01506801787763834,
				5.661498069763184,
				4.606905937194824
			]
		}
	],
	"materials":[
		{
			"doubleSided":true,
			"name":"Material",
			"pbrMetallicRoughness":{
				"baseColorFactor":[
					0,
					0,
					0,
					1
				],
				"metallicFactor":0
			}
		},
		{
			"doubleSided":true,
			"name":"Gate_Pole",
			"pbrMetallicRoughness":{
				"baseColorTexture":{
					"index":0
				},
				"metallicFactor":0
			}
		}
	],
	"meshes":[
		{
			"name":"Cube.003",
			"primitives":[
				{
					"attributes":{
						"POSITION":0,
						"NORMAL":1,
						"TEXCOORD_0":2,
						"TANGENT":3
					},
					"indices":4,
					"material":0
				}
			]
		},
		{
			"name":"Cube.007",
			"primitives":[
				{
					"attributes":{
						"POSITION":5,
						"NORMAL":6,
						"TEXCOORD_0":7,
						"TANGENT":8
					},
					"indices":9,
					"material":0
				}
			]
		},
		{
			"name":"Cylinder.020",
			"primitives":[
				{
					"attributes":{
						"POSITION":10,
						"NORMAL":11,
						"TEXCOORD_0":12
					},
					"indices":13,
					"material":1
				}
			]
		}
	],
	"textures":[
		{
			"sampler":0,
			"source":0
		}
	],
	"images":[
		{
			"mimeType":"image/png",
			"name":"column_albedo",
			"uri":"../../textures/gate/column_albedo.png"
		}
	],
	"accessors":[
		{
			"bufferView":0,
			"componentType":5126,
			"count":72,
			"max":[
				0.06563355028629303,
				2.871488094329834,
				7.4912943840026855
			],
			"min":[
				-0.06563355028629303,
				-0.16131795942783356,
				-0.0891612097620964
			],
			"type":"VEC3"
		},
		{
			"bufferView":1,
			"componentType":5126,
			"count":72,
			"type":"VEC3"
		},
		{
			"bufferView":2,
			"componentType":5126,
			"count":72,
			"type":"VEC2"
		},
		{
			"bufferView":3,
			"componentType":5126,
			"count":72,
			"type":"VEC4"
		},
		{
			"bufferView":4,
			"componentType":5123,
			"count":108,
			"type":"SCALAR"
		},
		{
			"bufferView":5,
			"componentType":5126,
			"count":24,
			"max":[
				0.15020005404949188,
				0.03537619113922119,
				7.558060169219971
			],
			"min":[
				-0.15020005404949188,
				-0.03537619113922119,
				-0.09454723447561264
			],
			"type":"VEC3"
		},
		{
			"bufferView":6,
			"componentType":5126,
			"count":24,
			"type":"VEC3"
		},
		{
			"bufferView":7,
			"componentType":5126,
			"count":24,
			"type":"VEC2"
		},
		{
			"bufferView":8,
			"componentType":5126,
			"count":24,
			"type":"VEC4"
		},
		{
			"bufferView":9,
			"componentType":5123,
			"count":36,
			"type":"SCALAR"
		},
		{
			"bufferView":10,
			"componentType":5126,
			"count":3260,
			"max":[
				0.04480547457933426,
				2.505451202392578,
				3.4500203132629395
			],
			"min":[
				-0.044805482029914856,
				-5.010931491851807,
				-3.450023651123047
			],
			"type":"VEC3"
		},
		{
			"bufferView":11,
			"componentType":5126,
			"count":3260,
			"type":"VEC3"
		},
		{
			"bufferView":12,
			"componentType":5126,
			"count":3260,
			"type":"VEC2"
		},
		{
			"bufferView":13,
			"componentType":5123,
			"count":11280,
			"type":"SCALAR"
		}
	],
	"bufferViews":[
		{
			"buffer":0,
			"byteLength":864,
			"byteOffset":0,
			"target":34962
		},
		{
			"buffer":0,
			"byteLength":864,
			"byteOffset":864,
			"target":34962
		},
		{
			"buffer":0,
			"byteLength":576,
			"byteOffset":1728,
			"target":34962
		},
		{
			"buffer":0,
			"byteLength":1152,
			"byteOffset":2304,
			"target":34962
		},
		{
			"buffer":0,
			"byteLength":216,
			"byteOffset":3456,
			"target":34963
		},
		{
			"buffer":0,
			"byteLength":288,
			"byteOffset":3672,
			"target":34962
		},
		{
			"buffer":0,
			"byteLength":288,
			"byteOffset":3960,
			"target":34962
		},
		{
			"buffer":0,
			"byteLength":192,
			"byteOffset":4248,
			"target":34962
		},
		{
			"buffer":0,
			"byteLength":384,
			"byteOffset":4440,
			"target":34962
		},
		{
			"buffer":0,
			"byteLength":72,
			"byteOffset":4824,
			"target":34963
		},
		{
			"buffer":0,
			"byteLength":39120,
			"byteOffset":4896,
			"target":34962
		},
		{
			"buffer":0,
			"byteLength":39120,
			"byteOffset":44016,
			"target":34962
		},
		{
			"buffer":0,
			"byteLength":26080,
			"byteOffset":83136,
			"target":34962
		},
		{
			"buffer":0,
			"byteLength":22560,
			"byteOffset":109216,
			"target":34963
		}
	],
	"samplers":[
		{
			"magFilter":9729,
			"minFilter":9987
		}
	],
	"buffers":[
		{
			"byteLength":131776,
			"uri":"GateBorderSection-f89cb9a6bc661c112b26e2e5e470a442.bin"
		}
	]
}
