{
	"asset":{
		"generator":"Khronos glTF Blender I/O v5.0.21",
		"version":"2.0"
	},
	"scene":0,
	"scenes":[
		{
			"extras":{
				"uuid":"eb02d52d-79ba-44d9-a6cb-302551c9e3d2",
				"assets reported":{}
			},
			"name":"Scene",
			"nodes":[
				0,
				1,
				2,
				3,
				4
			]
		}
	],
	"nodes":[
		{
			"mesh":0,
			"name":"coffin body",
			"rotation":[
				0,
				0.06540313363075256,
				0,
				0.9978589415550232
			],
			"scale":[
				1,
				0.9261969923973083,
				1
			]
		},
		{
			"mesh":1,
			"name":"coffin lid",
			"translation":[
				0,
				-0.05689525604248047,
				0
			]
		},
		{
			"mesh":2,
			"name":"coffin body.001",
			"scale":[
				1,
				0.9261969923973083,
				1
			]
		},
		{
			"mesh":3,
			"name":"coffin lid.001",
			"rotation":[
				0,
				0.06402596831321716,
				0,
				0.9979482889175415
			],
			"translation":[
				0,
				-0.05689525604248047,
				0
			]
		},
		{
			"mesh":4,
			"name":"Cube",
			"scale":[
				8.1808443069458,
				8.1808443069458,
				8.1808443069458
			],
			"translation":[
				0,
				7.466832160949707,
				0
			]
		}
	],
	"materials":[
		{
			"doubleSided":true,
			"name":"Material.001",
			"normalTexture":{
				"index":0
			},
			"pbrMetallicRoughness":{
				"baseColorTexture":{
					"index":1
				},
				"metallicFactor":0,
				"metallicRoughnessTexture":{
					"index":2
				}
			}
		}
	],
	"meshes":[
		{
			"name":"Cube.001",
			"primitives":[
				{
					"attributes":{
						"POSITION":0,
						"NORMAL":1,
						"TEXCOORD_0":2,
						"TANGENT":3
					},
					"indices":4,
					"material":0
				}
			]
		},
		{
			"name":"Cube.002",
			"primitives":[
				{
					"attributes":{
						"POSITION":5,
						"NORMAL":6,
						"TEXCOORD_0":7
					},
					"indices":8,
					"material":0
				}
			]
		},
		{
			"name":"Cube.003",
			"primitives":[
				{
					"attributes":{
						"POSITION":9,
						"NORMAL":10,
						"TEXCOORD_0":11,
						"TANGENT":12
					},
					"indices":13,
					"material":0
				}
			]
		},
		{
			"name":"Cube.004",
			"primitives":[
				{
					"attributes":{
						"POSITION":14,
						"NORMAL":15,
						"TEXCOORD_0":16
					},
					"indices":17,
					"material":0
				}
			]
		},
		{
			"name":"Cube.005",
			"primitives":[
				{
					"attributes":{
						"POSITION":18,
						"NORMAL":19,
						"TEXCOORD_0":20,
						"TANGENT":21
					},
					"indices":22
				}
			]
		}
	],
	"textures":[
		{
			"sampler":0,
			"source":0
		},
		{
			"sampler":0,
			"source":1
		},
		{
			"sampler":0,
			"source":2
		}
	],
	"images":[
		{
			"mimeType":"image/png",
			"name":"plastered_stone_wall_nor_gl_2k.png",
			"uri":"../../textures/plastered_stone_wall_2k.blend/plastered_stone_wall_nor_gl_2k.png"
		},
		{
			"mimeType":"image/jpeg",
			"name":"plastered_stone_wall_diff_2k.jpg",
			"uri":"../../textures/plastered_stone_wall_2k.blend/plastered_stone_wall_diff_2k.jpg"
		},
		{
			"mimeType":"image/png",
			"name":"plastered_stone_wall_rough_2k.png",
			"uri":"../../textures/plastered_stone_wall_2k.blend/plastered_stone_wall_rough_2k.png"
		}
	],
	"accessors":[
		{
			"bufferView":0,
			"componentType":5126,
			"count":2448,
			"max":[
				21.339614868164062,
				0.7709075808525085,
				21.339614868164062
			],
			"min":[
				-21.339614868164062,
				-0.7709076404571533,
				-21.339614868164062
			],
			"type":"VEC3"
		},
		{
			"bufferView":1,
			"componentType":5126,
			"count":2448,
			"type":"VEC3"
		},
		{
			"bufferView":2,
			"componentType":5126,
			"count":2448,
			"type":"VEC2"
		},
		{
			"bufferView":3,
			"componentType":5126,
			"count":2448,
			"type":"VEC4"
		},
		{
			"bufferView":4,
			"componentType":5123,
			"count":5040,
			"type":"SCALAR"
		},
		{
			"bufferView":5,
			"componentType":5126,
			"count":2592,
			"max":[
				31.339614868164062,
				1.0652765035629272,
				31.339614868164062
			],
			"min":[
				-31.339614868164062,
				0.7709075212478638,
				-31.339614868164062
			],
			"type":"VEC3"
		},
		{
			"bufferView":6,
			"componentType":5126,
			"count":2592,
			"type":"VEC3"
		},
		{
			"bufferView":7,
			"componentType":5126,
			"count":2592,
			"type":"VEC2"
		},
		{
			"bufferView":8,
			"componentType":5123,
			"count":4032,
			"type":"SCALAR"
		},
		{
			"bufferView":9,
			"componentType":5126,
			"count":4902,
			"max":[
				31.339614868164062,
				0.7709075808525085,
				31.339614868164062
			],
			"min":[
				-31.339614868164062,
				-0.7709076404571533,
				-31.339614868164062
			],
			"type":"VEC3"
		},
		{
			"bufferView":10,
			"componentType":5126,
			"count":4902,
			"type":"VEC3"
		},
		{
			"bufferView":11,
			"componentType":5126,
			"count":4902,
			"type":"VEC2"
		},
		{
			"bufferView":12,
			"componentType":5126,
			"count":4902,
			"type":"VEC4"
		},
		{
			"bufferView":13,
			"componentType":5123,
			"count":10080,
			"type":"SCALAR"
		},
		{
			"bufferView":14,
			"componentType":5126,
			"count":1296,
			"max":[
				21.339614868164062,
				1.0652765035629272,
				21.339614868164062
			],
			"min":[
				-21.339614868164062,
				0.7709075212478638,
				-21.339614868164062
			],
			"type":"VEC3"
		},
		{
			"bufferView":15,
			"componentType":5126,
			"count":1296,
			"type":"VEC3"
		},
		{
			"bufferView":16,
			"componentType":5126,
			"count":1296,
			"type":"VEC2"
		},
		{
			"bufferView":17,
			"componentType":5123,
			"count":2016,
			"type":"SCALAR"
		},
		{
			"bufferView":18,
			"componentType":5126,
			"count":24,
			"max":[
				1,
				1,
				1
			],
			"min":[
				-1,
				-1,
				-1
			],
			"type":"VEC3"
		},
		{
			"bufferView":19,
			"componentType":5126,
			"count":24,
			"type":"VEC3"
		},
		{
			"bufferView":20,
			"componentType":5126,
			"count":24,
			"type":"VEC2"
		},
		{
			"bufferView":21,
			"componentType":5126,
			"count":24,
			"type":"VEC4"
		},
		{
			"bufferView":22,
			"componentType":5123,
			"count":36,
			"type":"SCALAR"
		}
	],
	"bufferViews":[
		{
			"buffer":0,
			"byteLength":29376,
			"byteOffset":0,
			"target":34962
		},
		{
			"buffer":0,
			"byteLength":29376,
			"byteOffset":29376,
			"target":34962
		},
		{
			"buffer":0,
			"byteLength":19584,
			"byteOffset":58752,
			"target":34962
		},
		{
			"buffer":0,
			"byteLength":39168,
			"byteOffset":78336,
			"target":34962
		},
		{
			"buffer":0,
			"byteLength":10080,
			"byteOffset":117504,
			"target":34963
		},
		{
			"buffer":0,
			"byteLength":31104,
			"byteOffset":127584,
			"target":34962
		},
		{
			"buffer":0,
			"byteLength":31104,
			"byteOffset":158688,
			"target":34962
		},
		{
			"buffer":0,
			"byteLength":20736,
			"byteOffset":189792,
			"target":34962
		},
		{
			"buffer":0,
			"byteLength":8064,
			"byteOffset":210528,
			"target":34963
		},
		{
			"buffer":0,
			"byteLength":58824,
			"byteOffset":218592,
			"target":34962
		},
		{
			"buffer":0,
			"byteLength":58824,
			"byteOffset":277416,
			"target":34962
		},
		{
			"buffer":0,
			"byteLength":39216,
			"byteOffset":336240,
			"target":34962
		},
		{
			"buffer":0,
			"byteLength":78432,
			"byteOffset":375456,
			"target":34962
		},
		{
			"buffer":0,
			"byteLength":20160,
			"byteOffset":453888,
			"target":34963
		},
		{
			"buffer":0,
			"byteLength":15552,
			"byteOffset":474048,
			"target":34962
		},
		{
			"buffer":0,
			"byteLength":15552,
			"byteOffset":489600,
			"target":34962
		},
		{
			"buffer":0,
			"byteLength":10368,
			"byteOffset":505152,
			"target":34962
		},
		{
			"buffer":0,
			"byteLength":4032,
			"byteOffset":515520,
			"target":34963
		},
		{
			"buffer":0,
			"byteLength":288,
			"byteOffset":519552,
			"target":34962
		},
		{
			"buffer":0,
			"byteLength":288,
			"byteOffset":519840,
			"target":34962
		},
		{
			"buffer":0,
			"byteLength":192,
			"byteOffset":520128,
			"target":34962
		},
		{
			"buffer":0,
			"byteLength":384,
			"byteOffset":520320,
			"target":34962
		},
		{
			"buffer":0,
			"byteLength":72,
			"byteOffset":520704,
			"target":34963
		}
	],
	"samplers":[
		{
			"magFilter":9729,
			"minFilter":9987
		}
	],
	"buffers":[
		{
			"byteLength":520776,
			"uri":"graveyard-3b0e853e846de1b7b9553ef8d633c371.bin"
		}
	]
}
