{
	"asset":{
		"generator":"Khronos glTF Blender I/O v5.0.21",
		"version":"2.0"
	},
	"scene":0,
	"scenes":[
		{
			"name":"Scene",
			"nodes":[
				0
			]
		}
	],
	"nodes":[
		{
			"mesh":0,
			"name":"Plane",
			"scale":[
				23.885478973388672,
				16.498016357421875,
				23.885478973388672
			],
			"translation":[
				0,
				-8.797571182250977,
				7.496370792388916
			]
		}
	],
	"materials":[
		{
			"doubleSided":true,
			"name":"Material.001",
			"normalTexture":{
				"index":0
			},
			"pbrMetallicRoughness":{
				"baseColorTexture":{
					"index":1
				}
			}
		}
	],
	"meshes":[
		{
			"name":"Plane",
			"primitives":[
				{
					"attributes":{
						"POSITION":0,
						"TEXCOORD_0":1
					},
					"indices":2,
					"material":0
				}
			]
		}
	],
	"textures":[
		{
			"sampler":0,
			"source":0
		},
		{
			"sampler":0,
			"source":1
		}
	],
	"images":[
		{
			"mimeType":"image/png",
			"name":"Ground_Normal",
			"uri":"../../textures/ground/Ground_Normal.png"
		},
		{
			"mimeType":"image/png",
			"name":"Ground_Albedo",
			"uri":"../../textures/ground/Ground_Albedo.png"
		}
	],
	"accessors":[
		{
			"bufferView":0,
			"componentType":5126,
			"count":2500,
			"max":[
				9.0677490234375,
				0.801119863986969,
				9.188385963439941
			],
			"min":[
				-9.0677490234375,
				-0.5104907751083374,
				-9.188385963439941
			],
			"type":"VEC3"
		},
		{
			"bufferView":1,
			"componentType":5126,
			"count":2500,
			"type":"VEC2"
		},
		{
			"bufferView":2,
			"componentType":5123,
			"count":14406,
			"type":"SCALAR"
		}
	],
	"bufferViews":[
		{
			"buffer":0,
			"byteLength":30000,
			"byteOffset":0,
			"target":34962
		},
		{
			"buffer":0,
			"byteLength":20000,
			"byteOffset":30000,
			"target":34962
		},
		{
			"buffer":0,
			"byteLength":28812,
			"byteOffset":50000,
			"target":34963
		}
	],
	"samplers":[
		{
			"magFilter":9729,
			"minFilter":9987
		}
	],
	"buffers":[
		{
			"byteLength":78812,
			"uri":"Ground-2b1dbc196a937ad63be96541119efc64.bin"
		}
	]
}
