{
	"asset":{
		"generator":"Khronos glTF Blender I/O v5.0.21",
		"version":"2.0"
	},
	"scene":0,
	"scenes":[
		{
			"name":"Scene",
			"nodes":[
				0,
				1,
				2,
				3,
				4,
				5,
				6,
				7,
				8,
				9,
				10,
				11,
				12
			]
		}
	],
	"nodes":[
		{
			"mesh":0,
			"name":"Curve",
			"rotation":[
				0.7071068286895752,
				0,
				0,
				0.7071068286895752
			],
			"scale":[
				19.343765258789062,
				19.343765258789062,
				19.343765258789062
			],
			"translation":[
				0.17563281953334808,
				0.17918723821640015,
				0
			]
		},
		{
			"mesh":1,
			"name":"Curve.001",
			"rotation":[
				0.7071068286895752,
				0,
				0,
				0.7071068286895752
			],
			"scale":[
				19.343765258789062,
				15.791521072387695,
				19.343765258789062
			],
			"translation":[
				0.4794122576713562,
				0.15992964804172516,
				-0.00018093478865921497
			]
		},
		{
			"mesh":2,
			"name":"Curve.002",
			"rotation":[
				0.7071068286895752,
				0,
				0,
				0.7071068286895752
			],
			"scale":[
				10.67605972290039,
				6.492331027984619,
				19.343765258789062
			],
			"translation":[
				0.35963594913482666,
				0.125496506690979,
				-0.005433807615190744
			]
		},
		{
			"mesh":3,
			"name":"Curve.003",
			"rotation":[
				0.7071068286895752,
				0,
				0,
				0.7071068286895752
			],
			"scale":[
				10.67605972290039,
				6.492331027984619,
				19.343765258789062
			],
			"translation":[
				0.3885906934738159,
				0.099166139960289,
				-0.005433808080852032
			]
		},
		{
			"mesh":4,
			"name":"Curve.004",
			"rotation":[
				0.7071068286895752,
				0,
				0,
				0.7071068286895752
			],
			"scale":[
				10.67605972290039,
				6.492331027984619,
				19.343765258789062
			],
			"translation":[
				0.4165806472301483,
				0.125496506690979,
				-0.005433807615190744
			]
		},
		{
			"mesh":5,
			"name":"Curve.005",
			"rotation":[
				0.7071068286895752,
				0,
				0,
				0.7071068286895752
			],
			"scale":[
				10.67605972290039,
				6.492331027984619,
				19.343765258789062
			],
			"translation":[
				0.44497931003570557,
				0.08657951653003693,
				-0.005433808546513319
			]
		},
		{
			"mesh":6,
			"name":"Curve.006",
			"rotation":[
				0.7071068286895752,
				0,
				0,
				0.7071068286895752
			],
			"scale":[
				19.343765258789062,
				15.920106887817383,
				19.343765258789062
			],
			"translation":[
				0.5861815810203552,
				0.17918720841407776,
				-0.0001510323490947485
			]
		},
		{
			"mesh":7,
			"name":"Curve.007",
			"rotation":[
				0.7071068286895752,
				0,
				0,
				0.7071068286895752
			],
			"scale":[
				19.343765258789062,
				19.343765258789062,
				19.343765258789062
			],
			"translation":[
				0.17563281953334808,
				0.17918723821640015,
				0
			]
		},
		{
			"mesh":8,
			"name":"Curve.008",
			"rotation":[
				0.7071068286895752,
				0,
				0,
				0.7071068286895752
			],
			"scale":[
				6.502225399017334,
				6.502225399017334,
				6.502225399017334
			],
			"translation":[
				0.17563281953334808,
				0.17918723821640015,
				0.0026725847274065018
			]
		},
		{
			"mesh":9,
			"name":"Curve.009",
			"rotation":[
				0.7071068286895752,
				0,
				0,
				0.7071068286895752
			],
			"scale":[
				10.67605972290039,
				6.492331027984619,
				7.957458019256592
			],
			"translation":[
				0.4735337495803833,
				0.0843624472618103,
				-0.005433807615190744
			]
		},
		{
			"mesh":10,
			"name":"Curve.010",
			"rotation":[
				0.7071068286895752,
				0,
				0,
				0.7071068286895752
			],
			"scale":[
				10.67605972290039,
				6.492331027984619,
				5.211460113525391
			],
			"translation":[
				0.5024884939193726,
				0.10575326532125473,
				-0.005433808080852032
			]
		},
		{
			"mesh":11,
			"name":"Curve.011",
			"rotation":[
				0.7071068286895752,
				0,
				0,
				0.7071068286895752
			],
			"scale":[
				10.67605972290039,
				6.492331027984619,
				19.343765258789062
			],
			"translation":[
				0.5304784178733826,
				0.125496506690979,
				-0.005433807615190744
			]
		},
		{
			"mesh":12,
			"name":"Curve.012",
			"rotation":[
				0.7071068286895752,
				0,
				0,
				0.7071068286895752
			],
			"scale":[
				10.67605972290039,
				6.492331027984619,
				11.746254920959473
			],
			"translation":[
				0.5588771104812622,
				0.08657951653003693,
				-0.005433808546513319
			]
		}
	],
	"materials":[
		{
			"doubleSided":true,
			"name":"SVGMat"
		},
		{
			"doubleSided":true,
			"name":"SVGMat.001"
		}
	],
	"meshes":[
		{
			"name":"Curve",
			"primitives":[
				{
					"attributes":{
						"POSITION":0,
						"NORMAL":1,
						"TEXCOORD_0":2,
						"TANGENT":3
					},
					"indices":4,
					"material":0
				}
			]
		},
		{
			"name":"Curve.001",
			"primitives":[
				{
					"attributes":{
						"POSITION":5,
						"NORMAL":6,
						"TEXCOORD_0":7,
						"TANGENT":8
					},
					"indices":9,
					"material":0
				}
			]
		},
		{
			"name":"Curve.002",
			"primitives":[
				{
					"attributes":{
						"POSITION":10,
						"NORMAL":11,
						"TEXCOORD_0":12,
						"TANGENT":13
					},
					"indices":14,
					"material":1
				}
			]
		},
		{
			"name":"Curve.003",
			"primitives":[
				{
					"attributes":{
						"POSITION":15,
						"NORMAL":16,
						"TEXCOORD_0":17,
						"TANGENT":18
					},
					"indices":14,
					"material":1
				}
			]
		},
		{
			"name":"Curve.004",
			"primitives":[
				{
					"attributes":{
						"POSITION":19,
						"NORMAL":20,
						"TEXCOORD_0":21,
						"TANGENT":22
					},
					"indices":14,
					"material":1
				}
			]
		},
		{
			"name":"Curve.005",
			"primitives":[
				{
					"attributes":{
						"POSITION":23,
						"NORMAL":24,
						"TEXCOORD_0":25,
						"TANGENT":26
					},
					"indices":14,
					"material":1
				}
			]
		},
		{
			"name":"Curve.006",
			"primitives":[
				{
					"attributes":{
						"POSITION":27,
						"NORMAL":28,
						"TEXCOORD_0":29,
						"TANGENT":30
					},
					"indices":31,
					"material":0
				}
			]
		},
		{
			"name":"Curve.008",
			"primitives":[
				{
					"attributes":{
						"POSITION":32,
						"NORMAL":33,
						"TEXCOORD_0":34,
						"TANGENT":35
					},
					"indices":4,
					"material":0
				}
			]
		},
		{
			"name":"Curve.009",
			"primitives":[
				{
					"attributes":{
						"POSITION":36,
						"NORMAL":37,
						"TEXCOORD_0":38,
						"TANGENT":39
					},
					"indices":4,
					"material":1
				}
			]
		},
		{
			"name":"Curve.013",
			"primitives":[
				{
					"attributes":{
						"POSITION":40,
						"NORMAL":41,
						"TEXCOORD_0":42,
						"TANGENT":43
					},
					"indices":14,
					"material":1
				}
			]
		},
		{
			"name":"Curve.014",
			"primitives":[
				{
					"attributes":{
						"POSITION":44,
						"NORMAL":45,
						"TEXCOORD_0":46,
						"TANGENT":47
					},
					"indices":14,
					"material":1
				}
			]
		},
		{
			"name":"Curve.015",
			"primitives":[
				{
					"attributes":{
						"POSITION":48,
						"NORMAL":49,
						"TEXCOORD_0":50,
						"TANGENT":51
					},
					"indices":14,
					"material":1
				}
			]
		},
		{
			"name":"Curve.016",
			"primitives":[
				{
					"attributes":{
						"POSITION":52,
						"NORMAL":53,
						"TEXCOORD_0":54,
						"TANGENT":55
					},
					"indices":14,
					"material":1
				}
			]
		}
	],
	"accessors":[
		{
			"bufferView":0,
			"componentType":5126,
			"count":192,
			"max":[
				0.009079556912183762,
				0,
				0.009077640250325203
			],
			"min":[
				-0.009079556912183762,
				-0.0010000000474974513,
				-0.009077638387680054
			],
			"type":"VEC3"
		},
		{
			"bufferView":1,
			"componentType":5126,
			"count":192,
			"type":"VEC3"
		},
		{
			"bufferView":2,
			"componentType":5126,
			"count":192,
			"type":"VEC2"
		},
		{
			"bufferView":3,
			"componentType":5126,
			"count":192,
			"type":"VEC4"
		},
		{
			"bufferView":4,
			"componentType":5123,
			"count":564,
			"type":"SCALAR"
		},
		{
			"bufferView":5,
			"componentType":5126,
			"count":110,
			"max":[
				0.008474092930555344,
				0,
				0.002567678689956665
			],
			"min":[
				-0.016473326832056046,
				-0.0010000000474974513,
				-0.004558766260743141
			],
			"type":"VEC3"
		},
		{
			"bufferView":6,
			"componentType":5126,
			"count":110,
			"type":"VEC3"
		},
		{
			"bufferView":7,
			"componentType":5126,
			"count":110,
			"type":"VEC2"
		},
		{
			"bufferView":8,
			"componentType":5126,
			"count":110,
			"type":"VEC4"
		},
		{
			"bufferView":9,
			"componentType":5123,
			"count":300,
			"type":"SCALAR"
		},
		{
			"bufferView":10,
			"componentType":5126,
			"count":110,
			"max":[
				0.0013253334909677505,
				0,
				0.002462754026055336
			],
			"min":[
				-0.0007465016096830368,
				-0.0010000000474974513,
				-0.004787468817085028
			],
			"type":"VEC3"
		},
		{
			"bufferView":11,
			"componentType":5126,
			"count":110,
			"type":"VEC3"
		},
		{
			"bufferView":12,
			"componentType":5126,
			"count":110,
			"type":"VEC2"
		},
		{
			"bufferView":13,
			"componentType":5126,
			"count":110,
			"type":"VEC4"
		},
		{
			"bufferView":14,
			"componentType":5123,
			"count":300,
			"type":"SCALAR"
		},
		{
			"bufferView":15,
			"componentType":5126,
			"count":110,
			"max":[
				0.0013253428041934967,
				0,
				0.002462752629071474
			],
			"min":[
				-0.0007464941591024399,
				-0.0010000000474974513,
				-0.004787469748407602
			],
			"type":"VEC3"
		},
		{
			"bufferView":16,
			"componentType":5126,
			"count":110,
			"type":"VEC3"
		},
		{
			"bufferView":17,
			"componentType":5126,
			"count":110,
			"type":"VEC2"
		},
		{
			"bufferView":18,
			"componentType":5126,
			"count":110,
			"type":"VEC4"
		},
		{
			"bufferView":19,
			"componentType":5126,
			"count":110,
			"max":[
				0.0013253316283226013,
				0,
				0.002462754026055336
			],
			"min":[
				-0.000746503472328186,
				-0.0010000000474974513,
				-0.004787468817085028
			],
			"type":"VEC3"
		},
		{
			"bufferView":20,
			"componentType":5126,
			"count":110,
			"type":"VEC3"
		},
		{
			"bufferView":21,
			"componentType":5126,
			"count":110,
			"type":"VEC2"
		},
		{
			"bufferView":22,
			"componentType":5126,
			"count":110,
			"type":"VEC4"
		},
		{
			"bufferView":23,
			"componentType":5126,
			"count":110,
			"max":[
				0.001325329765677452,
				0,
				0.002462751930579543
			],
			"min":[
				-0.0007465053349733353,
				-0.0010000000474974513,
				-0.00478747021406889
			],
			"type":"VEC3"
		},
		{
			"bufferView":24,
			"componentType":5126,
			"count":110,
			"type":"VEC3"
		},
		{
			"bufferView":25,
			"componentType":5126,
			"count":110,
			"type":"VEC2"
		},
		{
			"bufferView":26,
			"componentType":5126,
			"count":110,
			"type":"VEC4"
		},
		{
			"bufferView":27,
			"componentType":5126,
			"count":192,
			"max":[
				0.0035639721900224686,
				0,
				0.003563222475349903
			],
			"min":[
				-0.0035639777779579163,
				-0.0010000000474974513,
				-0.003563222475349903
			],
			"type":"VEC3"
		},
		{
			"bufferView":28,
			"componentType":5126,
			"count":192,
			"type":"VEC3"
		},
		{
			"bufferView":29,
			"componentType":5126,
			"count":192,
			"type":"VEC2"
		},
		{
			"bufferView":30,
			"componentType":5126,
			"count":192,
			"type":"VEC4"
		},
		{
			"bufferView":31,
			"componentType":5123,
			"count":564,
			"type":"SCALAR"
		},
		{
			"bufferView":32,
			"componentType":5126,
			"count":192,
			"max":[
				0.009079556912183762,
				0,
				0.009077640250325203
			],
			"min":[
				-0.009079556912183762,
				-0.0010000000474974513,
				-0.009077638387680054
			],
			"type":"VEC3"
		},
		{
			"bufferView":33,
			"componentType":5126,
			"count":192,
			"type":"VEC3"
		},
		{
			"bufferView":34,
			"componentType":5126,
			"count":192,
			"type":"VEC2"
		},
		{
			"bufferView":35,
			"componentType":5126,
			"count":192,
			"type":"VEC4"
		},
		{
			"bufferView":36,
			"componentType":5126,
			"count":192,
			"max":[
				0.009079556912183762,
				0,
				0.009077640250325203
			],
			"min":[
				-0.009079556912183762,
				-0.0010000000474974513,
				-0.009077638387680054
			],
			"type":"VEC3"
		},
		{
			"bufferView":37,
			"componentType":5126,
			"count":192,
			"type":"VEC3"
		},
		{
			"bufferView":38,
			"componentType":5126,
			"count":192,
			"type":"VEC2"
		},
		{
			"bufferView":39,
			"componentType":5126,
			"count":192,
			"type":"VEC4"
		},
		{
			"bufferView":40,
			"componentType":5126,
			"count":110,
			"max":[
				0.0013253334909677505,
				0,
				0.002462754026055336
			],
			"min":[
				-0.0007465016096830368,
				-0.0010000000474974513,
				-0.004787468817085028
			],
			"type":"VEC3"
		},
		{
			"bufferView":41,
			"componentType":5126,
			"count":110,
			"type":"VEC3"
		},
		{
			"bufferView":42,
			"componentType":5126,
			"count":110,
			"type":"VEC2"
		},
		{
			"bufferView":43,
			"componentType":5126,
			"count":110,
			"type":"VEC4"
		},
		{
			"bufferView":44,
			"componentType":5126,
			"count":110,
			"max":[
				0.0013253428041934967,
				0,
				0.002462752629071474
			],
			"min":[
				-0.0007464941591024399,
				-0.0010000000474974513,
				-0.004787469748407602
			],
			"type":"VEC3"
		},
		{
			"bufferView":45,
			"componentType":5126,
			"count":110,
			"type":"VEC3"
		},
		{
			"bufferView":46,
			"componentType":5126,
			"count":110,
			"type":"VEC2"
		},
		{
			"bufferView":47,
			"componentType":5126,
			"count":110,
			"type":"VEC4"
		},
		{
			"bufferView":48,
			"componentType":5126,
			"count":110,
			"max":[
				0.0013253316283226013,
				0,
				0.002462754026055336
			],
			"min":[
				-0.000746503472328186,
				-0.0010000000474974513,
				-0.004787468817085028
			],
			"type":"VEC3"
		},
		{
			"bufferView":49,
			"componentType":5126,
			"count":110,
			"type":"VEC3"
		},
		{
			"bufferView":50,
			"componentType":5126,
			"count":110,
			"type":"VEC2"
		},
		{
			"bufferView":51,
			"componentType":5126,
			"count":110,
			"type":"VEC4"
		},
		{
			"bufferView":52,
			"componentType":5126,
			"count":110,
			"max":[
				0.001325329765677452,
				0,
				0.002462751930579543
			],
			"min":[
				-0.0007465053349733353,
				-0.0010000000474974513,
				-0.00478747021406889
			],
			"type":"VEC3"
		},
		{
			"bufferView":53,
			"componentType":5126,
			"count":110,
			"type":"VEC3"
		},
		{
			"bufferView":54,
			"componentType":5126,
			"count":110,
			"type":"VEC2"
		},
		{
			"bufferView":55,
			"componentType":5126,
			"count":110,
			"type":"VEC4"
		}
	],
	"bufferViews":[
		{
			"buffer":0,
			"byteLength":2304,
			"byteOffset":0,
			"target":34962
		},
		{
			"buffer":0,
			"byteLength":2304,
			"byteOffset":2304,
			"target":34962
		},
		{
			"buffer":0,
			"byteLength":1536,
			"byteOffset":4608,
			"target":34962
		},
		{
			"buffer":0,
			"byteLength":3072,
			"byteOffset":6144,
			"target":34962
		},
		{
			"buffer":0,
			"byteLength":1128,
			"byteOffset":9216,
			"target":34963
		},
		{
			"buffer":0,
			"byteLength":1320,
			"byteOffset":10344,
			"target":34962
		},
		{
			"buffer":0,
			"byteLength":1320,
			"byteOffset":11664,
			"target":34962
		},
		{
			"buffer":0,
			"byteLength":880,
			"byteOffset":12984,
			"target":34962
		},
		{
			"buffer":0,
			"byteLength":1760,
			"byteOffset":13864,
			"target":34962
		},
		{
			"buffer":0,
			"byteLength":600,
			"byteOffset":15624,
			"target":34963
		},
		{
			"buffer":0,
			"byteLength":1320,
			"byteOffset":16224,
			"target":34962
		},
		{
			"buffer":0,
			"byteLength":1320,
			"byteOffset":17544,
			"target":34962
		},
		{
			"buffer":0,
			"byteLength":880,
			"byteOffset":18864,
			"target":34962
		},
		{
			"buffer":0,
			"byteLength":1760,
			"byteOffset":19744,
			"target":34962
		},
		{
			"buffer":0,
			"byteLength":600,
			"byteOffset":21504,
			"target":34963
		},
		{
			"buffer":0,
			"byteLength":1320,
			"byteOffset":22104,
			"target":34962
		},
		{
			"buffer":0,
			"byteLength":1320,
			"byteOffset":23424,
			"target":34962
		},
		{
			"buffer":0,
			"byteLength":880,
			"byteOffset":24744,
			"target":34962
		},
		{
			"buffer":0,
			"byteLength":1760,
			"byteOffset":25624,
			"target":34962
		},
		{
			"buffer":0,
			"byteLength":1320,
			"byteOffset":27384,
			"target":34962
		},
		{
			"buffer":0,
			"byteLength":1320,
			"byteOffset":28704,
			"target":34962
		},
		{
			"buffer":0,
			"byteLength":880,
			"byteOffset":30024,
			"target":34962
		},
		{
			"buffer":0,
			"byteLength":1760,
			"byteOffset":30904,
			"target":34962
		},
		{
			"buffer":0,
			"byteLength":1320,
			"byteOffset":32664,
			"target":34962
		},
		{
			"buffer":0,
			"byteLength":1320,
			"byteOffset":33984,
			"target":34962
		},
		{
			"buffer":0,
			"byteLength":880,
			"byteOffset":35304,
			"target":34962
		},
		{
			"buffer":0,
			"byteLength":1760,
			"byteOffset":36184,
			"target":34962
		},
		{
			"buffer":0,
			"byteLength":2304,
			"byteOffset":37944,
			"target":34962
		},
		{
			"buffer":0,
			"byteLength":2304,
			"byteOffset":40248,
			"target":34962
		},
		{
			"buffer":0,
			"byteLength":1536,
			"byteOffset":42552,
			"target":34962
		},
		{
			"buffer":0,
			"byteLength":3072,
			"byteOffset":44088,
			"target":34962
		},
		{
			"buffer":0,
			"byteLength":1128,
			"byteOffset":47160,
			"target":34963
		},
		{
			"buffer":0,
			"byteLength":2304,
			"byteOffset":48288,
			"target":34962
		},
		{
			"buffer":0,
			"byteLength":2304,
			"byteOffset":50592,
			"target":34962
		},
		{
			"buffer":0,
			"byteLength":1536,
			"byteOffset":52896,
			"target":34962
		},
		{
			"buffer":0,
			"byteLength":3072,
			"byteOffset":54432,
			"target":34962
		},
		{
			"buffer":0,
			"byteLength":2304,
			"byteOffset":57504,
			"target":34962
		},
		{
			"buffer":0,
			"byteLength":2304,
			"byteOffset":59808,
			"target":34962
		},
		{
			"buffer":0,
			"byteLength":1536,
			"byteOffset":62112,
			"target":34962
		},
		{
			"buffer":0,
			"byteLength":3072,
			"byteOffset":63648,
			"target":34962
		},
		{
			"buffer":0,
			"byteLength":1320,
			"byteOffset":66720,
			"target":34962
		},
		{
			"buffer":0,
			"byteLength":1320,
			"byteOffset":68040,
			"target":34962
		},
		{
			"buffer":0,
			"byteLength":880,
			"byteOffset":69360,
			"target":34962
		},
		{
			"buffer":0,
			"byteLength":1760,
			"byteOffset":70240,
			"target":34962
		},
		{
			"buffer":0,
			"byteLength":1320,
			"byteOffset":72000,
			"target":34962
		},
		{
			"buffer":0,
			"byteLength":1320,
			"byteOffset":73320,
			"target":34962
		},
		{
			"buffer":0,
			"byteLength":880,
			"byteOffset":74640,
			"target":34962
		},
		{
			"buffer":0,
			"byteLength":1760,
			"byteOffset":75520,
			"target":34962
		},
		{
			"buffer":0,
			"byteLength":1320,
			"byteOffset":77280,
			"target":34962
		},
		{
			"buffer":0,
			"byteLength":1320,
			"byteOffset":78600,
			"target":34962
		},
		{
			"buffer":0,
			"byteLength":880,
			"byteOffset":79920,
			"target":34962
		},
		{
			"buffer":0,
			"byteLength":1760,
			"byteOffset":80800,
			"target":34962
		},
		{
			"buffer":0,
			"byteLength":1320,
			"byteOffset":82560,
			"target":34962
		},
		{
			"buffer":0,
			"byteLength":1320,
			"byteOffset":83880,
			"target":34962
		},
		{
			"buffer":0,
			"byteLength":880,
			"byteOffset":85200,
			"target":34962
		},
		{
			"buffer":0,
			"byteLength":1760,
			"byteOffset":86080,
			"target":34962
		}
	],
	"buffers":[
		{
			"byteLength":87840,
			"uri":"Key-1888862a0ed39e94eb44ab1a65f30448.bin"
		}
	]
}
