{
	"asset":{
		"generator":"Khronos glTF Blender I/O v5.0.21",
		"version":"2.0"
	},
	"scene":0,
	"scenes":[
		{
			"name":"Scene",
			"nodes":[
				0,
				1,
				2,
				3
			]
		}
	],
	"nodes":[
		{
			"mesh":0,
			"name":"Cube",
			"translation":[
				0,
				2.643065929412842,
				0
			]
		},
		{
			"mesh":1,
			"name":"Cylinder",
			"translation":[
				0.6357301473617554,
				0.35679197311401367,
				0
			]
		},
		{
			"mesh":2,
			"name":"Curve",
			"rotation":[
				-0.7071068286895752,
				0,
				0,
				0.7071068286895752
			],
			"scale":[
				1.7606090307235718,
				0.3681597411632538,
				1.7606090307235718
			],
			"translation":[
				0,
				1.0323060750961304,
				-0.17923735082149506
			]
		},
		{
			"mesh":3,
			"name":"Curve.001",
			"rotation":[
				-0.7071068286895752,
				0,
				0,
				0.7071068286895752
			],
			"scale":[
				1.7606090307235718,
				0.3681597411632538,
				1.7606090307235718
			],
			"translation":[
				0,
				0.5482233762741089,
				-0.17923735082149506
			]
		}
	],
	"animations":[
		{
			"channels":[
				{
					"sampler":0,
					"target":{
						"node":1,
						"path":"translation"
					}
				},
				{
					"sampler":1,
					"target":{
						"node":1,
						"path":"rotation"
					}
				},
				{
					"sampler":2,
					"target":{
						"node":1,
						"path":"scale"
					}
				}
			],
			"name":"OpenAnimation",
			"samplers":[
				{
					"input":18,
					"interpolation":"LINEAR",
					"output":19
				},
				{
					"input":18,
					"interpolation":"LINEAR",
					"output":20
				},
				{
					"input":21,
					"interpolation":"STEP",
					"output":22
				}
			]
		}
	],
	"materials":[
		{
			"doubleSided":true,
			"name":"Material",
			"pbrMetallicRoughness":{
				"baseColorFactor":[
					1,
					0.9550657272338867,
					0.8992851972579956,
					1
				],
				"roughnessFactor":0.5
			}
		},
		{
			"doubleSided":true,
			"name":"Material.001",
			"pbrMetallicRoughness":{
				"baseColorFactor":[
					0,
					0,
					0,
					1
				],
				"metallicFactor":0.9615384340286255,
				"roughnessFactor":0.5
			}
		},
		{
			"doubleSided":true,
			"name":"Material.003",
			"pbrMetallicRoughness":{
				"baseColorFactor":[
					0,
					0,
					0,
					1
				],
				"metallicFactor":0,
				"roughnessFactor":0
			}
		}
	],
	"meshes":[
		{
			"name":"Cube.001",
			"primitives":[
				{
					"attributes":{
						"POSITION":0,
						"NORMAL":1,
						"TEXCOORD_0":2
					},
					"indices":3,
					"material":0
				}
			]
		},
		{
			"name":"Cylinder",
			"primitives":[
				{
					"attributes":{
						"POSITION":4,
						"NORMAL":5,
						"TEXCOORD_0":6
					},
					"indices":7,
					"material":1
				}
			]
		},
		{
			"name":"Curve",
			"primitives":[
				{
					"attributes":{
						"POSITION":8,
						"NORMAL":9,
						"TEXCOORD_0":10,
						"TANGENT":11
					},
					"indices":12,
					"material":2
				}
			]
		},
		{
			"name":"Curve.001",
			"primitives":[
				{
					"attributes":{
						"POSITION":13,
						"NORMAL":14,
						"TEXCOORD_0":15,
						"TANGENT":16
					},
					"indices":17,
					"material":2
				}
			]
		}
	],
	"accessors":[
		{
			"bufferView":0,
			"componentType":5126,
			"count":444,
			"max":[
				1,
				-0.6255403757095337,
				0.19484126567840576
			],
			"min":[
				-1,
				-2.636906623840332,
				-0.19484126567840576
			],
			"type":"VEC3"
		},
		{
			"bufferView":1,
			"componentType":5126,
			"count":444,
			"type":"VEC3"
		},
		{
			"bufferView":2,
			"componentType":5126,
			"count":444,
			"type":"VEC2"
		},
		{
			"bufferView":3,
			"componentType":5123,
			"count":1044,
			"type":"SCALAR"
		},
		{
			"bufferView":4,
			"componentType":5126,
			"count":676,
			"max":[
				0.1311543583869934,
				2.8967995643615723,
				0.13113471865653992
			],
			"min":[
				-1.4001144170761108,
				4.76837158203125e-07,
				-0.13113470375537872
			],
			"type":"VEC3"
		},
		{
			"bufferView":5,
			"componentType":5126,
			"count":676,
			"type":"VEC3"
		},
		{
			"bufferView":6,
			"componentType":5126,
			"count":676,
			"type":"VEC2"
		},
		{
			"bufferView":7,
			"componentType":5123,
			"count":3456,
			"type":"SCALAR"
		},
		{
			"bufferView":8,
			"componentType":5126,
			"count":288,
			"max":[
				0.20781469345092773,
				0.08933667838573456,
				0.20777066051959991
			],
			"min":[
				-0.20781469345092773,
				0,
				-0.2077709585428238
			],
			"type":"VEC3"
		},
		{
			"bufferView":9,
			"componentType":5126,
			"count":288,
			"type":"VEC3"
		},
		{
			"bufferView":10,
			"componentType":5126,
			"count":288,
			"type":"VEC2"
		},
		{
			"bufferView":11,
			"componentType":5126,
			"count":288,
			"type":"VEC4"
		},
		{
			"bufferView":12,
			"componentType":5123,
			"count":564,
			"type":"SCALAR"
		},
		{
			"bufferView":13,
			"componentType":5126,
			"count":24,
			"max":[
				0.19612085819244385,
				0.08933667838573456,
				0.1538669466972351
			],
			"min":[
				-0.1961205154657364,
				0,
				-0.1538669466972351
			],
			"type":"VEC3"
		},
		{
			"bufferView":14,
			"componentType":5126,
			"count":24,
			"type":"VEC3"
		},
		{
			"bufferView":15,
			"componentType":5126,
			"count":24,
			"type":"VEC2"
		},
		{
			"bufferView":16,
			"componentType":5126,
			"count":24,
			"type":"VEC4"
		},
		{
			"bufferView":17,
			"componentType":5123,
			"count":36,
			"type":"SCALAR"
		},
		{
			"bufferView":18,
			"componentType":5126,
			"count":48,
			"max":[
				2
			],
			"min":[
				0.041666666666666664
			],
			"type":"SCALAR"
		},
		{
			"bufferView":19,
			"componentType":5126,
			"count":48,
			"type":"VEC3"
		},
		{
			"bufferView":20,
			"componentType":5126,
			"count":48,
			"type":"VEC4"
		},
		{
			"bufferView":21,
			"componentType":5126,
			"count":2,
			"max":[
				2
			],
			"min":[
				0.041666666666666664
			],
			"type":"SCALAR"
		},
		{
			"bufferView":22,
			"componentType":5126,
			"count":2,
			"type":"VEC3"
		}
	],
	"bufferViews":[
		{
			"buffer":0,
			"byteLength":5328,
			"byteOffset":0,
			"target":34962
		},
		{
			"buffer":0,
			"byteLength":5328,
			"byteOffset":5328,
			"target":34962
		},
		{
			"buffer":0,
			"byteLength":3552,
			"byteOffset":10656,
			"target":34962
		},
		{
			"buffer":0,
			"byteLength":2088,
			"byteOffset":14208,
			"target":34963
		},
		{
			"buffer":0,
			"byteLength":8112,
			"byteOffset":16296,
			"target":34962
		},
		{
			"buffer":0,
			"byteLength":8112,
			"byteOffset":24408,
			"target":34962
		},
		{
			"buffer":0,
			"byteLength":5408,
			"byteOffset":32520,
			"target":34962
		},
		{
			"buffer":0,
			"byteLength":6912,
			"byteOffset":37928,
			"target":34963
		},
		{
			"buffer":0,
			"byteLength":3456,
			"byteOffset":44840,
			"target":34962
		},
		{
			"buffer":0,
			"byteLength":3456,
			"byteOffset":48296,
			"target":34962
		},
		{
			"buffer":0,
			"byteLength":2304,
			"byteOffset":51752,
			"target":34962
		},
		{
			"buffer":0,
			"byteLength":4608,
			"byteOffset":54056,
			"target":34962
		},
		{
			"buffer":0,
			"byteLength":1128,
			"byteOffset":58664,
			"target":34963
		},
		{
			"buffer":0,
			"byteLength":288,
			"byteOffset":59792,
			"target":34962
		},
		{
			"buffer":0,
			"byteLength":288,
			"byteOffset":60080,
			"target":34962
		},
		{
			"buffer":0,
			"byteLength":192,
			"byteOffset":60368,
			"target":34962
		},
		{
			"buffer":0,
			"byteLength":384,
			"byteOffset":60560,
			"target":34962
		},
		{
			"buffer":0,
			"byteLength":72,
			"byteOffset":60944,
			"target":34963
		},
		{
			"buffer":0,
			"byteLength":192,
			"byteOffset":61016
		},
		{
			"buffer":0,
			"byteLength":576,
			"byteOffset":61208
		},
		{
			"buffer":0,
			"byteLength":768,
			"byteOffset":61784
		},
		{
			"buffer":0,
			"byteLength":8,
			"byteOffset":62552
		},
		{
			"buffer":0,
			"byteLength":24,
			"byteOffset":62560
		}
	],
	"buffers":[
		{
			"byteLength":62584,
			"uri":"Lock-c86ab5ee0372a95dbe9eba04eef2933e.bin"
		}
	]
}
