{
	"asset":{
		"generator":"Khronos glTF Blender I/O v5.0.21",
		"version":"2.0"
	},
	"scene":0,
	"scenes":[
		{
			"name":"Scene",
			"nodes":[
				0
			]
		}
	],
	"nodes":[
		{
			"mesh":0,
			"name":"Maze"
		}
	],
	"meshes":[
		{
			"name":"Maze.008",
			"primitives":[
				{
					"attributes":{
						"POSITION":0,
						"NORMAL":1
					},
					"indices":2
				}
			]
		}
	],
	"accessors":[
		{
			"bufferView":0,
			"componentType":5126,
			"count":1688,
			"max":[
				15.282051086425781,
				2.3999977111816406,
				15.64102554321289
			],
			"min":[
				-15.717948913574219,
				-2.384185791015625e-06,
				-15.35897445678711
			],
			"type":"VEC3"
		},
		{
			"bufferView":1,
			"componentType":5126,
			"count":1688,
			"type":"VEC3"
		},
		{
			"bufferView":2,
			"componentType":5123,
			"count":3618,
			"type":"SCALAR"
		}
	],
	"bufferViews":[
		{
			"buffer":0,
			"byteLength":20256,
			"byteOffset":0,
			"target":34962
		},
		{
			"buffer":0,
			"byteLength":20256,
			"byteOffset":20256,
			"target":34962
		},
		{
			"buffer":0,
			"byteLength":7236,
			"byteOffset":40512,
			"target":34963
		}
	],
	"buffers":[
		{
			"byteLength":47748,
			"uri":"Maze-53a3ee6adf3ca6745e351f4798853cf0.bin"
		}
	]
}
