{
	"asset":{
		"generator":"Khronos glTF Blender I/O v5.0.21",
		"version":"2.0"
	},
	"scene":0,
	"scenes":[
		{
			"name":"Scene",
			"nodes":[
				0,
				1,
				2,
				3,
				4,
				5,
				6,
				7,
				8,
				9,
				10,
				11,
				12,
				13,
				14,
				15,
				16,
				17,
				18,
				19,
				20,
				21,
				22,
				23,
				24,
				25,
				26,
				27,
				28,
				29,
				30,
				31,
				32,
				33,
				34,
				35,
				36,
				37,
				38,
				39,
				40,
				41,
				42,
				43,
				44,
				45,
				46,
				47,
				48,
				49,
				50,
				51,
				52,
				53,
				54,
				55,
				56,
				57,
				58,
				59,
				60,
				61,
				62,
				63,
				64,
				65
			]
		}
	],
	"nodes":[
		{
			"mesh":0,
			"name":"Crank",
			"scale":[
				0,
				0,
				0
			],
			"translation":[
				-3.1738662719726562,
				1.7163718938827515,
				4.750013828277588
			]
		},
		{
			"mesh":1,
			"name":"Cube",
			"scale":[
				1,
				1,
				0.17198386788368225
			],
			"translation":[
				-20.86091423034668,
				0.7285370826721191,
				-7.058902263641357
			]
		},
		{
			"mesh":2,
			"name":"Cube.001",
			"rotation":[
				0,
				0.7071068286895752,
				0,
				0.7071068286895752
			],
			"scale":[
				1,
				1,
				0.17021512985229492
			],
			"translation":[
				-20.86091423034668,
				0.7285370826721191,
				-7.058902740478516
			]
		},
		{
			"mesh":3,
			"name":"Cube.002",
			"scale":[
				1,
				1,
				0.17198386788368225
			],
			"translation":[
				-20.86091423034668,
				-0.8191354870796204,
				-7.057679176330566
			]
		},
		{
			"mesh":4,
			"name":"Key",
			"scale":[
				1,
				0.2645939290523529,
				0.19410084187984467
			],
			"translation":[
				-0.9661888480186462,
				0.881503164768219,
				-0.47527891397476196
			]
		},
		{
			"mesh":5,
			"name":"Key.001",
			"scale":[
				1,
				0.09349019825458527,
				0.11492962390184402
			],
			"translation":[
				-0.9661888480186462,
				1.0902460813522339,
				-0.6684682369232178
			]
		},
		{
			"mesh":6,
			"name":"Key.002",
			"scale":[
				1,
				0.2645939290523529,
				0.19410084187984467
			],
			"translation":[
				-0.9661888480186462,
				0.881503164768219,
				-0.863616943359375
			]
		},
		{
			"mesh":7,
			"name":"Key.003",
			"scale":[
				1,
				0.2645939290523529,
				0.19410084187984467
			],
			"translation":[
				-0.9661888480186462,
				0.881503164768219,
				-1.2516485452651978
			]
		},
		{
			"mesh":8,
			"name":"Key.004",
			"scale":[
				1,
				0.09349019825458527,
				0.11492962390184402
			],
			"translation":[
				-0.9661888480186462,
				1.0902460813522339,
				-1.0570251941680908
			]
		},
		{
			"mesh":9,
			"name":"Key.005",
			"scale":[
				1,
				0.2645939290523529,
				0.19410084187984467
			],
			"translation":[
				-0.9661888480186462,
				0.881503164768219,
				-1.6390695571899414
			]
		},
		{
			"mesh":10,
			"name":"Key.006",
			"scale":[
				1,
				0.2645939290523529,
				0.19410084187984467
			],
			"translation":[
				-0.9661888480186462,
				0.881503164768219,
				-2.0264503955841064
			]
		},
		{
			"mesh":11,
			"name":"Key.007",
			"scale":[
				1,
				0.2645939290523529,
				0.19410084187984467
			],
			"translation":[
				-0.9661888480186462,
				0.881503164768219,
				-2.414621114730835
			]
		},
		{
			"mesh":12,
			"name":"Key.008",
			"scale":[
				1,
				0.2645939290523529,
				0.19410084187984467
			],
			"translation":[
				-0.9661888480186462,
				0.881503164768219,
				-2.803178310394287
			]
		},
		{
			"mesh":13,
			"name":"Key.009",
			"scale":[
				1,
				0.09349019825458527,
				0.11492962390184402
			],
			"translation":[
				-0.9661888480186462,
				1.0902460813522339,
				-1.8323512077331543
			]
		},
		{
			"mesh":14,
			"name":"Key.010",
			"scale":[
				1,
				0.09349019825458527,
				0.11492962390184402
			],
			"translation":[
				-0.9661888480186462,
				1.0902460813522339,
				-2.2220444679260254
			]
		},
		{
			"mesh":15,
			"name":"Key.011",
			"scale":[
				1,
				0.09349019825458527,
				0.11492962390184402
			],
			"translation":[
				-0.9661888480186462,
				1.0902460813522339,
				-2.6094655990600586
			]
		},
		{
			"mesh":16,
			"name":"Key.012",
			"scale":[
				1,
				0.2645939290523529,
				0.19410084187984467
			],
			"translation":[
				-0.9661888480186462,
				0.881503164768219,
				-3.191450595855713
			]
		},
		{
			"mesh":17,
			"name":"Key.013",
			"scale":[
				1,
				0.09349019825458527,
				0.11492962390184402
			],
			"translation":[
				-0.9661888480186462,
				1.0902460813522339,
				-3.3846399784088135
			]
		},
		{
			"mesh":18,
			"name":"Key.014",
			"scale":[
				1,
				0.2645939290523529,
				0.19410084187984467
			],
			"translation":[
				-0.9661888480186462,
				0.881503164768219,
				-3.5797886848449707
			]
		},
		{
			"mesh":19,
			"name":"Key.015",
			"scale":[
				1,
				0.2645939290523529,
				0.19410084187984467
			],
			"translation":[
				-0.9661888480186462,
				0.881503164768219,
				-3.967820167541504
			]
		},
		{
			"mesh":20,
			"name":"Key.016",
			"scale":[
				1,
				0.09349019825458527,
				0.11492962390184402
			],
			"translation":[
				-0.9661888480186462,
				1.0902460813522339,
				-3.7731969356536865
			]
		},
		{
			"mesh":21,
			"name":"Key.017",
			"scale":[
				1,
				0.2645939290523529,
				0.19410084187984467
			],
			"translation":[
				-0.9661888480186462,
				0.881503164768219,
				-4.355241298675537
			]
		},
		{
			"mesh":22,
			"name":"Key.018",
			"scale":[
				1,
				0.2645939290523529,
				0.19410084187984467
			],
			"translation":[
				-0.9661888480186462,
				0.881503164768219,
				-4.742621898651123
			]
		},
		{
			"mesh":23,
			"name":"Key.019",
			"scale":[
				1,
				0.2645939290523529,
				0.19410084187984467
			],
			"translation":[
				-0.9661888480186462,
				0.881503164768219,
				-5.13079309463501
			]
		},
		{
			"mesh":24,
			"name":"Key.020",
			"scale":[
				1,
				0.2645939290523529,
				0.19410084187984467
			],
			"translation":[
				-0.9661888480186462,
				0.881503164768219,
				-5.519350051879883
			]
		},
		{
			"mesh":25,
			"name":"Key.021",
			"scale":[
				1,
				0.09349019825458527,
				0.11492962390184402
			],
			"translation":[
				-0.9661888480186462,
				1.0902460813522339,
				-4.54852294921875
			]
		},
		{
			"mesh":26,
			"name":"Key.022",
			"scale":[
				1,
				0.09349019825458527,
				0.11492962390184402
			],
			"translation":[
				-0.9661888480186462,
				1.0902460813522339,
				-4.938216209411621
			]
		},
		{
			"mesh":27,
			"name":"Key.023",
			"scale":[
				1,
				0.09349019825458527,
				0.11492962390184402
			],
			"translation":[
				-0.9661888480186462,
				1.0902460813522339,
				-5.325637340545654
			]
		},
		{
			"mesh":28,
			"name":"Key.024",
			"scale":[
				1,
				0.2645939290523529,
				0.19410084187984467
			],
			"translation":[
				-0.9661888480186462,
				0.881503164768219,
				-5.908563137054443
			]
		},
		{
			"mesh":29,
			"name":"Key.025",
			"scale":[
				1,
				0.09349019825458527,
				0.11492962390184402
			],
			"translation":[
				-0.9661888480186462,
				1.0902460813522339,
				-6.101752281188965
			]
		},
		{
			"mesh":30,
			"name":"Key.026",
			"scale":[
				1,
				0.2645939290523529,
				0.19410084187984467
			],
			"translation":[
				-0.9661888480186462,
				0.881503164768219,
				-6.296901226043701
			]
		},
		{
			"mesh":31,
			"name":"Key.027",
			"scale":[
				1,
				0.2645939290523529,
				0.19410084187984467
			],
			"translation":[
				-0.9661888480186462,
				0.881503164768219,
				-6.684932708740234
			]
		},
		{
			"mesh":32,
			"name":"Key.028",
			"scale":[
				1,
				0.09349019825458527,
				0.11492962390184402
			],
			"translation":[
				-0.9661888480186462,
				1.0902460813522339,
				-6.490309715270996
			]
		},
		{
			"mesh":33,
			"name":"Key.029",
			"scale":[
				1,
				0.2645939290523529,
				0.19410084187984467
			],
			"translation":[
				-0.9661888480186462,
				0.881503164768219,
				-7.072353839874268
			]
		},
		{
			"mesh":34,
			"name":"Key.030",
			"scale":[
				1,
				0.2645939290523529,
				0.19410084187984467
			],
			"translation":[
				-0.9661888480186462,
				0.881503164768219,
				-7.4597344398498535
			]
		},
		{
			"mesh":35,
			"name":"Key.031",
			"scale":[
				1,
				0.2645939290523529,
				0.19410084187984467
			],
			"translation":[
				-0.9661888480186462,
				0.881503164768219,
				-7.84790563583374
			]
		},
		{
			"mesh":36,
			"name":"Key.032",
			"scale":[
				1,
				0.2645939290523529,
				0.19410084187984467
			],
			"translation":[
				-0.9661888480186462,
				0.881503164768219,
				-8.23646354675293
			]
		},
		{
			"mesh":37,
			"name":"Key.033",
			"scale":[
				1,
				0.09349019825458527,
				0.11492962390184402
			],
			"translation":[
				-0.9661888480186462,
				1.0902460813522339,
				-7.2656354904174805
			]
		},
		{
			"mesh":38,
			"name":"Key.034",
			"scale":[
				1,
				0.09349019825458527,
				0.11492962390184402
			],
			"translation":[
				-0.9661888480186462,
				1.0902460813522339,
				-7.655328750610352
			]
		},
		{
			"mesh":39,
			"name":"Key.035",
			"scale":[
				1,
				0.09349019825458527,
				0.11492962390184402
			],
			"translation":[
				-0.9661888480186462,
				1.0902460813522339,
				-8.042749404907227
			]
		},
		{
			"mesh":40,
			"name":"Key.036",
			"scale":[
				1,
				0.2645939290523529,
				0.19410084187984467
			],
			"translation":[
				-0.9661888480186462,
				0.881503164768219,
				-8.62625503540039
			]
		},
		{
			"mesh":41,
			"name":"Key.037",
			"scale":[
				1,
				0.09349019825458527,
				0.11492962390184402
			],
			"translation":[
				-0.9661888480186462,
				1.0902460813522339,
				-8.81944465637207
			]
		},
		{
			"mesh":42,
			"name":"Key.038",
			"scale":[
				1,
				0.2645939290523529,
				0.19410084187984467
			],
			"translation":[
				-0.9661888480186462,
				0.881503164768219,
				-9.014593124389648
			]
		},
		{
			"mesh":43,
			"name":"Key.039",
			"scale":[
				1,
				0.2645939290523529,
				0.19410084187984467
			],
			"translation":[
				-0.9661888480186462,
				0.881503164768219,
				-9.402624130249023
			]
		},
		{
			"mesh":44,
			"name":"Key.040",
			"scale":[
				1,
				0.09349019825458527,
				0.11492962390184402
			],
			"translation":[
				-0.9661888480186462,
				1.0902460813522339,
				-9.208002090454102
			]
		},
		{
			"mesh":45,
			"name":"Key.041",
			"scale":[
				1,
				0.2645939290523529,
				0.19410084187984467
			],
			"translation":[
				-0.9661888480186462,
				0.881503164768219,
				-9.790046691894531
			]
		},
		{
			"mesh":46,
			"name":"Key.042",
			"scale":[
				1,
				0.2645939290523529,
				0.19410084187984467
			],
			"translation":[
				-0.9661888480186462,
				0.881503164768219,
				-10.177427291870117
			]
		},
		{
			"mesh":47,
			"name":"Key.043",
			"scale":[
				1,
				0.2645939290523529,
				0.19410084187984467
			],
			"translation":[
				-0.9661888480186462,
				0.881503164768219,
				-10.565597534179688
			]
		},
		{
			"mesh":48,
			"name":"Key.044",
			"scale":[
				1,
				0.2645939290523529,
				0.19410084187984467
			],
			"translation":[
				-0.9661888480186462,
				0.881503164768219,
				-10.954154968261719
			]
		},
		{
			"mesh":49,
			"name":"Key.045",
			"scale":[
				1,
				0.09349019825458527,
				0.11492962390184402
			],
			"translation":[
				-0.9661888480186462,
				1.0902460813522339,
				-9.983327865600586
			]
		},
		{
			"mesh":50,
			"name":"Key.046",
			"scale":[
				1,
				0.09349019825458527,
				0.11492962390184402
			],
			"translation":[
				-0.9661888480186462,
				1.0902460813522339,
				-10.37302017211914
			]
		},
		{
			"mesh":51,
			"name":"Key.047",
			"scale":[
				1,
				0.09349019825458527,
				0.11492962390184402
			],
			"translation":[
				-0.9661888480186462,
				1.0902460813522339,
				-10.760442733764648
			]
		},
		{
			"mesh":52,
			"name":"Key.048",
			"scale":[
				1,
				0.2645939290523529,
				0.19410084187984467
			],
			"translation":[
				-0.9661888480186462,
				0.881503164768219,
				-11.34837532043457
			]
		},
		{
			"mesh":53,
			"name":"Key.049",
			"scale":[
				1,
				0.09349019825458527,
				0.11492962390184402
			],
			"translation":[
				-0.9661888480186462,
				1.0902460813522339,
				-11.54156494140625
			]
		},
		{
			"mesh":54,
			"name":"Key.050",
			"scale":[
				1,
				0.2645939290523529,
				0.19410084187984467
			],
			"translation":[
				-0.9661888480186462,
				0.881503164768219,
				-11.736713409423828
			]
		},
		{
			"mesh":55,
			"name":"Key.051",
			"scale":[
				1,
				0.2645939290523529,
				0.19410084187984467
			],
			"translation":[
				-0.9661888480186462,
				0.881503164768219,
				-12.124744415283203
			]
		},
		{
			"mesh":56,
			"name":"Key.052",
			"scale":[
				1,
				0.09349019825458527,
				0.11492962390184402
			],
			"translation":[
				-0.9661888480186462,
				1.0902460813522339,
				-11.930122375488281
			]
		},
		{
			"mesh":57,
			"name":"Key.053",
			"scale":[
				1,
				0.2645939290523529,
				0.19410084187984467
			],
			"translation":[
				-0.9661888480186462,
				0.881503164768219,
				-12.512166976928711
			]
		},
		{
			"mesh":58,
			"name":"Key.054",
			"scale":[
				1,
				0.2645939290523529,
				0.19410084187984467
			],
			"translation":[
				-0.9661888480186462,
				0.881503164768219,
				-12.899547576904297
			]
		},
		{
			"mesh":59,
			"name":"Key.055",
			"scale":[
				1,
				0.2645939290523529,
				0.19410084187984467
			],
			"translation":[
				-0.9661888480186462,
				0.881503164768219,
				-13.287717819213867
			]
		},
		{
			"mesh":60,
			"name":"Key.056",
			"scale":[
				1,
				0.2645939290523529,
				0.19410084187984467
			],
			"translation":[
				-0.9661888480186462,
				0.881503164768219,
				-13.676275253295898
			]
		},
		{
			"mesh":61,
			"name":"Key.057",
			"scale":[
				1,
				0.09349019825458527,
				0.11492962390184402
			],
			"translation":[
				-0.9661888480186462,
				1.0902460813522339,
				-12.705448150634766
			]
		},
		{
			"mesh":62,
			"name":"Key.058",
			"scale":[
				1,
				0.09349019825458527,
				0.11492962390184402
			],
			"translation":[
				-0.9661888480186462,
				1.0902460813522339,
				-13.09514045715332
			]
		},
		{
			"mesh":63,
			"name":"Key.059",
			"scale":[
				1,
				0.09349019825458527,
				0.11492962390184402
			],
			"translation":[
				-0.9661888480186462,
				1.0902460813522339,
				-13.482563018798828
			]
		},
		{
			"mesh":64,
			"name":"Cube.003",
			"scale":[
				0.39885953068733215,
				0.7283050417900085,
				0.39885953068733215
			],
			"translation":[
				-0.6065711975097656,
				-0.2775399088859558,
				-0.7749388813972473
			]
		},
		{
			"mesh":65,
			"name":"Cube.004",
			"scale":[
				0.39885953068733215,
				0.7283050417900085,
				0.39885953068733215
			],
			"translation":[
				-17.09699058532715,
				-0.2775399088859558,
				-4.397138595581055
			]
		}
	],
	"animations":[
		{
			"channels":[
				{
					"sampler":0,
					"target":{
						"node":0,
						"path":"translation"
					}
				},
				{
					"sampler":1,
					"target":{
						"node":0,
						"path":"rotation"
					}
				},
				{
					"sampler":2,
					"target":{
						"node":0,
						"path":"scale"
					}
				}
			],
			"name":"Activate",
			"samplers":[
				{
					"input":272,
					"interpolation":"LINEAR",
					"output":273
				},
				{
					"input":274,
					"interpolation":"STEP",
					"output":275
				},
				{
					"input":274,
					"interpolation":"STEP",
					"output":276
				}
			]
		},
		{
			"channels":[
				{
					"sampler":0,
					"target":{
						"node":0,
						"path":"translation"
					}
				},
				{
					"sampler":1,
					"target":{
						"node":0,
						"path":"rotation"
					}
				},
				{
					"sampler":2,
					"target":{
						"node":0,
						"path":"scale"
					}
				}
			],
			"name":"Crank Dat",
			"samplers":[
				{
					"input":274,
					"interpolation":"STEP",
					"output":277
				},
				{
					"input":272,
					"interpolation":"LINEAR",
					"output":278
				},
				{
					"input":274,
					"interpolation":"STEP",
					"output":276
				}
			]
		},
		{
			"channels":[
				{
					"sampler":0,
					"target":{
						"node":0,
						"path":"translation"
					}
				},
				{
					"sampler":1,
					"target":{
						"node":0,
						"path":"rotation"
					}
				},
				{
					"sampler":2,
					"target":{
						"node":0,
						"path":"scale"
					}
				}
			],
			"name":"Hidden",
			"samplers":[
				{
					"input":279,
					"interpolation":"LINEAR",
					"output":280
				},
				{
					"input":279,
					"interpolation":"LINEAR",
					"output":281
				},
				{
					"input":279,
					"interpolation":"LINEAR",
					"output":282
				}
			]
		}
	],
	"materials":[
		{
			"doubleSided":true,
			"name":"Material",
			"pbrMetallicRoughness":{
				"baseColorFactor":[
					0.8000074625015259,
					0.47594982385635376,
					0.1612320840358734,
					1
				],
				"roughnessFactor":0.5
			}
		},
		{
			"doubleSided":true,
			"name":"Material.002",
			"pbrMetallicRoughness":{
				"baseColorFactor":[
					0.800000011920929,
					0.800000011920929,
					0.800000011920929,
					1
				],
				"metallicFactor":0,
				"roughnessFactor":0.5
			}
		},
		{
			"doubleSided":true,
			"name":"Material.001",
			"pbrMetallicRoughness":{
				"baseColorFactor":[
					0,
					0,
					0,
					1
				],
				"metallicFactor":0,
				"roughnessFactor":0.5
			}
		}
	],
	"meshes":[
		{
			"name":"Cylinder.001",
			"primitives":[
				{
					"attributes":{
						"POSITION":0,
						"NORMAL":1,
						"TEXCOORD_0":2
					},
					"indices":3,
					"material":0
				}
			]
		},
		{
			"name":"Cube.001",
			"primitives":[
				{
					"attributes":{
						"POSITION":4,
						"NORMAL":5,
						"TEXCOORD_0":6
					},
					"indices":7,
					"material":1
				},
				{
					"attributes":{
						"POSITION":8,
						"NORMAL":9,
						"TEXCOORD_0":10
					},
					"indices":11,
					"material":0
				}
			]
		},
		{
			"name":"Cube.005",
			"primitives":[
				{
					"attributes":{
						"POSITION":12,
						"NORMAL":13,
						"TEXCOORD_0":14,
						"TANGENT":15
					},
					"indices":16
				}
			]
		},
		{
			"name":"Cube.010",
			"primitives":[
				{
					"attributes":{
						"POSITION":17,
						"NORMAL":18,
						"TEXCOORD_0":19,
						"TANGENT":20
					},
					"indices":21
				}
			]
		},
		{
			"name":"Cube.011",
			"primitives":[
				{
					"attributes":{
						"POSITION":22,
						"NORMAL":23,
						"TEXCOORD_0":24,
						"TANGENT":25
					},
					"indices":26
				}
			]
		},
		{
			"name":"Cube.012",
			"primitives":[
				{
					"attributes":{
						"POSITION":27,
						"NORMAL":28,
						"TEXCOORD_0":29,
						"TANGENT":30
					},
					"indices":26,
					"material":2
				}
			]
		},
		{
			"name":"Cube.013",
			"primitives":[
				{
					"attributes":{
						"POSITION":31,
						"NORMAL":32,
						"TEXCOORD_0":33,
						"TANGENT":34
					},
					"indices":26
				}
			]
		},
		{
			"name":"Cube.014",
			"primitives":[
				{
					"attributes":{
						"POSITION":35,
						"NORMAL":36,
						"TEXCOORD_0":37,
						"TANGENT":38
					},
					"indices":26
				}
			]
		},
		{
			"name":"Cube.015",
			"primitives":[
				{
					"attributes":{
						"POSITION":39,
						"NORMAL":40,
						"TEXCOORD_0":41,
						"TANGENT":42
					},
					"indices":26,
					"material":2
				}
			]
		},
		{
			"name":"Cube.016",
			"primitives":[
				{
					"attributes":{
						"POSITION":43,
						"NORMAL":44,
						"TEXCOORD_0":45,
						"TANGENT":46
					},
					"indices":26
				}
			]
		},
		{
			"name":"Cube.017",
			"primitives":[
				{
					"attributes":{
						"POSITION":47,
						"NORMAL":48,
						"TEXCOORD_0":49,
						"TANGENT":50
					},
					"indices":26
				}
			]
		},
		{
			"name":"Cube.018",
			"primitives":[
				{
					"attributes":{
						"POSITION":51,
						"NORMAL":52,
						"TEXCOORD_0":53,
						"TANGENT":54
					},
					"indices":26
				}
			]
		},
		{
			"name":"Cube.019",
			"primitives":[
				{
					"attributes":{
						"POSITION":55,
						"NORMAL":56,
						"TEXCOORD_0":57,
						"TANGENT":58
					},
					"indices":26
				}
			]
		},
		{
			"name":"Cube.020",
			"primitives":[
				{
					"attributes":{
						"POSITION":59,
						"NORMAL":60,
						"TEXCOORD_0":61,
						"TANGENT":62
					},
					"indices":26,
					"material":2
				}
			]
		},
		{
			"name":"Cube.021",
			"primitives":[
				{
					"attributes":{
						"POSITION":63,
						"NORMAL":64,
						"TEXCOORD_0":65,
						"TANGENT":66
					},
					"indices":26,
					"material":2
				}
			]
		},
		{
			"name":"Cube.022",
			"primitives":[
				{
					"attributes":{
						"POSITION":67,
						"NORMAL":68,
						"TEXCOORD_0":69,
						"TANGENT":70
					},
					"indices":26,
					"material":2
				}
			]
		},
		{
			"name":"Cube.023",
			"primitives":[
				{
					"attributes":{
						"POSITION":71,
						"NORMAL":72,
						"TEXCOORD_0":73,
						"TANGENT":74
					},
					"indices":26
				}
			]
		},
		{
			"name":"Cube.024",
			"primitives":[
				{
					"attributes":{
						"POSITION":75,
						"NORMAL":76,
						"TEXCOORD_0":77,
						"TANGENT":78
					},
					"indices":26,
					"material":2
				}
			]
		},
		{
			"name":"Cube.025",
			"primitives":[
				{
					"attributes":{
						"POSITION":79,
						"NORMAL":80,
						"TEXCOORD_0":81,
						"TANGENT":82
					},
					"indices":26
				}
			]
		},
		{
			"name":"Cube.026",
			"primitives":[
				{
					"attributes":{
						"POSITION":83,
						"NORMAL":84,
						"TEXCOORD_0":85,
						"TANGENT":86
					},
					"indices":26
				}
			]
		},
		{
			"name":"Cube.027",
			"primitives":[
				{
					"attributes":{
						"POSITION":87,
						"NORMAL":88,
						"TEXCOORD_0":89,
						"TANGENT":90
					},
					"indices":26,
					"material":2
				}
			]
		},
		{
			"name":"Cube.028",
			"primitives":[
				{
					"attributes":{
						"POSITION":91,
						"NORMAL":92,
						"TEXCOORD_0":93,
						"TANGENT":94
					},
					"indices":26
				}
			]
		},
		{
			"name":"Cube.029",
			"primitives":[
				{
					"attributes":{
						"POSITION":95,
						"NORMAL":96,
						"TEXCOORD_0":97,
						"TANGENT":98
					},
					"indices":26
				}
			]
		},
		{
			"name":"Cube.030",
			"primitives":[
				{
					"attributes":{
						"POSITION":99,
						"NORMAL":100,
						"TEXCOORD_0":101,
						"TANGENT":102
					},
					"indices":26
				}
			]
		},
		{
			"name":"Cube.031",
			"primitives":[
				{
					"attributes":{
						"POSITION":103,
						"NORMAL":104,
						"TEXCOORD_0":105,
						"TANGENT":106
					},
					"indices":26
				}
			]
		},
		{
			"name":"Cube.032",
			"primitives":[
				{
					"attributes":{
						"POSITION":107,
						"NORMAL":108,
						"TEXCOORD_0":109,
						"TANGENT":110
					},
					"indices":26,
					"material":2
				}
			]
		},
		{
			"name":"Cube.033",
			"primitives":[
				{
					"attributes":{
						"POSITION":111,
						"NORMAL":112,
						"TEXCOORD_0":113,
						"TANGENT":114
					},
					"indices":26,
					"material":2
				}
			]
		},
		{
			"name":"Cube.034",
			"primitives":[
				{
					"attributes":{
						"POSITION":115,
						"NORMAL":116,
						"TEXCOORD_0":117,
						"TANGENT":118
					},
					"indices":26,
					"material":2
				}
			]
		},
		{
			"name":"Cube.035",
			"primitives":[
				{
					"attributes":{
						"POSITION":119,
						"NORMAL":120,
						"TEXCOORD_0":121,
						"TANGENT":122
					},
					"indices":26
				}
			]
		},
		{
			"name":"Cube.036",
			"primitives":[
				{
					"attributes":{
						"POSITION":123,
						"NORMAL":124,
						"TEXCOORD_0":125,
						"TANGENT":126
					},
					"indices":26,
					"material":2
				}
			]
		},
		{
			"name":"Cube.037",
			"primitives":[
				{
					"attributes":{
						"POSITION":127,
						"NORMAL":128,
						"TEXCOORD_0":129,
						"TANGENT":130
					},
					"indices":26
				}
			]
		},
		{
			"name":"Cube.038",
			"primitives":[
				{
					"attributes":{
						"POSITION":131,
						"NORMAL":132,
						"TEXCOORD_0":133,
						"TANGENT":134
					},
					"indices":26
				}
			]
		},
		{
			"name":"Cube.039",
			"primitives":[
				{
					"attributes":{
						"POSITION":135,
						"NORMAL":136,
						"TEXCOORD_0":137,
						"TANGENT":138
					},
					"indices":26,
					"material":2
				}
			]
		},
		{
			"name":"Cube.040",
			"primitives":[
				{
					"attributes":{
						"POSITION":139,
						"NORMAL":140,
						"TEXCOORD_0":141,
						"TANGENT":142
					},
					"indices":26
				}
			]
		},
		{
			"name":"Cube.041",
			"primitives":[
				{
					"attributes":{
						"POSITION":143,
						"NORMAL":144,
						"TEXCOORD_0":145,
						"TANGENT":146
					},
					"indices":26
				}
			]
		},
		{
			"name":"Cube.042",
			"primitives":[
				{
					"attributes":{
						"POSITION":147,
						"NORMAL":148,
						"TEXCOORD_0":149,
						"TANGENT":150
					},
					"indices":26
				}
			]
		},
		{
			"name":"Cube.043",
			"primitives":[
				{
					"attributes":{
						"POSITION":151,
						"NORMAL":152,
						"TEXCOORD_0":153,
						"TANGENT":154
					},
					"indices":26
				}
			]
		},
		{
			"name":"Cube.044",
			"primitives":[
				{
					"attributes":{
						"POSITION":155,
						"NORMAL":156,
						"TEXCOORD_0":157,
						"TANGENT":158
					},
					"indices":26,
					"material":2
				}
			]
		},
		{
			"name":"Cube.045",
			"primitives":[
				{
					"attributes":{
						"POSITION":159,
						"NORMAL":160,
						"TEXCOORD_0":161,
						"TANGENT":162
					},
					"indices":26,
					"material":2
				}
			]
		},
		{
			"name":"Cube.046",
			"primitives":[
				{
					"attributes":{
						"POSITION":163,
						"NORMAL":164,
						"TEXCOORD_0":165,
						"TANGENT":166
					},
					"indices":26,
					"material":2
				}
			]
		},
		{
			"name":"Cube.047",
			"primitives":[
				{
					"attributes":{
						"POSITION":167,
						"NORMAL":168,
						"TEXCOORD_0":169,
						"TANGENT":170
					},
					"indices":26
				}
			]
		},
		{
			"name":"Cube.048",
			"primitives":[
				{
					"attributes":{
						"POSITION":171,
						"NORMAL":172,
						"TEXCOORD_0":173,
						"TANGENT":174
					},
					"indices":26,
					"material":2
				}
			]
		},
		{
			"name":"Cube.049",
			"primitives":[
				{
					"attributes":{
						"POSITION":175,
						"NORMAL":176,
						"TEXCOORD_0":177,
						"TANGENT":178
					},
					"indices":26
				}
			]
		},
		{
			"name":"Cube.050",
			"primitives":[
				{
					"attributes":{
						"POSITION":179,
						"NORMAL":180,
						"TEXCOORD_0":181,
						"TANGENT":182
					},
					"indices":26
				}
			]
		},
		{
			"name":"Cube.051",
			"primitives":[
				{
					"attributes":{
						"POSITION":183,
						"NORMAL":184,
						"TEXCOORD_0":185,
						"TANGENT":186
					},
					"indices":26,
					"material":2
				}
			]
		},
		{
			"name":"Cube.052",
			"primitives":[
				{
					"attributes":{
						"POSITION":187,
						"NORMAL":188,
						"TEXCOORD_0":189,
						"TANGENT":190
					},
					"indices":26
				}
			]
		},
		{
			"name":"Cube.053",
			"primitives":[
				{
					"attributes":{
						"POSITION":191,
						"NORMAL":192,
						"TEXCOORD_0":193,
						"TANGENT":194
					},
					"indices":26
				}
			]
		},
		{
			"name":"Cube.054",
			"primitives":[
				{
					"attributes":{
						"POSITION":195,
						"NORMAL":196,
						"TEXCOORD_0":197,
						"TANGENT":198
					},
					"indices":26
				}
			]
		},
		{
			"name":"Cube.055",
			"primitives":[
				{
					"attributes":{
						"POSITION":199,
						"NORMAL":200,
						"TEXCOORD_0":201,
						"TANGENT":202
					},
					"indices":26
				}
			]
		},
		{
			"name":"Cube.056",
			"primitives":[
				{
					"attributes":{
						"POSITION":203,
						"NORMAL":204,
						"TEXCOORD_0":205,
						"TANGENT":206
					},
					"indices":26,
					"material":2
				}
			]
		},
		{
			"name":"Cube.057",
			"primitives":[
				{
					"attributes":{
						"POSITION":207,
						"NORMAL":208,
						"TEXCOORD_0":209,
						"TANGENT":210
					},
					"indices":26,
					"material":2
				}
			]
		},
		{
			"name":"Cube.058",
			"primitives":[
				{
					"attributes":{
						"POSITION":211,
						"NORMAL":212,
						"TEXCOORD_0":213,
						"TANGENT":214
					},
					"indices":26,
					"material":2
				}
			]
		},
		{
			"name":"Cube.059",
			"primitives":[
				{
					"attributes":{
						"POSITION":215,
						"NORMAL":216,
						"TEXCOORD_0":217,
						"TANGENT":218
					},
					"indices":26
				}
			]
		},
		{
			"name":"Cube.060",
			"primitives":[
				{
					"attributes":{
						"POSITION":219,
						"NORMAL":220,
						"TEXCOORD_0":221,
						"TANGENT":222
					},
					"indices":26,
					"material":2
				}
			]
		},
		{
			"name":"Cube.061",
			"primitives":[
				{
					"attributes":{
						"POSITION":223,
						"NORMAL":224,
						"TEXCOORD_0":225,
						"TANGENT":226
					},
					"indices":26
				}
			]
		},
		{
			"name":"Cube.062",
			"primitives":[
				{
					"attributes":{
						"POSITION":227,
						"NORMAL":228,
						"TEXCOORD_0":229,
						"TANGENT":230
					},
					"indices":26
				}
			]
		},
		{
			"name":"Cube.063",
			"primitives":[
				{
					"attributes":{
						"POSITION":231,
						"NORMAL":232,
						"TEXCOORD_0":233,
						"TANGENT":234
					},
					"indices":26,
					"material":2
				}
			]
		},
		{
			"name":"Cube.064",
			"primitives":[
				{
					"attributes":{
						"POSITION":235,
						"NORMAL":236,
						"TEXCOORD_0":237,
						"TANGENT":238
					},
					"indices":26
				}
			]
		},
		{
			"name":"Cube.065",
			"primitives":[
				{
					"attributes":{
						"POSITION":239,
						"NORMAL":240,
						"TEXCOORD_0":241,
						"TANGENT":242
					},
					"indices":26
				}
			]
		},
		{
			"name":"Cube.066",
			"primitives":[
				{
					"attributes":{
						"POSITION":243,
						"NORMAL":244,
						"TEXCOORD_0":245,
						"TANGENT":246
					},
					"indices":26
				}
			]
		},
		{
			"name":"Cube.067",
			"primitives":[
				{
					"attributes":{
						"POSITION":247,
						"NORMAL":248,
						"TEXCOORD_0":249,
						"TANGENT":250
					},
					"indices":26
				}
			]
		},
		{
			"name":"Cube.068",
			"primitives":[
				{
					"attributes":{
						"POSITION":251,
						"NORMAL":252,
						"TEXCOORD_0":253,
						"TANGENT":254
					},
					"indices":26,
					"material":2
				}
			]
		},
		{
			"name":"Cube.069",
			"primitives":[
				{
					"attributes":{
						"POSITION":255,
						"NORMAL":256,
						"TEXCOORD_0":257,
						"TANGENT":258
					},
					"indices":26,
					"material":2
				}
			]
		},
		{
			"name":"Cube.070",
			"primitives":[
				{
					"attributes":{
						"POSITION":259,
						"NORMAL":260,
						"TEXCOORD_0":261,
						"TANGENT":262
					},
					"indices":26,
					"material":2
				}
			]
		},
		{
			"name":"Cube.071",
			"primitives":[
				{
					"attributes":{
						"POSITION":263,
						"NORMAL":264,
						"TEXCOORD_0":265,
						"TANGENT":266
					},
					"indices":267
				}
			]
		},
		{
			"name":"Cube.073",
			"primitives":[
				{
					"attributes":{
						"POSITION":268,
						"NORMAL":269,
						"TEXCOORD_0":270,
						"TANGENT":271
					},
					"indices":267
				}
			]
		}
	],
	"accessors":[
		{
			"bufferView":0,
			"componentType":5126,
			"count":1238,
			"max":[
				0.2788277864456177,
				0.15479207038879395,
				3.1020312309265137
			],
			"min":[
				-0.2788277864456177,
				-1.7788280248641968,
				-0.48720940947532654
			],
			"type":"VEC3"
		},
		{
			"bufferView":1,
			"componentType":5126,
			"count":1238,
			"type":"VEC3"
		},
		{
			"bufferView":2,
			"componentType":5126,
			"count":1238,
			"type":"VEC2"
		},
		{
			"bufferView":3,
			"componentType":5123,
			"count":5364,
			"type":"SCALAR"
		},
		{
			"bufferView":4,
			"componentType":5126,
			"count":474,
			"max":[
				21.86091423034668,
				1.937588095664978,
				42.01919937133789
			],
			"min":[
				0.17490577697753906,
				-0.4063809812068939,
				-42.01919937133789
			],
			"type":"VEC3"
		},
		{
			"bufferView":5,
			"componentType":5126,
			"count":474,
			"type":"VEC3"
		},
		{
			"bufferView":6,
			"componentType":5126,
			"count":474,
			"type":"VEC2"
		},
		{
			"bufferView":7,
			"componentType":5123,
			"count":1386,
			"type":"SCALAR"
		},
		{
			"bufferView":8,
			"componentType":5126,
			"count":98,
			"max":[
				18.098812103271484,
				1.4036678075790405,
				-42.019195556640625
			],
			"min":[
				17.275283813476562,
				0.5801405906677246,
				-44.99785232543945
			],
			"type":"VEC3"
		},
		{
			"bufferView":9,
			"componentType":5126,
			"count":98,
			"type":"VEC3"
		},
		{
			"bufferView":10,
			"componentType":5126,
			"count":98,
			"type":"VEC2"
		},
		{
			"bufferView":11,
			"componentType":5123,
			"count":282,
			"type":"SCALAR"
		},
		{
			"bufferView":12,
			"componentType":5126,
			"count":44,
			"max":[
				6.882176399230957,
				1.9375946521759033,
				111.03042602539062
			],
			"min":[
				-6.882176399230957,
				-0.06241798400878906,
				109.03042602539062
			],
			"type":"VEC3"
		},
		{
			"bufferView":13,
			"componentType":5126,
			"count":44,
			"type":"VEC3"
		},
		{
			"bufferView":14,
			"componentType":5126,
			"count":44,
			"type":"VEC2"
		},
		{
			"bufferView":15,
			"componentType":5126,
			"count":44,
			"type":"VEC4"
		},
		{
			"bufferView":16,
			"componentType":5123,
			"count":66,
			"type":"SCALAR"
		},
		{
			"bufferView":17,
			"componentType":5126,
			"count":72,
			"max":[
				18.558910369873047,
				3.485011577606201,
				40.007198333740234
			],
			"min":[
				0.520937442779541,
				3.141043186187744,
				-40.007198333740234
			],
			"type":"VEC3"
		},
		{
			"bufferView":18,
			"componentType":5126,
			"count":72,
			"type":"VEC3"
		},
		{
			"bufferView":19,
			"componentType":5126,
			"count":72,
			"type":"VEC2"
		},
		{
			"bufferView":20,
			"componentType":5126,
			"count":72,
			"type":"VEC4"
		},
		{
			"bufferView":21,
			"componentType":5123,
			"count":168,
			"type":"SCALAR"
		},
		{
			"bufferView":22,
			"componentType":5126,
			"count":24,
			"max":[
				1,
				1,
				1
			],
			"min":[
				-1,
				-1,
				-1
			],
			"type":"VEC3"
		},
		{
			"bufferView":23,
			"componentType":5126,
			"count":24,
			"type":"VEC3"
		},
		{
			"bufferView":24,
			"componentType":5126,
			"count":24,
			"type":"VEC2"
		},
		{
			"bufferView":25,
			"componentType":5126,
			"count":24,
			"type":"VEC4"
		},
		{
			"bufferView":26,
			"componentType":5123,
			"count":36,
			"type":"SCALAR"
		},
		{
			"bufferView":27,
			"componentType":5126,
			"count":24,
			"max":[
				0.3842134475708008,
				1.791433334350586,
				1
			],
			"min":[
				-1,
				-1,
				-1
			],
			"type":"VEC3"
		},
		{
			"bufferView":28,
			"componentType":5126,
			"count":24,
			"type":"VEC3"
		},
		{
			"bufferView":29,
			"componentType":5126,
			"count":24,
			"type":"VEC2"
		},
		{
			"bufferView":30,
			"componentType":5126,
			"count":24,
			"type":"VEC4"
		},
		{
			"bufferView":31,
			"componentType":5126,
			"count":24,
			"max":[
				1,
				1,
				1
			],
			"min":[
				-1,
				-1,
				-1
			],
			"type":"VEC3"
		},
		{
			"bufferView":32,
			"componentType":5126,
			"count":24,
			"type":"VEC3"
		},
		{
			"bufferView":33,
			"componentType":5126,
			"count":24,
			"type":"VEC2"
		},
		{
			"bufferView":34,
			"componentType":5126,
			"count":24,
			"type":"VEC4"
		},
		{
			"bufferView":35,
			"componentType":5126,
			"count":24,
			"max":[
				1,
				1,
				1
			],
			"min":[
				-1,
				-1,
				-1
			],
			"type":"VEC3"
		},
		{
			"bufferView":36,
			"componentType":5126,
			"count":24,
			"type":"VEC3"
		},
		{
			"bufferView":37,
			"componentType":5126,
			"count":24,
			"type":"VEC2"
		},
		{
			"bufferView":38,
			"componentType":5126,
			"count":24,
			"type":"VEC4"
		},
		{
			"bufferView":39,
			"componentType":5126,
			"count":24,
			"max":[
				0.3842134475708008,
				1.791433334350586,
				1
			],
			"min":[
				-1,
				-1,
				-1
			],
			"type":"VEC3"
		},
		{
			"bufferView":40,
			"componentType":5126,
			"count":24,
			"type":"VEC3"
		},
		{
			"bufferView":41,
			"componentType":5126,
			"count":24,
			"type":"VEC2"
		},
		{
			"bufferView":42,
			"componentType":5126,
			"count":24,
			"type":"VEC4"
		},
		{
			"bufferView":43,
			"componentType":5126,
			"count":24,
			"max":[
				1,
				1,
				1
			],
			"min":[
				-1,
				-1,
				-1
			],
			"type":"VEC3"
		},
		{
			"bufferView":44,
			"componentType":5126,
			"count":24,
			"type":"VEC3"
		},
		{
			"bufferView":45,
			"componentType":5126,
			"count":24,
			"type":"VEC2"
		},
		{
			"bufferView":46,
			"componentType":5126,
			"count":24,
			"type":"VEC4"
		},
		{
			"bufferView":47,
			"componentType":5126,
			"count":24,
			"max":[
				1,
				1,
				1
			],
			"min":[
				-1,
				-1,
				-1
			],
			"type":"VEC3"
		},
		{
			"bufferView":48,
			"componentType":5126,
			"count":24,
			"type":"VEC3"
		},
		{
			"bufferView":49,
			"componentType":5126,
			"count":24,
			"type":"VEC2"
		},
		{
			"bufferView":50,
			"componentType":5126,
			"count":24,
			"type":"VEC4"
		},
		{
			"bufferView":51,
			"componentType":5126,
			"count":24,
			"max":[
				1,
				1,
				1
			],
			"min":[
				-1,
				-1,
				-1
			],
			"type":"VEC3"
		},
		{
			"bufferView":52,
			"componentType":5126,
			"count":24,
			"type":"VEC3"
		},
		{
			"bufferView":53,
			"componentType":5126,
			"count":24,
			"type":"VEC2"
		},
		{
			"bufferView":54,
			"componentType":5126,
			"count":24,
			"type":"VEC4"
		},
		{
			"bufferView":55,
			"componentType":5126,
			"count":24,
			"max":[
				1,
				1,
				1
			],
			"min":[
				-1,
				-1,
				-1
			],
			"type":"VEC3"
		},
		{
			"bufferView":56,
			"componentType":5126,
			"count":24,
			"type":"VEC3"
		},
		{
			"bufferView":57,
			"componentType":5126,
			"count":24,
			"type":"VEC2"
		},
		{
			"bufferView":58,
			"componentType":5126,
			"count":24,
			"type":"VEC4"
		},
		{
			"bufferView":59,
			"componentType":5126,
			"count":24,
			"max":[
				0.3842134475708008,
				1.791433334350586,
				1
			],
			"min":[
				-1,
				-1,
				-1
			],
			"type":"VEC3"
		},
		{
			"bufferView":60,
			"componentType":5126,
			"count":24,
			"type":"VEC3"
		},
		{
			"bufferView":61,
			"componentType":5126,
			"count":24,
			"type":"VEC2"
		},
		{
			"bufferView":62,
			"componentType":5126,
			"count":24,
			"type":"VEC4"
		},
		{
			"bufferView":63,
			"componentType":5126,
			"count":24,
			"max":[
				0.3842134475708008,
				1.791433334350586,
				1
			],
			"min":[
				-1,
				-1,
				-1
			],
			"type":"VEC3"
		},
		{
			"bufferView":64,
			"componentType":5126,
			"count":24,
			"type":"VEC3"
		},
		{
			"bufferView":65,
			"componentType":5126,
			"count":24,
			"type":"VEC2"
		},
		{
			"bufferView":66,
			"componentType":5126,
			"count":24,
			"type":"VEC4"
		},
		{
			"bufferView":67,
			"componentType":5126,
			"count":24,
			"max":[
				0.3842134475708008,
				1.791433334350586,
				1
			],
			"min":[
				-1,
				-1,
				-1
			],
			"type":"VEC3"
		},
		{
			"bufferView":68,
			"componentType":5126,
			"count":24,
			"type":"VEC3"
		},
		{
			"bufferView":69,
			"componentType":5126,
			"count":24,
			"type":"VEC2"
		},
		{
			"bufferView":70,
			"componentType":5126,
			"count":24,
			"type":"VEC4"
		},
		{
			"bufferView":71,
			"componentType":5126,
			"count":24,
			"max":[
				1,
				1,
				1
			],
			"min":[
				-1,
				-1,
				-1
			],
			"type":"VEC3"
		},
		{
			"bufferView":72,
			"componentType":5126,
			"count":24,
			"type":"VEC3"
		},
		{
			"bufferView":73,
			"componentType":5126,
			"count":24,
			"type":"VEC2"
		},
		{
			"bufferView":74,
			"componentType":5126,
			"count":24,
			"type":"VEC4"
		},
		{
			"bufferView":75,
			"componentType":5126,
			"count":24,
			"max":[
				0.3842134475708008,
				1.791433334350586,
				1
			],
			"min":[
				-1,
				-1,
				-1
			],
			"type":"VEC3"
		},
		{
			"bufferView":76,
			"componentType":5126,
			"count":24,
			"type":"VEC3"
		},
		{
			"bufferView":77,
			"componentType":5126,
			"count":24,
			"type":"VEC2"
		},
		{
			"bufferView":78,
			"componentType":5126,
			"count":24,
			"type":"VEC4"
		},
		{
			"bufferView":79,
			"componentType":5126,
			"count":24,
			"max":[
				1,
				1,
				1
			],
			"min":[
				-1,
				-1,
				-1
			],
			"type":"VEC3"
		},
		{
			"bufferView":80,
			"componentType":5126,
			"count":24,
			"type":"VEC3"
		},
		{
			"bufferView":81,
			"componentType":5126,
			"count":24,
			"type":"VEC2"
		},
		{
			"bufferView":82,
			"componentType":5126,
			"count":24,
			"type":"VEC4"
		},
		{
			"bufferView":83,
			"componentType":5126,
			"count":24,
			"max":[
				1,
				1,
				1
			],
			"min":[
				-1,
				-1,
				-1
			],
			"type":"VEC3"
		},
		{
			"bufferView":84,
			"componentType":5126,
			"count":24,
			"type":"VEC3"
		},
		{
			"bufferView":85,
			"componentType":5126,
			"count":24,
			"type":"VEC2"
		},
		{
			"bufferView":86,
			"componentType":5126,
			"count":24,
			"type":"VEC4"
		},
		{
			"bufferView":87,
			"componentType":5126,
			"count":24,
			"max":[
				0.3842134475708008,
				1.791433334350586,
				1
			],
			"min":[
				-1,
				-1,
				-1
			],
			"type":"VEC3"
		},
		{
			"bufferView":88,
			"componentType":5126,
			"count":24,
			"type":"VEC3"
		},
		{
			"bufferView":89,
			"componentType":5126,
			"count":24,
			"type":"VEC2"
		},
		{
			"bufferView":90,
			"componentType":5126,
			"count":24,
			"type":"VEC4"
		},
		{
			"bufferView":91,
			"componentType":5126,
			"count":24,
			"max":[
				1,
				1,
				1
			],
			"min":[
				-1,
				-1,
				-1
			],
			"type":"VEC3"
		},
		{
			"bufferView":92,
			"componentType":5126,
			"count":24,
			"type":"VEC3"
		},
		{
			"bufferView":93,
			"componentType":5126,
			"count":24,
			"type":"VEC2"
		},
		{
			"bufferView":94,
			"componentType":5126,
			"count":24,
			"type":"VEC4"
		},
		{
			"bufferView":95,
			"componentType":5126,
			"count":24,
			"max":[
				1,
				1,
				1
			],
			"min":[
				-1,
				-1,
				-1
			],
			"type":"VEC3"
		},
		{
			"bufferView":96,
			"componentType":5126,
			"count":24,
			"type":"VEC3"
		},
		{
			"bufferView":97,
			"componentType":5126,
			"count":24,
			"type":"VEC2"
		},
		{
			"bufferView":98,
			"componentType":5126,
			"count":24,
			"type":"VEC4"
		},
		{
			"bufferView":99,
			"componentType":5126,
			"count":24,
			"max":[
				1,
				1,
				1
			],
			"min":[
				-1,
				-1,
				-1
			],
			"type":"VEC3"
		},
		{
			"bufferView":100,
			"componentType":5126,
			"count":24,
			"type":"VEC3"
		},
		{
			"bufferView":101,
			"componentType":5126,
			"count":24,
			"type":"VEC2"
		},
		{
			"bufferView":102,
			"componentType":5126,
			"count":24,
			"type":"VEC4"
		},
		{
			"bufferView":103,
			"componentType":5126,
			"count":24,
			"max":[
				1,
				1,
				1
			],
			"min":[
				-1,
				-1,
				-1
			],
			"type":"VEC3"
		},
		{
			"bufferView":104,
			"componentType":5126,
			"count":24,
			"type":"VEC3"
		},
		{
			"bufferView":105,
			"componentType":5126,
			"count":24,
			"type":"VEC2"
		},
		{
			"bufferView":106,
			"componentType":5126,
			"count":24,
			"type":"VEC4"
		},
		{
			"bufferView":107,
			"componentType":5126,
			"count":24,
			"max":[
				0.3842134475708008,
				1.791433334350586,
				1
			],
			"min":[
				-1,
				-1,
				-1
			],
			"type":"VEC3"
		},
		{
			"bufferView":108,
			"componentType":5126,
			"count":24,
			"type":"VEC3"
		},
		{
			"bufferView":109,
			"componentType":5126,
			"count":24,
			"type":"VEC2"
		},
		{
			"bufferView":110,
			"componentType":5126,
			"count":24,
			"type":"VEC4"
		},
		{
			"bufferView":111,
			"componentType":5126,
			"count":24,
			"max":[
				0.3842134475708008,
				1.791433334350586,
				1
			],
			"min":[
				-1,
				-1,
				-1
			],
			"type":"VEC3"
		},
		{
			"bufferView":112,
			"componentType":5126,
			"count":24,
			"type":"VEC3"
		},
		{
			"bufferView":113,
			"componentType":5126,
			"count":24,
			"type":"VEC2"
		},
		{
			"bufferView":114,
			"componentType":5126,
			"count":24,
			"type":"VEC4"
		},
		{
			"bufferView":115,
			"componentType":5126,
			"count":24,
			"max":[
				0.3842134475708008,
				1.791433334350586,
				1
			],
			"min":[
				-1,
				-1,
				-1
			],
			"type":"VEC3"
		},
		{
			"bufferView":116,
			"componentType":5126,
			"count":24,
			"type":"VEC3"
		},
		{
			"bufferView":117,
			"componentType":5126,
			"count":24,
			"type":"VEC2"
		},
		{
			"bufferView":118,
			"componentType":5126,
			"count":24,
			"type":"VEC4"
		},
		{
			"bufferView":119,
			"componentType":5126,
			"count":24,
			"max":[
				1,
				1,
				1
			],
			"min":[
				-1,
				-1,
				-1
			],
			"type":"VEC3"
		},
		{
			"bufferView":120,
			"componentType":5126,
			"count":24,
			"type":"VEC3"
		},
		{
			"bufferView":121,
			"componentType":5126,
			"count":24,
			"type":"VEC2"
		},
		{
			"bufferView":122,
			"componentType":5126,
			"count":24,
			"type":"VEC4"
		},
		{
			"bufferView":123,
			"componentType":5126,
			"count":24,
			"max":[
				0.3842134475708008,
				1.791433334350586,
				1
			],
			"min":[
				-1,
				-1,
				-1
			],
			"type":"VEC3"
		},
		{
			"bufferView":124,
			"componentType":5126,
			"count":24,
			"type":"VEC3"
		},
		{
			"bufferView":125,
			"componentType":5126,
			"count":24,
			"type":"VEC2"
		},
		{
			"bufferView":126,
			"componentType":5126,
			"count":24,
			"type":"VEC4"
		},
		{
			"bufferView":127,
			"componentType":5126,
			"count":24,
			"max":[
				1,
				1,
				1
			],
			"min":[
				-1,
				-1,
				-1
			],
			"type":"VEC3"
		},
		{
			"bufferView":128,
			"componentType":5126,
			"count":24,
			"type":"VEC3"
		},
		{
			"bufferView":129,
			"componentType":5126,
			"count":24,
			"type":"VEC2"
		},
		{
			"bufferView":130,
			"componentType":5126,
			"count":24,
			"type":"VEC4"
		},
		{
			"bufferView":131,
			"componentType":5126,
			"count":24,
			"max":[
				1,
				1,
				1
			],
			"min":[
				-1,
				-1,
				-1
			],
			"type":"VEC3"
		},
		{
			"bufferView":132,
			"componentType":5126,
			"count":24,
			"type":"VEC3"
		},
		{
			"bufferView":133,
			"componentType":5126,
			"count":24,
			"type":"VEC2"
		},
		{
			"bufferView":134,
			"componentType":5126,
			"count":24,
			"type":"VEC4"
		},
		{
			"bufferView":135,
			"componentType":5126,
			"count":24,
			"max":[
				0.3842134475708008,
				1.791433334350586,
				1
			],
			"min":[
				-1,
				-1,
				-1
			],
			"type":"VEC3"
		},
		{
			"bufferView":136,
			"componentType":5126,
			"count":24,
			"type":"VEC3"
		},
		{
			"bufferView":137,
			"componentType":5126,
			"count":24,
			"type":"VEC2"
		},
		{
			"bufferView":138,
			"componentType":5126,
			"count":24,
			"type":"VEC4"
		},
		{
			"bufferView":139,
			"componentType":5126,
			"count":24,
			"max":[
				1,
				1,
				1
			],
			"min":[
				-1,
				-1,
				-1
			],
			"type":"VEC3"
		},
		{
			"bufferView":140,
			"componentType":5126,
			"count":24,
			"type":"VEC3"
		},
		{
			"bufferView":141,
			"componentType":5126,
			"count":24,
			"type":"VEC2"
		},
		{
			"bufferView":142,
			"componentType":5126,
			"count":24,
			"type":"VEC4"
		},
		{
			"bufferView":143,
			"componentType":5126,
			"count":24,
			"max":[
				1,
				1,
				1
			],
			"min":[
				-1,
				-1,
				-1
			],
			"type":"VEC3"
		},
		{
			"bufferView":144,
			"componentType":5126,
			"count":24,
			"type":"VEC3"
		},
		{
			"bufferView":145,
			"componentType":5126,
			"count":24,
			"type":"VEC2"
		},
		{
			"bufferView":146,
			"componentType":5126,
			"count":24,
			"type":"VEC4"
		},
		{
			"bufferView":147,
			"componentType":5126,
			"count":24,
			"max":[
				1,
				1,
				1
			],
			"min":[
				-1,
				-1,
				-1
			],
			"type":"VEC3"
		},
		{
			"bufferView":148,
			"componentType":5126,
			"count":24,
			"type":"VEC3"
		},
		{
			"bufferView":149,
			"componentType":5126,
			"count":24,
			"type":"VEC2"
		},
		{
			"bufferView":150,
			"componentType":5126,
			"count":24,
			"type":"VEC4"
		},
		{
			"bufferView":151,
			"componentType":5126,
			"count":24,
			"max":[
				1,
				1,
				1
			],
			"min":[
				-1,
				-1,
				-1
			],
			"type":"VEC3"
		},
		{
			"bufferView":152,
			"componentType":5126,
			"count":24,
			"type":"VEC3"
		},
		{
			"bufferView":153,
			"componentType":5126,
			"count":24,
			"type":"VEC2"
		},
		{
			"bufferView":154,
			"componentType":5126,
			"count":24,
			"type":"VEC4"
		},
		{
			"bufferView":155,
			"componentType":5126,
			"count":24,
			"max":[
				0.3842134475708008,
				1.791433334350586,
				1
			],
			"min":[
				-1,
				-1,
				-1
			],
			"type":"VEC3"
		},
		{
			"bufferView":156,
			"componentType":5126,
			"count":24,
			"type":"VEC3"
		},
		{
			"bufferView":157,
			"componentType":5126,
			"count":24,
			"type":"VEC2"
		},
		{
			"bufferView":158,
			"componentType":5126,
			"count":24,
			"type":"VEC4"
		},
		{
			"bufferView":159,
			"componentType":5126,
			"count":24,
			"max":[
				0.3842134475708008,
				1.791433334350586,
				1
			],
			"min":[
				-1,
				-1,
				-1
			],
			"type":"VEC3"
		},
		{
			"bufferView":160,
			"componentType":5126,
			"count":24,
			"type":"VEC3"
		},
		{
			"bufferView":161,
			"componentType":5126,
			"count":24,
			"type":"VEC2"
		},
		{
			"bufferView":162,
			"componentType":5126,
			"count":24,
			"type":"VEC4"
		},
		{
			"bufferView":163,
			"componentType":5126,
			"count":24,
			"max":[
				0.3842134475708008,
				1.791433334350586,
				1
			],
			"min":[
				-1,
				-1,
				-1
			],
			"type":"VEC3"
		},
		{
			"bufferView":164,
			"componentType":5126,
			"count":24,
			"type":"VEC3"
		},
		{
			"bufferView":165,
			"componentType":5126,
			"count":24,
			"type":"VEC2"
		},
		{
			"bufferView":166,
			"componentType":5126,
			"count":24,
			"type":"VEC4"
		},
		{
			"bufferView":167,
			"componentType":5126,
			"count":24,
			"max":[
				1,
				1,
				1
			],
			"min":[
				-1,
				-1,
				-1
			],
			"type":"VEC3"
		},
		{
			"bufferView":168,
			"componentType":5126,
			"count":24,
			"type":"VEC3"
		},
		{
			"bufferView":169,
			"componentType":5126,
			"count":24,
			"type":"VEC2"
		},
		{
			"bufferView":170,
			"componentType":5126,
			"count":24,
			"type":"VEC4"
		},
		{
			"bufferView":171,
			"componentType":5126,
			"count":24,
			"max":[
				0.3842134475708008,
				1.791433334350586,
				1
			],
			"min":[
				-1,
				-1,
				-1
			],
			"type":"VEC3"
		},
		{
			"bufferView":172,
			"componentType":5126,
			"count":24,
			"type":"VEC3"
		},
		{
			"bufferView":173,
			"componentType":5126,
			"count":24,
			"type":"VEC2"
		},
		{
			"bufferView":174,
			"componentType":5126,
			"count":24,
			"type":"VEC4"
		},
		{
			"bufferView":175,
			"componentType":5126,
			"count":24,
			"max":[
				1,
				1,
				1
			],
			"min":[
				-1,
				-1,
				-1
			],
			"type":"VEC3"
		},
		{
			"bufferView":176,
			"componentType":5126,
			"count":24,
			"type":"VEC3"
		},
		{
			"bufferView":177,
			"componentType":5126,
			"count":24,
			"type":"VEC2"
		},
		{
			"bufferView":178,
			"componentType":5126,
			"count":24,
			"type":"VEC4"
		},
		{
			"bufferView":179,
			"componentType":5126,
			"count":24,
			"max":[
				1,
				1,
				1
			],
			"min":[
				-1,
				-1,
				-1
			],
			"type":"VEC3"
		},
		{
			"bufferView":180,
			"componentType":5126,
			"count":24,
			"type":"VEC3"
		},
		{
			"bufferView":181,
			"componentType":5126,
			"count":24,
			"type":"VEC2"
		},
		{
			"bufferView":182,
			"componentType":5126,
			"count":24,
			"type":"VEC4"
		},
		{
			"bufferView":183,
			"componentType":5126,
			"count":24,
			"max":[
				0.3842134475708008,
				1.791433334350586,
				1
			],
			"min":[
				-1,
				-1,
				-1
			],
			"type":"VEC3"
		},
		{
			"bufferView":184,
			"componentType":5126,
			"count":24,
			"type":"VEC3"
		},
		{
			"bufferView":185,
			"componentType":5126,
			"count":24,
			"type":"VEC2"
		},
		{
			"bufferView":186,
			"componentType":5126,
			"count":24,
			"type":"VEC4"
		},
		{
			"bufferView":187,
			"componentType":5126,
			"count":24,
			"max":[
				1,
				1,
				1
			],
			"min":[
				-1,
				-1,
				-1
			],
			"type":"VEC3"
		},
		{
			"bufferView":188,
			"componentType":5126,
			"count":24,
			"type":"VEC3"
		},
		{
			"bufferView":189,
			"componentType":5126,
			"count":24,
			"type":"VEC2"
		},
		{
			"bufferView":190,
			"componentType":5126,
			"count":24,
			"type":"VEC4"
		},
		{
			"bufferView":191,
			"componentType":5126,
			"count":24,
			"max":[
				1,
				1,
				1
			],
			"min":[
				-1,
				-1,
				-1
			],
			"type":"VEC3"
		},
		{
			"bufferView":192,
			"componentType":5126,
			"count":24,
			"type":"VEC3"
		},
		{
			"bufferView":193,
			"componentType":5126,
			"count":24,
			"type":"VEC2"
		},
		{
			"bufferView":194,
			"componentType":5126,
			"count":24,
			"type":"VEC4"
		},
		{
			"bufferView":195,
			"componentType":5126,
			"count":24,
			"max":[
				1,
				1,
				1
			],
			"min":[
				-1,
				-1,
				-1
			],
			"type":"VEC3"
		},
		{
			"bufferView":196,
			"componentType":5126,
			"count":24,
			"type":"VEC3"
		},
		{
			"bufferView":197,
			"componentType":5126,
			"count":24,
			"type":"VEC2"
		},
		{
			"bufferView":198,
			"componentType":5126,
			"count":24,
			"type":"VEC4"
		},
		{
			"bufferView":199,
			"componentType":5126,
			"count":24,
			"max":[
				1,
				1,
				1
			],
			"min":[
				-1,
				-1,
				-1
			],
			"type":"VEC3"
		},
		{
			"bufferView":200,
			"componentType":5126,
			"count":24,
			"type":"VEC3"
		},
		{
			"bufferView":201,
			"componentType":5126,
			"count":24,
			"type":"VEC2"
		},
		{
			"bufferView":202,
			"componentType":5126,
			"count":24,
			"type":"VEC4"
		},
		{
			"bufferView":203,
			"componentType":5126,
			"count":24,
			"max":[
				0.3842134475708008,
				1.791433334350586,
				1
			],
			"min":[
				-1,
				-1,
				-1
			],
			"type":"VEC3"
		},
		{
			"bufferView":204,
			"componentType":5126,
			"count":24,
			"type":"VEC3"
		},
		{
			"bufferView":205,
			"componentType":5126,
			"count":24,
			"type":"VEC2"
		},
		{
			"bufferView":206,
			"componentType":5126,
			"count":24,
			"type":"VEC4"
		},
		{
			"bufferView":207,
			"componentType":5126,
			"count":24,
			"max":[
				0.3842134475708008,
				1.791433334350586,
				1
			],
			"min":[
				-1,
				-1,
				-1
			],
			"type":"VEC3"
		},
		{
			"bufferView":208,
			"componentType":5126,
			"count":24,
			"type":"VEC3"
		},
		{
			"bufferView":209,
			"componentType":5126,
			"count":24,
			"type":"VEC2"
		},
		{
			"bufferView":210,
			"componentType":5126,
			"count":24,
			"type":"VEC4"
		},
		{
			"bufferView":211,
			"componentType":5126,
			"count":24,
			"max":[
				0.3842134475708008,
				1.791433334350586,
				1
			],
			"min":[
				-1,
				-1,
				-1
			],
			"type":"VEC3"
		},
		{
			"bufferView":212,
			"componentType":5126,
			"count":24,
			"type":"VEC3"
		},
		{
			"bufferView":213,
			"componentType":5126,
			"count":24,
			"type":"VEC2"
		},
		{
			"bufferView":214,
			"componentType":5126,
			"count":24,
			"type":"VEC4"
		},
		{
			"bufferView":215,
			"componentType":5126,
			"count":24,
			"max":[
				1,
				1,
				1
			],
			"min":[
				-1,
				-1,
				-1
			],
			"type":"VEC3"
		},
		{
			"bufferView":216,
			"componentType":5126,
			"count":24,
			"type":"VEC3"
		},
		{
			"bufferView":217,
			"componentType":5126,
			"count":24,
			"type":"VEC2"
		},
		{
			"bufferView":218,
			"componentType":5126,
			"count":24,
			"type":"VEC4"
		},
		{
			"bufferView":219,
			"componentType":5126,
			"count":24,
			"max":[
				0.3842134475708008,
				1.791433334350586,
				1
			],
			"min":[
				-1,
				-1,
				-1
			],
			"type":"VEC3"
		},
		{
			"bufferView":220,
			"componentType":5126,
			"count":24,
			"type":"VEC3"
		},
		{
			"bufferView":221,
			"componentType":5126,
			"count":24,
			"type":"VEC2"
		},
		{
			"bufferView":222,
			"componentType":5126,
			"count":24,
			"type":"VEC4"
		},
		{
			"bufferView":223,
			"componentType":5126,
			"count":24,
			"max":[
				1,
				1,
				1
			],
			"min":[
				-1,
				-1,
				-1
			],
			"type":"VEC3"
		},
		{
			"bufferView":224,
			"componentType":5126,
			"count":24,
			"type":"VEC3"
		},
		{
			"bufferView":225,
			"componentType":5126,
			"count":24,
			"type":"VEC2"
		},
		{
			"bufferView":226,
			"componentType":5126,
			"count":24,
			"type":"VEC4"
		},
		{
			"bufferView":227,
			"componentType":5126,
			"count":24,
			"max":[
				1,
				1,
				1
			],
			"min":[
				-1,
				-1,
				-1
			],
			"type":"VEC3"
		},
		{
			"bufferView":228,
			"componentType":5126,
			"count":24,
			"type":"VEC3"
		},
		{
			"bufferView":229,
			"componentType":5126,
			"count":24,
			"type":"VEC2"
		},
		{
			"bufferView":230,
			"componentType":5126,
			"count":24,
			"type":"VEC4"
		},
		{
			"bufferView":231,
			"componentType":5126,
			"count":24,
			"max":[
				0.3842134475708008,
				1.791433334350586,
				1
			],
			"min":[
				-1,
				-1,
				-1
			],
			"type":"VEC3"
		},
		{
			"bufferView":232,
			"componentType":5126,
			"count":24,
			"type":"VEC3"
		},
		{
			"bufferView":233,
			"componentType":5126,
			"count":24,
			"type":"VEC2"
		},
		{
			"bufferView":234,
			"componentType":5126,
			"count":24,
			"type":"VEC4"
		},
		{
			"bufferView":235,
			"componentType":5126,
			"count":24,
			"max":[
				1,
				1,
				1
			],
			"min":[
				-1,
				-1,
				-1
			],
			"type":"VEC3"
		},
		{
			"bufferView":236,
			"componentType":5126,
			"count":24,
			"type":"VEC3"
		},
		{
			"bufferView":237,
			"componentType":5126,
			"count":24,
			"type":"VEC2"
		},
		{
			"bufferView":238,
			"componentType":5126,
			"count":24,
			"type":"VEC4"
		},
		{
			"bufferView":239,
			"componentType":5126,
			"count":24,
			"max":[
				1,
				1,
				1
			],
			"min":[
				-1,
				-1,
				-1
			],
			"type":"VEC3"
		},
		{
			"bufferView":240,
			"componentType":5126,
			"count":24,
			"type":"VEC3"
		},
		{
			"bufferView":241,
			"componentType":5126,
			"count":24,
			"type":"VEC2"
		},
		{
			"bufferView":242,
			"componentType":5126,
			"count":24,
			"type":"VEC4"
		},
		{
			"bufferView":243,
			"componentType":5126,
			"count":24,
			"max":[
				1,
				1,
				1
			],
			"min":[
				-1,
				-1,
				-1
			],
			"type":"VEC3"
		},
		{
			"bufferView":244,
			"componentType":5126,
			"count":24,
			"type":"VEC3"
		},
		{
			"bufferView":245,
			"componentType":5126,
			"count":24,
			"type":"VEC2"
		},
		{
			"bufferView":246,
			"componentType":5126,
			"count":24,
			"type":"VEC4"
		},
		{
			"bufferView":247,
			"componentType":5126,
			"count":24,
			"max":[
				1,
				1,
				1
			],
			"min":[
				-1,
				-1,
				-1
			],
			"type":"VEC3"
		},
		{
			"bufferView":248,
			"componentType":5126,
			"count":24,
			"type":"VEC3"
		},
		{
			"bufferView":249,
			"componentType":5126,
			"count":24,
			"type":"VEC2"
		},
		{
			"bufferView":250,
			"componentType":5126,
			"count":24,
			"type":"VEC4"
		},
		{
			"bufferView":251,
			"componentType":5126,
			"count":24,
			"max":[
				0.3842134475708008,
				1.791433334350586,
				1
			],
			"min":[
				-1,
				-1,
				-1
			],
			"type":"VEC3"
		},
		{
			"bufferView":252,
			"componentType":5126,
			"count":24,
			"type":"VEC3"
		},
		{
			"bufferView":253,
			"componentType":5126,
			"count":24,
			"type":"VEC2"
		},
		{
			"bufferView":254,
			"componentType":5126,
			"count":24,
			"type":"VEC4"
		},
		{
			"bufferView":255,
			"componentType":5126,
			"count":24,
			"max":[
				0.3842134475708008,
				1.791433334350586,
				1
			],
			"min":[
				-1,
				-1,
				-1
			],
			"type":"VEC3"
		},
		{
			"bufferView":256,
			"componentType":5126,
			"count":24,
			"type":"VEC3"
		},
		{
			"bufferView":257,
			"componentType":5126,
			"count":24,
			"type":"VEC2"
		},
		{
			"bufferView":258,
			"componentType":5126,
			"count":24,
			"type":"VEC4"
		},
		{
			"bufferView":259,
			"componentType":5126,
			"count":24,
			"max":[
				0.3842134475708008,
				1.791433334350586,
				1
			],
			"min":[
				-1,
				-1,
				-1
			],
			"type":"VEC3"
		},
		{
			"bufferView":260,
			"componentType":5126,
			"count":24,
			"type":"VEC3"
		},
		{
			"bufferView":261,
			"componentType":5126,
			"count":24,
			"type":"VEC2"
		},
		{
			"bufferView":262,
			"componentType":5126,
			"count":24,
			"type":"VEC4"
		},
		{
			"bufferView":263,
			"componentType":5126,
			"count":48,
			"max":[
				0.21892061829566956,
				1.0000001192092896,
				1
			],
			"min":[
				-4.6382670402526855,
				-5.313810348510742,
				-32.5096549987793
			],
			"type":"VEC3"
		},
		{
			"bufferView":264,
			"componentType":5126,
			"count":48,
			"type":"VEC3"
		},
		{
			"bufferView":265,
			"componentType":5126,
			"count":48,
			"type":"VEC2"
		},
		{
			"bufferView":266,
			"componentType":5126,
			"count":48,
			"type":"VEC4"
		},
		{
			"bufferView":267,
			"componentType":5123,
			"count":72,
			"type":"SCALAR"
		},
		{
			"bufferView":268,
			"componentType":5126,
			"count":48,
			"max":[
				3.561192512512207,
				1.0000001192092896,
				1
			],
			"min":[
				-1.2837977409362793,
				-5.313810348510742,
				-14.346872329711914
			],
			"type":"VEC3"
		},
		{
			"bufferView":269,
			"componentType":5126,
			"count":48,
			"type":"VEC3"
		},
		{
			"bufferView":270,
			"componentType":5126,
			"count":48,
			"type":"VEC2"
		},
		{
			"bufferView":271,
			"componentType":5126,
			"count":48,
			"type":"VEC4"
		},
		{
			"bufferView":272,
			"componentType":5126,
			"count":121,
			"max":[
				2
			],
			"min":[
				0
			],
			"type":"SCALAR"
		},
		{
			"bufferView":273,
			"componentType":5126,
			"count":121,
			"type":"VEC3"
		},
		{
			"bufferView":274,
			"componentType":5126,
			"count":2,
			"max":[
				2
			],
			"min":[
				0
			],
			"type":"SCALAR"
		},
		{
			"bufferView":275,
			"componentType":5126,
			"count":2,
			"type":"VEC4"
		},
		{
			"bufferView":276,
			"componentType":5126,
			"count":2,
			"type":"VEC3"
		},
		{
			"bufferView":277,
			"componentType":5126,
			"count":2,
			"type":"VEC3"
		},
		{
			"bufferView":278,
			"componentType":5126,
			"count":121,
			"type":"VEC4"
		},
		{
			"bufferView":279,
			"componentType":5126,
			"count":1,
			"max":[
				0
			],
			"min":[
				0
			],
			"type":"SCALAR"
		},
		{
			"bufferView":280,
			"componentType":5126,
			"count":1,
			"type":"VEC3"
		},
		{
			"bufferView":281,
			"componentType":5126,
			"count":1,
			"type":"VEC4"
		},
		{
			"bufferView":282,
			"componentType":5126,
			"count":1,
			"type":"VEC3"
		}
	],
	"bufferViews":[
		{
			"buffer":0,
			"byteLength":14856,
			"byteOffset":0,
			"target":34962
		},
		{
			"buffer":0,
			"byteLength":14856,
			"byteOffset":14856,
			"target":34962
		},
		{
			"buffer":0,
			"byteLength":9904,
			"byteOffset":29712,
			"target":34962
		},
		{
			"buffer":0,
			"byteLength":10728,
			"byteOffset":39616,
			"target":34963
		},
		{
			"buffer":0,
			"byteLength":5688,
			"byteOffset":50344,
			"target":34962
		},
		{
			"buffer":0,
			"byteLength":5688,
			"byteOffset":56032,
			"target":34962
		},
		{
			"buffer":0,
			"byteLength":3792,
			"byteOffset":61720,
			"target":34962
		},
		{
			"buffer":0,
			"byteLength":2772,
			"byteOffset":65512,
			"target":34963
		},
		{
			"buffer":0,
			"byteLength":1176,
			"byteOffset":68284,
			"target":34962
		},
		{
			"buffer":0,
			"byteLength":1176,
			"byteOffset":69460,
			"target":34962
		},
		{
			"buffer":0,
			"byteLength":784,
			"byteOffset":70636,
			"target":34962
		},
		{
			"buffer":0,
			"byteLength":564,
			"byteOffset":71420,
			"target":34963
		},
		{
			"buffer":0,
			"byteLength":528,
			"byteOffset":71984,
			"target":34962
		},
		{
			"buffer":0,
			"byteLength":528,
			"byteOffset":72512,
			"target":34962
		},
		{
			"buffer":0,
			"byteLength":352,
			"byteOffset":73040,
			"target":34962
		},
		{
			"buffer":0,
			"byteLength":704,
			"byteOffset":73392,
			"target":34962
		},
		{
			"buffer":0,
			"byteLength":132,
			"byteOffset":74096,
			"target":34963
		},
		{
			"buffer":0,
			"byteLength":864,
			"byteOffset":74228,
			"target":34962
		},
		{
			"buffer":0,
			"byteLength":864,
			"byteOffset":75092,
			"target":34962
		},
		{
			"buffer":0,
			"byteLength":576,
			"byteOffset":75956,
			"target":34962
		},
		{
			"buffer":0,
			"byteLength":1152,
			"byteOffset":76532,
			"target":34962
		},
		{
			"buffer":0,
			"byteLength":336,
			"byteOffset":77684,
			"target":34963
		},
		{
			"buffer":0,
			"byteLength":288,
			"byteOffset":78020,
			"target":34962
		},
		{
			"buffer":0,
			"byteLength":288,
			"byteOffset":78308,
			"target":34962
		},
		{
			"buffer":0,
			"byteLength":192,
			"byteOffset":78596,
			"target":34962
		},
		{
			"buffer":0,
			"byteLength":384,
			"byteOffset":78788,
			"target":34962
		},
		{
			"buffer":0,
			"byteLength":72,
			"byteOffset":79172,
			"target":34963
		},
		{
			"buffer":0,
			"byteLength":288,
			"byteOffset":79244,
			"target":34962
		},
		{
			"buffer":0,
			"byteLength":288,
			"byteOffset":79532,
			"target":34962
		},
		{
			"buffer":0,
			"byteLength":192,
			"byteOffset":79820,
			"target":34962
		},
		{
			"buffer":0,
			"byteLength":384,
			"byteOffset":80012,
			"target":34962
		},
		{
			"buffer":0,
			"byteLength":288,
			"byteOffset":80396,
			"target":34962
		},
		{
			"buffer":0,
			"byteLength":288,
			"byteOffset":80684,
			"target":34962
		},
		{
			"buffer":0,
			"byteLength":192,
			"byteOffset":80972,
			"target":34962
		},
		{
			"buffer":0,
			"byteLength":384,
			"byteOffset":81164,
			"target":34962
		},
		{
			"buffer":0,
			"byteLength":288,
			"byteOffset":81548,
			"target":34962
		},
		{
			"buffer":0,
			"byteLength":288,
			"byteOffset":81836,
			"target":34962
		},
		{
			"buffer":0,
			"byteLength":192,
			"byteOffset":82124,
			"target":34962
		},
		{
			"buffer":0,
			"byteLength":384,
			"byteOffset":82316,
			"target":34962
		},
		{
			"buffer":0,
			"byteLength":288,
			"byteOffset":82700,
			"target":34962
		},
		{
			"buffer":0,
			"byteLength":288,
			"byteOffset":82988,
			"target":34962
		},
		{
			"buffer":0,
			"byteLength":192,
			"byteOffset":83276,
			"target":34962
		},
		{
			"buffer":0,
			"byteLength":384,
			"byteOffset":83468,
			"target":34962
		},
		{
			"buffer":0,
			"byteLength":288,
			"byteOffset":83852,
			"target":34962
		},
		{
			"buffer":0,
			"byteLength":288,
			"byteOffset":84140,
			"target":34962
		},
		{
			"buffer":0,
			"byteLength":192,
			"byteOffset":84428,
			"target":34962
		},
		{
			"buffer":0,
			"byteLength":384,
			"byteOffset":84620,
			"target":34962
		},
		{
			"buffer":0,
			"byteLength":288,
			"byteOffset":85004,
			"target":34962
		},
		{
			"buffer":0,
			"byteLength":288,
			"byteOffset":85292,
			"target":34962
		},
		{
			"buffer":0,
			"byteLength":192,
			"byteOffset":85580,
			"target":34962
		},
		{
			"buffer":0,
			"byteLength":384,
			"byteOffset":85772,
			"target":34962
		},
		{
			"buffer":0,
			"byteLength":288,
			"byteOffset":86156,
			"target":34962
		},
		{
			"buffer":0,
			"byteLength":288,
			"byteOffset":86444,
			"target":34962
		},
		{
			"buffer":0,
			"byteLength":192,
			"byteOffset":86732,
			"target":34962
		},
		{
			"buffer":0,
			"byteLength":384,
			"byteOffset":86924,
			"target":34962
		},
		{
			"buffer":0,
			"byteLength":288,
			"byteOffset":87308,
			"target":34962
		},
		{
			"buffer":0,
			"byteLength":288,
			"byteOffset":87596,
			"target":34962
		},
		{
			"buffer":0,
			"byteLength":192,
			"byteOffset":87884,
			"target":34962
		},
		{
			"buffer":0,
			"byteLength":384,
			"byteOffset":88076,
			"target":34962
		},
		{
			"buffer":0,
			"byteLength":288,
			"byteOffset":88460,
			"target":34962
		},
		{
			"buffer":0,
			"byteLength":288,
			"byteOffset":88748,
			"target":34962
		},
		{
			"buffer":0,
			"byteLength":192,
			"byteOffset":89036,
			"target":34962
		},
		{
			"buffer":0,
			"byteLength":384,
			"byteOffset":89228,
			"target":34962
		},
		{
			"buffer":0,
			"byteLength":288,
			"byteOffset":89612,
			"target":34962
		},
		{
			"buffer":0,
			"byteLength":288,
			"byteOffset":89900,
			"target":34962
		},
		{
			"buffer":0,
			"byteLength":192,
			"byteOffset":90188,
			"target":34962
		},
		{
			"buffer":0,
			"byteLength":384,
			"byteOffset":90380,
			"target":34962
		},
		{
			"buffer":0,
			"byteLength":288,
			"byteOffset":90764,
			"target":34962
		},
		{
			"buffer":0,
			"byteLength":288,
			"byteOffset":91052,
			"target":34962
		},
		{
			"buffer":0,
			"byteLength":192,
			"byteOffset":91340,
			"target":34962
		},
		{
			"buffer":0,
			"byteLength":384,
			"byteOffset":91532,
			"target":34962
		},
		{
			"buffer":0,
			"byteLength":288,
			"byteOffset":91916,
			"target":34962
		},
		{
			"buffer":0,
			"byteLength":288,
			"byteOffset":92204,
			"target":34962
		},
		{
			"buffer":0,
			"byteLength":192,
			"byteOffset":92492,
			"target":34962
		},
		{
			"buffer":0,
			"byteLength":384,
			"byteOffset":92684,
			"target":34962
		},
		{
			"buffer":0,
			"byteLength":288,
			"byteOffset":93068,
			"target":34962
		},
		{
			"buffer":0,
			"byteLength":288,
			"byteOffset":93356,
			"target":34962
		},
		{
			"buffer":0,
			"byteLength":192,
			"byteOffset":93644,
			"target":34962
		},
		{
			"buffer":0,
			"byteLength":384,
			"byteOffset":93836,
			"target":34962
		},
		{
			"buffer":0,
			"byteLength":288,
			"byteOffset":94220,
			"target":34962
		},
		{
			"buffer":0,
			"byteLength":288,
			"byteOffset":94508,
			"target":34962
		},
		{
			"buffer":0,
			"byteLength":192,
			"byteOffset":94796,
			"target":34962
		},
		{
			"buffer":0,
			"byteLength":384,
			"byteOffset":94988,
			"target":34962
		},
		{
			"buffer":0,
			"byteLength":288,
			"byteOffset":95372,
			"target":34962
		},
		{
			"buffer":0,
			"byteLength":288,
			"byteOffset":95660,
			"target":34962
		},
		{
			"buffer":0,
			"byteLength":192,
			"byteOffset":95948,
			"target":34962
		},
		{
			"buffer":0,
			"byteLength":384,
			"byteOffset":96140,
			"target":34962
		},
		{
			"buffer":0,
			"byteLength":288,
			"byteOffset":96524,
			"target":34962
		},
		{
			"buffer":0,
			"byteLength":288,
			"byteOffset":96812,
			"target":34962
		},
		{
			"buffer":0,
			"byteLength":192,
			"byteOffset":97100,
			"target":34962
		},
		{
			"buffer":0,
			"byteLength":384,
			"byteOffset":97292,
			"target":34962
		},
		{
			"buffer":0,
			"byteLength":288,
			"byteOffset":97676,
			"target":34962
		},
		{
			"buffer":0,
			"byteLength":288,
			"byteOffset":97964,
			"target":34962
		},
		{
			"buffer":0,
			"byteLength":192,
			"byteOffset":98252,
			"target":34962
		},
		{
			"buffer":0,
			"byteLength":384,
			"byteOffset":98444,
			"target":34962
		},
		{
			"buffer":0,
			"byteLength":288,
			"byteOffset":98828,
			"target":34962
		},
		{
			"buffer":0,
			"byteLength":288,
			"byteOffset":99116,
			"target":34962
		},
		{
			"buffer":0,
			"byteLength":192,
			"byteOffset":99404,
			"target":34962
		},
		{
			"buffer":0,
			"byteLength":384,
			"byteOffset":99596,
			"target":34962
		},
		{
			"buffer":0,
			"byteLength":288,
			"byteOffset":99980,
			"target":34962
		},
		{
			"buffer":0,
			"byteLength":288,
			"byteOffset":100268,
			"target":34962
		},
		{
			"buffer":0,
			"byteLength":192,
			"byteOffset":100556,
			"target":34962
		},
		{
			"buffer":0,
			"byteLength":384,
			"byteOffset":100748,
			"target":34962
		},
		{
			"buffer":0,
			"byteLength":288,
			"byteOffset":101132,
			"target":34962
		},
		{
			"buffer":0,
			"byteLength":288,
			"byteOffset":101420,
			"target":34962
		},
		{
			"buffer":0,
			"byteLength":192,
			"byteOffset":101708,
			"target":34962
		},
		{
			"buffer":0,
			"byteLength":384,
			"byteOffset":101900,
			"target":34962
		},
		{
			"buffer":0,
			"byteLength":288,
			"byteOffset":102284,
			"target":34962
		},
		{
			"buffer":0,
			"byteLength":288,
			"byteOffset":102572,
			"target":34962
		},
		{
			"buffer":0,
			"byteLength":192,
			"byteOffset":102860,
			"target":34962
		},
		{
			"buffer":0,
			"byteLength":384,
			"byteOffset":103052,
			"target":34962
		},
		{
			"buffer":0,
			"byteLength":288,
			"byteOffset":103436,
			"target":34962
		},
		{
			"buffer":0,
			"byteLength":288,
			"byteOffset":103724,
			"target":34962
		},
		{
			"buffer":0,
			"byteLength":192,
			"byteOffset":104012,
			"target":34962
		},
		{
			"buffer":0,
			"byteLength":384,
			"byteOffset":104204,
			"target":34962
		},
		{
			"buffer":0,
			"byteLength":288,
			"byteOffset":104588,
			"target":34962
		},
		{
			"buffer":0,
			"byteLength":288,
			"byteOffset":104876,
			"target":34962
		},
		{
			"buffer":0,
			"byteLength":192,
			"byteOffset":105164,
			"target":34962
		},
		{
			"buffer":0,
			"byteLength":384,
			"byteOffset":105356,
			"target":34962
		},
		{
			"buffer":0,
			"byteLength":288,
			"byteOffset":105740,
			"target":34962
		},
		{
			"buffer":0,
			"byteLength":288,
			"byteOffset":106028,
			"target":34962
		},
		{
			"buffer":0,
			"byteLength":192,
			"byteOffset":106316,
			"target":34962
		},
		{
			"buffer":0,
			"byteLength":384,
			"byteOffset":106508,
			"target":34962
		},
		{
			"buffer":0,
			"byteLength":288,
			"byteOffset":106892,
			"target":34962
		},
		{
			"buffer":0,
			"byteLength":288,
			"byteOffset":107180,
			"target":34962
		},
		{
			"buffer":0,
			"byteLength":192,
			"byteOffset":107468,
			"target":34962
		},
		{
			"buffer":0,
			"byteLength":384,
			"byteOffset":107660,
			"target":34962
		},
		{
			"buffer":0,
			"byteLength":288,
			"byteOffset":108044,
			"target":34962
		},
		{
			"buffer":0,
			"byteLength":288,
			"byteOffset":108332,
			"target":34962
		},
		{
			"buffer":0,
			"byteLength":192,
			"byteOffset":108620,
			"target":34962
		},
		{
			"buffer":0,
			"byteLength":384,
			"byteOffset":108812,
			"target":34962
		},
		{
			"buffer":0,
			"byteLength":288,
			"byteOffset":109196,
			"target":34962
		},
		{
			"buffer":0,
			"byteLength":288,
			"byteOffset":109484,
			"target":34962
		},
		{
			"buffer":0,
			"byteLength":192,
			"byteOffset":109772,
			"target":34962
		},
		{
			"buffer":0,
			"byteLength":384,
			"byteOffset":109964,
			"target":34962
		},
		{
			"buffer":0,
			"byteLength":288,
			"byteOffset":110348,
			"target":34962
		},
		{
			"buffer":0,
			"byteLength":288,
			"byteOffset":110636,
			"target":34962
		},
		{
			"buffer":0,
			"byteLength":192,
			"byteOffset":110924,
			"target":34962
		},
		{
			"buffer":0,
			"byteLength":384,
			"byteOffset":111116,
			"target":34962
		},
		{
			"buffer":0,
			"byteLength":288,
			"byteOffset":111500,
			"target":34962
		},
		{
			"buffer":0,
			"byteLength":288,
			"byteOffset":111788,
			"target":34962
		},
		{
			"buffer":0,
			"byteLength":192,
			"byteOffset":112076,
			"target":34962
		},
		{
			"buffer":0,
			"byteLength":384,
			"byteOffset":112268,
			"target":34962
		},
		{
			"buffer":0,
			"byteLength":288,
			"byteOffset":112652,
			"target":34962
		},
		{
			"buffer":0,
			"byteLength":288,
			"byteOffset":112940,
			"target":34962
		},
		{
			"buffer":0,
			"byteLength":192,
			"byteOffset":113228,
			"target":34962
		},
		{
			"buffer":0,
			"byteLength":384,
			"byteOffset":113420,
			"target":34962
		},
		{
			"buffer":0,
			"byteLength":288,
			"byteOffset":113804,
			"target":34962
		},
		{
			"buffer":0,
			"byteLength":288,
			"byteOffset":114092,
			"target":34962
		},
		{
			"buffer":0,
			"byteLength":192,
			"byteOffset":114380,
			"target":34962
		},
		{
			"buffer":0,
			"byteLength":384,
			"byteOffset":114572,
			"target":34962
		},
		{
			"buffer":0,
			"byteLength":288,
			"byteOffset":114956,
			"target":34962
		},
		{
			"buffer":0,
			"byteLength":288,
			"byteOffset":115244,
			"target":34962
		},
		{
			"buffer":0,
			"byteLength":192,
			"byteOffset":115532,
			"target":34962
		},
		{
			"buffer":0,
			"byteLength":384,
			"byteOffset":115724,
			"target":34962
		},
		{
			"buffer":0,
			"byteLength":288,
			"byteOffset":116108,
			"target":34962
		},
		{
			"buffer":0,
			"byteLength":288,
			"byteOffset":116396,
			"target":34962
		},
		{
			"buffer":0,
			"byteLength":192,
			"byteOffset":116684,
			"target":34962
		},
		{
			"buffer":0,
			"byteLength":384,
			"byteOffset":116876,
			"target":34962
		},
		{
			"buffer":0,
			"byteLength":288,
			"byteOffset":117260,
			"target":34962
		},
		{
			"buffer":0,
			"byteLength":288,
			"byteOffset":117548,
			"target":34962
		},
		{
			"buffer":0,
			"byteLength":192,
			"byteOffset":117836,
			"target":34962
		},
		{
			"buffer":0,
			"byteLength":384,
			"byteOffset":118028,
			"target":34962
		},
		{
			"buffer":0,
			"byteLength":288,
			"byteOffset":118412,
			"target":34962
		},
		{
			"buffer":0,
			"byteLength":288,
			"byteOffset":118700,
			"target":34962
		},
		{
			"buffer":0,
			"byteLength":192,
			"byteOffset":118988,
			"target":34962
		},
		{
			"buffer":0,
			"byteLength":384,
			"byteOffset":119180,
			"target":34962
		},
		{
			"buffer":0,
			"byteLength":288,
			"byteOffset":119564,
			"target":34962
		},
		{
			"buffer":0,
			"byteLength":288,
			"byteOffset":119852,
			"target":34962
		},
		{
			"buffer":0,
			"byteLength":192,
			"byteOffset":120140,
			"target":34962
		},
		{
			"buffer":0,
			"byteLength":384,
			"byteOffset":120332,
			"target":34962
		},
		{
			"buffer":0,
			"byteLength":288,
			"byteOffset":120716,
			"target":34962
		},
		{
			"buffer":0,
			"byteLength":288,
			"byteOffset":121004,
			"target":34962
		},
		{
			"buffer":0,
			"byteLength":192,
			"byteOffset":121292,
			"target":34962
		},
		{
			"buffer":0,
			"byteLength":384,
			"byteOffset":121484,
			"target":34962
		},
		{
			"buffer":0,
			"byteLength":288,
			"byteOffset":121868,
			"target":34962
		},
		{
			"buffer":0,
			"byteLength":288,
			"byteOffset":122156,
			"target":34962
		},
		{
			"buffer":0,
			"byteLength":192,
			"byteOffset":122444,
			"target":34962
		},
		{
			"buffer":0,
			"byteLength":384,
			"byteOffset":122636,
			"target":34962
		},
		{
			"buffer":0,
			"byteLength":288,
			"byteOffset":123020,
			"target":34962
		},
		{
			"buffer":0,
			"byteLength":288,
			"byteOffset":123308,
			"target":34962
		},
		{
			"buffer":0,
			"byteLength":192,
			"byteOffset":123596,
			"target":34962
		},
		{
			"buffer":0,
			"byteLength":384,
			"byteOffset":123788,
			"target":34962
		},
		{
			"buffer":0,
			"byteLength":288,
			"byteOffset":124172,
			"target":34962
		},
		{
			"buffer":0,
			"byteLength":288,
			"byteOffset":124460,
			"target":34962
		},
		{
			"buffer":0,
			"byteLength":192,
			"byteOffset":124748,
			"target":34962
		},
		{
			"buffer":0,
			"byteLength":384,
			"byteOffset":124940,
			"target":34962
		},
		{
			"buffer":0,
			"byteLength":288,
			"byteOffset":125324,
			"target":34962
		},
		{
			"buffer":0,
			"byteLength":288,
			"byteOffset":125612,
			"target":34962
		},
		{
			"buffer":0,
			"byteLength":192,
			"byteOffset":125900,
			"target":34962
		},
		{
			"buffer":0,
			"byteLength":384,
			"byteOffset":126092,
			"target":34962
		},
		{
			"buffer":0,
			"byteLength":288,
			"byteOffset":126476,
			"target":34962
		},
		{
			"buffer":0,
			"byteLength":288,
			"byteOffset":126764,
			"target":34962
		},
		{
			"buffer":0,
			"byteLength":192,
			"byteOffset":127052,
			"target":34962
		},
		{
			"buffer":0,
			"byteLength":384,
			"byteOffset":127244,
			"target":34962
		},
		{
			"buffer":0,
			"byteLength":288,
			"byteOffset":127628,
			"target":34962
		},
		{
			"buffer":0,
			"byteLength":288,
			"byteOffset":127916,
			"target":34962
		},
		{
			"buffer":0,
			"byteLength":192,
			"byteOffset":128204,
			"target":34962
		},
		{
			"buffer":0,
			"byteLength":384,
			"byteOffset":128396,
			"target":34962
		},
		{
			"buffer":0,
			"byteLength":288,
			"byteOffset":128780,
			"target":34962
		},
		{
			"buffer":0,
			"byteLength":288,
			"byteOffset":129068,
			"target":34962
		},
		{
			"buffer":0,
			"byteLength":192,
			"byteOffset":129356,
			"target":34962
		},
		{
			"buffer":0,
			"byteLength":384,
			"byteOffset":129548,
			"target":34962
		},
		{
			"buffer":0,
			"byteLength":288,
			"byteOffset":129932,
			"target":34962
		},
		{
			"buffer":0,
			"byteLength":288,
			"byteOffset":130220,
			"target":34962
		},
		{
			"buffer":0,
			"byteLength":192,
			"byteOffset":130508,
			"target":34962
		},
		{
			"buffer":0,
			"byteLength":384,
			"byteOffset":130700,
			"target":34962
		},
		{
			"buffer":0,
			"byteLength":288,
			"byteOffset":131084,
			"target":34962
		},
		{
			"buffer":0,
			"byteLength":288,
			"byteOffset":131372,
			"target":34962
		},
		{
			"buffer":0,
			"byteLength":192,
			"byteOffset":131660,
			"target":34962
		},
		{
			"buffer":0,
			"byteLength":384,
			"byteOffset":131852,
			"target":34962
		},
		{
			"buffer":0,
			"byteLength":288,
			"byteOffset":132236,
			"target":34962
		},
		{
			"buffer":0,
			"byteLength":288,
			"byteOffset":132524,
			"target":34962
		},
		{
			"buffer":0,
			"byteLength":192,
			"byteOffset":132812,
			"target":34962
		},
		{
			"buffer":0,
			"byteLength":384,
			"byteOffset":133004,
			"target":34962
		},
		{
			"buffer":0,
			"byteLength":288,
			"byteOffset":133388,
			"target":34962
		},
		{
			"buffer":0,
			"byteLength":288,
			"byteOffset":133676,
			"target":34962
		},
		{
			"buffer":0,
			"byteLength":192,
			"byteOffset":133964,
			"target":34962
		},
		{
			"buffer":0,
			"byteLength":384,
			"byteOffset":134156,
			"target":34962
		},
		{
			"buffer":0,
			"byteLength":288,
			"byteOffset":134540,
			"target":34962
		},
		{
			"buffer":0,
			"byteLength":288,
			"byteOffset":134828,
			"target":34962
		},
		{
			"buffer":0,
			"byteLength":192,
			"byteOffset":135116,
			"target":34962
		},
		{
			"buffer":0,
			"byteLength":384,
			"byteOffset":135308,
			"target":34962
		},
		{
			"buffer":0,
			"byteLength":288,
			"byteOffset":135692,
			"target":34962
		},
		{
			"buffer":0,
			"byteLength":288,
			"byteOffset":135980,
			"target":34962
		},
		{
			"buffer":0,
			"byteLength":192,
			"byteOffset":136268,
			"target":34962
		},
		{
			"buffer":0,
			"byteLength":384,
			"byteOffset":136460,
			"target":34962
		},
		{
			"buffer":0,
			"byteLength":288,
			"byteOffset":136844,
			"target":34962
		},
		{
			"buffer":0,
			"byteLength":288,
			"byteOffset":137132,
			"target":34962
		},
		{
			"buffer":0,
			"byteLength":192,
			"byteOffset":137420,
			"target":34962
		},
		{
			"buffer":0,
			"byteLength":384,
			"byteOffset":137612,
			"target":34962
		},
		{
			"buffer":0,
			"byteLength":288,
			"byteOffset":137996,
			"target":34962
		},
		{
			"buffer":0,
			"byteLength":288,
			"byteOffset":138284,
			"target":34962
		},
		{
			"buffer":0,
			"byteLength":192,
			"byteOffset":138572,
			"target":34962
		},
		{
			"buffer":0,
			"byteLength":384,
			"byteOffset":138764,
			"target":34962
		},
		{
			"buffer":0,
			"byteLength":288,
			"byteOffset":139148,
			"target":34962
		},
		{
			"buffer":0,
			"byteLength":288,
			"byteOffset":139436,
			"target":34962
		},
		{
			"buffer":0,
			"byteLength":192,
			"byteOffset":139724,
			"target":34962
		},
		{
			"buffer":0,
			"byteLength":384,
			"byteOffset":139916,
			"target":34962
		},
		{
			"buffer":0,
			"byteLength":288,
			"byteOffset":140300,
			"target":34962
		},
		{
			"buffer":0,
			"byteLength":288,
			"byteOffset":140588,
			"target":34962
		},
		{
			"buffer":0,
			"byteLength":192,
			"byteOffset":140876,
			"target":34962
		},
		{
			"buffer":0,
			"byteLength":384,
			"byteOffset":141068,
			"target":34962
		},
		{
			"buffer":0,
			"byteLength":288,
			"byteOffset":141452,
			"target":34962
		},
		{
			"buffer":0,
			"byteLength":288,
			"byteOffset":141740,
			"target":34962
		},
		{
			"buffer":0,
			"byteLength":192,
			"byteOffset":142028,
			"target":34962
		},
		{
			"buffer":0,
			"byteLength":384,
			"byteOffset":142220,
			"target":34962
		},
		{
			"buffer":0,
			"byteLength":288,
			"byteOffset":142604,
			"target":34962
		},
		{
			"buffer":0,
			"byteLength":288,
			"byteOffset":142892,
			"target":34962
		},
		{
			"buffer":0,
			"byteLength":192,
			"byteOffset":143180,
			"target":34962
		},
		{
			"buffer":0,
			"byteLength":384,
			"byteOffset":143372,
			"target":34962
		},
		{
			"buffer":0,
			"byteLength":288,
			"byteOffset":143756,
			"target":34962
		},
		{
			"buffer":0,
			"byteLength":288,
			"byteOffset":144044,
			"target":34962
		},
		{
			"buffer":0,
			"byteLength":192,
			"byteOffset":144332,
			"target":34962
		},
		{
			"buffer":0,
			"byteLength":384,
			"byteOffset":144524,
			"target":34962
		},
		{
			"buffer":0,
			"byteLength":288,
			"byteOffset":144908,
			"target":34962
		},
		{
			"buffer":0,
			"byteLength":288,
			"byteOffset":145196,
			"target":34962
		},
		{
			"buffer":0,
			"byteLength":192,
			"byteOffset":145484,
			"target":34962
		},
		{
			"buffer":0,
			"byteLength":384,
			"byteOffset":145676,
			"target":34962
		},
		{
			"buffer":0,
			"byteLength":288,
			"byteOffset":146060,
			"target":34962
		},
		{
			"buffer":0,
			"byteLength":288,
			"byteOffset":146348,
			"target":34962
		},
		{
			"buffer":0,
			"byteLength":192,
			"byteOffset":146636,
			"target":34962
		},
		{
			"buffer":0,
			"byteLength":384,
			"byteOffset":146828,
			"target":34962
		},
		{
			"buffer":0,
			"byteLength":576,
			"byteOffset":147212,
			"target":34962
		},
		{
			"buffer":0,
			"byteLength":576,
			"byteOffset":147788,
			"target":34962
		},
		{
			"buffer":0,
			"byteLength":384,
			"byteOffset":148364,
			"target":34962
		},
		{
			"buffer":0,
			"byteLength":768,
			"byteOffset":148748,
			"target":34962
		},
		{
			"buffer":0,
			"byteLength":144,
			"byteOffset":149516,
			"target":34963
		},
		{
			"buffer":0,
			"byteLength":576,
			"byteOffset":149660,
			"target":34962
		},
		{
			"buffer":0,
			"byteLength":576,
			"byteOffset":150236,
			"target":34962
		},
		{
			"buffer":0,
			"byteLength":384,
			"byteOffset":150812,
			"target":34962
		},
		{
			"buffer":0,
			"byteLength":768,
			"byteOffset":151196,
			"target":34962
		},
		{
			"buffer":0,
			"byteLength":484,
			"byteOffset":151964
		},
		{
			"buffer":0,
			"byteLength":1452,
			"byteOffset":152448
		},
		{
			"buffer":0,
			"byteLength":8,
			"byteOffset":153900
		},
		{
			"buffer":0,
			"byteLength":32,
			"byteOffset":153908
		},
		{
			"buffer":0,
			"byteLength":24,
			"byteOffset":153940
		},
		{
			"buffer":0,
			"byteLength":24,
			"byteOffset":153964
		},
		{
			"buffer":0,
			"byteLength":1936,
			"byteOffset":153988
		},
		{
			"buffer":0,
			"byteLength":4,
			"byteOffset":155924
		},
		{
			"buffer":0,
			"byteLength":12,
			"byteOffset":155928
		},
		{
			"buffer":0,
			"byteLength":16,
			"byteOffset":155940
		},
		{
			"buffer":0,
			"byteLength":12,
			"byteOffset":155956
		}
	],
	"buffers":[
		{
			"byteLength":155968,
			"uri":"Piano-c52815998f63a437c500b5736ab9ef94.bin"
		}
	]
}
