{
	"asset":{
		"generator":"Khronos glTF Blender I/O v5.0.21",
		"version":"2.0"
	},
	"extensionsUsed":[
		"KHR_lights_punctual"
	],
	"extensionsRequired":[
		"KHR_lights_punctual"
	],
	"extensions":{
		"KHR_lights_punctual":{
			"lights":[
				{
					"color":[
						1,
						1,
						1
					],
					"intensity":1.9450969485031449,
					"type":"directional",
					"name":"Sun"
				}
			]
		}
	},
	"scene":0,
	"scenes":[
		{
			"name":"Scene",
			"nodes":[
				0,
				2,
				3,
				4,
				5,
				6,
				7,
				8,
				9,
				10,
				11,
				12,
				13,
				14,
				15,
				16,
				17,
				18,
				19,
				20,
				21,
				22,
				23,
				24,
				25,
				26,
				27,
				28,
				29,
				30,
				31,
				32,
				33,
				34,
				35,
				36,
				37,
				38,
				39
			]
		}
	],
	"nodes":[
		{
			"extensions":{
				"KHR_lights_punctual":{
					"light":0
				}
			},
			"name":"Sun",
			"rotation":[
				-0.7071068286895752,
				0,
				0,
				0.7071068286895752
			],
			"translation":[
				0.13848863542079926,
				0.5213343501091003,
				0.15967266261577606
			]
		},
		{
			"camera":0,
			"name":"Camera",
			"rotation":[
				-0.23487839102745056,
				0.3950815796852112,
				0.105278380215168,
				0.8818499445915222
			],
			"scale":[
				0.42954346537590027,
				0.4295422434806824,
				0.4295427203178406
			],
			"translation":[
				0.9132890105247498,
				0.6330121755599976,
				0.8217098712921143
			]
		},
		{
			"children":[
				1
			],
			"name":"B\u00e9zierCircle",
			"scale":[
				2.010133981704712,
				2.010133981704712,
				2.010133981704712
			],
			"translation":[
				0.13848863542079926,
				0.5213343501091003,
				0.15967266261577606
			]
		},
		{
			"mesh":0,
			"name":"Curve",
			"translation":[
				0,
				0.08400759845972061,
				0
			]
		},
		{
			"mesh":1,
			"name":"Curve.001",
			"translation":[
				0,
				0.0332149937748909,
				0
			]
		},
		{
			"mesh":2,
			"name":"Curve.002"
		},
		{
			"mesh":3,
			"name":"Curve.003"
		},
		{
			"name":"Curve.004",
			"translation":[
				0.13848863542079926,
				0.4608081877231598,
				0.15967266261577606
			]
		},
		{
			"name":"Curve.005",
			"translation":[
				0.13848863542079926,
				0.4608081877231598,
				0.15967266261577606
			]
		},
		{
			"name":"Curve.006",
			"translation":[
				0.13848863542079926,
				0.4608081877231598,
				0.15967266261577606
			]
		},
		{
			"name":"Curve.007",
			"translation":[
				0.13848863542079926,
				0.4608081877231598,
				0.15967266261577606
			]
		},
		{
			"name":"Curve.008",
			"translation":[
				0.13848863542079926,
				0.4608081877231598,
				0.15967266261577606
			]
		},
		{
			"name":"Curve.009",
			"translation":[
				0.13848863542079926,
				0.4608081877231598,
				0.15967266261577606
			]
		},
		{
			"mesh":4,
			"name":"Curve.010",
			"scale":[
				1.5251553058624268,
				1.5251553058624268,
				1.5251553058624268
			],
			"translation":[
				0.1280587762594223,
				0.06789220869541168,
				0.15967819094657898
			]
		},
		{
			"mesh":5,
			"name":"Curve.011"
		},
		{
			"mesh":6,
			"name":"Curve.012"
		},
		{
			"mesh":7,
			"name":"Curve.013",
			"translation":[
				0.13848863542079926,
				0.4608082175254822,
				0.15967266261577606
			]
		},
		{
			"mesh":8,
			"name":"Curve.014",
			"translation":[
				0.13848863542079926,
				0.4608082175254822,
				0.15967266261577606
			]
		},
		{
			"mesh":9,
			"name":"Curve.015",
			"translation":[
				0.13848863542079926,
				0.4608082175254822,
				0.15967266261577606
			]
		},
		{
			"mesh":10,
			"name":"Curve.016",
			"translation":[
				0.13848863542079926,
				0.4608082175254822,
				0.15967266261577606
			]
		},
		{
			"mesh":11,
			"name":"Curve.017",
			"translation":[
				0.13848863542079926,
				0.4608082175254822,
				0.15967266261577606
			]
		},
		{
			"mesh":12,
			"name":"Curve.018",
			"translation":[
				0.13848863542079926,
				0.4608082175254822,
				0.15967266261577606
			]
		},
		{
			"mesh":13,
			"name":"Curve.019",
			"translation":[
				0.12805867195129395,
				0.3670327067375183,
				0.15967808663845062
			]
		},
		{
			"mesh":14,
			"name":"Curve.020",
			"rotation":[
				0,
				0.5000322461128235,
				0,
				0.8660067915916443
			],
			"translation":[
				0.12805867195129395,
				0.31027090549468994,
				0.15967808663845062
			]
		},
		{
			"name":"Curve.021",
			"translation":[
				0.12805891036987305,
				0.4912024736404419,
				0.15967793762683868
			]
		},
		{
			"name":"Curve.022",
			"translation":[
				0.12805891036987305,
				0.4912024736404419,
				0.15967793762683868
			]
		},
		{
			"name":"Curve.023",
			"translation":[
				0.12805891036987305,
				0.4912024736404419,
				0.15967793762683868
			]
		},
		{
			"name":"Curve.024",
			"translation":[
				0.12805891036987305,
				0.4912024736404419,
				0.15967793762683868
			]
		},
		{
			"name":"Curve.025",
			"translation":[
				0.12805891036987305,
				0.4912024736404419,
				0.15967793762683868
			]
		},
		{
			"name":"Curve.026",
			"translation":[
				0.12805891036987305,
				0.4912024736404419,
				0.15967793762683868
			]
		},
		{
			"name":"Curve.027",
			"translation":[
				0.12805891036987305,
				0.4912024736404419,
				0.15967793762683868
			]
		},
		{
			"name":"Curve.028",
			"translation":[
				0.12805891036987305,
				0.4912024736404419,
				0.15967793762683868
			]
		},
		{
			"name":"Curve.029",
			"translation":[
				0.12805891036987305,
				0.4912024736404419,
				0.15967793762683868
			]
		},
		{
			"name":"Curve.030",
			"translation":[
				0.13848863542079926,
				0.5213343501091003,
				0.15967266261577606
			]
		},
		{
			"mesh":15,
			"name":"Curve.031",
			"translation":[
				0.13848863542079926,
				0.5213343501091003,
				0.15967266261577606
			]
		},
		{
			"mesh":16,
			"name":"Curve.032",
			"translation":[
				0.13848863542079926,
				0.5213343501091003,
				0.15967266261577606
			]
		},
		{
			"mesh":17,
			"name":"Curve.033",
			"translation":[
				0.13848863542079926,
				0.4608081877231598,
				0.15967266261577606
			]
		},
		{
			"mesh":18,
			"name":"Curve.034",
			"translation":[
				0.13848863542079926,
				0.4608081877231598,
				0.15967266261577606
			]
		},
		{
			"mesh":19,
			"name":"Curve.035",
			"translation":[
				0.13848863542079926,
				0.5213343501091003,
				0.15967266261577606
			]
		},
		{
			"name":"CameraShakify.v3_Camera_0",
			"rotation":[
				0.0021303484681993723,
				0.005210536532104015,
				-0.007959144189953804,
				0.999952495098114
			],
			"translation":[
				8727.599609375,
				-1441.5999755859375,
				-1825.199951171875
			]
		}
	],
	"cameras":[
		{
			"name":"Camera.002",
			"perspective":{
				"aspectRatio":1.7777777777777777,
				"yfov":0.7175413670112324,
				"zfar":1000,
				"znear":0.10000000149011612
			},
			"type":"perspective"
		}
	],
	"animations":[
		{
			"channels":[
				{
					"sampler":0,
					"target":{
						"node":7,
						"path":"translation"
					}
				},
				{
					"sampler":1,
					"target":{
						"node":7,
						"path":"rotation"
					}
				},
				{
					"sampler":2,
					"target":{
						"node":7,
						"path":"scale"
					}
				}
			],
			"name":"Curve.004Action",
			"samplers":[
				{
					"input":55,
					"interpolation":"STEP",
					"output":56
				},
				{
					"input":57,
					"interpolation":"LINEAR",
					"output":58
				},
				{
					"input":55,
					"interpolation":"STEP",
					"output":59
				}
			]
		},
		{
			"channels":[
				{
					"sampler":0,
					"target":{
						"node":8,
						"path":"translation"
					}
				},
				{
					"sampler":1,
					"target":{
						"node":8,
						"path":"rotation"
					}
				},
				{
					"sampler":2,
					"target":{
						"node":8,
						"path":"scale"
					}
				}
			],
			"name":"Curve.005Action",
			"samplers":[
				{
					"input":55,
					"interpolation":"STEP",
					"output":56
				},
				{
					"input":57,
					"interpolation":"LINEAR",
					"output":58
				},
				{
					"input":55,
					"interpolation":"STEP",
					"output":59
				}
			]
		},
		{
			"channels":[
				{
					"sampler":0,
					"target":{
						"node":9,
						"path":"translation"
					}
				},
				{
					"sampler":1,
					"target":{
						"node":9,
						"path":"rotation"
					}
				},
				{
					"sampler":2,
					"target":{
						"node":9,
						"path":"scale"
					}
				}
			],
			"name":"Curve.006Action",
			"samplers":[
				{
					"input":55,
					"interpolation":"STEP",
					"output":56
				},
				{
					"input":57,
					"interpolation":"LINEAR",
					"output":58
				},
				{
					"input":55,
					"interpolation":"STEP",
					"output":59
				}
			]
		},
		{
			"channels":[
				{
					"sampler":0,
					"target":{
						"node":10,
						"path":"translation"
					}
				},
				{
					"sampler":1,
					"target":{
						"node":10,
						"path":"rotation"
					}
				},
				{
					"sampler":2,
					"target":{
						"node":10,
						"path":"scale"
					}
				}
			],
			"name":"Curve.007Action",
			"samplers":[
				{
					"input":55,
					"interpolation":"STEP",
					"output":56
				},
				{
					"input":57,
					"interpolation":"LINEAR",
					"output":58
				},
				{
					"input":55,
					"interpolation":"STEP",
					"output":59
				}
			]
		},
		{
			"channels":[
				{
					"sampler":0,
					"target":{
						"node":11,
						"path":"translation"
					}
				},
				{
					"sampler":1,
					"target":{
						"node":11,
						"path":"rotation"
					}
				},
				{
					"sampler":2,
					"target":{
						"node":11,
						"path":"scale"
					}
				}
			],
			"name":"Curve.008Action",
			"samplers":[
				{
					"input":55,
					"interpolation":"STEP",
					"output":56
				},
				{
					"input":57,
					"interpolation":"LINEAR",
					"output":58
				},
				{
					"input":55,
					"interpolation":"STEP",
					"output":59
				}
			]
		},
		{
			"channels":[
				{
					"sampler":0,
					"target":{
						"node":12,
						"path":"translation"
					}
				},
				{
					"sampler":1,
					"target":{
						"node":12,
						"path":"rotation"
					}
				},
				{
					"sampler":2,
					"target":{
						"node":12,
						"path":"scale"
					}
				}
			],
			"name":"Curve.009Action",
			"samplers":[
				{
					"input":55,
					"interpolation":"STEP",
					"output":56
				},
				{
					"input":57,
					"interpolation":"LINEAR",
					"output":58
				},
				{
					"input":55,
					"interpolation":"STEP",
					"output":59
				}
			]
		},
		{
			"channels":[
				{
					"sampler":0,
					"target":{
						"node":14,
						"path":"translation"
					}
				},
				{
					"sampler":1,
					"target":{
						"node":14,
						"path":"rotation"
					}
				},
				{
					"sampler":2,
					"target":{
						"node":14,
						"path":"scale"
					}
				}
			],
			"name":"Curve.011Action",
			"samplers":[
				{
					"input":57,
					"interpolation":"LINEAR",
					"output":60
				},
				{
					"input":55,
					"interpolation":"STEP",
					"output":61
				},
				{
					"input":55,
					"interpolation":"STEP",
					"output":59
				}
			]
		},
		{
			"channels":[
				{
					"sampler":0,
					"target":{
						"node":15,
						"path":"translation"
					}
				},
				{
					"sampler":1,
					"target":{
						"node":15,
						"path":"rotation"
					}
				},
				{
					"sampler":2,
					"target":{
						"node":15,
						"path":"scale"
					}
				}
			],
			"name":"Curve.012Action",
			"samplers":[
				{
					"input":57,
					"interpolation":"LINEAR",
					"output":62
				},
				{
					"input":55,
					"interpolation":"STEP",
					"output":61
				},
				{
					"input":55,
					"interpolation":"STEP",
					"output":59
				}
			]
		},
		{
			"channels":[
				{
					"sampler":0,
					"target":{
						"node":16,
						"path":"translation"
					}
				},
				{
					"sampler":1,
					"target":{
						"node":16,
						"path":"rotation"
					}
				},
				{
					"sampler":2,
					"target":{
						"node":16,
						"path":"scale"
					}
				}
			],
			"name":"Curve.013Action",
			"samplers":[
				{
					"input":55,
					"interpolation":"STEP",
					"output":63
				},
				{
					"input":57,
					"interpolation":"LINEAR",
					"output":58
				},
				{
					"input":55,
					"interpolation":"STEP",
					"output":59
				}
			]
		},
		{
			"channels":[
				{
					"sampler":0,
					"target":{
						"node":17,
						"path":"translation"
					}
				},
				{
					"sampler":1,
					"target":{
						"node":17,
						"path":"rotation"
					}
				},
				{
					"sampler":2,
					"target":{
						"node":17,
						"path":"scale"
					}
				}
			],
			"name":"Curve.014Action",
			"samplers":[
				{
					"input":55,
					"interpolation":"STEP",
					"output":63
				},
				{
					"input":57,
					"interpolation":"LINEAR",
					"output":58
				},
				{
					"input":55,
					"interpolation":"STEP",
					"output":59
				}
			]
		},
		{
			"channels":[
				{
					"sampler":0,
					"target":{
						"node":18,
						"path":"translation"
					}
				},
				{
					"sampler":1,
					"target":{
						"node":18,
						"path":"rotation"
					}
				},
				{
					"sampler":2,
					"target":{
						"node":18,
						"path":"scale"
					}
				}
			],
			"name":"Curve.015Action",
			"samplers":[
				{
					"input":55,
					"interpolation":"STEP",
					"output":63
				},
				{
					"input":57,
					"interpolation":"LINEAR",
					"output":58
				},
				{
					"input":55,
					"interpolation":"STEP",
					"output":59
				}
			]
		},
		{
			"channels":[
				{
					"sampler":0,
					"target":{
						"node":19,
						"path":"translation"
					}
				},
				{
					"sampler":1,
					"target":{
						"node":19,
						"path":"rotation"
					}
				},
				{
					"sampler":2,
					"target":{
						"node":19,
						"path":"scale"
					}
				}
			],
			"name":"Curve.016Action",
			"samplers":[
				{
					"input":55,
					"interpolation":"STEP",
					"output":63
				},
				{
					"input":57,
					"interpolation":"LINEAR",
					"output":58
				},
				{
					"input":55,
					"interpolation":"STEP",
					"output":59
				}
			]
		},
		{
			"channels":[
				{
					"sampler":0,
					"target":{
						"node":20,
						"path":"translation"
					}
				},
				{
					"sampler":1,
					"target":{
						"node":20,
						"path":"rotation"
					}
				},
				{
					"sampler":2,
					"target":{
						"node":20,
						"path":"scale"
					}
				}
			],
			"name":"Curve.017Action",
			"samplers":[
				{
					"input":55,
					"interpolation":"STEP",
					"output":63
				},
				{
					"input":57,
					"interpolation":"LINEAR",
					"output":58
				},
				{
					"input":55,
					"interpolation":"STEP",
					"output":59
				}
			]
		},
		{
			"channels":[
				{
					"sampler":0,
					"target":{
						"node":21,
						"path":"translation"
					}
				},
				{
					"sampler":1,
					"target":{
						"node":21,
						"path":"rotation"
					}
				},
				{
					"sampler":2,
					"target":{
						"node":21,
						"path":"scale"
					}
				}
			],
			"name":"Curve.018Action",
			"samplers":[
				{
					"input":55,
					"interpolation":"STEP",
					"output":63
				},
				{
					"input":57,
					"interpolation":"LINEAR",
					"output":58
				},
				{
					"input":55,
					"interpolation":"STEP",
					"output":59
				}
			]
		},
		{
			"channels":[
				{
					"sampler":0,
					"target":{
						"node":22,
						"path":"translation"
					}
				},
				{
					"sampler":1,
					"target":{
						"node":22,
						"path":"rotation"
					}
				},
				{
					"sampler":2,
					"target":{
						"node":22,
						"path":"scale"
					}
				}
			],
			"name":"Curve.019Action",
			"samplers":[
				{
					"input":57,
					"interpolation":"LINEAR",
					"output":64
				},
				{
					"input":57,
					"interpolation":"LINEAR",
					"output":65
				},
				{
					"input":55,
					"interpolation":"STEP",
					"output":59
				}
			]
		},
		{
			"channels":[
				{
					"sampler":0,
					"target":{
						"node":23,
						"path":"translation"
					}
				},
				{
					"sampler":1,
					"target":{
						"node":23,
						"path":"rotation"
					}
				},
				{
					"sampler":2,
					"target":{
						"node":23,
						"path":"scale"
					}
				}
			],
			"name":"Curve.020Action",
			"samplers":[
				{
					"input":57,
					"interpolation":"LINEAR",
					"output":66
				},
				{
					"input":57,
					"interpolation":"LINEAR",
					"output":67
				},
				{
					"input":55,
					"interpolation":"STEP",
					"output":68
				}
			]
		},
		{
			"channels":[
				{
					"sampler":0,
					"target":{
						"node":24,
						"path":"translation"
					}
				},
				{
					"sampler":1,
					"target":{
						"node":24,
						"path":"rotation"
					}
				},
				{
					"sampler":2,
					"target":{
						"node":24,
						"path":"scale"
					}
				}
			],
			"name":"Curve.021Action",
			"samplers":[
				{
					"input":57,
					"interpolation":"LINEAR",
					"output":69
				},
				{
					"input":57,
					"interpolation":"LINEAR",
					"output":70
				},
				{
					"input":55,
					"interpolation":"STEP",
					"output":59
				}
			]
		},
		{
			"channels":[
				{
					"sampler":0,
					"target":{
						"node":25,
						"path":"translation"
					}
				},
				{
					"sampler":1,
					"target":{
						"node":25,
						"path":"rotation"
					}
				},
				{
					"sampler":2,
					"target":{
						"node":25,
						"path":"scale"
					}
				}
			],
			"name":"Curve.022Action",
			"samplers":[
				{
					"input":57,
					"interpolation":"LINEAR",
					"output":69
				},
				{
					"input":57,
					"interpolation":"LINEAR",
					"output":70
				},
				{
					"input":55,
					"interpolation":"STEP",
					"output":59
				}
			]
		},
		{
			"channels":[
				{
					"sampler":0,
					"target":{
						"node":26,
						"path":"translation"
					}
				},
				{
					"sampler":1,
					"target":{
						"node":26,
						"path":"rotation"
					}
				},
				{
					"sampler":2,
					"target":{
						"node":26,
						"path":"scale"
					}
				}
			],
			"name":"Curve.023Action",
			"samplers":[
				{
					"input":57,
					"interpolation":"LINEAR",
					"output":69
				},
				{
					"input":57,
					"interpolation":"LINEAR",
					"output":70
				},
				{
					"input":55,
					"interpolation":"STEP",
					"output":59
				}
			]
		},
		{
			"channels":[
				{
					"sampler":0,
					"target":{
						"node":27,
						"path":"translation"
					}
				},
				{
					"sampler":1,
					"target":{
						"node":27,
						"path":"rotation"
					}
				},
				{
					"sampler":2,
					"target":{
						"node":27,
						"path":"scale"
					}
				}
			],
			"name":"Curve.024Action",
			"samplers":[
				{
					"input":57,
					"interpolation":"LINEAR",
					"output":69
				},
				{
					"input":57,
					"interpolation":"LINEAR",
					"output":70
				},
				{
					"input":55,
					"interpolation":"STEP",
					"output":59
				}
			]
		},
		{
			"channels":[
				{
					"sampler":0,
					"target":{
						"node":28,
						"path":"translation"
					}
				},
				{
					"sampler":1,
					"target":{
						"node":28,
						"path":"rotation"
					}
				},
				{
					"sampler":2,
					"target":{
						"node":28,
						"path":"scale"
					}
				}
			],
			"name":"Curve.025Action",
			"samplers":[
				{
					"input":57,
					"interpolation":"LINEAR",
					"output":69
				},
				{
					"input":57,
					"interpolation":"LINEAR",
					"output":70
				},
				{
					"input":55,
					"interpolation":"STEP",
					"output":59
				}
			]
		},
		{
			"channels":[
				{
					"sampler":0,
					"target":{
						"node":29,
						"path":"translation"
					}
				},
				{
					"sampler":1,
					"target":{
						"node":29,
						"path":"rotation"
					}
				},
				{
					"sampler":2,
					"target":{
						"node":29,
						"path":"scale"
					}
				}
			],
			"name":"Curve.026Action",
			"samplers":[
				{
					"input":57,
					"interpolation":"LINEAR",
					"output":69
				},
				{
					"input":57,
					"interpolation":"LINEAR",
					"output":70
				},
				{
					"input":55,
					"interpolation":"STEP",
					"output":59
				}
			]
		},
		{
			"channels":[
				{
					"sampler":0,
					"target":{
						"node":30,
						"path":"translation"
					}
				},
				{
					"sampler":1,
					"target":{
						"node":30,
						"path":"rotation"
					}
				},
				{
					"sampler":2,
					"target":{
						"node":30,
						"path":"scale"
					}
				}
			],
			"name":"Curve.027Action",
			"samplers":[
				{
					"input":57,
					"interpolation":"LINEAR",
					"output":69
				},
				{
					"input":57,
					"interpolation":"LINEAR",
					"output":70
				},
				{
					"input":55,
					"interpolation":"STEP",
					"output":59
				}
			]
		},
		{
			"channels":[
				{
					"sampler":0,
					"target":{
						"node":31,
						"path":"translation"
					}
				},
				{
					"sampler":1,
					"target":{
						"node":31,
						"path":"rotation"
					}
				},
				{
					"sampler":2,
					"target":{
						"node":31,
						"path":"scale"
					}
				}
			],
			"name":"Curve.028Action",
			"samplers":[
				{
					"input":57,
					"interpolation":"LINEAR",
					"output":69
				},
				{
					"input":57,
					"interpolation":"LINEAR",
					"output":70
				},
				{
					"input":55,
					"interpolation":"STEP",
					"output":59
				}
			]
		},
		{
			"channels":[
				{
					"sampler":0,
					"target":{
						"node":32,
						"path":"translation"
					}
				},
				{
					"sampler":1,
					"target":{
						"node":32,
						"path":"rotation"
					}
				},
				{
					"sampler":2,
					"target":{
						"node":32,
						"path":"scale"
					}
				}
			],
			"name":"Curve.029Action",
			"samplers":[
				{
					"input":57,
					"interpolation":"LINEAR",
					"output":69
				},
				{
					"input":57,
					"interpolation":"LINEAR",
					"output":70
				},
				{
					"input":55,
					"interpolation":"STEP",
					"output":59
				}
			]
		},
		{
			"channels":[
				{
					"sampler":0,
					"target":{
						"node":33,
						"path":"translation"
					}
				},
				{
					"sampler":1,
					"target":{
						"node":33,
						"path":"rotation"
					}
				},
				{
					"sampler":2,
					"target":{
						"node":33,
						"path":"scale"
					}
				}
			],
			"name":"Curve.030Action",
			"samplers":[
				{
					"input":55,
					"interpolation":"STEP",
					"output":71
				},
				{
					"input":57,
					"interpolation":"LINEAR",
					"output":72
				},
				{
					"input":55,
					"interpolation":"STEP",
					"output":59
				}
			]
		},
		{
			"channels":[
				{
					"sampler":0,
					"target":{
						"node":34,
						"path":"translation"
					}
				},
				{
					"sampler":1,
					"target":{
						"node":34,
						"path":"rotation"
					}
				},
				{
					"sampler":2,
					"target":{
						"node":34,
						"path":"scale"
					}
				}
			],
			"name":"Curve.031Action",
			"samplers":[
				{
					"input":55,
					"interpolation":"STEP",
					"output":71
				},
				{
					"input":57,
					"interpolation":"LINEAR",
					"output":72
				},
				{
					"input":55,
					"interpolation":"STEP",
					"output":59
				}
			]
		},
		{
			"channels":[
				{
					"sampler":0,
					"target":{
						"node":35,
						"path":"translation"
					}
				},
				{
					"sampler":1,
					"target":{
						"node":35,
						"path":"rotation"
					}
				},
				{
					"sampler":2,
					"target":{
						"node":35,
						"path":"scale"
					}
				}
			],
			"name":"Curve.032Action",
			"samplers":[
				{
					"input":55,
					"interpolation":"STEP",
					"output":71
				},
				{
					"input":57,
					"interpolation":"LINEAR",
					"output":72
				},
				{
					"input":55,
					"interpolation":"STEP",
					"output":59
				}
			]
		},
		{
			"channels":[
				{
					"sampler":0,
					"target":{
						"node":36,
						"path":"translation"
					}
				},
				{
					"sampler":1,
					"target":{
						"node":36,
						"path":"rotation"
					}
				},
				{
					"sampler":2,
					"target":{
						"node":36,
						"path":"scale"
					}
				}
			],
			"name":"Curve.033Action",
			"samplers":[
				{
					"input":55,
					"interpolation":"STEP",
					"output":56
				},
				{
					"input":57,
					"interpolation":"LINEAR",
					"output":73
				},
				{
					"input":55,
					"interpolation":"STEP",
					"output":59
				}
			]
		},
		{
			"channels":[
				{
					"sampler":0,
					"target":{
						"node":37,
						"path":"translation"
					}
				},
				{
					"sampler":1,
					"target":{
						"node":37,
						"path":"rotation"
					}
				},
				{
					"sampler":2,
					"target":{
						"node":37,
						"path":"scale"
					}
				}
			],
			"name":"Curve.034Action",
			"samplers":[
				{
					"input":57,
					"interpolation":"LINEAR",
					"output":74
				},
				{
					"input":55,
					"interpolation":"STEP",
					"output":61
				},
				{
					"input":55,
					"interpolation":"STEP",
					"output":59
				}
			]
		},
		{
			"channels":[
				{
					"sampler":0,
					"target":{
						"node":38,
						"path":"translation"
					}
				},
				{
					"sampler":1,
					"target":{
						"node":38,
						"path":"rotation"
					}
				},
				{
					"sampler":2,
					"target":{
						"node":38,
						"path":"scale"
					}
				}
			],
			"name":"Curve.030Action.001",
			"samplers":[
				{
					"input":55,
					"interpolation":"STEP",
					"output":71
				},
				{
					"input":57,
					"interpolation":"LINEAR",
					"output":72
				},
				{
					"input":55,
					"interpolation":"STEP",
					"output":59
				}
			]
		}
	],
	"materials":[
		{
			"doubleSided":true,
			"emissiveFactor":[
				0.8999999761581421,
				0.8999999761581421,
				0.8999999761581421
			],
			"name":"Material",
			"pbrMetallicRoughness":{
				"metallicFactor":0,
				"roughnessFactor":0
			}
		}
	],
	"meshes":[
		{
			"name":"Mesh",
			"primitives":[
				{
					"attributes":{
						"POSITION":0,
						"NORMAL":1
					},
					"indices":2,
					"material":0
				}
			]
		},
		{
			"name":"Mesh.001",
			"primitives":[
				{
					"attributes":{
						"POSITION":3,
						"NORMAL":4
					},
					"indices":2,
					"material":0
				}
			]
		},
		{
			"name":"Mesh.002",
			"primitives":[
				{
					"attributes":{
						"POSITION":5,
						"NORMAL":6
					},
					"indices":7,
					"material":0
				}
			]
		},
		{
			"name":"Mesh.003",
			"primitives":[
				{
					"attributes":{
						"POSITION":8,
						"NORMAL":9
					},
					"indices":10,
					"material":0
				}
			]
		},
		{
			"name":"Mesh.010",
			"primitives":[
				{
					"attributes":{
						"POSITION":11,
						"NORMAL":12
					},
					"indices":13,
					"material":0
				}
			]
		},
		{
			"name":"Mesh.011",
			"primitives":[
				{
					"attributes":{
						"POSITION":14,
						"NORMAL":15
					},
					"indices":16,
					"material":0
				}
			]
		},
		{
			"name":"Mesh.012",
			"primitives":[
				{
					"attributes":{
						"POSITION":17,
						"NORMAL":18
					},
					"indices":19,
					"material":0
				}
			]
		},
		{
			"name":"Mesh.013",
			"primitives":[
				{
					"attributes":{
						"POSITION":20,
						"NORMAL":21
					},
					"indices":22,
					"material":0
				}
			]
		},
		{
			"name":"Mesh.014",
			"primitives":[
				{
					"attributes":{
						"POSITION":23,
						"NORMAL":24
					},
					"indices":25,
					"material":0
				}
			]
		},
		{
			"name":"Mesh.015",
			"primitives":[
				{
					"attributes":{
						"POSITION":26,
						"NORMAL":27
					},
					"indices":28,
					"material":0
				}
			]
		},
		{
			"name":"Mesh.016",
			"primitives":[
				{
					"attributes":{
						"POSITION":29,
						"NORMAL":30
					},
					"indices":31,
					"material":0
				}
			]
		},
		{
			"name":"Mesh.017",
			"primitives":[
				{
					"attributes":{
						"POSITION":32,
						"NORMAL":33
					},
					"indices":31,
					"material":0
				}
			]
		},
		{
			"name":"Mesh.018",
			"primitives":[
				{
					"attributes":{
						"POSITION":34,
						"NORMAL":35
					},
					"indices":25,
					"material":0
				}
			]
		},
		{
			"name":"Mesh.019",
			"primitives":[
				{
					"attributes":{
						"POSITION":36,
						"NORMAL":37
					},
					"indices":38,
					"material":0
				}
			]
		},
		{
			"name":"Mesh.020",
			"primitives":[
				{
					"attributes":{
						"POSITION":39,
						"NORMAL":40
					},
					"indices":38,
					"material":0
				}
			]
		},
		{
			"name":"Mesh.031",
			"primitives":[
				{
					"attributes":{
						"POSITION":41,
						"NORMAL":42
					},
					"indices":43,
					"material":0
				}
			]
		},
		{
			"name":"Mesh.032",
			"primitives":[
				{
					"attributes":{
						"POSITION":44,
						"NORMAL":45
					},
					"indices":46,
					"material":0
				}
			]
		},
		{
			"name":"Mesh.033",
			"primitives":[
				{
					"attributes":{
						"POSITION":47,
						"NORMAL":48
					},
					"indices":49,
					"material":0
				}
			]
		},
		{
			"name":"Mesh.034",
			"primitives":[
				{
					"attributes":{
						"POSITION":50,
						"NORMAL":51
					},
					"indices":52,
					"material":0
				}
			]
		},
		{
			"name":"Mesh.035",
			"primitives":[
				{
					"attributes":{
						"POSITION":53,
						"NORMAL":54
					},
					"indices":46,
					"material":0
				}
			]
		}
	],
	"accessors":[
		{
			"bufferView":0,
			"componentType":5126,
			"count":96,
			"max":[
				1.471716284751892,
				-0.004749514162540436,
				1.5029809474945068
			],
			"min":[
				-1.215527892112732,
				-0.004749515559524298,
				-1.183624267578125
			],
			"type":"VEC3"
		},
		{
			"bufferView":1,
			"componentType":5126,
			"count":96,
			"type":"VEC3"
		},
		{
			"bufferView":2,
			"componentType":5123,
			"count":282,
			"type":"SCALAR"
		},
		{
			"bufferView":3,
			"componentType":5126,
			"count":96,
			"max":[
				1.3644696474075317,
				0.05355600640177727,
				1.3957569599151611
			],
			"min":[
				-1.1082812547683716,
				0.05355599522590637,
				-1.0764005184173584
			],
			"type":"VEC3"
		},
		{
			"bufferView":4,
			"componentType":5126,
			"count":96,
			"type":"VEC3"
		},
		{
			"bufferView":5,
			"componentType":5126,
			"count":6,
			"max":[
				1.189119815826416,
				0.0509132444858551,
				1.384626865386963
			],
			"min":[
				-0.9330021142959595,
				0.0509132444858551,
				-1.0652704238891602
			],
			"type":"VEC3"
		},
		{
			"bufferView":6,
			"componentType":5126,
			"count":6,
			"type":"VEC3"
		},
		{
			"bufferView":7,
			"componentType":5123,
			"count":12,
			"type":"SCALAR"
		},
		{
			"bufferView":8,
			"componentType":5126,
			"count":3,
			"max":[
				1.1875447034835815,
				0.09801581501960754,
				1.3828085660934448
			],
			"min":[
				-0.931427001953125,
				0.09801581501960754,
				-0.45188677310943604
			],
			"type":"VEC3"
		},
		{
			"bufferView":9,
			"componentType":5126,
			"count":3,
			"type":"VEC3"
		},
		{
			"bufferView":10,
			"componentType":5123,
			"count":3,
			"type":"SCALAR"
		},
		{
			"bufferView":11,
			"componentType":5126,
			"count":6,
			"max":[
				1.0607280731201172,
				-2.2351741790771484e-08,
				0.9184231162071228
			],
			"min":[
				-1.0607279539108276,
				-2.2351741790771484e-08,
				-0.9184231162071228
			],
			"type":"VEC3"
		},
		{
			"bufferView":12,
			"componentType":5126,
			"count":6,
			"type":"VEC3"
		},
		{
			"bufferView":13,
			"componentType":5123,
			"count":12,
			"type":"SCALAR"
		},
		{
			"bufferView":14,
			"componentType":5126,
			"count":96,
			"max":[
				1.1722776889801025,
				0.20451900362968445,
				1.2037067413330078
			],
			"min":[
				-0.916189968585968,
				0.20451891422271729,
				-0.8843492865562439
			],
			"type":"VEC3"
		},
		{
			"bufferView":15,
			"componentType":5126,
			"count":96,
			"type":"VEC3"
		},
		{
			"bufferView":16,
			"componentType":5123,
			"count":282,
			"type":"SCALAR"
		},
		{
			"bufferView":17,
			"componentType":5126,
			"count":45,
			"max":[
				1.0194412469863892,
				0.2558612823486328,
				1.049901008605957
			],
			"min":[
				-0.7623456120491028,
				0.2558612525463104,
				-0.7315244674682617
			],
			"type":"VEC3"
		},
		{
			"bufferView":18,
			"componentType":5126,
			"count":45,
			"type":"VEC3"
		},
		{
			"bufferView":19,
			"componentType":5123,
			"count":129,
			"type":"SCALAR"
		},
		{
			"bufferView":20,
			"componentType":5126,
			"count":8,
			"max":[
				1.1634868383407593,
				-0.30986112356185913,
				-0.5103981494903564
			],
			"min":[
				0.9479221105575562,
				-0.31148502230644226,
				-0.7245612144470215
			],
			"type":"VEC3"
		},
		{
			"bufferView":21,
			"componentType":5126,
			"count":8,
			"type":"VEC3"
		},
		{
			"bufferView":22,
			"componentType":5123,
			"count":18,
			"type":"SCALAR"
		},
		{
			"bufferView":23,
			"componentType":5126,
			"count":8,
			"max":[
				1.1634868383407593,
				-0.30986112356185913,
				0.7170339226722717
			],
			"min":[
				0.9479221105575562,
				-0.31148502230644226,
				0.5028708577156067
			],
			"type":"VEC3"
		},
		{
			"bufferView":24,
			"componentType":5126,
			"count":8,
			"type":"VEC3"
		},
		{
			"bufferView":25,
			"componentType":5123,
			"count":18,
			"type":"SCALAR"
		},
		{
			"bufferView":26,
			"componentType":5126,
			"count":8,
			"max":[
				0.10237005352973938,
				-0.30986112356185913,
				1.3312599658966064
			],
			"min":[
				-0.1152891218662262,
				-0.3114578127861023,
				1.1165885925292969
			],
			"type":"VEC3"
		},
		{
			"bufferView":27,
			"componentType":5126,
			"count":8,
			"type":"VEC3"
		},
		{
			"bufferView":28,
			"componentType":5123,
			"count":18,
			"type":"SCALAR"
		},
		{
			"bufferView":29,
			"componentType":5126,
			"count":7,
			"max":[
				-0.9629237651824951,
				-0.3108755052089691,
				0.7152988910675049
			],
			"min":[
				-1.1789965629577637,
				-0.31146642565727234,
				0.5028708577156067
			],
			"type":"VEC3"
		},
		{
			"bufferView":30,
			"componentType":5126,
			"count":7,
			"type":"VEC3"
		},
		{
			"bufferView":31,
			"componentType":5123,
			"count":15,
			"type":"SCALAR"
		},
		{
			"bufferView":32,
			"componentType":5126,
			"count":7,
			"max":[
				-0.9629237651824951,
				-0.3108755052089691,
				-0.5121332406997681
			],
			"min":[
				-1.1789965629577637,
				-0.31146642565727234,
				-0.7245611548423767
			],
			"type":"VEC3"
		},
		{
			"bufferView":33,
			"componentType":5126,
			"count":7,
			"type":"VEC3"
		},
		{
			"bufferView":34,
			"componentType":5126,
			"count":8,
			"max":[
				0.10027580708265305,
				-0.31071048974990845,
				-1.1242669820785522
			],
			"min":[
				-0.11555002629756927,
				-0.31149110198020935,
				-1.3382773399353027
			],
			"type":"VEC3"
		},
		{
			"bufferView":35,
			"componentType":5126,
			"count":8,
			"type":"VEC3"
		},
		{
			"bufferView":36,
			"componentType":5126,
			"count":3,
			"max":[
				0.7582447528839111,
				-0.004749476909637451,
				0.43768012523651123
			],
			"min":[
				-0.7582447528839111,
				-0.004749476909637451,
				-0.8753610253334045
			],
			"type":"VEC3"
		},
		{
			"bufferView":37,
			"componentType":5126,
			"count":3,
			"type":"VEC3"
		},
		{
			"bufferView":38,
			"componentType":5123,
			"count":3,
			"type":"SCALAR"
		},
		{
			"bufferView":39,
			"componentType":5126,
			"count":3,
			"max":[
				0.7582447528839111,
				-0.004749506711959839,
				0.43768012523651123
			],
			"min":[
				-0.7582447528839111,
				-0.004749506711959839,
				-0.8753610253334045
			],
			"type":"VEC3"
		},
		{
			"bufferView":40,
			"componentType":5126,
			"count":3,
			"type":"VEC3"
		},
		{
			"bufferView":41,
			"componentType":5126,
			"count":7,
			"max":[
				-0.6818283796310425,
				-0.13409949839115143,
				0.5337038636207581
			],
			"min":[
				-0.849517822265625,
				-0.13409951329231262,
				0.3489961326122284
			],
			"type":"VEC3"
		},
		{
			"bufferView":42,
			"componentType":5126,
			"count":7,
			"type":"VEC3"
		},
		{
			"bufferView":43,
			"componentType":5123,
			"count":15,
			"type":"SCALAR"
		},
		{
			"bufferView":44,
			"componentType":5126,
			"count":7,
			"max":[
				0.07859647274017334,
				-0.13409948348999023,
				-0.7946891784667969
			],
			"min":[
				-0.0966242179274559,
				-0.13409952819347382,
				-0.9736285209655762
			],
			"type":"VEC3"
		},
		{
			"bufferView":45,
			"componentType":5126,
			"count":7,
			"type":"VEC3"
		},
		{
			"bufferView":46,
			"componentType":5123,
			"count":15,
			"type":"SCALAR"
		},
		{
			"bufferView":47,
			"componentType":5126,
			"count":11,
			"max":[
				0.1515638828277588,
				0.011834281496703625,
				-0.4352641999721527
			],
			"min":[
				-0.17004141211509705,
				0.011834278702735901,
				-0.7522923350334167
			],
			"type":"VEC3"
		},
		{
			"bufferView":48,
			"componentType":5126,
			"count":11,
			"type":"VEC3"
		},
		{
			"bufferView":49,
			"componentType":5123,
			"count":27,
			"type":"SCALAR"
		},
		{
			"bufferView":50,
			"componentType":5126,
			"count":7,
			"max":[
				0.08930651843547821,
				0.00011068582534790039,
				0.08987898379564285
			],
			"min":[
				-0.08435332030057907,
				0.00011068582534790039,
				-0.08267699927091599
			],
			"type":"VEC3"
		},
		{
			"bufferView":51,
			"componentType":5126,
			"count":7,
			"type":"VEC3"
		},
		{
			"bufferView":52,
			"componentType":5123,
			"count":15,
			"type":"SCALAR"
		},
		{
			"bufferView":53,
			"componentType":5126,
			"count":7,
			"max":[
				0.8428325653076172,
				-0.13409948348999023,
				0.5287262797355652
			],
			"min":[
				0.6676115989685059,
				-0.13409952819347382,
				0.3497869372367859
			],
			"type":"VEC3"
		},
		{
			"bufferView":54,
			"componentType":5126,
			"count":7,
			"type":"VEC3"
		},
		{
			"bufferView":55,
			"componentType":5126,
			"count":2,
			"max":[
				10
			],
			"min":[
				0.016666666666666666
			],
			"type":"SCALAR"
		},
		{
			"bufferView":56,
			"componentType":5126,
			"count":2,
			"type":"VEC3"
		},
		{
			"bufferView":57,
			"componentType":5126,
			"count":600,
			"max":[
				10
			],
			"min":[
				0.016666666666666666
			],
			"type":"SCALAR"
		},
		{
			"bufferView":58,
			"componentType":5126,
			"count":600,
			"type":"VEC4"
		},
		{
			"bufferView":59,
			"componentType":5126,
			"count":2,
			"type":"VEC3"
		},
		{
			"bufferView":60,
			"componentType":5126,
			"count":600,
			"type":"VEC3"
		},
		{
			"bufferView":61,
			"componentType":5126,
			"count":2,
			"type":"VEC4"
		},
		{
			"bufferView":62,
			"componentType":5126,
			"count":600,
			"type":"VEC3"
		},
		{
			"bufferView":63,
			"componentType":5126,
			"count":2,
			"type":"VEC3"
		},
		{
			"bufferView":64,
			"componentType":5126,
			"count":600,
			"type":"VEC3"
		},
		{
			"bufferView":65,
			"componentType":5126,
			"count":600,
			"type":"VEC4"
		},
		{
			"bufferView":66,
			"componentType":5126,
			"count":600,
			"type":"VEC3"
		},
		{
			"bufferView":67,
			"componentType":5126,
			"count":600,
			"type":"VEC4"
		},
		{
			"bufferView":68,
			"componentType":5126,
			"count":2,
			"type":"VEC3"
		},
		{
			"bufferView":69,
			"componentType":5126,
			"count":600,
			"type":"VEC3"
		},
		{
			"bufferView":70,
			"componentType":5126,
			"count":600,
			"type":"VEC4"
		},
		{
			"bufferView":71,
			"componentType":5126,
			"count":2,
			"type":"VEC3"
		},
		{
			"bufferView":72,
			"componentType":5126,
			"count":600,
			"type":"VEC4"
		},
		{
			"bufferView":73,
			"componentType":5126,
			"count":600,
			"type":"VEC4"
		},
		{
			"bufferView":74,
			"componentType":5126,
			"count":600,
			"type":"VEC3"
		}
	],
	"bufferViews":[
		{
			"buffer":0,
			"byteLength":1152,
			"byteOffset":0,
			"target":34962
		},
		{
			"buffer":0,
			"byteLength":1152,
			"byteOffset":1152,
			"target":34962
		},
		{
			"buffer":0,
			"byteLength":564,
			"byteOffset":2304,
			"target":34963
		},
		{
			"buffer":0,
			"byteLength":1152,
			"byteOffset":2868,
			"target":34962
		},
		{
			"buffer":0,
			"byteLength":1152,
			"byteOffset":4020,
			"target":34962
		},
		{
			"buffer":0,
			"byteLength":72,
			"byteOffset":5172,
			"target":34962
		},
		{
			"buffer":0,
			"byteLength":72,
			"byteOffset":5244,
			"target":34962
		},
		{
			"buffer":0,
			"byteLength":24,
			"byteOffset":5316,
			"target":34963
		},
		{
			"buffer":0,
			"byteLength":36,
			"byteOffset":5340,
			"target":34962
		},
		{
			"buffer":0,
			"byteLength":36,
			"byteOffset":5376,
			"target":34962
		},
		{
			"buffer":0,
			"byteLength":6,
			"byteOffset":5412,
			"target":34963
		},
		{
			"buffer":0,
			"byteLength":72,
			"byteOffset":5420,
			"target":34962
		},
		{
			"buffer":0,
			"byteLength":72,
			"byteOffset":5492,
			"target":34962
		},
		{
			"buffer":0,
			"byteLength":24,
			"byteOffset":5564,
			"target":34963
		},
		{
			"buffer":0,
			"byteLength":1152,
			"byteOffset":5588,
			"target":34962
		},
		{
			"buffer":0,
			"byteLength":1152,
			"byteOffset":6740,
			"target":34962
		},
		{
			"buffer":0,
			"byteLength":564,
			"byteOffset":7892,
			"target":34963
		},
		{
			"buffer":0,
			"byteLength":540,
			"byteOffset":8456,
			"target":34962
		},
		{
			"buffer":0,
			"byteLength":540,
			"byteOffset":8996,
			"target":34962
		},
		{
			"buffer":0,
			"byteLength":258,
			"byteOffset":9536,
			"target":34963
		},
		{
			"buffer":0,
			"byteLength":96,
			"byteOffset":9796,
			"target":34962
		},
		{
			"buffer":0,
			"byteLength":96,
			"byteOffset":9892,
			"target":34962
		},
		{
			"buffer":0,
			"byteLength":36,
			"byteOffset":9988,
			"target":34963
		},
		{
			"buffer":0,
			"byteLength":96,
			"byteOffset":10024,
			"target":34962
		},
		{
			"buffer":0,
			"byteLength":96,
			"byteOffset":10120,
			"target":34962
		},
		{
			"buffer":0,
			"byteLength":36,
			"byteOffset":10216,
			"target":34963
		},
		{
			"buffer":0,
			"byteLength":96,
			"byteOffset":10252,
			"target":34962
		},
		{
			"buffer":0,
			"byteLength":96,
			"byteOffset":10348,
			"target":34962
		},
		{
			"buffer":0,
			"byteLength":36,
			"byteOffset":10444,
			"target":34963
		},
		{
			"buffer":0,
			"byteLength":84,
			"byteOffset":10480,
			"target":34962
		},
		{
			"buffer":0,
			"byteLength":84,
			"byteOffset":10564,
			"target":34962
		},
		{
			"buffer":0,
			"byteLength":30,
			"byteOffset":10648,
			"target":34963
		},
		{
			"buffer":0,
			"byteLength":84,
			"byteOffset":10680,
			"target":34962
		},
		{
			"buffer":0,
			"byteLength":84,
			"byteOffset":10764,
			"target":34962
		},
		{
			"buffer":0,
			"byteLength":96,
			"byteOffset":10848,
			"target":34962
		},
		{
			"buffer":0,
			"byteLength":96,
			"byteOffset":10944,
			"target":34962
		},
		{
			"buffer":0,
			"byteLength":36,
			"byteOffset":11040,
			"target":34962
		},
		{
			"buffer":0,
			"byteLength":36,
			"byteOffset":11076,
			"target":34962
		},
		{
			"buffer":0,
			"byteLength":6,
			"byteOffset":11112,
			"target":34963
		},
		{
			"buffer":0,
			"byteLength":36,
			"byteOffset":11120,
			"target":34962
		},
		{
			"buffer":0,
			"byteLength":36,
			"byteOffset":11156,
			"target":34962
		},
		{
			"buffer":0,
			"byteLength":84,
			"byteOffset":11192,
			"target":34962
		},
		{
			"buffer":0,
			"byteLength":84,
			"byteOffset":11276,
			"target":34962
		},
		{
			"buffer":0,
			"byteLength":30,
			"byteOffset":11360,
			"target":34963
		},
		{
			"buffer":0,
			"byteLength":84,
			"byteOffset":11392,
			"target":34962
		},
		{
			"buffer":0,
			"byteLength":84,
			"byteOffset":11476,
			"target":34962
		},
		{
			"buffer":0,
			"byteLength":30,
			"byteOffset":11560,
			"target":34963
		},
		{
			"buffer":0,
			"byteLength":132,
			"byteOffset":11592,
			"target":34962
		},
		{
			"buffer":0,
			"byteLength":132,
			"byteOffset":11724,
			"target":34962
		},
		{
			"buffer":0,
			"byteLength":54,
			"byteOffset":11856,
			"target":34963
		},
		{
			"buffer":0,
			"byteLength":84,
			"byteOffset":11912,
			"target":34962
		},
		{
			"buffer":0,
			"byteLength":84,
			"byteOffset":11996,
			"target":34962
		},
		{
			"buffer":0,
			"byteLength":30,
			"byteOffset":12080,
			"target":34963
		},
		{
			"buffer":0,
			"byteLength":84,
			"byteOffset":12112,
			"target":34962
		},
		{
			"buffer":0,
			"byteLength":84,
			"byteOffset":12196,
			"target":34962
		},
		{
			"buffer":0,
			"byteLength":8,
			"byteOffset":12280
		},
		{
			"buffer":0,
			"byteLength":24,
			"byteOffset":12288
		},
		{
			"buffer":0,
			"byteLength":2400,
			"byteOffset":12312
		},
		{
			"buffer":0,
			"byteLength":9600,
			"byteOffset":14712
		},
		{
			"buffer":0,
			"byteLength":24,
			"byteOffset":24312
		},
		{
			"buffer":0,
			"byteLength":7200,
			"byteOffset":24336
		},
		{
			"buffer":0,
			"byteLength":32,
			"byteOffset":31536
		},
		{
			"buffer":0,
			"byteLength":7200,
			"byteOffset":31568
		},
		{
			"buffer":0,
			"byteLength":24,
			"byteOffset":38768
		},
		{
			"buffer":0,
			"byteLength":7200,
			"byteOffset":38792
		},
		{
			"buffer":0,
			"byteLength":9600,
			"byteOffset":45992
		},
		{
			"buffer":0,
			"byteLength":7200,
			"byteOffset":55592
		},
		{
			"buffer":0,
			"byteLength":9600,
			"byteOffset":62792
		},
		{
			"buffer":0,
			"byteLength":24,
			"byteOffset":72392
		},
		{
			"buffer":0,
			"byteLength":7200,
			"byteOffset":72416
		},
		{
			"buffer":0,
			"byteLength":9600,
			"byteOffset":79616
		},
		{
			"buffer":0,
			"byteLength":24,
			"byteOffset":89216
		},
		{
			"buffer":0,
			"byteLength":9600,
			"byteOffset":89240
		},
		{
			"buffer":0,
			"byteLength":9600,
			"byteOffset":98840
		},
		{
			"buffer":0,
			"byteLength":7200,
			"byteOffset":108440
		}
	],
	"buffers":[
		{
			"byteLength":115640,
			"uri":"SpellCircle-7199ae663f8638a2d22bb6739861e925.bin"
		}
	]
}
