{
	"asset":{
		"generator":"Khronos glTF Blender I/O v5.0.21",
		"version":"2.0"
	},
	"scene":0,
	"scenes":[
		{
			"name":"Scene",
			"nodes":[
				0,
				1,
				2,
				3
			]
		}
	],
	"nodes":[
		{
			"mesh":0,
			"name":"Body",
			"rotation":[
				0,
				0,
				-0.018794097006320953,
				0.9998233914375305
			],
			"scale":[
				1.039311170578003,
				1.039311170578003,
				1.455836534500122
			],
			"translation":[
				-0.051769763231277466,
				1.664413571357727,
				0.6952017545700073
			]
		},
		{
			"mesh":1,
			"name":"LegsShortest",
			"scale":[
				0.05039491131901741,
				3.2282681465148926,
				0.05039491131901741
			],
			"translation":[
				-0.2353382706642151,
				-1.1867094039916992,
				-0.040562521666288376
			]
		},
		{
			"mesh":2,
			"name":"LegsLongest",
			"rotation":[
				0,
				-0.59406578540802,
				0,
				0.8044164776802063
			],
			"scale":[
				0.05039491131901741,
				3.2282681465148926,
				0.05039491131901741
			],
			"translation":[
				-0.2353382706642151,
				-1.1867094039916992,
				-0.040562521666288376
			]
		},
		{
			"mesh":3,
			"name":"Legs Middle",
			"scale":[
				0.05039491131901741,
				3.2282681465148926,
				0.05039491131901741
			],
			"translation":[
				-0.2353382706642151,
				-1.1867094039916992,
				-0.040562521666288376
			]
		}
	],
	"animations":[
		{
			"channels":[
				{
					"sampler":0,
					"target":{
						"node":0,
						"path":"translation"
					}
				},
				{
					"sampler":1,
					"target":{
						"node":0,
						"path":"rotation"
					}
				},
				{
					"sampler":2,
					"target":{
						"node":0,
						"path":"scale"
					}
				},
				{
					"sampler":3,
					"target":{
						"node":1,
						"path":"translation"
					}
				},
				{
					"sampler":4,
					"target":{
						"node":1,
						"path":"rotation"
					}
				},
				{
					"sampler":5,
					"target":{
						"node":1,
						"path":"scale"
					}
				},
				{
					"sampler":6,
					"target":{
						"node":1,
						"path":"weights"
					}
				},
				{
					"sampler":7,
					"target":{
						"node":2,
						"path":"translation"
					}
				},
				{
					"sampler":8,
					"target":{
						"node":2,
						"path":"rotation"
					}
				},
				{
					"sampler":9,
					"target":{
						"node":2,
						"path":"scale"
					}
				},
				{
					"sampler":10,
					"target":{
						"node":2,
						"path":"weights"
					}
				},
				{
					"sampler":11,
					"target":{
						"node":3,
						"path":"translation"
					}
				},
				{
					"sampler":12,
					"target":{
						"node":3,
						"path":"rotation"
					}
				},
				{
					"sampler":13,
					"target":{
						"node":3,
						"path":"scale"
					}
				},
				{
					"sampler":14,
					"target":{
						"node":3,
						"path":"weights"
					}
				}
			],
			"name":"Float",
			"samplers":[
				{
					"input":35,
					"interpolation":"LINEAR",
					"output":36
				},
				{
					"input":35,
					"interpolation":"LINEAR",
					"output":37
				},
				{
					"input":35,
					"interpolation":"LINEAR",
					"output":38
				},
				{
					"input":39,
					"interpolation":"STEP",
					"output":40
				},
				{
					"input":39,
					"interpolation":"STEP",
					"output":41
				},
				{
					"input":39,
					"interpolation":"STEP",
					"output":42
				},
				{
					"input":35,
					"interpolation":"LINEAR",
					"output":43
				},
				{
					"input":39,
					"interpolation":"STEP",
					"output":40
				},
				{
					"input":39,
					"interpolation":"STEP",
					"output":44
				},
				{
					"input":39,
					"interpolation":"STEP",
					"output":42
				},
				{
					"input":35,
					"interpolation":"LINEAR",
					"output":45
				},
				{
					"input":39,
					"interpolation":"STEP",
					"output":40
				},
				{
					"input":39,
					"interpolation":"STEP",
					"output":41
				},
				{
					"input":39,
					"interpolation":"STEP",
					"output":42
				},
				{
					"input":35,
					"interpolation":"LINEAR",
					"output":46
				}
			]
		}
	],
	"materials":[
		{
			"doubleSided":true,
			"name":"squid_sack",
			"normalTexture":{
				"index":0
			},
			"pbrMetallicRoughness":{
				"baseColorTexture":{
					"index":1
				},
				"metallicFactor":0,
				"metallicRoughnessTexture":{
					"index":2
				}
			}
		},
		{
			"doubleSided":true,
			"name":"squid_legs",
			"normalTexture":{
				"index":3
			},
			"pbrMetallicRoughness":{
				"baseColorTexture":{
					"index":4
				},
				"metallicFactor":0
			}
		}
	],
	"meshes":[
		{
			"name":"Sphere.002",
			"primitives":[
				{
					"attributes":{
						"POSITION":0,
						"NORMAL":1,
						"TEXCOORD_0":2,
						"TANGENT":3
					},
					"indices":4,
					"material":0
				}
			]
		},
		{
			"extras":{
				"targetNames":[
					"Float",
					"SimpleDeform",
					"Key 3"
				]
			},
			"name":"Cylinder",
			"primitives":[
				{
					"attributes":{
						"POSITION":5,
						"NORMAL":6,
						"TEXCOORD_0":7
					},
					"indices":8,
					"material":1,
					"targets":[
						{
							"POSITION":9,
							"NORMAL":10
						},
						{
							"POSITION":11,
							"NORMAL":12
						},
						{
							"POSITION":13,
							"NORMAL":14
						}
					]
				}
			],
			"weights":[
				0,
				0,
				0.43023258447647095
			]
		},
		{
			"extras":{
				"targetNames":[
					"Float",
					"Deform",
					"SimpleDeform",
					"SimpleDeform.001",
					"SimpleDeform.002"
				]
			},
			"name":"Cylinder.001",
			"primitives":[
				{
					"attributes":{
						"POSITION":15,
						"NORMAL":16,
						"TEXCOORD_0":17
					},
					"indices":8,
					"material":1,
					"targets":[
						{
							"POSITION":18,
							"NORMAL":19
						},
						{
							"POSITION":20,
							"NORMAL":21
						},
						{
							"POSITION":22,
							"NORMAL":23
						},
						{
							"POSITION":24,
							"NORMAL":25
						},
						{
							"POSITION":26,
							"NORMAL":27
						}
					]
				}
			],
			"weights":[
				0,
				0,
				1,
				0,
				0
			]
		},
		{
			"extras":{
				"targetNames":[
					"Float",
					"SimpleDeform"
				]
			},
			"name":"Cylinder.006",
			"primitives":[
				{
					"attributes":{
						"POSITION":28,
						"NORMAL":29,
						"TEXCOORD_0":30
					},
					"indices":8,
					"material":1,
					"targets":[
						{
							"POSITION":31,
							"NORMAL":32
						},
						{
							"POSITION":33,
							"NORMAL":34
						}
					]
				}
			],
			"weights":[
				0.5400000214576721,
				0
			]
		}
	],
	"textures":[
		{
			"sampler":0,
			"source":0
		},
		{
			"sampler":0,
			"source":1
		},
		{
			"sampler":0,
			"source":2
		},
		{
			"sampler":0,
			"source":3
		},
		{
			"sampler":0,
			"source":4
		}
	],
	"images":[
		{
			"mimeType":"image/png",
			"name":"squid_sack_normal.001",
			"uri":"../../textures/squid/squid_sack_normal.001.png"
		},
		{
			"mimeType":"image/png",
			"name":"squid_sack_diffuse",
			"uri":"../../textures/squid/squid_sack_diffuse.png"
		},
		{
			"mimeType":"image/png",
			"name":"squid_sack_roughness",
			"uri":"../../textures/squid/squid_sack_roughness.png"
		},
		{
			"mimeType":"image/png",
			"name":"squid_legs_normal",
			"uri":"../../textures/squid/squid_legs_normal.png"
		},
		{
			"mimeType":"image/png",
			"name":"squid_legs_albedo",
			"uri":"../../textures/squid/squid_legs_albedo.png"
		}
	],
	"accessors":[
		{
			"bufferView":0,
			"componentType":5126,
			"count":602,
			"max":[
				1.3919850587844849,
				1.2210313081741333,
				0.7356458902359009
			],
			"min":[
				-1.3894833326339722,
				-2.949031352996826,
				-0.8995381593704224
			],
			"type":"VEC3"
		},
		{
			"bufferView":1,
			"componentType":5126,
			"count":602,
			"type":"VEC3"
		},
		{
			"bufferView":2,
			"componentType":5126,
			"count":602,
			"type":"VEC2"
		},
		{
			"bufferView":3,
			"componentType":5126,
			"count":602,
			"type":"VEC4"
		},
		{
			"bufferView":4,
			"componentType":5123,
			"count":3216,
			"type":"SCALAR"
		},
		{
			"bufferView":5,
			"componentType":5126,
			"count":3063,
			"max":[
				70.21833801269531,
				0.008662663400173187,
				53.19769287109375
			],
			"min":[
				-49.122161865234375,
				-1.6723196506500244,
				-68.73005676269531
			],
			"type":"VEC3"
		},
		{
			"bufferView":6,
			"componentType":5126,
			"count":3063,
			"type":"VEC3"
		},
		{
			"bufferView":7,
			"componentType":5126,
			"count":3063,
			"type":"VEC2"
		},
		{
			"bufferView":8,
			"componentType":5123,
			"count":16668,
			"type":"SCALAR"
		},
		{
			"bufferView":9,
			"componentType":5126,
			"count":3063,
			"max":[
				7.528949737548828,
				0.015488103032112122,
				9.892403602600098
			],
			"min":[
				-11.422769546508789,
				-0.2838073968887329,
				-9.892416000366211
			],
			"type":"VEC3"
		},
		{
			"bufferView":10,
			"componentType":5126,
			"count":3063,
			"type":"VEC3"
		},
		{
			"bufferView":11,
			"componentType":5126,
			"count":3063,
			"max":[
				0.0081939697265625,
				1.10953688621521,
				0.014190673828125
			],
			"min":[
				-0.01638031005859375,
				-0.00041975826025009155,
				-0.014184951782226562
			],
			"type":"VEC3"
		},
		{
			"bufferView":12,
			"componentType":5126,
			"count":3063,
			"type":"VEC3"
		},
		{
			"bufferView":13,
			"componentType":5126,
			"count":3063,
			"max":[
				22.954099655151367,
				0.2306194305419922,
				32.11659240722656
			],
			"min":[
				-32.812042236328125,
				-0.2678753733634949,
				-24.85853385925293
			],
			"type":"VEC3"
		},
		{
			"bufferView":14,
			"componentType":5126,
			"count":3063,
			"type":"VEC3"
		},
		{
			"bufferView":15,
			"componentType":5126,
			"count":3063,
			"max":[
				59.533836364746094,
				0.008662663400173187,
				71.72698211669922
			],
			"min":[
				-65.01205444335938,
				-1.6723196506500244,
				-41.16196060180664
			],
			"type":"VEC3"
		},
		{
			"bufferView":16,
			"componentType":5126,
			"count":3063,
			"type":"VEC3"
		},
		{
			"bufferView":17,
			"componentType":5126,
			"count":3063,
			"type":"VEC2"
		},
		{
			"bufferView":18,
			"componentType":5126,
			"count":3063,
			"max":[
				18.620376586914062,
				0.29382550716400146,
				15.530776977539062
			],
			"min":[
				-13.163492202758789,
				-0.012889951467514038,
				-16.720680236816406
			],
			"type":"VEC3"
		},
		{
			"bufferView":19,
			"componentType":5126,
			"count":3063,
			"type":"VEC3"
		},
		{
			"bufferView":20,
			"componentType":5126,
			"count":3063,
			"max":[
				10.514625549316406,
				0.06831932067871094,
				9.997220039367676
			],
			"min":[
				-10.780563354492188,
				-0.07021462917327881,
				-10.249641418457031
			],
			"type":"VEC3"
		},
		{
			"bufferView":21,
			"componentType":5126,
			"count":3063,
			"type":"VEC3"
		},
		{
			"bufferView":22,
			"componentType":5126,
			"count":3063,
			"max":[
				0.9330482482910156,
				0.002664990723133087,
				1.3102264404296875
			],
			"min":[
				-1.3363256454467773,
				-6.8928751945495605,
				-1.004364013671875
			],
			"type":"VEC3"
		},
		{
			"bufferView":23,
			"componentType":5126,
			"count":3063,
			"type":"VEC3"
		},
		{
			"bufferView":24,
			"componentType":5126,
			"count":3063,
			"max":[
				40.34950256347656,
				0.002664990723133087,
				109.41839599609375
			],
			"min":[
				-26.017051696777344,
				-6.8928751945495605,
				-24.608428955078125
			],
			"type":"VEC3"
		},
		{
			"bufferView":25,
			"componentType":5126,
			"count":3063,
			"type":"VEC3"
		},
		{
			"bufferView":26,
			"componentType":5126,
			"count":3063,
			"max":[
				90.12873840332031,
				0.002664990723133087,
				86.94175720214844
			],
			"min":[
				-102.70989990234375,
				-6.8928751945495605,
				-104.3211669921875
			],
			"type":"VEC3"
		},
		{
			"bufferView":27,
			"componentType":5126,
			"count":3063,
			"type":"VEC3"
		},
		{
			"bufferView":28,
			"componentType":5126,
			"count":3063,
			"max":[
				70.21833801269531,
				0.008662663400173187,
				53.19769287109375
			],
			"min":[
				-49.122161865234375,
				-1.6723196506500244,
				-68.73005676269531
			],
			"type":"VEC3"
		},
		{
			"bufferView":29,
			"componentType":5126,
			"count":3063,
			"type":"VEC3"
		},
		{
			"bufferView":30,
			"componentType":5126,
			"count":3063,
			"type":"VEC2"
		},
		{
			"bufferView":31,
			"componentType":5126,
			"count":3063,
			"max":[
				44.6940803527832,
				0.09733451157808304,
				30.443679809570312
			],
			"min":[
				-37.22705078125,
				-6.497723579406738,
				-47.181697845458984
			],
			"type":"VEC3"
		},
		{
			"bufferView":32,
			"componentType":5126,
			"count":3063,
			"type":"VEC3"
		},
		{
			"bufferView":33,
			"componentType":5126,
			"count":3063,
			"max":[
				0.0081939697265625,
				1.10953688621521,
				0.014190673828125
			],
			"min":[
				-0.01638031005859375,
				-0.00041975826025009155,
				-0.014184951782226562
			],
			"type":"VEC3"
		},
		{
			"bufferView":34,
			"componentType":5126,
			"count":3063,
			"type":"VEC3"
		},
		{
			"bufferView":35,
			"componentType":5126,
			"count":601,
			"max":[
				10
			],
			"min":[
				0
			],
			"type":"SCALAR"
		},
		{
			"bufferView":36,
			"componentType":5126,
			"count":601,
			"type":"VEC3"
		},
		{
			"bufferView":37,
			"componentType":5126,
			"count":601,
			"type":"VEC4"
		},
		{
			"bufferView":38,
			"componentType":5126,
			"count":601,
			"type":"VEC3"
		},
		{
			"bufferView":39,
			"componentType":5126,
			"count":2,
			"max":[
				10
			],
			"min":[
				0
			],
			"type":"SCALAR"
		},
		{
			"bufferView":40,
			"componentType":5126,
			"count":2,
			"type":"VEC3"
		},
		{
			"bufferView":41,
			"componentType":5126,
			"count":2,
			"type":"VEC4"
		},
		{
			"bufferView":42,
			"componentType":5126,
			"count":2,
			"type":"VEC3"
		},
		{
			"bufferView":43,
			"componentType":5126,
			"count":1803,
			"type":"SCALAR"
		},
		{
			"bufferView":44,
			"componentType":5126,
			"count":2,
			"type":"VEC4"
		},
		{
			"bufferView":45,
			"componentType":5126,
			"count":3005,
			"type":"SCALAR"
		},
		{
			"bufferView":46,
			"componentType":5126,
			"count":1202,
			"type":"SCALAR"
		}
	],
	"bufferViews":[
		{
			"buffer":0,
			"byteLength":7224,
			"byteOffset":0,
			"target":34962
		},
		{
			"buffer":0,
			"byteLength":7224,
			"byteOffset":7224,
			"target":34962
		},
		{
			"buffer":0,
			"byteLength":4816,
			"byteOffset":14448,
			"target":34962
		},
		{
			"buffer":0,
			"byteLength":9632,
			"byteOffset":19264,
			"target":34962
		},
		{
			"buffer":0,
			"byteLength":6432,
			"byteOffset":28896,
			"target":34963
		},
		{
			"buffer":0,
			"byteLength":36756,
			"byteOffset":35328,
			"target":34962
		},
		{
			"buffer":0,
			"byteLength":36756,
			"byteOffset":72084,
			"target":34962
		},
		{
			"buffer":0,
			"byteLength":24504,
			"byteOffset":108840,
			"target":34962
		},
		{
			"buffer":0,
			"byteLength":33336,
			"byteOffset":133344,
			"target":34963
		},
		{
			"buffer":0,
			"byteLength":36756,
			"byteOffset":166680,
			"target":34962
		},
		{
			"buffer":0,
			"byteLength":36756,
			"byteOffset":203436,
			"target":34962
		},
		{
			"buffer":0,
			"byteLength":36756,
			"byteOffset":240192,
			"target":34962
		},
		{
			"buffer":0,
			"byteLength":36756,
			"byteOffset":276948,
			"target":34962
		},
		{
			"buffer":0,
			"byteLength":36756,
			"byteOffset":313704,
			"target":34962
		},
		{
			"buffer":0,
			"byteLength":36756,
			"byteOffset":350460,
			"target":34962
		},
		{
			"buffer":0,
			"byteLength":36756,
			"byteOffset":387216,
			"target":34962
		},
		{
			"buffer":0,
			"byteLength":36756,
			"byteOffset":423972,
			"target":34962
		},
		{
			"buffer":0,
			"byteLength":24504,
			"byteOffset":460728,
			"target":34962
		},
		{
			"buffer":0,
			"byteLength":36756,
			"byteOffset":485232,
			"target":34962
		},
		{
			"buffer":0,
			"byteLength":36756,
			"byteOffset":521988,
			"target":34962
		},
		{
			"buffer":0,
			"byteLength":36756,
			"byteOffset":558744,
			"target":34962
		},
		{
			"buffer":0,
			"byteLength":36756,
			"byteOffset":595500,
			"target":34962
		},
		{
			"buffer":0,
			"byteLength":36756,
			"byteOffset":632256,
			"target":34962
		},
		{
			"buffer":0,
			"byteLength":36756,
			"byteOffset":669012,
			"target":34962
		},
		{
			"buffer":0,
			"byteLength":36756,
			"byteOffset":705768,
			"target":34962
		},
		{
			"buffer":0,
			"byteLength":36756,
			"byteOffset":742524,
			"target":34962
		},
		{
			"buffer":0,
			"byteLength":36756,
			"byteOffset":779280,
			"target":34962
		},
		{
			"buffer":0,
			"byteLength":36756,
			"byteOffset":816036,
			"target":34962
		},
		{
			"buffer":0,
			"byteLength":36756,
			"byteOffset":852792,
			"target":34962
		},
		{
			"buffer":0,
			"byteLength":36756,
			"byteOffset":889548,
			"target":34962
		},
		{
			"buffer":0,
			"byteLength":24504,
			"byteOffset":926304,
			"target":34962
		},
		{
			"buffer":0,
			"byteLength":36756,
			"byteOffset":950808,
			"target":34962
		},
		{
			"buffer":0,
			"byteLength":36756,
			"byteOffset":987564,
			"target":34962
		},
		{
			"buffer":0,
			"byteLength":36756,
			"byteOffset":1024320,
			"target":34962
		},
		{
			"buffer":0,
			"byteLength":36756,
			"byteOffset":1061076,
			"target":34962
		},
		{
			"buffer":0,
			"byteLength":2404,
			"byteOffset":1097832
		},
		{
			"buffer":0,
			"byteLength":7212,
			"byteOffset":1100236
		},
		{
			"buffer":0,
			"byteLength":9616,
			"byteOffset":1107448
		},
		{
			"buffer":0,
			"byteLength":7212,
			"byteOffset":1117064
		},
		{
			"buffer":0,
			"byteLength":8,
			"byteOffset":1124276
		},
		{
			"buffer":0,
			"byteLength":24,
			"byteOffset":1124284
		},
		{
			"buffer":0,
			"byteLength":32,
			"byteOffset":1124308
		},
		{
			"buffer":0,
			"byteLength":24,
			"byteOffset":1124340
		},
		{
			"buffer":0,
			"byteLength":7212,
			"byteOffset":1124364
		},
		{
			"buffer":0,
			"byteLength":32,
			"byteOffset":1131576
		},
		{
			"buffer":0,
			"byteLength":12020,
			"byteOffset":1131608
		},
		{
			"buffer":0,
			"byteLength":4808,
			"byteOffset":1143628
		}
	],
	"samplers":[
		{
			"magFilter":9729,
			"minFilter":9987
		}
	],
	"buffers":[
		{
			"byteLength":1148436,
			"uri":"Squid-ca5e1b69961aabc56b7932df1cc13655.bin"
		}
	]
}
