{
	"asset":{
		"generator":"Khronos glTF Blender I/O v5.0.21",
		"version":"2.0"
	},
	"scene":0,
	"scenes":[
		{
			"name":"Scene",
			"nodes":[
				0
			]
		}
	],
	"nodes":[
		{
			"mesh":0,
			"name":"Cube",
			"translation":[
				0,
				-0.33333706855773926,
				0
			]
		}
	],
	"materials":[
		{
			"doubleSided":true,
			"name":"Material",
			"pbrMetallicRoughness":{
				"metallicFactor":0
			}
		},
		{
			"doubleSided":true,
			"name":"Top",
			"pbrMetallicRoughness":{
				"metallicFactor":0
			}
		}
	],
	"meshes":[
		{
			"name":"Cube.001",
			"primitives":[
				{
					"attributes":{
						"POSITION":0,
						"NORMAL":1,
						"TEXCOORD_0":2,
						"TANGENT":3
					},
					"indices":4,
					"material":0
				},
				{
					"attributes":{
						"POSITION":5,
						"NORMAL":6,
						"TEXCOORD_0":7,
						"TANGENT":8
					},
					"indices":9,
					"material":1
				}
			]
		}
	],
	"accessors":[
		{
			"bufferView":0,
			"componentType":5126,
			"count":2912,
			"max":[
				5.502471923828125,
				54.96726989746094,
				0.3857084810733795
			],
			"min":[
				-82.19612884521484,
				0,
				-110.74333953857422
			],
			"type":"VEC3"
		},
		{
			"bufferView":1,
			"componentType":5126,
			"count":2912,
			"type":"VEC3"
		},
		{
			"bufferView":2,
			"componentType":5126,
			"count":2912,
			"type":"VEC2"
		},
		{
			"bufferView":3,
			"componentType":5126,
			"count":2912,
			"type":"VEC4"
		},
		{
			"bufferView":4,
			"componentType":5123,
			"count":4368,
			"type":"SCALAR"
		},
		{
			"bufferView":5,
			"componentType":5126,
			"count":1456,
			"max":[
				5.502471923828125,
				54.96726989746094,
				0.3857084810733795
			],
			"min":[
				-82.19612884521484,
				0,
				-110.07666778564453
			],
			"type":"VEC3"
		},
		{
			"bufferView":6,
			"componentType":5126,
			"count":1456,
			"type":"VEC3"
		},
		{
			"bufferView":7,
			"componentType":5126,
			"count":1456,
			"type":"VEC2"
		},
		{
			"bufferView":8,
			"componentType":5126,
			"count":1456,
			"type":"VEC4"
		},
		{
			"bufferView":9,
			"componentType":5123,
			"count":2184,
			"type":"SCALAR"
		}
	],
	"bufferViews":[
		{
			"buffer":0,
			"byteLength":34944,
			"byteOffset":0,
			"target":34962
		},
		{
			"buffer":0,
			"byteLength":34944,
			"byteOffset":34944,
			"target":34962
		},
		{
			"buffer":0,
			"byteLength":23296,
			"byteOffset":69888,
			"target":34962
		},
		{
			"buffer":0,
			"byteLength":46592,
			"byteOffset":93184,
			"target":34962
		},
		{
			"buffer":0,
			"byteLength":8736,
			"byteOffset":139776,
			"target":34963
		},
		{
			"buffer":0,
			"byteLength":17472,
			"byteOffset":148512,
			"target":34962
		},
		{
			"buffer":0,
			"byteLength":17472,
			"byteOffset":165984,
			"target":34962
		},
		{
			"buffer":0,
			"byteLength":11648,
			"byteOffset":183456,
			"target":34962
		},
		{
			"buffer":0,
			"byteLength":23296,
			"byteOffset":195104,
			"target":34962
		},
		{
			"buffer":0,
			"byteLength":4368,
			"byteOffset":218400,
			"target":34963
		}
	],
	"buffers":[
		{
			"byteLength":222768,
			"uri":"Stairs-4205b8d51c07ad238b6922661ea2ab9b.bin"
		}
	]
}
