{
	"asset":{
		"generator":"Khronos glTF Blender I/O v5.0.21",
		"version":"2.0"
	},
	"scene":0,
	"scenes":[
		{
			"extras":{
				"geocables_message":"\\\\nCustom Link:",
				"geocables_link":"",
				"thangs_blender_addon_sync_panel_status_message":"",
				"blosm":{
					"defaultLevels":[
						{
							"levels":4,
							"weight":10
						},
						{
							"levels":5,
							"weight":40
						},
						{
							"levels":6,
							"weight":10
						}
					]
				},
				"TM_Props":{},
				"true_sky":{
					"presets":{
						"full_sky_preset":{
							"presets":[
								{
									"name":"Default",
									"display_name":"Default"
								},
								{
									"name":"Morning",
									"display_name":"Morning"
								},
								{
									"name":"Mid-Morning",
									"display_name":"Mid-Morning"
								},
								{
									"name":"Midday",
									"display_name":"Midday"
								},
								{
									"name":"Azure Afternoon",
									"display_name":"Azure Afternoon"
								},
								{
									"name":"Dusty Afternoon",
									"display_name":"Dusty Afternoon"
								},
								{
									"name":"Dusk",
									"display_name":"Dusk"
								},
								{
									"name":"Dusty Dusk",
									"display_name":"Dusty Dusk"
								},
								{
									"name":"Alien Morning",
									"display_name":"Alien Morning"
								},
								{
									"name":"Alien Day",
									"display_name":"Alien Day"
								},
								{
									"name":"Alien Gas Desert",
									"display_name":"Alien Gas Desert"
								},
								{
									"name":"Mars",
									"display_name":"Mars"
								}
							]
						},
						"time_preset":{
							"presets":[
								{
									"name":"Sunrise",
									"display_name":"Sunrise"
								},
								{
									"name":"Morning - Golden Hour End",
									"display_name":"Morning - Golden Hour End"
								},
								{
									"name":"Mid-Morning",
									"display_name":"Mid-Morning"
								},
								{
									"name":"Noon",
									"display_name":"Noon"
								},
								{
									"name":"Afternoon",
									"display_name":"Afternoon"
								},
								{
									"name":"Evening - Golden Hour Start",
									"display_name":"Evening - Golden Hour Start"
								},
								{
									"name":"Sunset",
									"display_name":"Sunset"
								}
							]
						},
						"sol_hsv_preset":{
							"presets":[
								{
									"name":"Base",
									"display_name":"Base"
								},
								{
									"name":"Test",
									"display_name":"Mars"
								},
								{
									"name":"Venus",
									"display_name":"Venus"
								},
								{
									"name":"Saturated",
									"display_name":"Saturated"
								},
								{
									"name":"Desaturated",
									"display_name":"Desaturated"
								}
							]
						},
						"atmosphere_preset":{
							"presets":[
								{
									"name":"Clear",
									"display_name":"Clear"
								},
								{
									"name":"Dusty",
									"display_name":"Dusty"
								}
							]
						},
						"haze_preset":{
							"presets":[
								{
									"name":"Clear",
									"display_name":"Clear"
								},
								{
									"name":"Polluted",
									"display_name":"Polluted"
								},
								{
									"name":"Drab",
									"display_name":"Drab"
								},
								{
									"name":"Other",
									"display_name":"Mars"
								},
								{
									"name":"Green",
									"display_name":"Green"
								}
							]
						},
						"fog_preset":{
							"presets":[
								{
									"name":"Fog Clear",
									"display_name":"Fog Clear"
								},
								{
									"name":"Fog Dense",
									"display_name":"Fog Dense"
								},
								{
									"name":"",
									"display_name":"Fog Blanket"
								},
								{
									"name":"Fog Stormy",
									"display_name":"Fog Stormy"
								},
								{
									"name":"Fog (Sandy)",
									"display_name":"Fog (Sandy/Dust)"
								}
							]
						},
						"night_sky_preset":{
							"presets":[
								{
									"name":"Test",
									"display_name":"Clear Night"
								},
								{
									"name":"Clear Night w/o Moon",
									"display_name":"Clear Night w/o Moon"
								},
								{
									"name":"Test 2",
									"display_name":"Hazy Night"
								},
								{
									"name":"Hazy Night w/o Moon",
									"display_name":"Hazy Night w/o Moon"
								}
							]
						},
						"night_hdris_preset":{
							"presets":[
								{
									"name":"Earth Night",
									"display_name":"Earth Night"
								},
								{
									"name":"Interstellar Nursery",
									"display_name":"Interstellar Nursery"
								},
								{
									"name":"Black Hole",
									"display_name":"Black Hole"
								},
								{
									"name":"Blue Nebula",
									"display_name":"Blue Nebula"
								},
								{
									"name":"Red Nebula",
									"display_name":"Blue Clouds"
								},
								{
									"name":"Red Gas",
									"display_name":"Red Gas"
								},
								{
									"name":"Great Portal",
									"display_name":"Great Portal"
								},
								{
									"name":"Orange Nebula",
									"display_name":"Orange Nebula"
								}
							]
						},
						"moon_preset":{
							"presets":[
								{
									"name":"Base",
									"display_name":"Earth Moon"
								},
								{
									"name":"Super Moon",
									"display_name":"Super Moon"
								}
							]
						},
						"moon_phase_preset":{
							"presets":[
								{
									"name":"Waxing Crescent",
									"display_name":"Waxing Crescent"
								},
								{
									"name":"First Quarter",
									"display_name":"First Quarter"
								},
								{
									"name":"Waxing Gibbous",
									"display_name":"Waxing Gibbous"
								},
								{
									"name":"Full",
									"display_name":"Full"
								},
								{
									"name":"Waning Gibbous",
									"display_name":"Waning Gibbous"
								},
								{
									"name":"Third Quarter",
									"display_name":"Third Quarter"
								},
								{
									"name":"Waning Crescent",
									"display_name":"Waning Crescent"
								}
							]
						},
						"nebula_preset":{
							"presets":[
								{
									"name":"Base",
									"display_name":"Base"
								},
								{
									"name":"Pale Wisp",
									"display_name":"Pale Wisp"
								},
								{
									"name":"Golden Flares",
									"display_name":"Golden Flares"
								}
							]
						},
						"stars_preset":{
							"presets":[
								{
									"name":"Base",
									"display_name":"Base"
								},
								{
									"name":"Deep Space",
									"display_name":"Deep Space"
								},
								{
									"name":"Starry Night",
									"display_name":"Starry Night"
								}
							]
						},
						"night_clarity_preset":{
							"presets":[
								{
									"name":"Base",
									"display_name":"Base"
								},
								{
									"name":"Intense",
									"display_name":"City Lights"
								}
							]
						},
						"cloud_preset":{
							"presets":[
								{
									"name":"tVFX_Clouds-Stratocumulus",
									"display_name":"Stratocumulus"
								},
								{
									"name":"tVFX_Clouds-Cumulus Mediocris",
									"display_name":"Cumulus Mediocris"
								},
								{
									"name":"tVFX_Clouds-Cumulonimbus",
									"display_name":"Cumulonimbus"
								},
								{
									"name":"tVFX_Clouds-Cirrus",
									"display_name":"Cirrus"
								},
								{
									"name":"tVFX_Clouds-Altostratus Translucidus",
									"display_name":"Altostratus Translucidus"
								},
								{
									"name":"tVFX_Clouds-Altostratus Opacus",
									"display_name":"Altostratus Opacus"
								},
								{
									"name":"tVFX_Clouds-Altocumulus",
									"display_name":"Altocumulus"
								}
							]
						}
					},
					"performance":{
						"performance_items":[
							{
								"name":"Testing"
							},
							{
								"name":"Viewport Render Region"
							},
							{
								"name":"Pixel Size"
							},
							{
								"name":"Tile Size"
							},
							{
								"name":"True-Speed"
							}
						]
					}
				},
				"assets used":{},
				"bc":{
					"snap":{
						"hit":false
					},
					"running":0,
					"collection":null,
					"shape":null
				},
				"uuid":"1aa80802-fb2e-4b54-853c-e6096f3bde35",
				"assets reported":{}
			},
			"name":"Scene",
			"nodes":[
				0,
				1,
				2,
				3,
				4,
				5,
				6,
				7,
				8,
				9,
				10,
				11,
				12,
				13,
				14,
				15
			]
		}
	],
	"nodes":[
		{
			"extras":{
				"ant_landscape":{}
			},
			"mesh":0,
			"name":"Helix.002",
			"translation":[
				0,
				0.02397167682647705,
				0
			]
		},
		{
			"extras":{
				"ant_landscape":{}
			},
			"mesh":1,
			"name":"Cube.002",
			"translation":[
				0,
				2,
				0
			]
		},
		{
			"extras":{
				"ant_landscape":{}
			},
			"mesh":2,
			"name":"Helix.001",
			"rotation":[
				0,
				1,
				0,
				0
			],
			"translation":[
				0,
				0.02397167682647705,
				0
			]
		},
		{
			"mesh":3,
			"name":"circle.svg.001_curve_Layer_001",
			"translation":[
				0,
				5.484333038330078,
				0
			]
		},
		{
			"mesh":4,
			"name":"circle.svg.001_curve_Layer_001.001",
			"translation":[
				0,
				0.8455997109413147,
				0
			]
		},
		{
			"mesh":5,
			"name":"circle.svg.001_curve_Layer_001.002",
			"rotation":[
				0,
				-0.30901703238487244,
				0,
				0.9510565996170044
			],
			"scale":[
				0.8099974989891052,
				0.8099974989891052,
				0.8099974989891052
			],
			"translation":[
				0,
				1.0529544353485107,
				0
			]
		},
		{
			"mesh":6,
			"name":"circle.svg.001_curve_Layer_001.003",
			"translation":[
				0,
				0.6261720657348633,
				0
			]
		},
		{
			"mesh":7,
			"name":"circle.svg.001_curve_Layer_001.004",
			"rotation":[
				0,
				-0.5877853035926819,
				0,
				0.80901700258255
			],
			"translation":[
				0,
				1.0981559753417969,
				0
			]
		},
		{
			"mesh":8,
			"name":"circle.svg.001_curve_Layer_001.005",
			"translation":[
				0,
				1.144286870956421,
				0
			]
		},
		{
			"mesh":9,
			"name":"circle.svg.001_curve_Layer_001.006",
			"translation":[
				0,
				1.574763298034668,
				0
			]
		},
		{
			"mesh":10,
			"name":"circle.svg.001_curve_Layer_001.007",
			"rotation":[
				0,
				-0.8660253882408142,
				0,
				0.4999999701976776
			],
			"translation":[
				0,
				1.642124056816101,
				0
			]
		},
		{
			"mesh":11,
			"name":"circle.svg.001_curve_Layer_001.008",
			"translation":[
				0,
				1.9628089666366577,
				0
			]
		},
		{
			"name":"circle.svg.001_curve_Layer_001.009",
			"scale":[
				1.1857200860977173,
				1.1857200860977173,
				1.1857200860977173
			]
		},
		{
			"mesh":12,
			"name":"circle.svg.001_curve_Layer_001.010",
			"rotation":[
				0,
				-0.8660253882408142,
				0,
				0.4999999701976776
			],
			"translation":[
				0,
				1.8494293689727783,
				0
			]
		},
		{
			"mesh":13,
			"name":"circle.svg.001_curve_Layer_001.011",
			"rotation":[
				0,
				-0.8660253882408142,
				0,
				0.4999999701976776
			],
			"translation":[
				0,
				1.7175956964492798,
				0
			]
		},
		{
			"mesh":14,
			"name":"circle.svg.001_curve_Layer_001.012",
			"rotation":[
				0,
				-0.8660253882408142,
				0,
				0.4999999701976776
			],
			"translation":[
				0,
				1.5067487955093384,
				0
			]
		}
	],
	"animations":[
		{
			"channels":[
				{
					"sampler":0,
					"target":{
						"node":3,
						"path":"translation"
					}
				},
				{
					"sampler":1,
					"target":{
						"node":3,
						"path":"rotation"
					}
				},
				{
					"sampler":2,
					"target":{
						"node":3,
						"path":"scale"
					}
				},
				{
					"sampler":3,
					"target":{
						"node":4,
						"path":"translation"
					}
				},
				{
					"sampler":4,
					"target":{
						"node":4,
						"path":"rotation"
					}
				},
				{
					"sampler":5,
					"target":{
						"node":4,
						"path":"scale"
					}
				},
				{
					"sampler":6,
					"target":{
						"node":5,
						"path":"translation"
					}
				},
				{
					"sampler":7,
					"target":{
						"node":5,
						"path":"rotation"
					}
				},
				{
					"sampler":8,
					"target":{
						"node":6,
						"path":"translation"
					}
				},
				{
					"sampler":9,
					"target":{
						"node":6,
						"path":"rotation"
					}
				},
				{
					"sampler":10,
					"target":{
						"node":6,
						"path":"scale"
					}
				},
				{
					"sampler":11,
					"target":{
						"node":7,
						"path":"translation"
					}
				},
				{
					"sampler":12,
					"target":{
						"node":7,
						"path":"rotation"
					}
				},
				{
					"sampler":13,
					"target":{
						"node":7,
						"path":"scale"
					}
				},
				{
					"sampler":14,
					"target":{
						"node":8,
						"path":"translation"
					}
				},
				{
					"sampler":15,
					"target":{
						"node":8,
						"path":"rotation"
					}
				},
				{
					"sampler":16,
					"target":{
						"node":8,
						"path":"scale"
					}
				},
				{
					"sampler":17,
					"target":{
						"node":9,
						"path":"translation"
					}
				},
				{
					"sampler":18,
					"target":{
						"node":9,
						"path":"rotation"
					}
				},
				{
					"sampler":19,
					"target":{
						"node":9,
						"path":"scale"
					}
				},
				{
					"sampler":20,
					"target":{
						"node":10,
						"path":"translation"
					}
				},
				{
					"sampler":21,
					"target":{
						"node":10,
						"path":"rotation"
					}
				},
				{
					"sampler":22,
					"target":{
						"node":10,
						"path":"scale"
					}
				},
				{
					"sampler":23,
					"target":{
						"node":11,
						"path":"translation"
					}
				},
				{
					"sampler":24,
					"target":{
						"node":11,
						"path":"rotation"
					}
				},
				{
					"sampler":25,
					"target":{
						"node":11,
						"path":"scale"
					}
				},
				{
					"sampler":26,
					"target":{
						"node":12,
						"path":"translation"
					}
				},
				{
					"sampler":27,
					"target":{
						"node":12,
						"path":"rotation"
					}
				},
				{
					"sampler":28,
					"target":{
						"node":12,
						"path":"scale"
					}
				},
				{
					"sampler":29,
					"target":{
						"node":13,
						"path":"translation"
					}
				},
				{
					"sampler":30,
					"target":{
						"node":13,
						"path":"rotation"
					}
				},
				{
					"sampler":31,
					"target":{
						"node":13,
						"path":"scale"
					}
				},
				{
					"sampler":32,
					"target":{
						"node":14,
						"path":"translation"
					}
				},
				{
					"sampler":33,
					"target":{
						"node":14,
						"path":"rotation"
					}
				},
				{
					"sampler":34,
					"target":{
						"node":14,
						"path":"scale"
					}
				},
				{
					"sampler":35,
					"target":{
						"node":15,
						"path":"translation"
					}
				},
				{
					"sampler":36,
					"target":{
						"node":15,
						"path":"rotation"
					}
				},
				{
					"sampler":37,
					"target":{
						"node":15,
						"path":"scale"
					}
				}
			],
			"name":"Activate",
			"samplers":[
				{
					"input":72,
					"interpolation":"LINEAR",
					"output":73
				},
				{
					"input":74,
					"interpolation":"STEP",
					"output":75
				},
				{
					"input":72,
					"interpolation":"LINEAR",
					"output":76
				},
				{
					"input":72,
					"interpolation":"LINEAR",
					"output":77
				},
				{
					"input":74,
					"interpolation":"STEP",
					"output":75
				},
				{
					"input":74,
					"interpolation":"STEP",
					"output":78
				},
				{
					"input":72,
					"interpolation":"LINEAR",
					"output":79
				},
				{
					"input":72,
					"interpolation":"LINEAR",
					"output":80
				},
				{
					"input":72,
					"interpolation":"LINEAR",
					"output":81
				},
				{
					"input":74,
					"interpolation":"STEP",
					"output":75
				},
				{
					"input":74,
					"interpolation":"STEP",
					"output":78
				},
				{
					"input":72,
					"interpolation":"LINEAR",
					"output":82
				},
				{
					"input":72,
					"interpolation":"LINEAR",
					"output":83
				},
				{
					"input":74,
					"interpolation":"STEP",
					"output":78
				},
				{
					"input":72,
					"interpolation":"LINEAR",
					"output":84
				},
				{
					"input":74,
					"interpolation":"STEP",
					"output":75
				},
				{
					"input":74,
					"interpolation":"STEP",
					"output":78
				},
				{
					"input":72,
					"interpolation":"LINEAR",
					"output":85
				},
				{
					"input":74,
					"interpolation":"STEP",
					"output":75
				},
				{
					"input":74,
					"interpolation":"STEP",
					"output":78
				},
				{
					"input":72,
					"interpolation":"LINEAR",
					"output":86
				},
				{
					"input":72,
					"interpolation":"LINEAR",
					"output":87
				},
				{
					"input":74,
					"interpolation":"STEP",
					"output":78
				},
				{
					"input":72,
					"interpolation":"LINEAR",
					"output":88
				},
				{
					"input":74,
					"interpolation":"STEP",
					"output":75
				},
				{
					"input":74,
					"interpolation":"STEP",
					"output":78
				},
				{
					"input":74,
					"interpolation":"STEP",
					"output":89
				},
				{
					"input":74,
					"interpolation":"STEP",
					"output":75
				},
				{
					"input":74,
					"interpolation":"STEP",
					"output":90
				},
				{
					"input":72,
					"interpolation":"LINEAR",
					"output":91
				},
				{
					"input":72,
					"interpolation":"LINEAR",
					"output":92
				},
				{
					"input":74,
					"interpolation":"STEP",
					"output":78
				},
				{
					"input":72,
					"interpolation":"LINEAR",
					"output":93
				},
				{
					"input":72,
					"interpolation":"LINEAR",
					"output":92
				},
				{
					"input":74,
					"interpolation":"STEP",
					"output":78
				},
				{
					"input":72,
					"interpolation":"LINEAR",
					"output":94
				},
				{
					"input":72,
					"interpolation":"LINEAR",
					"output":87
				},
				{
					"input":74,
					"interpolation":"STEP",
					"output":78
				}
			]
		},
		{
			"channels":[
				{
					"sampler":0,
					"target":{
						"node":3,
						"path":"translation"
					}
				},
				{
					"sampler":1,
					"target":{
						"node":3,
						"path":"rotation"
					}
				},
				{
					"sampler":2,
					"target":{
						"node":3,
						"path":"scale"
					}
				},
				{
					"sampler":3,
					"target":{
						"node":4,
						"path":"translation"
					}
				},
				{
					"sampler":4,
					"target":{
						"node":5,
						"path":"translation"
					}
				},
				{
					"sampler":5,
					"target":{
						"node":5,
						"path":"rotation"
					}
				},
				{
					"sampler":6,
					"target":{
						"node":5,
						"path":"scale"
					}
				},
				{
					"sampler":7,
					"target":{
						"node":6,
						"path":"translation"
					}
				},
				{
					"sampler":8,
					"target":{
						"node":6,
						"path":"rotation"
					}
				},
				{
					"sampler":9,
					"target":{
						"node":6,
						"path":"scale"
					}
				},
				{
					"sampler":10,
					"target":{
						"node":7,
						"path":"translation"
					}
				},
				{
					"sampler":11,
					"target":{
						"node":7,
						"path":"rotation"
					}
				},
				{
					"sampler":12,
					"target":{
						"node":7,
						"path":"scale"
					}
				},
				{
					"sampler":13,
					"target":{
						"node":8,
						"path":"translation"
					}
				},
				{
					"sampler":14,
					"target":{
						"node":9,
						"path":"translation"
					}
				},
				{
					"sampler":15,
					"target":{
						"node":10,
						"path":"translation"
					}
				},
				{
					"sampler":16,
					"target":{
						"node":10,
						"path":"rotation"
					}
				},
				{
					"sampler":17,
					"target":{
						"node":11,
						"path":"translation"
					}
				},
				{
					"sampler":18,
					"target":{
						"node":12,
						"path":"scale"
					}
				},
				{
					"sampler":19,
					"target":{
						"node":13,
						"path":"translation"
					}
				},
				{
					"sampler":20,
					"target":{
						"node":13,
						"path":"rotation"
					}
				},
				{
					"sampler":21,
					"target":{
						"node":14,
						"path":"translation"
					}
				},
				{
					"sampler":22,
					"target":{
						"node":14,
						"path":"rotation"
					}
				},
				{
					"sampler":23,
					"target":{
						"node":15,
						"path":"translation"
					}
				},
				{
					"sampler":24,
					"target":{
						"node":15,
						"path":"rotation"
					}
				}
			],
			"name":"Idle_activated",
			"samplers":[
				{
					"input":72,
					"interpolation":"LINEAR",
					"output":95
				},
				{
					"input":74,
					"interpolation":"STEP",
					"output":75
				},
				{
					"input":74,
					"interpolation":"STEP",
					"output":78
				},
				{
					"input":74,
					"interpolation":"STEP",
					"output":96
				},
				{
					"input":74,
					"interpolation":"STEP",
					"output":97
				},
				{
					"input":72,
					"interpolation":"LINEAR",
					"output":98
				},
				{
					"input":74,
					"interpolation":"STEP",
					"output":99
				},
				{
					"input":74,
					"interpolation":"STEP",
					"output":100
				},
				{
					"input":74,
					"interpolation":"STEP",
					"output":75
				},
				{
					"input":74,
					"interpolation":"STEP",
					"output":78
				},
				{
					"input":74,
					"interpolation":"STEP",
					"output":101
				},
				{
					"input":72,
					"interpolation":"LINEAR",
					"output":102
				},
				{
					"input":74,
					"interpolation":"STEP",
					"output":78
				},
				{
					"input":74,
					"interpolation":"STEP",
					"output":103
				},
				{
					"input":74,
					"interpolation":"STEP",
					"output":104
				},
				{
					"input":74,
					"interpolation":"STEP",
					"output":105
				},
				{
					"input":72,
					"interpolation":"LINEAR",
					"output":106
				},
				{
					"input":74,
					"interpolation":"STEP",
					"output":107
				},
				{
					"input":74,
					"interpolation":"STEP",
					"output":90
				},
				{
					"input":74,
					"interpolation":"STEP",
					"output":108
				},
				{
					"input":72,
					"interpolation":"LINEAR",
					"output":106
				},
				{
					"input":74,
					"interpolation":"STEP",
					"output":109
				},
				{
					"input":72,
					"interpolation":"LINEAR",
					"output":106
				},
				{
					"input":74,
					"interpolation":"STEP",
					"output":110
				},
				{
					"input":72,
					"interpolation":"LINEAR",
					"output":106
				}
			]
		}
	],
	"meshes":[
		{
			"name":"Helix.002",
			"primitives":[
				{
					"attributes":{
						"POSITION":0,
						"NORMAL":1,
						"TEXCOORD_0":2,
						"TANGENT":3
					},
					"indices":4
				}
			]
		},
		{
			"name":"Cube.003",
			"primitives":[
				{
					"attributes":{
						"POSITION":5,
						"NORMAL":6,
						"TEXCOORD_0":7,
						"TANGENT":8
					},
					"indices":9
				}
			]
		},
		{
			"name":"Helix.004",
			"primitives":[
				{
					"attributes":{
						"POSITION":10,
						"NORMAL":11,
						"TEXCOORD_0":12,
						"TANGENT":13
					},
					"indices":4
				}
			]
		},
		{
			"name":"circle.svg.001_curve_Layer_001",
			"primitives":[
				{
					"attributes":{
						"POSITION":14,
						"NORMAL":15,
						"TEXCOORD_0":16,
						"TANGENT":17
					},
					"indices":18
				}
			]
		},
		{
			"name":"circle.svg.001_curve_Layer_001.001",
			"primitives":[
				{
					"attributes":{
						"POSITION":19,
						"NORMAL":20,
						"TEXCOORD_0":21,
						"TANGENT":22
					},
					"indices":23
				}
			]
		},
		{
			"name":"circle.svg.001_curve_Layer_001.002",
			"primitives":[
				{
					"attributes":{
						"POSITION":24,
						"NORMAL":25,
						"TEXCOORD_0":26,
						"TANGENT":27
					},
					"indices":28
				}
			]
		},
		{
			"name":"circle.svg.001_curve_Layer_001.003",
			"primitives":[
				{
					"attributes":{
						"POSITION":29,
						"NORMAL":30,
						"TEXCOORD_0":31,
						"TANGENT":32
					},
					"indices":33
				}
			]
		},
		{
			"name":"circle.svg.001_curve_Layer_001.004",
			"primitives":[
				{
					"attributes":{
						"POSITION":34,
						"NORMAL":35,
						"TEXCOORD_0":36,
						"TANGENT":37
					},
					"indices":38
				}
			]
		},
		{
			"name":"circle.svg.001_curve_Layer_001.005",
			"primitives":[
				{
					"attributes":{
						"POSITION":39,
						"NORMAL":40,
						"TEXCOORD_0":41,
						"TANGENT":42
					},
					"indices":43
				}
			]
		},
		{
			"name":"circle.svg.001_curve_Layer_001.006",
			"primitives":[
				{
					"attributes":{
						"POSITION":44,
						"NORMAL":45,
						"TEXCOORD_0":46,
						"TANGENT":47
					},
					"indices":48
				}
			]
		},
		{
			"name":"circle.svg.001_curve_Layer_001.007",
			"primitives":[
				{
					"attributes":{
						"POSITION":49,
						"NORMAL":50,
						"TEXCOORD_0":51,
						"TANGENT":52
					},
					"indices":53
				}
			]
		},
		{
			"name":"circle.svg.001_curve_Layer_001.008",
			"primitives":[
				{
					"attributes":{
						"POSITION":54,
						"NORMAL":55,
						"TEXCOORD_0":56,
						"TANGENT":57
					},
					"indices":58
				}
			]
		},
		{
			"name":"circle.svg.001_curve_Layer_001.010",
			"primitives":[
				{
					"attributes":{
						"POSITION":59,
						"NORMAL":60,
						"TEXCOORD_0":61,
						"TANGENT":62
					},
					"indices":53
				}
			]
		},
		{
			"name":"circle.svg.001_curve_Layer_001.011",
			"primitives":[
				{
					"attributes":{
						"POSITION":63,
						"NORMAL":64,
						"TEXCOORD_0":65,
						"TANGENT":66
					},
					"indices":67
				}
			]
		},
		{
			"name":"circle.svg.001_curve_Layer_001.012",
			"primitives":[
				{
					"attributes":{
						"POSITION":68,
						"NORMAL":69,
						"TEXCOORD_0":70,
						"TANGENT":71
					},
					"indices":67
				}
			]
		}
	],
	"accessors":[
		{
			"bufferView":0,
			"componentType":5126,
			"count":279,
			"max":[
				0.2969730794429779,
				2.0376265048980713,
				0.2591007649898529
			],
			"min":[
				-0.2805425524711609,
				-0.057822417467832565,
				-0.3104618787765503
			],
			"type":"VEC3"
		},
		{
			"bufferView":1,
			"componentType":5126,
			"count":279,
			"type":"VEC3"
		},
		{
			"bufferView":2,
			"componentType":5126,
			"count":279,
			"type":"VEC2"
		},
		{
			"bufferView":3,
			"componentType":5126,
			"count":279,
			"type":"VEC4"
		},
		{
			"bufferView":4,
			"componentType":5123,
			"count":1440,
			"type":"SCALAR"
		},
		{
			"bufferView":5,
			"componentType":5126,
			"count":538,
			"max":[
				0.30856162309646606,
				3.301140308380127,
				0.0902881994843483
			],
			"min":[
				-0.30856162309646606,
				-1.999999761581421,
				-0.0902881994843483
			],
			"type":"VEC3"
		},
		{
			"bufferView":6,
			"componentType":5126,
			"count":538,
			"type":"VEC3"
		},
		{
			"bufferView":7,
			"componentType":5126,
			"count":538,
			"type":"VEC2"
		},
		{
			"bufferView":8,
			"componentType":5126,
			"count":538,
			"type":"VEC4"
		},
		{
			"bufferView":9,
			"componentType":5123,
			"count":2064,
			"type":"SCALAR"
		},
		{
			"bufferView":10,
			"componentType":5126,
			"count":279,
			"max":[
				0.2969730794429779,
				2.0376265048980713,
				0.2591007649898529
			],
			"min":[
				-0.2805425524711609,
				-0.057822417467832565,
				-0.3104618787765503
			],
			"type":"VEC3"
		},
		{
			"bufferView":11,
			"componentType":5126,
			"count":279,
			"type":"VEC3"
		},
		{
			"bufferView":12,
			"componentType":5126,
			"count":279,
			"type":"VEC2"
		},
		{
			"bufferView":13,
			"componentType":5126,
			"count":279,
			"type":"VEC4"
		},
		{
			"bufferView":14,
			"componentType":5126,
			"count":370,
			"max":[
				0.16165700554847717,
				0.030000006780028343,
				0.16165666282176971
			],
			"min":[
				-0.16165603697299957,
				-0.030000004917383194,
				-0.16165682673454285
			],
			"type":"VEC3"
		},
		{
			"bufferView":15,
			"componentType":5126,
			"count":370,
			"type":"VEC3"
		},
		{
			"bufferView":16,
			"componentType":5126,
			"count":370,
			"type":"VEC2"
		},
		{
			"bufferView":17,
			"componentType":5126,
			"count":370,
			"type":"VEC4"
		},
		{
			"bufferView":18,
			"componentType":5123,
			"count":1728,
			"type":"SCALAR"
		},
		{
			"bufferView":19,
			"componentType":5126,
			"count":507,
			"max":[
				3.47985577583313,
				0.06000000983476639,
				3.4797451496124268
			],
			"min":[
				-3.4798550605773926,
				-0.06000000983476639,
				-3.4799656867980957
			],
			"type":"VEC3"
		},
		{
			"bufferView":20,
			"componentType":5126,
			"count":507,
			"type":"VEC3"
		},
		{
			"bufferView":21,
			"componentType":5126,
			"count":507,
			"type":"VEC2"
		},
		{
			"bufferView":22,
			"componentType":5126,
			"count":507,
			"type":"VEC4"
		},
		{
			"bufferView":23,
			"componentType":5123,
			"count":2736,
			"type":"SCALAR"
		},
		{
			"bufferView":24,
			"componentType":5126,
			"count":2470,
			"max":[
				3.438488721847534,
				0.030000006780028343,
				3.59942364692688
			],
			"min":[
				-3.438488245010376,
				-0.030000006780028343,
				-2.9707629680633545
			],
			"type":"VEC3"
		},
		{
			"bufferView":25,
			"componentType":5126,
			"count":2470,
			"type":"VEC3"
		},
		{
			"bufferView":26,
			"componentType":5126,
			"count":2470,
			"type":"VEC2"
		},
		{
			"bufferView":27,
			"componentType":5126,
			"count":2470,
			"type":"VEC4"
		},
		{
			"bufferView":28,
			"componentType":5123,
			"count":13320,
			"type":"SCALAR"
		},
		{
			"bufferView":29,
			"componentType":5126,
			"count":481,
			"max":[
				3.286998987197876,
				0.06000002473592758,
				3.2867305278778076
			],
			"min":[
				-3.286836862564087,
				-0.06000000238418579,
				-3.286944627761841
			],
			"type":"VEC3"
		},
		{
			"bufferView":30,
			"componentType":5126,
			"count":481,
			"type":"VEC3"
		},
		{
			"bufferView":31,
			"componentType":5126,
			"count":481,
			"type":"VEC2"
		},
		{
			"bufferView":32,
			"componentType":5126,
			"count":481,
			"type":"VEC4"
		},
		{
			"bufferView":33,
			"componentType":5123,
			"count":2592,
			"type":"SCALAR"
		},
		{
			"bufferView":34,
			"componentType":5126,
			"count":598,
			"max":[
				2.564096450805664,
				0.030000008642673492,
				2.186814785003662
			],
			"min":[
				-2.564095973968506,
				-0.030000008642673492,
				-2.696115732192993
			],
			"type":"VEC3"
		},
		{
			"bufferView":35,
			"componentType":5126,
			"count":598,
			"type":"VEC3"
		},
		{
			"bufferView":36,
			"componentType":5126,
			"count":598,
			"type":"VEC2"
		},
		{
			"bufferView":37,
			"componentType":5126,
			"count":598,
			"type":"VEC4"
		},
		{
			"bufferView":38,
			"componentType":5123,
			"count":3240,
			"type":"SCALAR"
		},
		{
			"bufferView":39,
			"componentType":5126,
			"count":494,
			"max":[
				1.947450876235962,
				0.030000006780028343,
				1.9470651149749756
			],
			"min":[
				-1.947449803352356,
				-0.030000004917383194,
				-1.94783616065979
			],
			"type":"VEC3"
		},
		{
			"bufferView":40,
			"componentType":5126,
			"count":494,
			"type":"VEC3"
		},
		{
			"bufferView":41,
			"componentType":5126,
			"count":494,
			"type":"VEC2"
		},
		{
			"bufferView":42,
			"componentType":5126,
			"count":494,
			"type":"VEC4"
		},
		{
			"bufferView":43,
			"componentType":5123,
			"count":2664,
			"type":"SCALAR"
		},
		{
			"bufferView":44,
			"componentType":5126,
			"count":494,
			"max":[
				1.4658677577972412,
				0.030000006780028343,
				1.4656672477722168
			],
			"min":[
				-1.4658668041229248,
				-0.030000006780028343,
				-1.4660671949386597
			],
			"type":"VEC3"
		},
		{
			"bufferView":45,
			"componentType":5126,
			"count":494,
			"type":"VEC3"
		},
		{
			"bufferView":46,
			"componentType":5126,
			"count":494,
			"type":"VEC2"
		},
		{
			"bufferView":47,
			"componentType":5126,
			"count":494,
			"type":"VEC4"
		},
		{
			"bufferView":48,
			"componentType":5123,
			"count":2664,
			"type":"SCALAR"
		},
		{
			"bufferView":49,
			"componentType":5126,
			"count":364,
			"max":[
				2.16709303855896,
				0.030000006780028343,
				2.5022776126861572
			],
			"min":[
				-2.1670920848846436,
				-0.030000006780028343,
				-1.2662371397018433
			],
			"type":"VEC3"
		},
		{
			"bufferView":50,
			"componentType":5126,
			"count":364,
			"type":"VEC3"
		},
		{
			"bufferView":51,
			"componentType":5126,
			"count":364,
			"type":"VEC2"
		},
		{
			"bufferView":52,
			"componentType":5126,
			"count":364,
			"type":"VEC4"
		},
		{
			"bufferView":53,
			"componentType":5123,
			"count":1944,
			"type":"SCALAR"
		},
		{
			"bufferView":54,
			"componentType":5126,
			"count":494,
			"max":[
				0.7648888230323792,
				0.030000008642673492,
				0.7651907205581665
			],
			"min":[
				-0.7648891806602478,
				-0.030000008642673492,
				-0.7645876407623291
			],
			"type":"VEC3"
		},
		{
			"bufferView":55,
			"componentType":5126,
			"count":494,
			"type":"VEC3"
		},
		{
			"bufferView":56,
			"componentType":5126,
			"count":494,
			"type":"VEC2"
		},
		{
			"bufferView":57,
			"componentType":5126,
			"count":494,
			"type":"VEC4"
		},
		{
			"bufferView":58,
			"componentType":5123,
			"count":2664,
			"type":"SCALAR"
		},
		{
			"bufferView":59,
			"componentType":5126,
			"count":364,
			"max":[
				1.2483160495758057,
				0.030000004917383194,
				1.4413654804229736
			],
			"min":[
				-1.248315691947937,
				-0.030000006780028343,
				-0.7357810735702515
			],
			"type":"VEC3"
		},
		{
			"bufferView":60,
			"componentType":5126,
			"count":364,
			"type":"VEC3"
		},
		{
			"bufferView":61,
			"componentType":5126,
			"count":364,
			"type":"VEC2"
		},
		{
			"bufferView":62,
			"componentType":5126,
			"count":364,
			"type":"VEC4"
		},
		{
			"bufferView":63,
			"componentType":5126,
			"count":1482,
			"max":[
				1.6870719194412231,
				0.030000006780028343,
				1.8763197660446167
			],
			"min":[
				-1.687071681022644,
				-0.030000006780028343,
				-1.1707266569137573
			],
			"type":"VEC3"
		},
		{
			"bufferView":64,
			"componentType":5126,
			"count":1482,
			"type":"VEC3"
		},
		{
			"bufferView":65,
			"componentType":5126,
			"count":1482,
			"type":"VEC2"
		},
		{
			"bufferView":66,
			"componentType":5126,
			"count":1482,
			"type":"VEC4"
		},
		{
			"bufferView":67,
			"componentType":5123,
			"count":7992,
			"type":"SCALAR"
		},
		{
			"bufferView":68,
			"componentType":5126,
			"count":1482,
			"max":[
				2.524749279022217,
				0.030000008642673492,
				2.8556649684906006
			],
			"min":[
				-2.5247485637664795,
				-0.030000008642673492,
				-1.619910478591919
			],
			"type":"VEC3"
		},
		{
			"bufferView":69,
			"componentType":5126,
			"count":1482,
			"type":"VEC3"
		},
		{
			"bufferView":70,
			"componentType":5126,
			"count":1482,
			"type":"VEC2"
		},
		{
			"bufferView":71,
			"componentType":5126,
			"count":1482,
			"type":"VEC4"
		},
		{
			"bufferView":72,
			"componentType":5126,
			"count":48,
			"max":[
				2
			],
			"min":[
				0.041666666666666664
			],
			"type":"SCALAR"
		},
		{
			"bufferView":73,
			"componentType":5126,
			"count":48,
			"type":"VEC3"
		},
		{
			"bufferView":74,
			"componentType":5126,
			"count":2,
			"max":[
				2
			],
			"min":[
				0.041666666666666664
			],
			"type":"SCALAR"
		},
		{
			"bufferView":75,
			"componentType":5126,
			"count":2,
			"type":"VEC4"
		},
		{
			"bufferView":76,
			"componentType":5126,
			"count":48,
			"type":"VEC3"
		},
		{
			"bufferView":77,
			"componentType":5126,
			"count":48,
			"type":"VEC3"
		},
		{
			"bufferView":78,
			"componentType":5126,
			"count":2,
			"type":"VEC3"
		},
		{
			"bufferView":79,
			"componentType":5126,
			"count":48,
			"type":"VEC3"
		},
		{
			"bufferView":80,
			"componentType":5126,
			"count":48,
			"type":"VEC4"
		},
		{
			"bufferView":81,
			"componentType":5126,
			"count":48,
			"type":"VEC3"
		},
		{
			"bufferView":82,
			"componentType":5126,
			"count":48,
			"type":"VEC3"
		},
		{
			"bufferView":83,
			"componentType":5126,
			"count":48,
			"type":"VEC4"
		},
		{
			"bufferView":84,
			"componentType":5126,
			"count":48,
			"type":"VEC3"
		},
		{
			"bufferView":85,
			"componentType":5126,
			"count":48,
			"type":"VEC3"
		},
		{
			"bufferView":86,
			"componentType":5126,
			"count":48,
			"type":"VEC3"
		},
		{
			"bufferView":87,
			"componentType":5126,
			"count":48,
			"type":"VEC4"
		},
		{
			"bufferView":88,
			"componentType":5126,
			"count":48,
			"type":"VEC3"
		},
		{
			"bufferView":89,
			"componentType":5126,
			"count":2,
			"type":"VEC3"
		},
		{
			"bufferView":90,
			"componentType":5126,
			"count":2,
			"type":"VEC3"
		},
		{
			"bufferView":91,
			"componentType":5126,
			"count":48,
			"type":"VEC3"
		},
		{
			"bufferView":92,
			"componentType":5126,
			"count":48,
			"type":"VEC4"
		},
		{
			"bufferView":93,
			"componentType":5126,
			"count":48,
			"type":"VEC3"
		},
		{
			"bufferView":94,
			"componentType":5126,
			"count":48,
			"type":"VEC3"
		},
		{
			"bufferView":95,
			"componentType":5126,
			"count":48,
			"type":"VEC3"
		},
		{
			"bufferView":96,
			"componentType":5126,
			"count":2,
			"type":"VEC3"
		},
		{
			"bufferView":97,
			"componentType":5126,
			"count":2,
			"type":"VEC3"
		},
		{
			"bufferView":98,
			"componentType":5126,
			"count":48,
			"type":"VEC4"
		},
		{
			"bufferView":99,
			"componentType":5126,
			"count":2,
			"type":"VEC3"
		},
		{
			"bufferView":100,
			"componentType":5126,
			"count":2,
			"type":"VEC3"
		},
		{
			"bufferView":101,
			"componentType":5126,
			"count":2,
			"type":"VEC3"
		},
		{
			"bufferView":102,
			"componentType":5126,
			"count":48,
			"type":"VEC4"
		},
		{
			"bufferView":103,
			"componentType":5126,
			"count":2,
			"type":"VEC3"
		},
		{
			"bufferView":104,
			"componentType":5126,
			"count":2,
			"type":"VEC3"
		},
		{
			"bufferView":105,
			"componentType":5126,
			"count":2,
			"type":"VEC3"
		},
		{
			"bufferView":106,
			"componentType":5126,
			"count":48,
			"type":"VEC4"
		},
		{
			"bufferView":107,
			"componentType":5126,
			"count":2,
			"type":"VEC3"
		},
		{
			"bufferView":108,
			"componentType":5126,
			"count":2,
			"type":"VEC3"
		},
		{
			"bufferView":109,
			"componentType":5126,
			"count":2,
			"type":"VEC3"
		},
		{
			"bufferView":110,
			"componentType":5126,
			"count":2,
			"type":"VEC3"
		}
	],
	"bufferViews":[
		{
			"buffer":0,
			"byteLength":3348,
			"byteOffset":0,
			"target":34962
		},
		{
			"buffer":0,
			"byteLength":3348,
			"byteOffset":3348,
			"target":34962
		},
		{
			"buffer":0,
			"byteLength":2232,
			"byteOffset":6696,
			"target":34962
		},
		{
			"buffer":0,
			"byteLength":4464,
			"byteOffset":8928,
			"target":34962
		},
		{
			"buffer":0,
			"byteLength":2880,
			"byteOffset":13392,
			"target":34963
		},
		{
			"buffer":0,
			"byteLength":6456,
			"byteOffset":16272,
			"target":34962
		},
		{
			"buffer":0,
			"byteLength":6456,
			"byteOffset":22728,
			"target":34962
		},
		{
			"buffer":0,
			"byteLength":4304,
			"byteOffset":29184,
			"target":34962
		},
		{
			"buffer":0,
			"byteLength":8608,
			"byteOffset":33488,
			"target":34962
		},
		{
			"buffer":0,
			"byteLength":4128,
			"byteOffset":42096,
			"target":34963
		},
		{
			"buffer":0,
			"byteLength":3348,
			"byteOffset":46224,
			"target":34962
		},
		{
			"buffer":0,
			"byteLength":3348,
			"byteOffset":49572,
			"target":34962
		},
		{
			"buffer":0,
			"byteLength":2232,
			"byteOffset":52920,
			"target":34962
		},
		{
			"buffer":0,
			"byteLength":4464,
			"byteOffset":55152,
			"target":34962
		},
		{
			"buffer":0,
			"byteLength":4440,
			"byteOffset":59616,
			"target":34962
		},
		{
			"buffer":0,
			"byteLength":4440,
			"byteOffset":64056,
			"target":34962
		},
		{
			"buffer":0,
			"byteLength":2960,
			"byteOffset":68496,
			"target":34962
		},
		{
			"buffer":0,
			"byteLength":5920,
			"byteOffset":71456,
			"target":34962
		},
		{
			"buffer":0,
			"byteLength":3456,
			"byteOffset":77376,
			"target":34963
		},
		{
			"buffer":0,
			"byteLength":6084,
			"byteOffset":80832,
			"target":34962
		},
		{
			"buffer":0,
			"byteLength":6084,
			"byteOffset":86916,
			"target":34962
		},
		{
			"buffer":0,
			"byteLength":4056,
			"byteOffset":93000,
			"target":34962
		},
		{
			"buffer":0,
			"byteLength":8112,
			"byteOffset":97056,
			"target":34962
		},
		{
			"buffer":0,
			"byteLength":5472,
			"byteOffset":105168,
			"target":34963
		},
		{
			"buffer":0,
			"byteLength":29640,
			"byteOffset":110640,
			"target":34962
		},
		{
			"buffer":0,
			"byteLength":29640,
			"byteOffset":140280,
			"target":34962
		},
		{
			"buffer":0,
			"byteLength":19760,
			"byteOffset":169920,
			"target":34962
		},
		{
			"buffer":0,
			"byteLength":39520,
			"byteOffset":189680,
			"target":34962
		},
		{
			"buffer":0,
			"byteLength":26640,
			"byteOffset":229200,
			"target":34963
		},
		{
			"buffer":0,
			"byteLength":5772,
			"byteOffset":255840,
			"target":34962
		},
		{
			"buffer":0,
			"byteLength":5772,
			"byteOffset":261612,
			"target":34962
		},
		{
			"buffer":0,
			"byteLength":3848,
			"byteOffset":267384,
			"target":34962
		},
		{
			"buffer":0,
			"byteLength":7696,
			"byteOffset":271232,
			"target":34962
		},
		{
			"buffer":0,
			"byteLength":5184,
			"byteOffset":278928,
			"target":34963
		},
		{
			"buffer":0,
			"byteLength":7176,
			"byteOffset":284112,
			"target":34962
		},
		{
			"buffer":0,
			"byteLength":7176,
			"byteOffset":291288,
			"target":34962
		},
		{
			"buffer":0,
			"byteLength":4784,
			"byteOffset":298464,
			"target":34962
		},
		{
			"buffer":0,
			"byteLength":9568,
			"byteOffset":303248,
			"target":34962
		},
		{
			"buffer":0,
			"byteLength":6480,
			"byteOffset":312816,
			"target":34963
		},
		{
			"buffer":0,
			"byteLength":5928,
			"byteOffset":319296,
			"target":34962
		},
		{
			"buffer":0,
			"byteLength":5928,
			"byteOffset":325224,
			"target":34962
		},
		{
			"buffer":0,
			"byteLength":3952,
			"byteOffset":331152,
			"target":34962
		},
		{
			"buffer":0,
			"byteLength":7904,
			"byteOffset":335104,
			"target":34962
		},
		{
			"buffer":0,
			"byteLength":5328,
			"byteOffset":343008,
			"target":34963
		},
		{
			"buffer":0,
			"byteLength":5928,
			"byteOffset":348336,
			"target":34962
		},
		{
			"buffer":0,
			"byteLength":5928,
			"byteOffset":354264,
			"target":34962
		},
		{
			"buffer":0,
			"byteLength":3952,
			"byteOffset":360192,
			"target":34962
		},
		{
			"buffer":0,
			"byteLength":7904,
			"byteOffset":364144,
			"target":34962
		},
		{
			"buffer":0,
			"byteLength":5328,
			"byteOffset":372048,
			"target":34963
		},
		{
			"buffer":0,
			"byteLength":4368,
			"byteOffset":377376,
			"target":34962
		},
		{
			"buffer":0,
			"byteLength":4368,
			"byteOffset":381744,
			"target":34962
		},
		{
			"buffer":0,
			"byteLength":2912,
			"byteOffset":386112,
			"target":34962
		},
		{
			"buffer":0,
			"byteLength":5824,
			"byteOffset":389024,
			"target":34962
		},
		{
			"buffer":0,
			"byteLength":3888,
			"byteOffset":394848,
			"target":34963
		},
		{
			"buffer":0,
			"byteLength":5928,
			"byteOffset":398736,
			"target":34962
		},
		{
			"buffer":0,
			"byteLength":5928,
			"byteOffset":404664,
			"target":34962
		},
		{
			"buffer":0,
			"byteLength":3952,
			"byteOffset":410592,
			"target":34962
		},
		{
			"buffer":0,
			"byteLength":7904,
			"byteOffset":414544,
			"target":34962
		},
		{
			"buffer":0,
			"byteLength":5328,
			"byteOffset":422448,
			"target":34963
		},
		{
			"buffer":0,
			"byteLength":4368,
			"byteOffset":427776,
			"target":34962
		},
		{
			"buffer":0,
			"byteLength":4368,
			"byteOffset":432144,
			"target":34962
		},
		{
			"buffer":0,
			"byteLength":2912,
			"byteOffset":436512,
			"target":34962
		},
		{
			"buffer":0,
			"byteLength":5824,
			"byteOffset":439424,
			"target":34962
		},
		{
			"buffer":0,
			"byteLength":17784,
			"byteOffset":445248,
			"target":34962
		},
		{
			"buffer":0,
			"byteLength":17784,
			"byteOffset":463032,
			"target":34962
		},
		{
			"buffer":0,
			"byteLength":11856,
			"byteOffset":480816,
			"target":34962
		},
		{
			"buffer":0,
			"byteLength":23712,
			"byteOffset":492672,
			"target":34962
		},
		{
			"buffer":0,
			"byteLength":15984,
			"byteOffset":516384,
			"target":34963
		},
		{
			"buffer":0,
			"byteLength":17784,
			"byteOffset":532368,
			"target":34962
		},
		{
			"buffer":0,
			"byteLength":17784,
			"byteOffset":550152,
			"target":34962
		},
		{
			"buffer":0,
			"byteLength":11856,
			"byteOffset":567936,
			"target":34962
		},
		{
			"buffer":0,
			"byteLength":23712,
			"byteOffset":579792,
			"target":34962
		},
		{
			"buffer":0,
			"byteLength":192,
			"byteOffset":603504
		},
		{
			"buffer":0,
			"byteLength":576,
			"byteOffset":603696
		},
		{
			"buffer":0,
			"byteLength":8,
			"byteOffset":604272
		},
		{
			"buffer":0,
			"byteLength":32,
			"byteOffset":604280
		},
		{
			"buffer":0,
			"byteLength":576,
			"byteOffset":604312
		},
		{
			"buffer":0,
			"byteLength":576,
			"byteOffset":604888
		},
		{
			"buffer":0,
			"byteLength":24,
			"byteOffset":605464
		},
		{
			"buffer":0,
			"byteLength":576,
			"byteOffset":605488
		},
		{
			"buffer":0,
			"byteLength":768,
			"byteOffset":606064
		},
		{
			"buffer":0,
			"byteLength":576,
			"byteOffset":606832
		},
		{
			"buffer":0,
			"byteLength":576,
			"byteOffset":607408
		},
		{
			"buffer":0,
			"byteLength":768,
			"byteOffset":607984
		},
		{
			"buffer":0,
			"byteLength":576,
			"byteOffset":608752
		},
		{
			"buffer":0,
			"byteLength":576,
			"byteOffset":609328
		},
		{
			"buffer":0,
			"byteLength":576,
			"byteOffset":609904
		},
		{
			"buffer":0,
			"byteLength":768,
			"byteOffset":610480
		},
		{
			"buffer":0,
			"byteLength":576,
			"byteOffset":611248
		},
		{
			"buffer":0,
			"byteLength":24,
			"byteOffset":611824
		},
		{
			"buffer":0,
			"byteLength":24,
			"byteOffset":611848
		},
		{
			"buffer":0,
			"byteLength":576,
			"byteOffset":611872
		},
		{
			"buffer":0,
			"byteLength":768,
			"byteOffset":612448
		},
		{
			"buffer":0,
			"byteLength":576,
			"byteOffset":613216
		},
		{
			"buffer":0,
			"byteLength":576,
			"byteOffset":613792
		},
		{
			"buffer":0,
			"byteLength":576,
			"byteOffset":614368
		},
		{
			"buffer":0,
			"byteLength":24,
			"byteOffset":614944
		},
		{
			"buffer":0,
			"byteLength":24,
			"byteOffset":614968
		},
		{
			"buffer":0,
			"byteLength":768,
			"byteOffset":614992
		},
		{
			"buffer":0,
			"byteLength":24,
			"byteOffset":615760
		},
		{
			"buffer":0,
			"byteLength":24,
			"byteOffset":615784
		},
		{
			"buffer":0,
			"byteLength":24,
			"byteOffset":615808
		},
		{
			"buffer":0,
			"byteLength":768,
			"byteOffset":615832
		},
		{
			"buffer":0,
			"byteLength":24,
			"byteOffset":616600
		},
		{
			"buffer":0,
			"byteLength":24,
			"byteOffset":616624
		},
		{
			"buffer":0,
			"byteLength":24,
			"byteOffset":616648
		},
		{
			"buffer":0,
			"byteLength":768,
			"byteOffset":616672
		},
		{
			"buffer":0,
			"byteLength":24,
			"byteOffset":617440
		},
		{
			"buffer":0,
			"byteLength":24,
			"byteOffset":617464
		},
		{
			"buffer":0,
			"byteLength":24,
			"byteOffset":617488
		},
		{
			"buffer":0,
			"byteLength":24,
			"byteOffset":617512
		}
	],
	"buffers":[
		{
			"byteLength":617536,
			"uri":"tuning%20fork-a4cd9f2f7c58828d15ddd90e07201791.bin"
		}
	]
}
