{
	"asset":{
		"generator":"Khronos glTF Blender I/O v5.0.21",
		"version":"2.0"
	},
	"scene":0,
	"scenes":[
		{
			"name":"Scene",
			"nodes":[
				0
			]
		}
	],
	"nodes":[
		{
			"mesh":0,
			"name":"Cube",
			"rotation":[
				0,
				1,
				0,
				0
			],
			"scale":[
				-1,
				-5.129018783569336,
				-1
			],
			"translation":[
				31.399383544921875,
				-18.865467071533203,
				-25.934743881225586
			]
		}
	],
	"meshes":[
		{
			"name":"Cube.028",
			"primitives":[
				{
					"attributes":{
						"POSITION":0,
						"NORMAL":1,
						"TEXCOORD_0":2,
						"TANGENT":3
					},
					"indices":4
				}
			]
		}
	],
	"accessors":[
		{
			"bufferView":0,
			"componentType":5126,
			"count":6984,
			"max":[
				185.31243896484375,
				2.388258934020996,
				253.04647827148438
			],
			"min":[
				-248.1148223876953,
				-5.520020961761475,
				-186.18972778320312
			],
			"type":"VEC3"
		},
		{
			"bufferView":1,
			"componentType":5126,
			"count":6984,
			"type":"VEC3"
		},
		{
			"bufferView":2,
			"componentType":5126,
			"count":6984,
			"type":"VEC2"
		},
		{
			"bufferView":3,
			"componentType":5126,
			"count":6984,
			"type":"VEC4"
		},
		{
			"bufferView":4,
			"componentType":5123,
			"count":10476,
			"type":"SCALAR"
		}
	],
	"bufferViews":[
		{
			"buffer":0,
			"byteLength":83808,
			"byteOffset":0,
			"target":34962
		},
		{
			"buffer":0,
			"byteLength":83808,
			"byteOffset":83808,
			"target":34962
		},
		{
			"buffer":0,
			"byteLength":55872,
			"byteOffset":167616,
			"target":34962
		},
		{
			"buffer":0,
			"byteLength":111744,
			"byteOffset":223488,
			"target":34962
		},
		{
			"buffer":0,
			"byteLength":20952,
			"byteOffset":335232,
			"target":34963
		}
	],
	"buffers":[
		{
			"byteLength":356184,
			"uri":"WorldFence-dada0ef1356f958af418d938e92503d0.bin"
		}
	]
}
